<svg width="40" height="42" viewBox="0 0 40 42" fill="none" xmlns="http://www.w3.org/2000/svg">
<path d="M39.0588 5.16309H0.855225V32.7154H39.0588V5.16309Z" fill="white"/>
<path d="M6.02599 31.4256C4.69148 31.4256 3.3575 31.4699 2.0309 31.3887C1.85228 31.3334 1.69073 31.2334 1.56155 31.0983C1.43237 30.9631 1.33985 30.7972 1.29273 30.6162C1.21312 29.3213 1.2574 28.0194 1.2574 26.7213C3.54889 26.6775 5.89576 29.0023 6.02599 31.4256Z" fill="#B2DDCD"/>
<path d="M33.9727 6.08997C35.3409 6.08997 36.7039 6.05731 38.0621 6.12058C38.2179 6.16576 38.3595 6.2501 38.4734 6.36558C38.5873 6.48105 38.6697 6.62379 38.7128 6.78018C38.776 8.1363 38.7434 9.49663 38.7434 10.8644C37.5208 10.7375 36.3792 10.1936 35.5104 9.32418C34.6416 8.45471 34.0986 7.31264 33.9727 6.08997Z" fill="#B2DDCD"/>
<path d="M33.7834 31.463C33.911 30.2412 34.4541 29.1002 35.322 28.2308C36.1899 27.3613 37.3299 26.8162 38.5515 26.6865C38.5515 28.0511 38.5842 29.4093 38.5209 30.7633C38.4802 30.9204 38.3998 31.0643 38.2876 31.1815C38.1753 31.2986 38.0349 31.385 37.8798 31.4324C36.5184 31.4962 35.1522 31.463 33.7834 31.463Z" fill="#B2DDCD"/>
<path d="M1.29173 10.8582C1.29173 9.48728 1.24586 8.1844 1.32864 6.89155C1.38291 6.71109 1.48233 6.54746 1.6175 6.41616C1.75268 6.28486 1.91912 6.19026 2.10108 6.14126C3.39341 6.06006 4.69418 6.10538 5.99442 6.10538C5.88294 7.31988 5.35298 8.45796 4.49516 9.32491C3.63735 10.1919 2.50498 10.7338 1.29173 10.8582Z" fill="#B2DDCD"/>
<path d="M0.606353 12.1106C0.445537 12.1106 0.291309 12.0467 0.177595 11.933C0.0638813 11.8192 0 11.665 0 11.5042C0 11.3434 0.0638813 11.1892 0.177595 11.0754C0.291309 10.9617 0.445537 10.8978 0.606353 10.8978C2.05252 10.8963 3.43902 10.3212 4.46162 9.29856C5.48421 8.27596 6.05938 6.88945 6.06092 5.44328C6.06092 5.28247 6.1248 5.12824 6.23851 5.01453C6.35223 4.90081 6.50646 4.83691 6.66727 4.83691C6.82809 4.83691 6.98232 4.90081 7.09603 5.01453C7.20974 5.12824 7.27362 5.28247 7.27362 5.44328C7.27181 7.211 6.56879 8.90579 5.31882 10.1558C4.06886 11.4057 2.37407 12.1088 0.606353 12.1106Z" fill="white"/>
<path d="M6.66676 32.7149C6.5064 32.7148 6.35262 32.6511 6.23908 32.5379C6.12554 32.4246 6.06148 32.271 6.06092 32.1106C6.05938 30.6645 5.48421 29.278 4.46162 28.2554C3.43902 27.2328 2.05252 26.6576 0.606353 26.6561C0.445537 26.6561 0.291309 26.5922 0.177595 26.4785C0.0638813 26.3648 0 26.2105 0 26.0497C0 25.8889 0.0638813 25.7347 0.177595 25.621C0.291309 25.5073 0.445537 25.4434 0.606353 25.4434C2.37398 25.4453 4.06864 26.1484 5.31849 27.3984C6.56834 28.6483 7.2713 30.343 7.27311 32.1106C7.27255 32.2711 7.20841 32.4248 7.09476 32.5381C6.98111 32.6513 6.82721 32.7149 6.66676 32.7149Z" fill="white"/>
<path d="M39.3925 12.1115C37.6251 12.1094 35.9307 11.4063 34.6809 10.1565C33.4312 8.90666 32.7283 7.21216 32.7263 5.44472C32.7263 5.2839 32.7902 5.12967 32.9039 5.01596C33.0176 4.90224 33.1719 4.83838 33.3327 4.83838C33.4935 4.83838 33.6477 4.90224 33.7614 5.01596C33.8751 5.12967 33.939 5.2839 33.939 5.44472C33.9406 6.89089 34.5157 8.2774 35.5383 9.29999C36.5609 10.3226 37.9474 10.8978 39.3936 10.8993C39.5544 10.8993 39.7086 10.9632 39.8223 11.0769C39.9361 11.1906 40 11.3448 40 11.5056C40 11.6665 39.9361 11.8207 39.8223 11.9344C39.7086 12.0481 39.5544 12.112 39.3936 12.112L39.3925 12.1115Z" fill="white"/>
<path d="M33.3321 32.7148C33.1717 32.7148 33.0179 32.6512 32.9043 32.5379C32.7907 32.4247 32.7267 32.271 32.7263 32.1106C32.7284 30.3432 33.4314 28.6489 34.6811 27.3992C35.9308 26.1494 37.6252 25.4464 39.3925 25.4443C39.5534 25.4443 39.7076 25.5082 39.8213 25.6219C39.935 25.7357 39.9989 25.8899 39.9989 26.0507C39.9989 26.2115 39.935 26.3657 39.8213 26.4795C39.7076 26.5932 39.5534 26.657 39.3925 26.657C37.9467 26.6589 36.5606 27.234 35.5381 28.2563C34.5157 29.2786 33.9405 30.6647 33.9385 32.1106C33.938 32.271 33.8738 32.4247 33.7602 32.538C33.6465 32.6512 33.4926 32.7148 33.3321 32.7148Z" fill="white"/>
<path d="M24.242 10.8973H15.7572C15.5964 10.8973 15.4422 10.8334 15.3285 10.7197C15.2148 10.606 15.1509 10.4518 15.1509 10.2909C15.1509 10.1301 15.2148 9.9759 15.3285 9.86218C15.4422 9.74847 15.5964 9.68457 15.7572 9.68457H24.242C24.4028 9.68457 24.557 9.74847 24.6708 9.86218C24.7845 9.9759 24.8484 10.1301 24.8484 10.2909C24.8484 10.4518 24.7845 10.606 24.6708 10.7197C24.557 10.8334 24.4028 10.8973 24.242 10.8973Z" fill="#231F56"/>
<path d="M33.9383 16.3519H6.0607C5.89988 16.3519 5.74565 16.288 5.63194 16.1743C5.51823 16.0606 5.45435 15.9063 5.45435 15.7455C5.45435 15.5847 5.51823 15.4305 5.63194 15.3168C5.74565 15.2031 5.89988 15.1392 6.0607 15.1392H33.9383C34.0991 15.1392 34.2534 15.2031 34.3671 15.3168C34.4808 15.4305 34.5447 15.5847 34.5447 15.7455C34.5447 15.9063 34.4808 16.0606 34.3671 16.1743C34.2534 16.288 34.0991 16.3519 33.9383 16.3519Z" fill="#231F56"/>
<path d="M33.8873 19.9896H6.00967C5.84886 19.9896 5.69463 19.9257 5.58092 19.812C5.4672 19.6983 5.40332 19.544 5.40332 19.3832C5.40332 19.2224 5.4672 19.0682 5.58092 18.9545C5.69463 18.8408 5.84886 18.7769 6.00967 18.7769H33.8873C34.0481 18.7769 34.2023 18.8408 34.316 18.9545C34.4298 19.0682 34.4936 19.2224 34.4936 19.3832C34.4936 19.544 34.4298 19.6983 34.316 19.812C34.2023 19.9257 34.0481 19.9896 33.8873 19.9896Z" fill="#231F56"/>
<path d="M19.9361 37.7276C23.3338 37.7276 26.0882 34.9732 26.0882 31.5755C26.0882 28.1777 23.3338 25.4233 19.9361 25.4233C16.5383 25.4233 13.7839 28.1777 13.7839 31.5755C13.7839 34.9732 16.5383 37.7276 19.9361 37.7276Z" fill="white"/>
<path d="M33.9383 23.6243H6.0607C5.89988 23.6243 5.74565 23.5605 5.63194 23.4467C5.51823 23.333 5.45435 23.1788 5.45435 23.018C5.45435 22.8572 5.51823 22.7029 5.63194 22.5892C5.74565 22.4755 5.89988 22.4116 6.0607 22.4116H33.9383C34.0991 22.4116 34.2534 22.4755 34.3671 22.5892C34.4808 22.7029 34.5447 22.8572 34.5447 23.018C34.5447 23.1788 34.4808 23.333 34.3671 23.4467C34.2534 23.5605 34.0991 23.6243 33.9383 23.6243Z" fill="#231F56"/>
<path d="M20.7705 37.6036C20.5172 37.3885 20.2026 37.2586 19.8714 37.2324C19.5401 37.2062 19.209 37.285 18.9251 37.4575C18.747 37.1698 18.4818 36.9463 18.1681 36.8195C17.8543 36.6928 17.5083 36.6693 17.1804 36.7526C16.5661 36.6593 15.9828 36.4216 15.4784 36.0589C14.9739 35.6963 14.5628 35.2191 14.2787 34.6665C13.9947 34.114 13.8459 33.5019 13.8445 32.8806C13.8431 32.2594 13.9893 31.6467 14.2709 31.0929C14.7613 30.3835 14.9938 29.5275 14.9295 28.6675C14.9299 28.2467 15.0972 27.8434 15.3948 27.5459C15.6923 27.2484 16.0958 27.0812 16.5165 27.0809C17.6211 26.6086 18.708 26.0959 19.775 25.5439C20.0184 25.7641 20.324 25.9034 20.6498 25.9429C20.9756 25.9824 21.3057 25.92 21.5946 25.7644C22.762 26.484 23.8055 27.3874 24.6849 28.4397C24.685 28.5102 24.6804 28.5807 24.6712 28.6506C25.0233 29.7851 25.4506 30.8948 25.9504 31.9724C25.6648 32.1607 25.4478 32.4363 25.3319 32.7581C25.2159 33.0799 25.2073 33.4305 25.3071 33.7577C25.3573 34.1758 25.3096 34.5999 25.1677 34.9965C25.0259 35.3931 24.7938 35.7512 24.4898 36.0427C24.1858 36.3341 23.8182 36.551 23.4161 36.676C23.0139 36.801 22.5882 36.8308 22.1725 36.7631C22.0369 37.0171 21.8348 37.2295 21.5879 37.3775C21.3409 37.5255 21.0584 37.6037 20.7705 37.6036ZM19.8214 35.6564C19.8372 35.6564 19.8536 35.6564 19.8694 35.6564C19.995 35.6664 20.1145 35.7152 20.211 35.7962C20.3076 35.8772 20.3766 35.9863 20.4083 36.1083C20.4299 36.1978 20.4839 36.2763 20.5598 36.3285C20.6357 36.3808 20.7282 36.4033 20.8196 36.3916C20.911 36.3799 20.9949 36.3349 21.0552 36.2652C21.1155 36.1955 21.148 36.106 21.1464 36.0139C21.1461 35.9864 21.1433 35.9591 21.138 35.9322C21.1135 35.7997 21.1338 35.6628 21.1958 35.5431C21.2577 35.4235 21.3578 35.3279 21.4802 35.2716C21.6026 35.2152 21.7403 35.2012 21.8715 35.2318C22.0027 35.2625 22.1199 35.336 22.2047 35.4407C22.2534 35.501 22.3197 35.5447 22.3944 35.5657C22.4691 35.5867 22.5484 35.584 22.6215 35.5579C22.6945 35.5319 22.7577 35.4838 22.8022 35.4203C22.8467 35.3568 22.8705 35.281 22.8701 35.2035C22.8705 35.1261 22.8461 35.0507 22.8005 34.9883C22.722 34.8785 22.6822 34.7457 22.6876 34.6108C22.693 34.476 22.7431 34.3467 22.8301 34.2435C22.9171 34.1403 23.036 34.069 23.1681 34.0409C23.3001 34.0128 23.4377 34.0295 23.5592 34.0883C23.6165 34.1133 23.679 34.1239 23.7413 34.1192C23.8036 34.1144 23.8638 34.0945 23.9166 34.0612C23.9694 34.0279 24.0133 33.9821 24.0444 33.9279C24.0755 33.8737 24.0928 33.8128 24.0949 33.7503C24.0951 33.6895 24.0804 33.6295 24.052 33.5757C24.0237 33.5218 23.9827 33.4757 23.9325 33.4413C23.8222 33.3654 23.74 33.2551 23.699 33.1276C23.6579 33.0001 23.6603 32.8626 23.7056 32.7365C23.751 32.6105 23.8368 32.503 23.9497 32.4308C24.0625 32.3587 24.1961 32.326 24.3296 32.3378C24.4326 32.3403 24.5327 32.303 24.609 32.2335C24.6852 32.1641 24.7317 32.0679 24.7387 31.965C24.7384 31.871 24.7029 31.7805 24.6391 31.7114C24.5754 31.6423 24.4881 31.5996 24.3944 31.5917C24.2608 31.5814 24.1344 31.5271 24.0349 31.4373C23.9355 31.3474 23.8686 31.2272 23.8448 31.0953C23.821 30.9634 23.8416 30.8273 23.9033 30.7084C23.9651 30.5895 24.0646 30.4944 24.1861 30.438C24.2638 30.4024 24.3269 30.3413 24.3652 30.2649C24.4034 30.1885 24.4144 30.1013 24.3964 30.0178C24.3784 29.9342 24.3324 29.8594 24.2661 29.8055C24.1998 29.7516 24.1171 29.722 24.0316 29.7215C23.996 29.7224 23.9606 29.7275 23.9262 29.7368C23.7967 29.7689 23.6603 29.7576 23.5379 29.7047C23.4155 29.6517 23.3139 29.56 23.2488 29.4436C23.1836 29.3273 23.1584 29.1927 23.1772 29.0607C23.1959 28.9287 23.2575 28.8064 23.3525 28.7128C23.3901 28.6771 23.4202 28.6342 23.441 28.5866C23.4619 28.5391 23.473 28.4879 23.4738 28.436C23.4705 28.3687 23.4495 28.3034 23.4131 28.2467C23.3766 28.1899 23.3259 28.1438 23.2661 28.1128C23.2062 28.0818 23.1392 28.067 23.0719 28.07C23.0045 28.0729 22.9391 28.0935 22.8822 28.1297C22.7789 28.2027 22.6552 28.2416 22.5287 28.2408C22.4021 28.2401 22.279 28.1997 22.1766 28.1253C22.0741 28.051 21.9976 27.9465 21.9576 27.8264C21.9176 27.7063 21.9162 27.5767 21.9537 27.4558C21.9648 27.4203 21.9703 27.3833 21.97 27.3462C21.9698 27.2623 21.9415 27.1809 21.8896 27.115C21.8377 27.0491 21.7652 27.0025 21.6836 26.9827C21.6021 26.9629 21.5163 26.971 21.44 27.0058C21.3636 27.0405 21.3011 27.0998 21.2624 27.1742C21.2052 27.2829 21.1163 27.3716 21.0076 27.4286C20.8988 27.4856 20.7752 27.5083 20.6533 27.4935C20.5314 27.4786 20.4169 27.4271 20.3249 27.3457C20.2329 27.2643 20.1678 27.1569 20.1383 27.0377C20.1188 26.9472 20.0664 26.8673 19.9912 26.8133C19.916 26.7593 19.8235 26.7352 19.7315 26.7455C19.6396 26.7559 19.5548 26.8001 19.4935 26.8694C19.4323 26.9388 19.399 27.0285 19.4001 27.121C19.3975 27.249 19.3544 27.3728 19.2771 27.4748C19.1998 27.5767 19.0922 27.6516 18.9697 27.6887C18.8472 27.7258 18.7161 27.7232 18.5952 27.6813C18.4743 27.6394 18.3698 27.5603 18.2966 27.4553C18.2625 27.405 18.2166 27.3639 18.1629 27.3355C18.1092 27.3071 18.0494 27.2923 17.9886 27.2923C17.8891 27.2925 17.7937 27.3321 17.7233 27.4025C17.653 27.4728 17.6134 27.5683 17.6132 27.6678C17.634 27.7863 17.6214 27.9083 17.5768 28.02C17.5322 28.1318 17.4574 28.2289 17.3607 28.3005C17.2676 28.3698 17.1566 28.4109 17.0409 28.4188C16.9251 28.4268 16.8096 28.4012 16.7079 28.3453C16.6507 28.3136 16.5863 28.297 16.5209 28.2972C16.4554 28.2974 16.3911 28.3144 16.3341 28.3465C16.277 28.3785 16.2292 28.4247 16.195 28.4805C16.1609 28.5364 16.1416 28.6 16.139 28.6654C16.1389 28.7539 16.1701 28.8396 16.2271 28.9074C16.3054 29.0014 16.3534 29.117 16.3648 29.2389C16.3761 29.3607 16.3503 29.4832 16.2907 29.5901C16.2311 29.697 16.1406 29.7833 16.0309 29.8377C15.9213 29.8922 15.7978 29.9121 15.6766 29.895C15.5876 29.8811 15.4967 29.8998 15.4204 29.9477C15.3441 29.9955 15.2877 30.0693 15.2615 30.1554C15.2352 30.2416 15.241 30.3342 15.2776 30.4165C15.3143 30.4987 15.3794 30.565 15.4609 30.6031C15.5706 30.6548 15.6623 30.7381 15.7241 30.8425C15.7858 30.9468 15.8149 31.0673 15.8074 31.1883C15.8 31.3093 15.7564 31.4253 15.6823 31.5213C15.6082 31.6173 15.5071 31.6888 15.3919 31.7267C15.3099 31.7536 15.2397 31.8079 15.1932 31.8806C15.1467 31.9533 15.1267 32.0397 15.1367 32.1254C15.1466 32.2111 15.1858 32.2908 15.2477 32.3509C15.3095 32.411 15.3903 32.4479 15.4762 32.4554C15.5998 32.4659 15.7173 32.514 15.8126 32.5934C15.9079 32.6728 15.9766 32.7795 16.0093 32.8992C16.042 33.0189 16.0372 33.1457 15.9956 33.2626C15.9539 33.3794 15.8773 33.4807 15.7762 33.5526C15.705 33.6037 15.654 33.6782 15.6322 33.7631C15.6103 33.848 15.619 33.9379 15.6567 34.017C15.6944 34.0962 15.7587 34.1595 15.8384 34.1961C15.918 34.2326 16.008 34.24 16.0926 34.217C16.2019 34.1839 16.3184 34.1824 16.4286 34.2126C16.5387 34.2429 16.6381 34.3037 16.7152 34.3879C16.7924 34.4722 16.8441 34.5765 16.8646 34.6889C16.885 34.8013 16.8733 34.9171 16.8308 35.0231C16.7957 35.1068 16.7922 35.2003 16.8209 35.2863C16.8495 35.3723 16.9084 35.4449 16.9866 35.4908C17.0648 35.5367 17.157 35.5526 17.2461 35.5356C17.3351 35.5187 17.415 35.47 17.4709 35.3985C17.5517 35.2964 17.6633 35.223 17.7891 35.1892C17.9149 35.1555 18.0482 35.1632 18.1693 35.2112C18.2904 35.2592 18.3928 35.3449 18.4613 35.4557C18.5298 35.5665 18.5608 35.6964 18.5497 35.8262C18.5443 35.8788 18.5499 35.9319 18.5662 35.9822C18.5824 36.0326 18.6088 36.079 18.6438 36.1186C18.6788 36.1582 18.7216 36.1902 18.7696 36.2124C18.8175 36.2347 18.8696 36.2468 18.9224 36.248C18.9955 36.2478 19.0669 36.2263 19.1278 36.1861C19.1888 36.1459 19.2367 36.0888 19.2657 36.0218C19.3127 35.9132 19.3905 35.8208 19.4894 35.7559C19.5884 35.6911 19.7042 35.6567 19.8225 35.6569L19.8214 35.6564Z" fill="#FCE469"/>
<path d="M19.9378 34.9323C19.2734 34.9323 18.6239 34.7353 18.0715 34.3661C17.5191 33.997 17.0885 33.4723 16.8343 32.8585C16.58 32.2446 16.5135 31.5692 16.6432 30.9176C16.7729 30.2659 17.0929 29.6673 17.5627 29.1976C18.0325 28.7278 18.6311 28.4079 19.2828 28.2784C19.9345 28.1488 20.6099 28.2154 21.2237 28.4697C21.8375 28.724 22.3621 29.1547 22.7312 29.7072C23.1002 30.2597 23.2971 30.9092 23.297 31.5736C23.2959 32.4641 22.9416 33.3178 22.3119 33.9475C21.6821 34.5771 20.8284 34.9313 19.9378 34.9323ZM19.9378 29.4255C19.5131 29.4253 19.0978 29.5511 18.7445 29.7869C18.3912 30.0227 18.1158 30.358 17.953 30.7504C17.7903 31.1428 17.7476 31.5746 17.8303 31.9912C17.913 32.4078 18.1174 32.7906 18.4177 33.0911C18.7179 33.3915 19.1005 33.5962 19.5171 33.6792C19.9337 33.7622 20.3655 33.7199 20.758 33.5574C21.1505 33.395 21.486 33.1198 21.7221 32.7667C21.9581 32.4136 22.0842 31.9984 22.0843 31.5736C22.0838 31.0044 21.8575 30.4586 21.4551 30.056C21.0527 29.6535 20.507 29.4264 19.9378 29.4255Z" fill="#FCE469"/>
<path d="M22.4208 41.7494C22.2833 41.7494 22.15 41.7025 22.0428 41.6165L20.1161 40.0758L18.1895 41.6165C18.1003 41.6881 17.9927 41.7331 17.8791 41.746C17.7655 41.759 17.6506 41.7395 17.5475 41.6899C17.4445 41.6402 17.3577 41.5624 17.2971 41.4654C17.2365 41.3685 17.2046 41.2563 17.2051 41.142V36.1693C17.2051 36.0085 17.269 35.8543 17.3827 35.7406C17.4964 35.6269 17.6506 35.563 17.8114 35.563C17.9723 35.563 18.1265 35.6269 18.2402 35.7406C18.3539 35.8543 18.4178 36.0085 18.4178 36.1693V39.885L19.736 38.8304C19.8435 38.7445 19.9769 38.6977 20.1145 38.6977C20.2521 38.6977 20.3856 38.7445 20.4931 38.8304L21.8113 39.885V36.1693C21.8113 36.0085 21.8752 35.8543 21.9889 35.7406C22.1026 35.6269 22.2568 35.563 22.4176 35.563C22.5785 35.563 22.7327 35.6269 22.8464 35.7406C22.9601 35.8543 23.024 36.0085 23.024 36.1693V41.1457C23.0241 41.2253 23.0084 41.3042 22.978 41.3778C22.9475 41.4514 22.9029 41.5183 22.8465 41.5746C22.7902 41.6309 22.7234 41.6756 22.6498 41.706C22.5762 41.7365 22.4973 41.7521 22.4176 41.752L22.4208 41.7494Z" fill="#FCE469"/>
<path d="M21.883 37.1382H17.8394V40.0751H21.883V37.1382Z" fill="#FCE469"/>
<path d="M38.1811 32.7155H27.2725C27.1117 32.7155 26.9575 32.6516 26.8437 32.5379C26.73 32.4242 26.6662 32.2699 26.6662 32.1091C26.6662 31.9483 26.73 31.7941 26.8437 31.6804C26.9575 31.5667 27.1117 31.5028 27.2725 31.5028H38.1811C38.3417 31.5027 38.4958 31.4388 38.6093 31.3252C38.7229 31.2116 38.7868 31.0576 38.7869 30.897V6.6559C38.7868 6.49522 38.7229 6.34117 38.6094 6.2275C38.4958 6.11383 38.3418 6.04985 38.1811 6.04957H1.81874C1.65797 6.04971 1.50382 6.11362 1.39013 6.22731C1.27645 6.34099 1.21253 6.49513 1.21239 6.6559V30.8959C1.21253 31.0566 1.27647 31.2107 1.39016 31.3243C1.50386 31.4379 1.65802 31.5017 1.81874 31.5017H12.7268C12.8876 31.5017 13.0419 31.5656 13.1556 31.6793C13.2693 31.7931 13.3332 31.9473 13.3332 32.1081C13.3332 32.2689 13.2693 32.4231 13.1556 32.5369C13.0419 32.6506 12.8876 32.7144 12.7268 32.7144H1.81874C1.33675 32.7139 0.874646 32.5222 0.533823 32.1813C0.193001 31.8405 0.00129061 31.3784 0.000732422 30.8964V6.6559C0.00129061 6.17391 0.193001 5.7118 0.533823 5.37098C0.874646 5.03016 1.33675 4.83845 1.81874 4.83789H38.1806C38.6626 4.83845 39.1247 5.03016 39.4655 5.37098C39.8063 5.7118 39.998 6.17391 39.9986 6.6559V30.8959C39.9985 31.3781 39.807 31.8405 39.4662 32.1817C39.1255 32.5228 38.6633 32.7148 38.1811 32.7155Z" fill="#1B0750"/>
</svg>
