<svg width="40" height="52" viewBox="0 0 40 52" fill="none" xmlns="http://www.w3.org/2000/svg">
<mask id="mask0_5251_22299" style="mask-type:luminance" maskUnits="userSpaceOnUse" x="0" y="-6" width="40" height="57">
<path d="M32.3639 -5.1416H7.69757C3.4803 -5.1416 0.0615234 -1.76693 0.0615234 2.39594V42.7796C0.0615234 46.9424 3.4803 50.3171 7.69757 50.3171H32.3639C36.5811 50.3171 39.9999 46.9424 39.9999 42.7796V2.39594C39.9999 -1.76693 36.5811 -5.1416 32.3639 -5.1416Z" fill="white"/>
</mask>
<g mask="url(#mask0_5251_22299)">
<path fill-rule="evenodd" clip-rule="evenodd" d="M-4.41138 56.5597H2.21391V54.4031L3.97986 51.8792H5.18751V25.6912H-4.31088V21.1719H-2.13226L7.56058 17.658L8.39987 15.9067H10.6712L11.5019 17.4807L25.2562 21.1719H30.2008L32.649 22.843V25.6916H31.2333V30.4109H31.68V32.5096L34.8387 34.3722H35.2858V39.8977H26.1164V34.3722H26.5639L29.7225 32.5096V30.4101H30.1693V25.6912H13.8839V26.4844H17.4093L19.48 28.7244V34.275H13.8839V51.8792H15.0912L16.8571 54.3946V56.5597H34.0859V60.8728H-4.41138V56.5597ZM14.6387 27.5368V30.0878H18.4127V29.1326L16.9359 27.5368H14.6387ZM31.0307 33.1396H30.3744L28.2823 34.3722H33.1227L31.0307 33.1396ZM11.5868 46.9032L7.67667 50.8977H11.5868V46.9032ZM7.48469 49.0926L11.5868 44.9013V44.4558L7.48469 40.2646V49.0918V49.0926ZM7.48469 36.2036L11.5868 32.0123V31.9095L7.48469 27.7182V36.2036ZM7.51832 25.7511L11.5868 29.9076V25.7515L7.51832 25.7511ZM11.5868 34.0142L7.48469 38.2056V38.2618L11.5868 42.4535V34.0142ZM12.0565 18.5306L13.4512 21.1715H21.9277L12.0565 18.5306ZM0.425399 21.1719H5.87626L7.02238 18.78L0.425399 21.1719ZM-4.28831 26.4844V30.0525H2.40342V26.4844H-4.28831Z" fill="#231F56"/>
</g>
<path d="M21.9271 21.1709L12.0562 18.53L11.5115 17.3809L25.2568 21.1713L21.9271 21.1709Z" fill="#B2DDCD"/>
<path d="M7.02278 18.7797L0 21.3254V20.3726L7.56056 17.6572L7.02278 18.7797Z" fill="#B2DDCD"/>
<path d="M31.2337 25.6919H30.1692V30.4116H31.2337V25.6919Z" fill="#B2DDCD"/>
<path d="M13.5442 31.7049L7.45264 25.6919L6.19841 26.9299L12.29 32.9429L13.5442 31.7049Z" fill="#B2DDCD"/>
<path d="M13.5442 44.0189L7.45264 38.0059L6.19841 39.2439L12.29 45.2569L13.5442 44.0189Z" fill="#B2DDCD"/>
<path d="M11.9243 31.5524L5.83276 37.5654L7.08699 38.8035L13.1786 32.7905L11.9243 31.5524Z" fill="#B2DDCD"/>
<path d="M12.2901 44.0793L6.19849 50.0923L7.45271 51.3303L13.5443 45.3173L12.2901 44.0793Z" fill="#B2DDCD"/>
<path d="M7.51146 25.6343H5.21265V51.7304H7.51146V25.6343Z" fill="#333465"/>
<path d="M13.8811 25.6343H11.5823V51.7304H13.8811V25.6343Z" fill="#333465"/>
<path d="M20.0308 26.248H13.9211V38.9855H20.0308V26.248Z" fill="#67BFA8"/>
<path fill-rule="evenodd" clip-rule="evenodd" d="M17.406 26.5127H13.8811V34.3045H19.478V28.7535L17.406 26.5127ZM18.4123 30.1165H14.64V27.5655H16.9372L18.4139 29.1621L18.4123 30.1165Z" fill="#FCE469"/>
</svg>
