<svg width="40" height="40" viewBox="0 0 40 40" fill="none" xmlns="http://www.w3.org/2000/svg">
<mask id="mask0_5251_22318" style="mask-type:luminance" maskUnits="userSpaceOnUse" x="0" y="-18" width="40" height="56">
<path d="M32.3639 -17.7778H7.69757C3.4803 -17.7778 0.0615234 -14.4032 0.0615234 -10.2403V30.1433C0.0615234 34.3062 3.4803 37.6809 7.69757 37.6809H32.3639C36.5811 37.6809 39.9999 34.3062 39.9999 30.1433V-10.2403C39.9999 -14.4032 36.5811 -17.7778 32.3639 -17.7778Z" fill="white"/>
</mask>
<g mask="url(#mask0_5251_22318)">
<path fill-rule="evenodd" clip-rule="evenodd" d="M-4.41138 43.9234H2.21391V41.7668L3.97986 39.243H5.18751V13.0549H-4.31088V8.53565H-2.13226L7.56058 5.02178L8.39987 3.27051H10.6712L11.5019 4.84443L25.2562 8.53565H30.2008L32.649 10.2067V13.0553H31.2333V17.7747H31.68V19.8733L34.8387 21.736H35.2858V27.2615H26.1164V21.736H26.5639L29.7225 19.8733V17.7738H30.1693V13.0549H13.8839V13.8482H17.4093L19.48 16.0882V21.6388H13.8839V39.243H15.0912L16.8571 41.7583V43.9234H34.0859V48.2366H-4.41138V43.9234ZM14.6387 14.9005V17.4515H18.4127V16.4963L16.9359 14.9005H14.6387ZM31.0307 20.5034H30.3744L28.2823 21.736H33.1227L31.0307 20.5034ZM11.5868 34.2669L7.67667 38.2615H11.5868V34.2669ZM7.48469 36.4563L11.5868 32.265V31.8196L7.48469 27.6283V36.4563ZM7.48469 23.5674L11.5868 19.3761V19.2733L7.48469 15.0819V23.5674ZM7.51832 13.1149L11.5868 17.2714V13.1153L7.51832 13.1149ZM11.5868 21.378L7.48469 25.5693V25.6256L11.5868 29.8173V21.378ZM12.0565 5.89437L13.4512 8.53525H21.9277L12.0565 5.89437ZM0.425399 8.53565H5.87626L7.02238 6.14381L0.425399 8.53565ZM-4.28831 13.8482V17.4163H2.40342V13.8482H-4.28831Z" fill="#73C9B7"/>
</g>
<path d="M21.9271 8.53468L12.0562 5.89379L11.5115 4.74463L25.2568 8.53507L21.9271 8.53468Z" fill="#B2DDCD"/>
<path d="M7.02278 6.14344L0 8.68915V7.73637L7.56056 5.021L7.02278 6.14344Z" fill="#B2DDCD"/>
<path d="M31.2337 13.0557H30.1692V17.7754H31.2337V13.0557Z" fill="#B2DDCD"/>
<path d="M13.5442 19.0687L7.45264 13.0557L6.19841 14.2937L12.29 20.3067L13.5442 19.0687Z" fill="#B2DDCD"/>
<path d="M13.5442 31.3826L7.45264 25.3696L6.19841 26.6077L12.29 32.6207L13.5442 31.3826Z" fill="#B2DDCD"/>
<path d="M11.9243 18.9162L5.83276 24.9292L7.08699 26.1672L13.1786 20.1542L11.9243 18.9162Z" fill="#B2DDCD"/>
<path d="M12.2901 31.443L6.19849 37.4561L7.45271 38.6941L13.5443 32.6811L12.2901 31.443Z" fill="#B2DDCD"/>
<path d="M7.51146 12.998H5.21265V39.0942H7.51146V12.998Z" fill="white"/>
<path d="M13.8811 12.998H11.5823V39.0942H13.8811V12.998Z" fill="white"/>
<path d="M20.0308 13.6118H13.9211V26.3493H20.0308V13.6118Z" fill="#67BFA8"/>
<path fill-rule="evenodd" clip-rule="evenodd" d="M17.406 13.8765H13.8811V21.6683H19.478V16.1173L17.406 13.8765ZM18.4123 17.4802H14.64V14.9293H16.9372L18.4139 16.5259L18.4123 17.4802Z" fill="#FCE469"/>
</svg>
