<svg width="44" height="39" viewBox="0 0 44 39" fill="none" xmlns="http://www.w3.org/2000/svg">
<path d="M25.9645 35.6875C25.7703 34.6195 21.4966 35.0332 20.7634 34.7523C18.8473 34.0196 23.8467 32.5836 22.9924 32.1314C22.0145 31.6139 19.4479 32.316 18.3822 32.3101C17.1965 32.3039 16.0002 32.3412 14.8195 32.2239C11.1111 31.8559 7.40312 31.4278 3.69007 31.1186C3.46007 31.0995 0.514331 31.0968 1.52991 31.9387C2.30695 32.5844 3.50047 32.4982 4.41465 32.8028C6.2197 33.1039 4.4535 34.3992 3.68851 34.9369C3.30699 35.2042 0.611849 35.529 2.68964 36.2217C6.89339 38.1923 11.054 35.7625 15.2978 36.0088C16.3887 36.0721 26.1207 36.3938 25.9641 35.6879C25.8145 34.8611 26.1145 36.3612 25.9645 35.6875Z" fill="#177869"/>
<path d="M15.7419 32.2568C16.9707 32.4093 18.2149 32.3851 19.4367 32.1849C20.6924 31.9701 23.5263 31.3958 23.2753 31.9701C23.0243 32.5443 17.4281 34.2297 16.7093 34.1582C15.9906 34.0867 15.7419 32.2568 15.7419 32.2568Z" fill="#FCE469"/>
<path d="M17.328 32.3553C17.3995 32.433 17.4721 32.5107 17.5479 32.5861C17.8454 32.8933 18.196 33.1441 18.5829 33.3262C18.8239 33.4334 19.0788 33.506 19.3401 33.5418C18.4679 33.8407 17.5666 34.0469 16.6512 34.1573C15.9336 34.0854 15.6826 32.2559 15.6826 32.2559C16.227 32.3382 16.7777 32.3715 17.328 32.3553Z" fill="#FEC52B"/>
<path d="M11.4404 29.9121C11.4404 29.9121 10.7912 32.3842 9.11356 31.1449C7.43595 29.9055 7.01558 28.3398 5.34495 27.9027C3.67433 27.4656 3.10632 27.6486 2.37319 27.8219C1.57595 28.0107 1.6047 28.4388 1.85491 28.4963C2.52005 28.649 3.42257 28.5511 4.45486 29.4595C5.13748 30.0601 4.61376 31.8904 7.07618 33.0117C8.54839 33.6832 10.1719 33.9536 11.7823 33.7957L11.4404 29.9121Z" fill="#FCE469"/>
<path d="M11.4402 29.9126C11.4402 29.9126 11.1197 31.1318 10.3481 31.4278C9.94675 32.0337 9.3646 32.4975 8.68443 32.7534C8.08452 32.9625 7.43151 32.9625 6.83159 32.7534C6.51557 32.6473 6.21822 32.492 5.95044 32.2934C6.28661 32.5896 6.6667 32.8318 7.07714 33.0114C8.54901 33.6836 10.1724 33.9549 11.7829 33.7978L11.4402 29.9126Z" fill="#FEC52B"/>
<path d="M2.37384 27.8223C2.0288 27.948 1.67105 28.0357 1.30697 28.0837C0.787527 28.1389 -0.0462288 28.1288 0.00466691 28.4657C0.0555626 28.8025 0.396291 28.9342 0.786362 28.7838C1.11127 28.5954 1.48034 28.4964 1.85595 28.4971C2.10926 28.5459 2.35899 28.6117 2.60346 28.6941L2.37384 27.8223Z" fill="#FEC52B"/>
<path d="M1.30644 28.0837C1.48988 28.0624 1.67162 28.0284 1.85036 27.9819C1.81067 28.0464 1.78684 28.1194 1.78083 28.1949C1.77482 28.2705 1.7868 28.3463 1.81578 28.4163C1.82862 28.4445 1.84342 28.4718 1.86008 28.4979H1.85347C1.47786 28.4972 1.10878 28.5961 0.783883 28.7846C0.395367 28.9354 0.0526957 28.8029 0.00218853 28.4664C-0.0483187 28.13 0.786992 28.1389 1.30644 28.0837Z" fill="#F7AE0B"/>
<path d="M1.17283 28.0952C1.18432 28.2659 1.25947 28.426 1.38341 28.544C1.19381 28.6046 0.999551 28.6994 0.785866 28.7829C0.397349 28.9336 0.0546772 28.8011 0.00417005 28.4647C-0.042452 28.1558 0.656103 28.1387 1.17283 28.0952Z" fill="#4E2A0E"/>
<path d="M0.852721 28.1211C0.853659 28.2251 0.882165 28.327 0.935333 28.4164C0.988501 28.5059 1.06443 28.5796 1.15538 28.63C1.03882 28.679 0.914883 28.7342 0.785896 28.7855C0.397379 28.9362 0.0547065 28.8037 0.00419933 28.4673C-0.0334868 28.2174 0.409423 28.1576 0.852721 28.1211Z" fill="#2D1A10"/>
<path d="M15.4027 25.4863C15.4027 25.4863 16.9809 25.9525 16.5508 27.5668C16.1207 29.1811 15.5103 33.8445 18.4518 33.9878C21.3933 34.1312 23.5099 34.0955 24.8371 34.5978C26.1642 35.1002 26.5228 35.9965 25.8775 36.0684C25.2322 36.1402 21.7522 35.2078 19.8167 35.4588C17.8811 35.7098 13.9337 35.6021 14.1832 33.2345C14.4326 30.8669 15.4027 25.4863 15.4027 25.4863Z" fill="#FCE469"/>
<path d="M14.7212 33.3069C14.9446 31.1968 15.7384 26.6939 15.9085 25.739C15.7528 25.6317 15.5828 25.5469 15.4035 25.4868C15.4035 25.4868 14.4349 30.8678 14.1835 33.235C14.0242 34.7397 15.5596 35.333 17.1972 35.4985C15.7776 35.2607 14.579 34.6449 14.7212 33.3069Z" fill="#FEC52B"/>
<path d="M15.4028 25.4862C14.7571 25.1633 12.6766 27.5309 11.4209 30.0419C10.1652 32.5529 8.90991 33.6648 6.07607 33.8443C3.24223 34.0238 1.78684 34.7115 1.71535 35.5006C1.64387 36.2897 9.08941 36.7862 11.7438 34.8133C14.3981 32.8404 14.47 31.7642 14.8647 30.2572C15.2594 28.7501 16.1923 25.8809 15.4028 25.4862Z" fill="#FCE469"/>
<path d="M14.9722 25.8095C15.0201 26.0888 15.1442 26.3495 15.3308 26.5629C15.6179 26.8496 16.6941 26.742 16.6941 26.6343C16.6941 26.5267 16.6583 25.7019 16.3355 25.5581C16.0126 25.4144 15.1155 25.1992 14.9722 25.8095Z" fill="#2D1A10"/>
<path d="M6.09373 35.0673C5.97911 35.0444 5.89131 35.0013 5.89753 34.971C5.90374 34.9407 6.00126 34.9321 6.11587 34.9566C6.23049 34.9811 6.31829 35.0223 6.31207 35.0526C6.30586 35.0829 6.20834 35.0895 6.09373 35.0673Z" fill="#9A673D"/>
<path d="M7.82962 34.3241C7.68859 34.3594 7.56659 34.3579 7.55765 34.3206C7.54872 34.2833 7.65478 34.2234 7.79581 34.1881C7.93685 34.1527 8.05884 34.1543 8.06778 34.192C8.07671 34.2297 7.97065 34.2883 7.82962 34.3241Z" fill="#9A673D"/>
<path d="M9.46803 33.6797C9.33633 33.7477 9.21511 33.7741 9.19607 33.7392C9.17703 33.7042 9.27028 33.6203 9.40199 33.5527C9.53369 33.4851 9.65491 33.4583 9.67395 33.4936C9.69299 33.529 9.59974 33.6121 9.46803 33.6797Z" fill="#9A673D"/>
<path d="M10.9647 33.0855C10.8936 33.1477 10.8225 33.1834 10.8058 33.1632C10.7891 33.143 10.833 33.0781 10.9045 33.016C10.976 32.9538 11.0467 32.9181 11.0634 32.9383C11.0801 32.9585 11.0362 33.023 10.9647 33.0855Z" fill="#9A673D"/>
<path d="M12.0402 31.5368C11.9932 31.6079 11.9396 31.6534 11.9205 31.6425C11.9015 31.6316 11.9244 31.562 11.9718 31.4913C12.0192 31.4206 12.0724 31.3748 12.0915 31.3853C12.1105 31.3958 12.0876 31.4657 12.0402 31.5368Z" fill="#9A673D"/>
<path d="M12.225 29.3172C12.1473 29.4551 12.0576 29.5503 12.0211 29.5301C11.9845 29.5099 12.016 29.3817 12.0918 29.2437C12.1675 29.1058 12.2588 29.0106 12.2957 29.0304C12.3327 29.0503 12.3008 29.1792 12.225 29.3172Z" fill="#9A673D"/>
<path d="M13.4818 27.7765C13.3819 27.893 13.2762 27.9649 13.2452 27.9389C13.2141 27.9129 13.27 27.7967 13.3699 27.6805C13.4697 27.5644 13.5754 27.4917 13.6065 27.5181C13.6376 27.5445 13.5824 27.6603 13.4818 27.7765Z" fill="#9A673D"/>
<path d="M14.914 26.3909C14.7951 26.3998 14.6968 26.382 14.6949 26.352C14.6929 26.3221 14.7865 26.2872 14.9054 26.2778C15.0243 26.2685 15.1226 26.2868 15.1249 26.3167C15.1273 26.3466 15.0333 26.382 14.914 26.3909Z" fill="#9A673D"/>
<path d="M10.963 32.235C10.8632 32.2925 10.7687 32.3173 10.7544 32.2905C10.74 32.2637 10.8076 32.1961 10.9074 32.1386C11.0073 32.0811 11.1017 32.0562 11.1161 32.0831C11.1305 32.1099 11.0629 32.1775 10.963 32.235Z" fill="#9A673D"/>
<path d="M11.95 31.0515C11.8459 31.1599 11.7383 31.2255 11.7095 31.198C11.6808 31.1704 11.7414 31.06 11.8451 30.9513C11.9489 30.8425 12.0569 30.7776 12.086 30.8052C12.1151 30.8328 12.0545 30.9427 11.95 31.0515Z" fill="#9A673D"/>
<path d="M13.3381 29.4832C13.2527 29.58 13.1629 29.6387 13.1369 29.6169C13.1108 29.5951 13.1598 29.4976 13.2449 29.4009C13.33 29.3041 13.4201 29.2455 13.4457 29.2672C13.4714 29.289 13.4236 29.3869 13.3381 29.4832Z" fill="#9A673D"/>
<path d="M14.0734 27.5302C13.9863 27.6257 13.8954 27.6856 13.8698 27.6619C13.8441 27.6382 13.8939 27.5422 13.9809 27.4463C14.0679 27.3503 14.1588 27.2908 14.1845 27.3149C14.2101 27.339 14.1604 27.433 14.0734 27.5302Z" fill="#9A673D"/>
<path d="M15.3665 27.1035C15.2826 27.1369 15.2068 27.1458 15.1979 27.1233C15.189 27.1008 15.25 27.0553 15.3339 27.0219C15.4178 26.9885 15.4939 26.9796 15.5025 27.0025C15.511 27.0254 15.4508 27.0681 15.3665 27.1035Z" fill="#9A673D"/>
<path d="M15.2931 32.3909C15.2729 32.5001 15.2329 32.5852 15.2037 32.5789C15.1746 32.5727 15.1672 32.4806 15.1874 32.3715C15.2076 32.2623 15.2473 32.1772 15.2764 32.1834C15.3055 32.1896 15.3145 32.2817 15.2931 32.3909Z" fill="#9A673D"/>
<path d="M15.5048 30.862C15.4659 30.9906 15.4081 31.0869 15.3739 31.0768C15.3397 31.0667 15.3428 30.954 15.3805 30.8254C15.4182 30.6968 15.4772 30.6005 15.5114 30.6106C15.5456 30.6207 15.5429 30.733 15.5048 30.862Z" fill="#9A673D"/>
<path d="M16.0992 28.7421C16.0837 28.8353 16.051 28.9072 16.0262 28.9033C16.0013 28.8994 15.9939 28.8202 16.0091 28.7273C16.0242 28.6345 16.0572 28.5618 16.0825 28.5661C16.1078 28.5704 16.1167 28.6489 16.0992 28.7421Z" fill="#9A673D"/>
<path d="M15.9374 27.3185C15.9195 27.4269 15.8814 27.5128 15.8523 27.5062C15.8231 27.4996 15.8134 27.4094 15.8329 27.3006C15.8523 27.1918 15.8892 27.1083 15.9179 27.113C15.9467 27.1176 15.9556 27.2109 15.9374 27.3185Z" fill="#9A673D"/>
<path d="M39.0002 11.2801C39.0002 11.2801 33.9514 16.7898 31.4004 18.3268C29.6132 19.4046 28.6579 19.4858 26.0389 20.1229C23.4199 20.7601 19.1194 21.2998 19.1194 21.2998C19.1194 21.2998 20.7733 24.8523 23.2074 25.7187C25.6414 26.5851 38.6451 25.1826 38.2604 23.0586C37.8758 20.9346 41.2795 16.4422 42.5002 14.7801C42.5002 14.7801 44.1401 12.92 42.5002 11.2801C40.8604 9.6402 39.0002 11.2801 39.0002 11.2801Z" fill="#F3BD9A"/>
<path d="M38.2616 23.0589C38.2616 23.0589 33.5003 22.1148 29.0192 22.8227C26.4258 23.2322 25.0656 23.7552 21.9509 23.0147C20.8021 22.7427 19.5868 21.3611 19.5868 21.3611L22.3686 20.8522C22.3686 20.8522 16.8769 19.4294 15.6037 19.2119C14.3305 18.9943 13.5896 19.1668 13.7311 20.0891C13.8725 21.0115 18.9605 26.4868 20.7826 27.211C22.6048 27.9352 25.2405 25.8784 27.8342 26.2483C30.428 26.6182 31.8519 27.0494 31.7139 28.0743C31.576 29.0992 28.5895 32.3297 28.5895 32.3297C28.7632 32.6309 28.9964 32.8936 29.2748 33.1017C29.54 33.3157 29.8254 33.5034 30.1269 33.6623C30.1269 33.6623 31.9871 30.6288 33.6464 29.9023C35.3058 29.1758 40.7652 25.9211 38.2616 23.0589Z" fill="#A614C3"/>
</svg>
