<svg width="46" height="42" viewBox="0 0 46 42" fill="none" xmlns="http://www.w3.org/2000/svg">
<path fill-rule="evenodd" clip-rule="evenodd" d="M20.7215 10.3655C20.7947 10.3655 20.7378 10.3816 20.7865 10.3414L20.8596 10.4058C20.9246 10.4702 20.9652 10.7357 21.0302 10.776C21.0465 10.9128 21.0871 11.0416 21.1521 11.1623C21.2008 11.1381 21.1927 11.1301 21.2333 11.0979C21.2577 11.2267 21.3145 11.3474 21.3957 11.4439C21.4201 11.5164 21.4607 11.5888 21.5257 11.6371C21.5501 11.621 21.5257 11.6612 21.5501 11.6129C21.6069 11.629 21.6719 11.7578 21.7044 11.798L22.0781 12.1763C22.1268 12.2407 22.1837 12.3051 22.2487 12.3614C22.2974 12.2085 22.208 11.967 22.1837 11.8383C22.1593 11.7095 22.1187 11.5888 22.0618 11.4761C22.0131 11.3796 22.0699 11.4761 22.0456 11.3635C21.9887 11.2347 21.9237 11.1059 21.8506 10.9852C21.8588 10.9611 21.8506 10.9691 21.8344 10.9369C21.7775 10.8323 21.6882 10.7438 21.6151 10.607C21.542 10.4863 21.3957 10.3897 21.3226 10.277L21.4851 10.3816C21.542 10.4219 21.745 10.5426 21.8181 10.5909C22.1999 10.8243 22.3136 10.8806 22.6873 11.1381C22.931 11.3071 22.8416 11.122 22.8741 11.0416C22.9878 11.1381 23.1016 11.2186 23.2315 11.291C23.4265 11.3957 23.4833 11.46 23.6539 11.4198C23.6539 11.3393 23.6377 11.3152 23.6539 11.2267C23.7758 11.3071 23.8976 11.3876 24.0276 11.4439C24.1657 11.5003 24.3362 11.5727 24.4256 11.5003C24.4012 11.4439 24.3931 11.3796 24.3931 11.3152C24.5393 11.3876 24.8886 11.5969 25.0592 11.46C25.0348 11.4037 25.0186 11.3393 25.0267 11.283C25.2135 11.3715 25.4166 11.4118 25.6197 11.4037C25.6034 11.3474 25.6115 11.291 25.6197 11.2347C25.8146 11.3152 26.0339 11.3232 26.2451 11.2749L26.2208 11.1703C26.3751 11.2106 26.7569 11.1542 26.9356 11.1542C27.0899 11.1462 27.5042 11.1542 27.5773 11.0416C27.3905 10.9369 27.1874 10.8565 26.9762 10.8082C26.7731 10.7357 26.6513 10.5909 26.4238 10.6231L26.4563 10.5104C26.2776 10.446 26.0908 10.4219 25.9121 10.4219L25.9852 10.269C25.8552 10.2368 25.7253 10.2126 25.5953 10.2046C25.376 10.1804 25.3678 10.2368 25.2704 10.2448V10.0678C25.1729 10.0597 25.0592 10.0678 24.9536 10.0839C24.8723 10.0758 24.7911 10.0919 24.7261 10.1402C24.7261 10.1402 24.6936 10.108 24.7018 10.1L24.7505 9.97925C24.6855 9.9551 24.6124 9.94706 24.5393 9.96315C24.4662 9.96315 24.4175 9.96315 24.3362 9.96315C24.2144 9.96315 24.0926 9.9873 23.9707 10.0356L24.0113 9.87463C23.7676 9.85048 23.5239 9.89072 23.3046 9.99534V9.88267C23.1422 9.86658 22.6061 9.97925 22.3705 9.96315C22.2162 9.9551 22.0212 9.93901 21.8588 9.93901C21.7775 9.94706 21.6963 9.9551 21.6151 9.94706C21.5582 9.94706 21.4445 9.93096 21.3876 9.93096H21.3308L21.3795 9.89877C21.5095 9.88267 21.6313 9.86658 21.7532 9.84243L22.1187 9.79415C22.1593 9.79415 22.1512 9.79415 22.1755 9.77001C22.2324 9.8022 22.7035 9.72977 22.8904 9.75391C22.9716 9.75391 23.0772 9.77001 23.1259 9.73781C23.134 9.67343 23.0772 9.62514 23.0772 9.55271C23.6295 9.64124 23.5402 9.56076 23.8651 9.57686C23.987 9.57686 24.0519 9.59295 24.1088 9.52857C24.1088 9.52857 24.1088 9.52589 24.1088 9.52052C24.1088 9.52052 24.1088 9.52857 24.0763 9.46419C24.0601 9.44005 24.0519 9.4159 24.0519 9.38371C24.2713 9.47224 24.4093 9.44005 24.6287 9.44005C24.7586 9.44005 24.7018 9.45614 24.783 9.39176C24.7668 9.35957 24.7424 9.33542 24.718 9.31128C24.7018 9.27909 24.6855 9.2469 24.6774 9.20666C24.7505 9.20666 24.8074 9.2469 24.8967 9.2469L25.2866 9.26299C25.3516 9.27104 25.4085 9.26299 25.4572 9.22276L25.376 9.10204C25.376 9.10204 25.3516 9.05375 25.3516 9.03766C25.3191 8.95718 25.3516 8.98937 25.3678 8.98132C25.3435 9.0457 25.7577 9.0618 25.7821 9.05375C25.8877 9.05375 26.1233 9.06985 26.1639 8.98937C26.2126 8.98937 26.2451 8.94108 26.2451 8.90084C26.1476 8.90084 26.0502 8.76403 26.042 8.7077C26.1152 8.73184 26.1883 8.73989 26.2614 8.73989C26.3751 8.76403 26.4969 8.77208 26.6107 8.75598C26.7487 8.73989 26.8462 8.73989 26.9193 8.62722C26.83 8.57893 26.7569 8.49846 26.7244 8.40188C26.895 8.44212 27.0655 8.43407 27.2361 8.38579C27.4311 8.34555 27.5773 8.3536 27.6666 8.20874C27.561 8.1685 27.4798 8.09607 27.4229 7.99949C27.5285 7.97535 27.5123 8.04778 27.8128 7.94316C27.8697 7.91902 27.9266 7.89487 27.9834 7.87073C28.0647 7.83854 28.1053 7.83854 28.1702 7.79025C28.1702 7.7822 28.154 7.79025 28.1459 7.72587C28.2677 7.72587 28.3977 7.70173 28.5033 7.63734C28.5114 7.58101 28.5277 7.63734 28.5033 7.58906C28.6576 7.58101 29.2993 7.20276 29.3724 6.96938C29.2506 6.96133 29.1288 6.96938 29.0069 6.99352C28.8932 7.00962 28.7713 7.03376 28.6657 7.074L28.3977 7.11424L28.1215 7.17057V7.0579C27.9428 7.0579 27.7641 7.08205 27.5935 7.13838C27.561 7.13838 27.5935 7.13033 27.5529 7.13838C27.5285 7.15448 27.5367 7.13838 27.5204 7.17057H27.4879L27.5367 6.96938C27.3905 6.92109 26.8706 7.04986 26.7244 7.15448C26.6919 7.17057 26.6594 7.19471 26.635 7.22691C26.6188 7.20276 26.6188 7.21081 26.6188 7.17862L26.6025 7.10619L26.6513 6.94523C26.4157 6.97743 26.1964 7.0579 25.9933 7.17862C25.9689 7.20276 25.9365 7.21886 25.904 7.23495C25.8796 7.15448 25.8715 7.06595 25.8958 6.98547C25.6765 7.03376 25.4734 7.11424 25.2785 7.22691L25.0917 7.37177C25.0673 7.29129 25.0592 7.20276 25.0592 7.11424C24.9698 7.13838 24.8886 7.18667 24.8155 7.243C24.6774 7.33153 24.5556 7.4442 24.45 7.57296C24.4337 7.54882 24.4418 7.57296 24.4256 7.52467C24.4256 7.50858 24.4256 7.49248 24.4175 7.46834C24.4175 7.43615 24.4175 7.39591 24.4175 7.36372C24.3362 7.36372 24.1575 7.47639 24.0926 7.52467C23.987 7.60515 23.8895 7.69368 23.8082 7.79025C23.7676 7.72587 23.7758 7.70173 23.7433 7.64539C23.5808 7.74196 23.4265 7.84658 23.2803 7.9673C23.2559 7.99145 23.2396 8.01559 23.2153 8.03973C23.2072 8.04778 23.199 8.06388 23.1909 8.07997L23.1503 8.12826L23.0853 7.9673L22.5979 8.36164C22.5492 8.41798 22.5005 8.47431 22.4517 8.53065L22.4111 8.45822C22.2162 8.59503 22.2405 8.73989 21.8669 8.98132C21.6638 9.11813 21.3714 9.54467 21.1764 9.68148C21.1439 9.60905 21.4282 9.2308 21.4607 9.15837C21.6476 8.90084 21.8588 8.65941 22.0862 8.43407C22.1755 8.37774 22.2568 8.30531 22.3218 8.22483L22.2568 8.17654C22.2568 8.17654 22.3136 8.13631 22.3461 8.12826C22.4923 8.01559 22.6304 7.89487 22.7604 7.75806C22.8091 7.70173 22.8904 7.66953 22.9066 7.58101C22.8416 7.58101 22.7766 7.54077 22.7279 7.49248C22.9147 7.46029 23.1503 7.18667 23.2721 7.04986C23.3209 6.98547 23.4102 6.93719 23.4184 6.84061C23.394 6.86476 23.2803 6.82452 23.2559 6.80842C23.1747 6.77623 23.2234 6.78428 23.2072 6.76818C23.329 6.69575 23.4346 6.59918 23.5158 6.49456C23.6377 6.39798 23.727 6.26922 23.7676 6.12436C23.6702 6.14046 23.5808 6.12436 23.4915 6.07607C23.5889 6.05193 23.5971 6.05193 23.6702 5.98755C23.727 5.93926 23.7758 5.89097 23.8245 5.84269C23.9545 5.73807 24.0438 5.60125 24.0926 5.44835C23.9788 5.46444 23.8732 5.44835 23.7758 5.38396C23.9463 5.34373 24.3444 4.82867 24.385 4.58723C24.3362 4.59528 24.2956 4.60333 24.2469 4.61138C24.1819 4.61138 24.1169 4.59528 24.0601 4.57114C24.0844 4.547 24.1169 4.52285 24.1413 4.49871C24.2225 4.41823 24.2956 4.33775 24.3525 4.24118C24.4175 4.13656 24.5474 3.94341 24.5149 3.8066C24.4012 3.86293 24.2713 3.87903 24.1494 3.84684C24.3119 3.79855 24.6287 3.16278 24.6124 2.92134C24.5474 2.92939 24.6124 2.94549 24.4743 2.95354C24.4175 2.95354 24.3525 2.95354 24.2956 2.95354C24.3769 2.8972 24.4581 2.83282 24.5149 2.74429C24.5799 2.63967 24.6287 2.53505 24.6612 2.41433L24.6936 2.26947C24.5962 2.29362 24.4987 2.30166 24.3931 2.30166C24.3444 2.30166 24.385 2.30167 24.3769 2.27752C24.5312 2.06023 24.6205 1.8027 24.6124 1.53713C24.5637 1.55322 24.5068 1.55322 24.4581 1.54517C24.5312 1.42446 24.5637 1.28764 24.5637 1.14278C24.588 0.885256 24.7343 0.257529 24.5962 0C24.45 0.0402389 24.1169 0.804778 24.0438 0.933542C23.9707 1.05426 23.9382 1.18302 23.9382 1.31984C23.8814 1.29569 23.8326 1.25545 23.7839 1.22326C23.727 1.35203 23.6864 1.48884 23.662 1.62565L23.5971 1.81075C23.5808 1.86708 23.5808 1.92342 23.5971 1.97171C23.5808 1.9878 23.6052 2.0039 23.5564 1.97171C23.5483 1.97171 23.5158 1.93951 23.5077 1.93951C23.4833 1.90732 23.4508 1.87513 23.4184 1.85099C23.4184 1.8188 23.4265 1.85099 23.4102 1.8188C23.2559 2.06828 23.1747 2.358 23.1747 2.64772C23.0772 2.58334 22.996 2.50286 22.9391 2.40629C22.7766 2.55919 22.7848 2.96963 22.7848 3.14668C22.7117 3.09035 22.6467 3.02597 22.6061 2.93744C22.4842 3.02597 22.468 3.32373 22.4598 3.48469C22.4598 3.54907 22.468 3.61345 22.4598 3.67784C22.3705 3.6376 22.2893 3.58126 22.2243 3.51688C22.1431 3.6376 22.1755 3.75027 22.1674 3.87903C22.1431 3.99975 22.1349 4.12851 22.1512 4.24923C22.0537 4.21704 21.9725 4.1607 21.9075 4.08022C21.8344 4.29751 21.8019 4.52285 21.8019 4.74819C21.8019 4.83672 21.8263 4.885 21.8263 4.94938C21.7532 4.93329 21.68 4.9011 21.6151 4.86086C21.5826 5.0862 21.5663 5.31958 21.5663 5.54492C21.5663 5.61735 21.5907 5.68978 21.6151 5.76221C21.5257 5.76221 21.4445 5.73002 21.3714 5.68173C21.3389 5.76221 21.3308 5.84269 21.3389 5.93121C21.3389 6.01974 21.3145 6.09217 21.3145 6.18874C21.2983 6.3336 21.3226 6.48651 21.3957 6.61528C21.3145 6.60723 21.2414 6.57504 21.1764 6.52675C21.0952 6.71185 21.1358 7.412 21.2008 7.50053C21.1521 7.50053 21.1033 7.47639 21.0627 7.4442C21.0221 7.6132 21.0058 7.7822 21.014 7.95121L20.8678 8.99742C20.8515 9.18252 20.8271 9.36762 20.7865 9.54467V9.56881C20.7053 9.4159 20.6891 8.73989 20.6647 8.53869C20.6403 8.36164 20.6241 8.20069 20.6159 8.00754C20.6322 7.83049 20.6241 7.65344 20.5997 7.47639C20.5672 7.51663 20.5104 7.52467 20.4616 7.50858C20.551 7.29129 20.486 7.12229 20.4616 6.91304C20.4535 6.82452 20.4616 6.80842 20.4291 6.73599C20.3641 6.77623 20.3316 6.81647 20.2504 6.80842C20.2992 6.65551 20.3479 6.22898 20.2342 6.09217H20.226C20.1773 6.1485 20.1123 6.1807 20.0392 6.18874C20.0636 6.05998 20.0636 5.92317 20.0392 5.7944C20.0149 5.64954 20.0067 5.49663 19.9255 5.4403C19.8768 5.50468 19.8118 5.55297 19.7306 5.56906C19.7549 5.43225 19.7387 5.28739 19.6899 5.15058C19.6574 5.02181 19.6168 4.9011 19.5518 4.78038L19.5031 4.82867C19.5031 4.82867 19.4787 4.86086 19.4544 4.87695C19.4138 4.90915 19.3731 4.92524 19.3325 4.94938L19.3163 4.83672C19.3163 4.83672 19.3163 4.76429 19.3 4.72405C19.2513 4.52285 19.1701 4.32971 19.0645 4.14461L19.0157 4.1768C19.0157 4.1768 18.9914 4.21704 18.967 4.23313C18.9345 4.26532 18.902 4.29751 18.8614 4.31361C18.8533 4.1607 18.8045 4.01584 18.7233 3.89513C18.6096 3.71807 18.6015 3.59736 18.4877 3.50078C18.439 3.55712 18.3822 3.61345 18.3253 3.66174C18.2766 3.4364 18.2116 3.40421 18.1385 3.23521C18.1141 3.18692 18.0816 3.13863 18.041 3.0984L17.9354 3.21911C17.9354 3.21911 17.9354 3.21106 17.9191 3.18692C17.9191 3.15473 17.9029 3.12254 17.8948 3.09035C17.8704 3.03401 17.8542 3.00987 17.8379 2.96158C17.7973 2.88111 17.7404 2.80063 17.6755 2.7282L17.6105 2.81672C17.5861 2.79258 17.6024 2.81672 17.5861 2.79258C17.5699 2.72015 17.5374 2.64772 17.4968 2.58334C17.448 2.50286 17.3912 2.43043 17.3343 2.358C17.2449 2.20509 17.1231 2.06023 16.9931 1.93951C16.9931 1.87513 16.9688 1.8188 16.9282 1.77051C16.8632 1.85099 16.8144 1.92342 16.855 1.99585C16.8226 2.09242 16.9688 2.73625 17.0987 2.85696C17.0094 2.93744 17.0419 2.85696 17.1556 3.23521C17.1881 3.33983 17.2368 3.44445 17.3099 3.53298C17.2449 3.54907 17.18 3.53298 17.1231 3.50078C17.115 3.52493 17.1069 3.54102 17.115 3.56517C17.115 3.6215 17.115 3.57321 17.1312 3.59736C17.1312 3.67784 17.2612 3.87098 17.2693 3.96756C17.3018 4.11242 17.3749 4.24118 17.4724 4.3458C17.3993 4.3619 17.3181 4.36994 17.2449 4.36994C17.2287 4.56309 17.4886 4.85281 17.643 4.98158L17.7079 5.06205C17.6592 5.0862 17.6348 5.07815 17.5861 5.09424L17.448 5.11034C17.4724 5.20691 17.5211 5.28739 17.5942 5.35177C17.6348 5.38396 17.9191 5.6254 17.9435 5.64954C17.8785 5.68173 17.8054 5.68978 17.7323 5.68173C17.7161 5.75416 17.7323 5.68978 17.7486 5.72197C17.7404 5.74611 17.7404 5.72197 17.7486 5.76221C17.7567 5.7944 17.7486 5.77026 17.7729 5.80245L17.8054 5.85074C17.8785 5.92317 18.0735 6.18069 18.1466 6.19679C18.1628 6.22093 18.1466 6.20484 18.1628 6.22898C18.171 6.22898 18.1791 6.24508 18.1872 6.24508C18.2359 6.27727 18.2278 6.24508 18.2603 6.30141L18.0735 6.38189C18.0816 6.50261 18.2278 6.58308 18.3172 6.67161C18.4146 6.77623 18.5202 6.85671 18.6421 6.92109C18.5852 6.96938 18.5365 6.96133 18.4796 6.96938C18.4877 7.04181 18.5284 7.09814 18.5771 7.14643L18.7233 7.29129C18.8208 7.41201 18.9508 7.50053 19.097 7.55687C19.0645 7.60515 19.0645 7.5971 19.0076 7.5971C19.0076 7.62929 19.0076 7.6132 19.0239 7.63734L19.0076 7.69368C19.1132 7.79025 19.2757 8.04778 19.4138 8.12021L19.56 8.19264L19.5031 8.23288C19.6006 8.40188 19.4706 8.26507 19.7062 8.53065L19.8118 8.67551C19.9824 8.86061 20.1448 9.05375 20.2748 9.27104C20.3073 9.34347 20.3398 9.39981 20.3966 9.40785C20.3966 9.48833 20.4129 9.47224 20.4535 9.53662L20.5185 9.6171C20.4535 9.57686 20.3885 9.52857 20.3154 9.48028L19.7793 9.01351C19.6656 8.88475 19.2919 8.40188 19.1619 8.34555L19.1051 8.45822C19.0401 8.36164 18.967 8.27312 18.8858 8.19264C18.7964 8.11216 18.7071 8.03168 18.6096 7.9673L18.5609 8.09607C18.4959 8.05583 18.5202 8.03973 18.4471 7.95925C18.3253 7.82244 18.1791 7.70977 18.0166 7.62125L17.9679 7.77416C17.9679 7.77416 17.7079 7.46834 17.4561 7.39591C17.4561 7.46029 17.4236 7.52467 17.383 7.58101C17.3262 7.50053 17.2531 7.43615 17.1637 7.39591C17.0744 7.33153 16.9769 7.29129 16.8713 7.2591L16.8226 7.4442C16.7576 7.38786 16.6763 7.33957 16.6032 7.29934C16.5058 7.26714 16.4083 7.243 16.3108 7.22691L16.2621 7.37177C16.1321 7.28324 15.9859 7.25105 15.8316 7.2591C15.6204 7.243 15.4092 7.243 15.1899 7.2591C15.0518 7.27519 14.6944 7.22691 14.5725 7.30738C14.6375 7.40396 14.7431 7.46834 14.8568 7.50053C14.9949 7.55687 15.1086 7.58101 15.2467 7.64539C15.5229 7.76611 15.7422 7.93511 15.9209 7.95925C15.9209 7.99949 15.8884 8.03168 15.8478 8.05583C15.8641 8.12826 15.8803 8.12826 15.9696 8.1524C16.2458 8.24897 16.2377 8.29726 16.5301 8.3214C16.5139 8.39383 16.4814 8.45017 16.4327 8.5065C16.7007 8.68355 16.7901 8.63527 17.0175 8.68355C16.985 8.74794 16.9444 8.78013 16.92 8.82841C17.0662 8.96523 17.3343 8.94913 17.513 8.98937L17.4561 9.09399L17.4236 9.13423C17.6024 9.21471 17.7973 9.25495 17.9923 9.23885L17.9679 9.31933L17.9923 9.36762C18.0491 9.4159 18.6583 9.46419 18.7071 9.47224L18.6746 9.55271C18.967 9.71367 19.9661 9.81829 20.226 9.89072C20.226 9.89072 19.2757 9.84243 19.0401 9.85853C19.0401 9.90682 19.0401 9.88267 19.0401 9.93096C18.8776 9.91486 18.7233 9.9551 18.5852 10.0436C18.5852 10.0517 18.6015 10.0678 18.6015 10.0758C18.6015 10.0839 18.6015 10.0839 18.6177 10.0919C18.4553 10.1402 18.309 10.2126 18.1791 10.3173C18.041 10.4058 17.911 10.5104 17.7892 10.6231L17.7242 10.7196C17.7811 10.784 17.9029 10.7518 18.0491 10.7196C18.1141 10.7116 18.1628 10.7035 18.2116 10.7035C18.6583 10.6794 18.3822 10.7035 18.5609 10.7277C18.6421 10.7438 19.1051 10.5748 19.0645 10.6794C19.0645 10.6794 19.0482 10.7357 19.1619 10.7196C19.1863 10.7196 19.2188 10.7116 19.2432 10.6955L19.6331 10.5184H19.6899C19.7549 10.5345 19.8362 10.4863 19.893 10.4541L20.023 10.3897C20.023 10.3897 20.0636 10.3655 20.0798 10.3494C20.1123 10.3494 20.0961 10.3494 20.1367 10.3333C20.1529 10.3173 20.1692 10.3092 20.1854 10.3092C20.2098 10.2851 20.2423 10.277 20.2748 10.269C20.3235 10.269 20.3723 10.269 20.4129 10.269L20.4616 10.2851C20.4616 10.2851 20.486 10.3012 20.4616 10.3736L20.356 10.6231C20.3154 10.776 20.2504 10.9128 20.2017 11.0657C20.0961 11.3554 20.0149 11.6612 19.9499 11.959C19.9093 12.0797 19.9011 12.2085 19.9255 12.3372L20.0067 12.3614C20.0067 12.3614 20.0067 12.3533 20.0392 12.3212L20.0555 12.3051L20.0717 12.289C20.1367 11.959 20.2179 11.629 20.3154 11.2991C20.3641 11.1381 20.421 10.945 20.486 10.7921C20.551 10.6472 20.6159 10.4943 20.6647 10.3333L20.7215 10.3655Z" fill="#84CAAA"/>
<mask id="mask0_5251_22394" style="mask-type:luminance" maskUnits="userSpaceOnUse" x="0" y="5" width="46" height="37">
<path d="M46 5.34375H0V41.6875H46V5.34375Z" fill="white"/>
</mask>
<g mask="url(#mask0_5251_22394)">
<path fill-rule="evenodd" clip-rule="evenodd" d="M15.1166 25.0047C15.2222 24.9323 15.1572 25.0047 15.1897 24.892L15.3603 24.9081C15.5309 24.9242 15.8802 25.2864 16.0183 25.2703C16.132 25.399 16.4731 25.6807 16.6275 25.7049C16.6681 25.6163 16.6518 25.6083 16.6762 25.5198C16.8224 25.6163 17.058 25.8256 17.3098 25.8578C17.4235 25.9463 17.5616 25.9946 17.7078 25.9946C17.7322 25.9543 17.7322 26.0187 17.7241 25.9302C17.8215 25.898 18.0652 26.0187 18.1627 26.0348L19.1375 26.1797C19.2837 26.2199 19.438 26.2521 19.5923 26.2601C19.4949 25.9785 19.0887 25.7129 18.91 25.56C18.7313 25.4071 18.5364 25.2703 18.3252 25.1496C18.1465 25.061 18.3333 25.1254 18.179 24.9966C17.9434 24.892 17.7322 24.723 17.4723 24.6506C17.456 24.6023 17.4641 24.6184 17.3992 24.6023C17.2042 24.5057 16.9686 24.4735 16.7087 24.3609C16.4731 24.2563 16.1482 24.2804 15.9127 24.1919L16.2701 24.1597C16.4 24.1597 16.8224 24.1194 16.9849 24.0953C17.8053 24.0148 18.0327 23.9746 18.8694 23.9504C19.4136 23.9263 19.0725 23.7492 19.04 23.5963C19.1781 23.5641 19.3405 23.6607 19.8442 23.5802C20.2422 23.5159 20.4046 23.5561 20.6158 23.2986C20.5346 23.1778 20.4777 23.1618 20.3965 23.0249C20.6646 23.0249 20.9326 22.9928 21.1926 22.9364C21.4606 22.864 21.7855 22.7916 21.8424 22.5823C21.7449 22.5179 21.6556 22.4375 21.5906 22.3409C21.8911 22.2926 22.6303 22.2041 22.7359 21.8178C22.6303 21.7695 22.5491 21.689 22.4922 21.5924C22.8334 21.512 23.272 21.343 23.5076 21.1176C23.4264 21.0532 23.3614 20.9647 23.3289 20.8681C23.6538 20.7957 24.1493 20.4738 24.2874 20.2485L24.133 20.1197C24.4092 20.007 24.8966 19.5081 25.1565 19.3149C25.3677 19.1298 25.9851 18.6791 25.9769 18.4458C25.6602 18.4458 25.1647 18.6469 24.8316 18.7596C24.4498 18.8723 24.1087 18.7999 23.8081 19.0896L23.7431 18.8884C23.4182 18.993 23.1096 19.154 22.8415 19.3632L22.7684 19.0574C22.541 19.1459 22.3298 19.2505 22.1267 19.3873C21.7774 19.5966 21.8261 19.6932 21.7043 19.8058L21.5175 19.5403C21.3469 19.6449 21.1926 19.7736 21.0626 19.9185C20.9326 19.9909 20.8433 20.1116 20.7945 20.2485C20.7945 20.2485 20.7133 20.2404 20.7133 20.2243L20.6483 19.9909C20.5184 20.0312 20.4046 20.0955 20.3153 20.2002C20.2178 20.2887 20.1447 20.337 20.0229 20.4255C19.8442 20.5623 19.6898 20.7313 19.568 20.9245L19.4461 20.6347C19.0644 20.8681 18.7557 21.1981 18.5445 21.5844L18.4308 21.4073C18.1546 21.5763 17.4966 22.3328 17.1392 22.5662C16.8955 22.7191 16.595 22.9203 16.3594 23.0893C16.2538 23.1939 16.1401 23.2825 16.0183 23.371C15.9289 23.4354 15.7421 23.54 15.6771 23.5963L15.5877 23.6446L15.6284 23.5561C15.7989 23.3951 15.9614 23.2342 16.1157 23.0571L16.595 22.5823C16.6518 22.526 16.6356 22.5501 16.6518 22.4857C16.7737 22.4616 17.391 21.85 17.6753 21.681C17.7972 21.6005 17.9678 21.5039 18.0003 21.4073C17.9434 21.2947 17.7972 21.2947 17.7241 21.19C18.6257 20.7152 18.4226 20.6991 18.91 20.3611C19.0887 20.2243 19.2024 20.1921 19.2187 20.0151C19.2187 20.0151 19.2106 20.0124 19.1943 20.007C19.1943 20.007 19.2187 20.0151 19.0806 19.9507C19.0319 19.9265 18.9912 19.9024 18.9588 19.8622C19.3811 19.7575 19.5517 19.5483 19.8685 19.3149C20.0635 19.1781 19.9985 19.2505 20.0391 19.0735C19.9822 19.0493 19.9173 19.0332 19.8523 19.0252C19.7873 19.001 19.7304 18.9608 19.6817 18.9125C19.7873 18.8401 19.9091 18.832 20.0472 18.7355L20.6402 18.3331C20.7377 18.2768 20.8108 18.1882 20.8433 18.0756L20.5915 17.979C20.5508 17.9629 20.5102 17.9387 20.4777 17.9066C20.3396 17.8261 20.4371 17.8341 20.4452 17.81C20.4859 17.9226 21.1113 17.4881 21.1357 17.4639C21.2982 17.3513 21.6556 17.1018 21.6231 16.9489C21.688 16.8845 21.688 16.7879 21.6393 16.7235C21.4931 16.8281 21.2007 16.7235 21.1194 16.6591C21.2494 16.6189 21.3713 16.5545 21.4769 16.466C21.6312 16.4338 21.8992 16.1924 22.013 16.0958C22.1917 15.9268 22.3379 15.8222 22.3298 15.5646C22.1429 15.5968 21.948 15.5646 21.7936 15.452C22.1429 15.3313 22.3135 15.0898 22.5328 14.8725C22.7765 14.607 22.9958 14.4541 22.9552 14.1402C22.7603 14.1965 22.5572 14.1885 22.3704 14.1C22.5003 13.947 22.5653 14.0678 22.874 13.5929C22.9227 13.4883 22.9796 13.3917 23.0446 13.2952C23.1258 13.1584 23.1827 13.1181 23.2314 12.9733C23.207 12.9652 23.1989 12.9813 23.1177 12.9008C23.3045 12.764 23.4507 12.587 23.5401 12.3697C23.4913 12.2731 23.5644 12.3455 23.4751 12.2972C23.6863 12.1122 24.2062 10.8567 24.0599 10.4302C23.9543 10.4463 23.6294 10.7762 23.5482 10.8647C23.3939 11.0177 23.2558 11.1786 23.1258 11.3557L22.7684 11.7178L22.4272 12.1122L22.2973 11.9512C22.1998 11.9834 21.6556 12.4984 21.6149 12.6433C21.5743 12.6755 21.5906 12.6353 21.5581 12.6996C21.5337 12.7399 21.55 12.7238 21.55 12.7801L21.5093 12.8123L21.3469 12.4663C21.087 12.5548 20.4615 13.3193 20.3559 13.6332C20.3315 13.6976 20.3072 13.77 20.299 13.8344C20.2584 13.8102 20.2584 13.8344 20.2259 13.7861L20.1203 13.6976L20.0147 13.3998C19.8442 13.4964 19.4136 14.1563 19.3162 14.4621C19.2999 14.5265 19.2755 14.5909 19.2512 14.6472C19.1212 14.5587 19.0237 14.4299 18.9588 14.2851C18.7963 14.4138 18.382 15.122 18.3252 15.3313L18.2114 15.7578C18.0815 15.6612 17.9678 15.5405 17.8703 15.4117C17.7647 15.5486 17.6997 15.7015 17.6591 15.8705C17.5779 16.1763 17.4479 16.5304 17.4885 16.7557C17.4479 16.7316 17.4723 16.7557 17.3992 16.7155C17.3748 16.6913 17.3504 16.6672 17.3179 16.6511C17.2773 16.6028 17.2367 16.5465 17.2042 16.4901C17.0824 16.5706 16.9605 16.9408 16.9118 17.0857C16.7818 17.4076 16.8387 17.6651 16.7899 17.7858C16.66 17.7375 16.6437 17.6893 16.5381 17.6329C16.4569 17.7134 16.2376 18.5262 16.2213 18.6228C16.2132 18.6791 16.2051 18.7355 16.2051 18.7918C16.2051 18.824 16.2051 18.8481 16.2132 18.8803L16.197 18.993L15.9208 18.832L15.6446 19.9507C15.6284 20.0875 15.6202 20.2243 15.6202 20.3611L15.4822 20.2967C15.3522 20.7072 15.5471 20.9003 15.2791 21.6729C15.1329 22.1075 15.1816 23.0491 15.0516 23.4595C14.9217 23.3951 14.9054 22.5179 14.8811 22.3811C14.8729 21.7936 14.9054 21.2061 14.9867 20.6187C15.0191 20.4577 15.1247 20.2243 15.1004 20.0473H14.9542C14.9623 19.9829 14.9867 19.9265 15.0273 19.8702C15.1572 19.5483 15.1491 19.2022 15.2141 18.8723C15.2222 18.7435 15.3034 18.6067 15.2303 18.4458C15.1247 18.5101 14.9948 18.5343 14.8648 18.5182C15.1085 18.2687 15.1329 17.6007 15.1654 17.2627C15.1654 17.1179 15.2385 16.9408 15.1491 16.7879C15.1329 16.8442 14.9379 16.9167 14.8811 16.9167C14.7267 16.9489 14.808 16.9167 14.7673 16.9006C14.8486 16.5465 14.8729 16.7718 14.9135 16.1521C14.946 15.9187 15.0029 15.5727 14.8648 15.3232C14.743 15.4439 14.5805 15.5244 14.4099 15.5486C14.5236 15.3956 14.5399 15.3956 14.5724 15.2186C14.6049 15.0898 14.6292 14.9611 14.6374 14.8243C14.6699 14.5587 14.7267 14.2448 14.5886 13.939C14.4424 14.0839 14.2556 14.1724 14.0525 14.1965C14.2637 13.939 14.2637 12.7479 14.0525 12.3375C13.9957 12.4019 13.9388 12.4663 13.8819 12.5226C13.7845 12.587 13.6789 12.6353 13.5651 12.6674C13.5733 12.6031 13.5895 12.5306 13.6058 12.4663C13.6383 12.2651 13.6464 12.0558 13.6301 11.8546C13.6058 11.6212 13.5814 11.1947 13.3864 11.0418C13.289 11.251 13.1184 11.412 12.8991 11.5005C13.0859 11.251 12.8422 9.95535 12.5417 9.61734C12.4604 9.69782 12.566 9.64148 12.3711 9.81853C12.2899 9.89096 12.2005 9.96339 12.1111 10.0197C12.1761 9.84268 12.2005 9.65758 12.2005 9.47248C12.1761 9.25519 12.1274 9.0379 12.0462 8.82866L11.9243 8.57917C11.8025 8.72404 11.6725 8.84475 11.5182 8.95742C11.4451 8.99766 11.5101 8.98156 11.4776 8.93328C11.5182 8.51479 11.2501 7.91121 10.9902 7.5732C10.9333 7.64563 10.8602 7.71002 10.779 7.7583C10.7303 7.4042 10.649 7.32372 10.4784 7.0501C10.2266 6.63966 9.73926 5.56126 9.25188 5.31982C9.08943 5.53711 9.44683 7.034 9.48745 7.31567C9.51182 7.56516 9.60929 7.80659 9.76363 8.00778C9.64991 8.02388 9.53619 8.03193 9.42247 8.03193C9.48745 8.28141 9.5768 8.53089 9.69864 8.76427L9.82049 9.11033C9.85298 9.2069 9.91796 9.28738 10.0073 9.33567C10.0073 9.37591 10.0561 9.37591 9.95045 9.37591C9.93421 9.37591 9.8611 9.37591 9.83673 9.37591C9.76363 9.35176 9.6824 9.34371 9.60117 9.34371C9.56868 9.30348 9.60929 9.31957 9.55243 9.30348C9.55243 9.7622 9.88547 10.4785 10.1454 10.7923C9.93421 10.8084 9.72301 10.7682 9.51994 10.6957C9.45496 11.1062 9.92609 11.6937 10.121 11.9592C9.95045 11.9592 9.77987 11.9271 9.62554 11.8546C9.55243 12.1202 9.8611 12.5789 10.0154 12.8204C10.0967 12.9089 10.1698 12.9974 10.2348 13.094C10.0642 13.1342 9.88547 13.1423 9.70677 13.1101C9.72301 13.3757 9.90172 13.5044 10.0317 13.7137C10.1292 13.9229 10.2672 14.108 10.4297 14.277C10.251 14.3414 10.0642 14.3414 9.88547 14.3011C9.90172 14.5184 10.3485 15.2669 10.4703 15.4037C10.5678 15.5325 10.6571 15.5807 10.7303 15.6773C10.6003 15.7337 10.4622 15.7739 10.3241 15.7819C10.3891 15.9831 10.8602 16.6431 11.0227 16.8442C11.112 16.9489 11.2176 17.0374 11.3313 17.1018C11.2014 17.1903 11.047 17.2466 10.8846 17.2547C10.9171 17.4076 10.9983 17.5444 11.112 17.649C11.2095 17.7778 11.2582 17.9146 11.3638 18.0595C11.5344 18.2928 11.7375 18.5423 11.9568 18.6067C11.8268 18.6791 11.6806 18.7113 11.5344 18.7113C11.6238 19.0654 12.4686 20.0634 12.6716 20.1277C12.5904 20.176 12.501 20.2002 12.4036 20.2002C12.4361 20.3933 12.7853 20.8198 12.9072 21.0049L13.8738 22.7111C14.0606 22.9927 14.2312 23.2986 14.3693 23.6044L14.3856 23.6527C14.1175 23.5078 13.3296 22.526 13.0696 22.2443C12.8422 22.0109 12.631 21.7856 12.4117 21.512C12.3061 21.3671 11.9243 20.7957 11.7944 20.7474C11.7862 20.844 11.7212 20.9245 11.6238 20.9486C11.5182 20.5301 11.2339 20.345 10.9496 20.0795C10.8359 19.9507 10.8359 19.9185 10.7059 19.8541C10.6571 19.9829 10.6571 20.0714 10.5191 20.1599C10.4216 19.8783 10.0154 19.1942 9.69864 19.1218V19.1459C9.66615 19.2747 9.60929 19.3954 9.51182 19.4839C9.40622 19.2586 9.25188 19.0654 9.07318 18.8964C8.87823 18.7033 8.6914 18.494 8.5127 18.5021C8.5127 18.6469 8.47209 18.7918 8.37461 18.8964C8.25277 18.663 8.07406 18.4618 7.84662 18.325C7.61106 18.1641 7.50546 18.0353 7.22928 17.9307L7.21304 18.0434C7.21304 18.0434 7.21304 18.1238 7.19679 18.156C7.17242 18.2365 7.13993 18.317 7.09119 18.3894L6.94498 18.2365C6.90437 18.1802 6.85563 18.1319 6.79877 18.0836C6.49822 17.8422 6.15706 17.641 5.79965 17.4881L5.75904 17.5927C5.75904 17.6329 5.75904 17.6812 5.75091 17.7215C5.74279 17.8019 5.71842 17.8824 5.68593 17.9629C5.4991 17.7536 5.27166 17.5927 5.01173 17.4961C4.65432 17.3593 4.49999 17.1903 4.22381 17.1823C4.22381 17.3271 4.19944 17.4639 4.16695 17.6088C3.85015 17.3352 3.71206 17.3593 3.41152 17.1903C3.32217 17.142 3.22469 17.1018 3.11909 17.0857L3.09472 17.3834C3.05411 17.3593 3.07036 17.3754 3.02974 17.3513C2.98913 17.303 2.93227 17.2708 2.88353 17.2386C2.78605 17.1823 2.72919 17.1662 2.65609 17.1179C2.50175 17.0454 2.33117 16.9891 2.16059 16.9569V16.973V17.1581C2.09561 17.142 2.14434 17.1581 2.09561 17.142C1.99001 17.0454 1.86817 16.9811 1.73008 16.9328C1.56762 16.8764 1.40516 16.8281 1.23458 16.7879C0.925909 16.6913 0.617239 16.5545 0.267954 16.5465C0.202971 16.458 0.0973729 16.3936 -0.0163477 16.3694C-0.0244706 16.5545 -0.00822483 16.7155 0.129865 16.7799C0.194848 16.9569 1.12898 17.7456 1.4539 17.7778C1.42141 17.9951 1.36455 17.8422 1.95752 18.2848C2.11998 18.4136 2.3068 18.5021 2.50988 18.5504C2.42865 18.6389 2.32305 18.7033 2.20121 18.7113C2.20933 18.7516 2.2337 18.7918 2.25807 18.824C2.32305 18.9125 2.25807 18.8401 2.32305 18.8562C2.40428 18.9769 2.81855 19.1298 2.94039 19.2505C3.24094 19.5322 3.54148 19.5403 3.66333 19.5885C3.57398 19.7012 3.4765 19.7978 3.35466 19.8783C3.54961 20.176 4.24818 20.3289 4.62183 20.345L4.80053 20.3933C4.75992 20.4818 4.71118 20.4979 4.66244 20.5704L4.48374 20.7394C4.62183 20.852 4.79241 20.9245 4.97924 20.9406C5.06859 20.9406 5.76716 20.9808 5.83214 20.9969C5.76716 21.1096 5.67781 21.2061 5.56409 21.2705C5.62907 21.3993 5.56409 21.2866 5.63719 21.3188C5.65344 21.3671 5.62907 21.343 5.67781 21.3751C5.72654 21.4154 5.70218 21.3832 5.75904 21.3993L5.86463 21.4395C6.05958 21.4637 6.63631 21.6327 6.75815 21.5763C6.79877 21.6005 6.75815 21.5924 6.82314 21.6085C6.83938 21.6085 6.86375 21.6085 6.88 21.6085C6.99372 21.6085 6.93686 21.5683 7.04246 21.6085L6.85563 21.9304C7.00996 22.0994 7.30239 22.0512 7.53795 22.0834C7.79788 22.0834 8.00908 22.1799 8.30151 22.0994C8.27714 22.2363 8.19591 22.2684 8.11468 22.3489C8.21215 22.4375 8.334 22.4938 8.46396 22.5018L8.83762 22.5582C9.14629 22.5984 9.30875 22.6547 9.6824 22.5501C9.6824 22.6628 9.6824 22.6467 9.59305 22.7111C9.62554 22.7513 9.60117 22.7433 9.66615 22.7594L9.69864 22.8559C9.9667 22.8801 10.4947 23.0813 10.779 23.041L11.0795 22.9928L11.047 23.1135C11.372 23.2583 11.0389 23.1939 11.6806 23.3388L11.9893 23.4354C12.4686 23.548 12.8991 23.6044 13.3296 23.8056C13.4595 23.87 13.5733 23.9263 13.6707 23.878C13.7682 23.9907 13.7682 23.9504 13.8982 23.9987L14.0769 24.047V24.0631C13.9307 24.0631 13.7763 24.0631 13.6301 24.0712L12.3223 23.9665C12.0055 23.9102 10.9252 23.5963 10.6653 23.6527L10.7059 23.878C10.5028 23.8056 10.2916 23.7573 10.0804 23.7251C9.8611 23.701 9.64178 23.6849 9.42247 23.6929L9.49557 23.9424C9.34936 23.9585 9.37373 23.9102 9.17066 23.87C8.83762 23.8056 8.50458 23.7975 8.17154 23.8458L8.26901 24.1275C8.21215 24.1275 7.54607 23.9504 7.09119 24.1275C7.15618 24.2321 7.19679 24.3528 7.19679 24.4816C6.98559 24.4414 6.94498 24.385 6.6688 24.4414C6.46573 24.4414 6.27078 24.4896 6.08395 24.5701L6.21392 24.892C6.05146 24.892 5.889 24.892 5.72654 24.9323C5.54784 24.9886 5.37726 25.061 5.2148 25.1415L5.30415 25.4071C4.90613 25.4312 4.84927 25.5278 4.54872 25.7209C4.21568 25.9302 3.90701 26.1636 3.61459 26.4211C3.43589 26.5901 2.85104 26.9201 2.76981 27.1695C2.94851 27.2742 3.18408 27.1937 3.40339 27.1374C3.67145 27.0649 3.8664 26.9764 4.14258 26.9201C4.68681 26.7913 5.19043 26.7994 5.48286 26.6464C5.51535 26.7189 5.51535 26.7994 5.48286 26.8637C5.58846 26.9523 5.61282 26.9281 5.7834 26.8718C6.30327 26.7108 6.34389 26.7913 6.79877 26.5096C6.84751 26.6303 6.87187 26.7591 6.85563 26.8959C7.4486 26.8557 7.52171 26.6867 7.91973 26.5177C7.95222 26.6545 7.91973 26.735 7.93597 26.8396C8.30151 26.8798 8.6914 26.566 8.99195 26.4211L9.02444 26.6303V26.7269C9.37373 26.6545 9.70677 26.4935 9.97482 26.2521L10.0236 26.397L10.1129 26.4372C10.2429 26.4452 11.1933 25.8497 11.2745 25.8014L11.307 25.9543C11.9243 25.8739 13.5083 24.9242 13.9632 24.7552C13.9632 24.7552 12.5173 25.729 12.1843 26.0026C12.2492 26.0751 12.2167 26.0268 12.2736 26.0992C12.0055 26.228 11.8106 26.566 11.7294 26.7591C11.7537 26.7672 11.77 26.7833 11.7944 26.7913C11.8187 26.7994 11.8187 26.7994 11.835 26.7913C11.7944 26.8959 11.6806 26.8798 11.4369 27.6041C11.3395 27.8938 11.2664 28.1916 11.2095 28.4894L11.2257 28.7067C11.3882 28.7469 11.5263 28.5538 11.7131 28.3606C11.7944 28.2801 11.8675 28.2158 11.9324 28.1594C12.5579 27.6363 12.1761 27.9663 12.4767 27.8134C12.6229 27.749 13.1103 26.9925 13.1671 27.1937C13.1671 27.1937 13.1996 27.2903 13.354 27.1454C13.3946 27.1132 13.4189 27.073 13.4433 27.0247L13.8088 26.3326L13.8982 26.2843C14.0119 26.228 14.0606 26.067 14.1175 25.9543L14.2312 25.7129C14.2312 25.7129 14.2556 25.6324 14.2637 25.5922C14.3043 25.56 14.2962 25.5841 14.3287 25.5117C14.3287 25.4795 14.3449 25.4473 14.3693 25.4232C14.3856 25.3588 14.4181 25.3105 14.4587 25.2622C14.5236 25.2059 14.5886 25.1496 14.6617 25.1013L14.743 25.0691C14.743 25.0691 14.7998 25.0691 14.8404 25.1978L14.9704 25.6888C15.0841 25.9624 15.141 26.236 15.2385 26.5177C15.4172 27.0649 15.6284 27.5961 15.8721 28.1192C16.0101 28.4009 16.067 28.5699 16.2619 28.7067L16.4082 28.6584C16.4325 28.6181 16.4082 28.6423 16.4082 28.5618V28.5216L16.4163 28.4813C16.1157 27.7731 15.9776 27.6524 15.669 26.7511C15.5634 26.4533 15.4334 26.1153 15.3441 25.8175C15.2791 25.5198 15.1979 25.23 15.1004 24.9484L15.1166 25.0047Z" fill="#9BD1A0"/>
<path fill-rule="evenodd" clip-rule="evenodd" d="M23.7025 36.1588C23.8893 36.1507 23.7431 36.191 23.8812 36.0703L24.0842 36.2151C24.2792 36.36 24.4335 37.0682 24.6203 37.1567C24.6691 37.3982 24.864 38.0098 25.0346 38.1546C25.1565 38.0822 25.1402 38.05 25.2377 37.9695C25.3433 38.1949 25.4732 38.6375 25.7575 38.8628C25.8307 39.056 25.9687 39.225 26.1393 39.3377C26.1962 39.2974 26.1556 39.394 26.2043 39.2733C26.3505 39.3055 26.5617 39.6354 26.6673 39.7401L27.7558 40.6575C27.9507 40.8265 27.9995 40.9472 28.2513 41.1082C28.3488 40.6897 28.0563 40.062 27.9507 39.724C27.8451 39.4021 27.7152 39.0801 27.5446 38.7824C27.3902 38.5409 27.5771 38.7663 27.4796 38.4846C27.2684 38.1788 27.1384 37.8166 26.8704 37.5189C26.8866 37.4464 26.8785 37.4706 26.8216 37.4062C26.6511 37.1326 26.3911 36.9233 26.1556 36.5853C25.9444 36.2795 25.522 36.0542 25.3108 35.7725L25.7738 36.0059C25.9362 36.0944 26.4886 36.3761 26.6998 36.4807C27.772 37.0119 28.0807 37.1326 29.1367 37.7281C29.8271 38.1144 29.5428 37.6396 29.624 37.4303C29.819 37.5028 29.9408 37.7362 30.6313 38.0178C31.1755 38.2432 31.3461 38.4122 31.7929 38.2593C31.7929 38.05 31.7279 37.9856 31.7279 37.7523C32.0609 37.9534 32.4183 38.1144 32.7839 38.2512C33.1738 38.3639 33.6286 38.5248 33.8561 38.3156C33.783 38.1627 33.7424 37.9937 33.7342 37.8247C34.1404 37.9937 35.1233 38.4524 35.5456 38.0581C35.4563 37.9213 35.4157 37.7523 35.4157 37.5913C35.8949 37.7523 36.5691 37.881 37.0321 37.7844C36.9834 37.6396 36.9753 37.4867 37.0078 37.3418C37.4626 37.4947 38.3237 37.4867 38.673 37.3096L38.5836 37.028C39.006 37.1004 39.997 36.867 40.4762 36.8187C40.8824 36.7543 41.9871 36.6739 42.1658 36.3841C41.784 36.1427 41.0042 36.0139 40.5087 35.9013C39.9483 35.7484 39.5827 35.4104 38.9816 35.5311L39.0466 35.2333C38.5674 35.0723 38.0394 35.1045 37.5682 35.1287L37.7226 34.7021C37.4789 34.6217 36.9347 34.6217 36.6747 34.6136C36.0818 34.6136 36.0655 34.7585 35.8218 34.8068L35.7975 34.34C35.6512 34.3078 35.0258 34.4205 34.9364 34.4527C34.7252 34.4527 34.514 34.517 34.3435 34.6539C34.3435 34.6539 34.2541 34.5814 34.2622 34.5573L34.3678 34.2193C34.181 34.1629 33.986 34.1629 33.7992 34.2193C33.6124 34.2515 33.4824 34.2515 33.2631 34.2756C32.8163 34.2998 32.6295 34.4366 32.3127 34.5492L32.394 34.1066C31.9634 34.0583 31.0049 34.2756 30.5419 34.5814V34.2676C30.0708 34.2676 28.6737 34.6941 28.0482 34.7021C27.6258 34.7021 27.1059 34.7182 26.6836 34.7504C26.4724 34.7907 26.253 34.8229 26.0418 34.8309C25.8794 34.847 25.5707 34.8309 25.4408 34.847H25.2864L25.4083 34.7585C25.7413 34.6941 26.0743 34.6136 26.3993 34.5251L27.3578 34.3078C27.4715 34.2837 27.439 34.3078 27.504 34.2354C27.6664 34.2998 28.9011 34.0181 29.3966 34.0261C29.6078 34.0261 29.8921 34.0342 30.0139 33.9376C30.0302 33.7606 29.8515 33.6398 29.8352 33.4628C31.3136 33.5674 31.078 33.3823 31.9391 33.3501C32.2559 33.3179 32.4346 33.3582 32.5808 33.165C32.5808 33.165 32.5754 33.1543 32.5645 33.1328C32.5239 33.1731 32.5808 33.165 32.4671 32.9799C32.4264 32.9236 32.394 32.8512 32.3858 32.7787C32.9869 32.9719 33.3525 32.8431 33.9373 32.8029C34.2785 32.7787 34.1404 32.827 34.3435 32.6419C34.2947 32.5695 34.2297 32.4971 34.1566 32.4407C34.0998 32.3602 34.0592 32.2717 34.0348 32.1832C34.2216 32.1751 34.3841 32.2637 34.6196 32.2395L35.6675 32.1993C35.8299 32.2073 35.9924 32.151 36.1224 32.0464L35.8868 31.7325C35.8462 31.6762 35.8218 31.6198 35.7975 31.5555C35.6919 31.3543 35.7975 31.4267 35.8299 31.4106C35.7893 31.5796 36.894 31.5233 36.9509 31.5152C37.2352 31.5072 37.8688 31.4669 37.9419 31.2577C38.0637 31.2336 38.145 31.1128 38.1368 30.9921C37.8769 31.0082 37.5926 30.6622 37.5439 30.5253C37.747 30.5495 37.9663 30.6219 38.1368 30.5575C38.348 30.63 38.8679 30.5414 39.0791 30.5173C39.4365 30.4449 39.6964 30.4288 39.8751 30.1069C39.6233 30.0022 39.4121 29.8091 39.2984 29.5596C39.8183 29.6803 40.2163 29.5113 40.6549 29.4067C41.1586 29.2618 41.5485 29.2538 41.7515 28.8353C41.4672 28.7629 41.2235 28.5858 41.0611 28.3444C41.3454 28.2559 41.321 28.4571 42.0765 28.111C42.2227 28.0225 42.3689 27.9501 42.5151 27.8776C42.7263 27.773 42.8238 27.765 42.9862 27.6281C42.97 27.596 42.9375 27.6201 42.8969 27.4511C43.2299 27.435 43.5548 27.3223 43.831 27.1211C43.8391 26.9682 43.8879 27.105 43.8066 26.9843C44.2128 26.9199 45.8292 25.7772 45.9754 25.1414C45.8374 25.085 45.1713 25.238 45.0088 25.2782C44.7002 25.3506 44.3996 25.4391 44.1072 25.5599L43.3924 25.7289L42.6694 25.9462L42.6369 25.6564C42.4907 25.6242 41.4266 25.8415 41.2642 25.9864C41.1829 25.9864 41.2479 25.9542 41.1504 26.0105C41.0936 26.0508 41.118 26.0266 41.0773 26.0991H40.9961L41.0692 25.5599C40.6712 25.4713 39.3228 25.9301 38.941 26.2278C38.8598 26.2842 38.7786 26.3566 38.7136 26.429C38.673 26.3727 38.673 26.3968 38.6648 26.3164L38.608 26.1232L38.7136 25.6806C38.4293 25.6645 37.3814 26.1474 37.024 26.4532C36.9509 26.5176 36.8778 26.5819 36.8047 26.6302C36.7153 26.421 36.6828 26.1956 36.7235 25.9703C36.431 26.0025 35.3669 26.5578 35.1314 26.767L34.6684 27.2016C34.5871 26.9843 34.5303 26.759 34.514 26.5256C34.2947 26.5819 34.0673 26.7831 33.9048 26.928C33.5718 27.2338 33.1331 27.5718 33.0032 27.8776C32.9626 27.8213 32.9788 27.8776 32.9301 27.7569C32.9219 27.7086 32.9057 27.6603 32.8813 27.6201C32.8651 27.5235 32.8651 27.427 32.8651 27.3384C32.6539 27.3384 32.2071 27.7006 32.0447 27.8454C31.6385 28.1432 31.5086 28.4973 31.3461 28.61C31.2243 28.4571 31.2405 28.3846 31.1512 28.2317C30.9887 28.272 30.0952 29.0928 29.9896 29.1975C29.9327 29.2618 29.884 29.3262 29.8434 29.3987C29.819 29.4308 29.7946 29.4711 29.7865 29.5113L29.6809 29.6401L29.4616 29.2297L28.2513 30.3966C28.1294 30.5495 28.0076 30.7185 27.902 30.8875L27.7883 30.7024C27.309 31.1048 27.3984 31.4911 26.4724 32.2315C25.9525 32.658 25.2945 33.841 24.8072 34.2434C24.6934 34.0664 25.3595 32.9799 25.4326 32.7948C25.4976 32.6258 26.5942 31.0565 26.9272 30.7185C27.0978 30.5495 27.4065 30.3402 27.5121 30.1069L27.3334 29.9861C27.3984 29.9218 27.4715 29.8654 27.5527 29.8332C27.9589 29.5355 28.2188 29.1089 28.5599 28.7468C28.6737 28.5939 28.8767 28.4893 28.9092 28.2398C28.7224 28.2398 28.5437 28.1673 28.4056 28.0466C28.9011 27.9259 29.4535 27.1292 29.754 26.7348C29.8759 26.5578 30.0952 26.3968 30.0952 26.1474C30.0302 26.2117 29.7296 26.1474 29.6647 26.0991C29.4535 26.0266 29.5753 26.0508 29.5347 25.9944C29.9083 25.6162 29.7621 25.914 30.2982 25.1897C30.5176 24.9321 30.8669 24.5458 30.8831 24.1354C30.6557 24.2159 30.412 24.1596 30.1439 24.071C30.4038 23.9745 30.4282 23.9825 30.5988 23.7894C30.7369 23.6606 30.8669 23.5157 30.9887 23.3628C31.2405 23.057 31.5573 22.719 31.6142 22.2442C31.3786 22.2683 31.1268 22.3408 30.7531 22.1476C31.208 21.9947 32.1421 20.5381 32.1909 19.8781C32.0772 19.9184 31.9553 19.9506 31.8335 19.9747C31.6629 19.9747 31.4923 19.9586 31.3299 19.9103C31.3948 19.8379 31.4598 19.7655 31.5329 19.7011C31.7279 19.4757 31.8985 19.2263 32.0365 18.9687C32.1828 18.671 32.4914 18.1237 32.3615 17.7857C32.0772 17.9708 31.736 18.0352 31.4111 17.9789C31.8416 17.8179 32.5402 16.0474 32.4264 15.4036C32.2559 15.4438 32.4427 15.4599 32.0609 15.5243C31.9066 15.5565 31.7441 15.5726 31.5817 15.5726C31.7929 15.4116 31.9716 15.2024 32.1097 14.977C32.2477 14.6873 32.3533 14.3815 32.4264 14.0676L32.4671 13.6652C32.2153 13.7457 31.9472 13.8021 31.6791 13.8182C31.5492 13.8182 31.6467 13.8343 31.6385 13.7618C32.0122 13.279 32.1503 12.3374 32.0853 11.7257C31.9553 11.774 31.8172 11.7901 31.6791 11.7901C31.8903 11.3233 31.8497 11.1624 31.8578 10.6956C31.8578 10.0035 32.1015 8.30543 31.6873 7.64551C31.3136 7.79037 30.5907 9.89084 30.4282 10.2691C30.2658 10.599 30.2008 10.9692 30.2333 11.3314C29.9652 11.2429 29.9327 11.1624 29.7946 11.1061C29.6809 11.4682 29.5997 11.8384 29.5591 12.2086L29.4372 12.7237C29.421 12.9007 29.4129 13.0536 29.4941 13.1502C29.4616 13.1904 29.5266 13.2307 29.3885 13.1502C29.3641 13.1502 29.2748 13.0697 29.2504 13.0697C29.1773 12.9892 29.0879 12.9168 28.9905 12.8524C28.9823 12.7719 29.023 12.8363 28.958 12.7639C28.5924 13.3272 28.4625 14.4539 28.5356 15.0334C28.2919 14.9529 27.967 14.5907 27.8451 14.4378C27.4552 14.8885 27.569 15.9669 27.6096 16.4417C27.3984 16.313 27.2115 16.144 27.0816 15.9347C26.7892 16.2003 26.8054 17.0051 26.8135 17.4155C26.8216 17.6006 26.8948 17.7455 26.8785 17.9225C26.6348 17.842 26.4074 17.7133 26.2124 17.5362C26.0256 17.8823 26.1474 18.164 26.1393 18.5261C26.1231 19.2665 26.0987 18.7997 26.1962 19.516C25.9363 19.4596 25.6926 19.3228 25.5057 19.1297C25.3595 19.4033 25.3352 20.6588 25.3758 20.9243C25.4001 21.1577 25.4732 21.2784 25.4814 21.4635C25.2783 21.4394 25.0833 21.375 24.9046 21.2784C24.8397 21.5682 24.9046 22.7431 24.9453 23.1133C24.9777 23.4031 25.0509 23.4433 25.124 23.6686C24.8884 23.6767 24.661 23.6284 24.4579 23.5157C24.3848 23.733 24.3767 23.9584 24.4335 24.1756C24.4579 24.4171 24.4091 24.6102 24.4335 24.8678C24.466 25.2862 24.5147 25.7369 24.7422 25.9944C24.531 25.9784 24.3198 25.914 24.1411 25.8013C23.9705 26.3003 24.2386 28.1673 24.4416 28.3927C24.3035 28.3927 24.1655 28.3524 24.0517 28.28C23.938 28.5375 24.0436 29.3343 24.0517 29.6401L23.9136 32.4649C23.9218 32.9558 23.8974 33.4467 23.8324 33.9376L23.8162 34.01C23.5969 33.6237 23.3857 31.8291 23.2801 31.2899C23.1826 30.8312 23.1014 30.3966 23.0364 29.8976C23.0201 29.632 22.9876 28.6502 22.8739 28.4973C22.7846 28.61 22.6465 28.6502 22.5084 28.618C22.7033 28.0144 22.4921 27.5879 22.3541 27.0407C22.3053 26.7992 22.3378 26.759 22.2322 26.5739C22.0779 26.6946 21.9966 26.8073 21.7611 26.7992C21.8586 26.3807 21.891 25.2299 21.558 24.9L21.5255 24.916C21.4037 25.0609 21.2331 25.1575 21.0463 25.1897C21.0869 24.8356 21.0544 24.4815 20.9569 24.1435C20.8594 23.7652 20.8026 23.3628 20.5751 23.2341C20.4695 23.4192 20.299 23.556 20.0959 23.6123C20.169 23.1938 19.9984 22.7914 19.8847 22.5098C19.7141 22.1315 19.6897 21.8981 19.4298 21.5601L19.3242 21.6889C19.2917 21.7372 19.2592 21.7774 19.2186 21.8176C19.1293 21.9062 19.0237 21.9706 18.9099 22.0269L18.8531 21.7291C18.845 21.6245 18.8206 21.5279 18.7881 21.4314C18.6013 20.9002 18.3413 20.4012 18.0164 19.9425L17.8865 20.0391C17.8621 20.0954 17.8215 20.1518 17.7727 20.192C17.6996 20.2886 17.6103 20.369 17.5047 20.4415C17.4397 20.0471 17.2772 19.6689 17.0335 19.355C16.6924 18.9204 16.6355 18.5985 16.3025 18.3652C16.1806 18.5342 16.0507 18.6951 15.9045 18.84C15.7258 18.2605 15.5389 18.1881 15.3034 17.7535C15.2303 17.6248 15.1328 17.504 15.0191 17.4075L14.7591 17.7616C14.7185 17.7052 14.7429 17.7294 14.7023 17.673C14.686 17.5845 14.6535 17.496 14.6048 17.4236C14.5317 17.2787 14.4748 17.2143 14.418 17.1017C14.288 16.8844 14.1174 16.6912 13.9306 16.5222V16.5464L13.7681 16.7717C13.7032 16.7073 13.7438 16.7717 13.7032 16.7073C13.6463 16.5142 13.5488 16.3291 13.4107 16.1762C13.2564 15.983 13.0939 15.7979 12.9152 15.6289C12.6066 15.2748 12.3385 14.8805 11.908 14.5988C11.8918 14.4298 11.8186 14.2769 11.6968 14.1642C11.5425 14.3895 11.4369 14.5988 11.5506 14.7758C11.4856 15.0414 12.0298 16.7154 12.4035 17.0051C12.1923 17.2385 12.241 17.0212 12.6391 18.011C12.7447 18.2927 12.9071 18.5503 13.1102 18.7595C12.899 18.7917 12.834 18.8239 12.5984 18.7193C12.5822 18.7756 12.5741 18.84 12.5822 18.8963C12.5984 19.0573 12.5822 18.9204 12.6391 18.9848C12.6391 19.1941 13.0452 19.693 13.0939 19.9345C13.2483 20.5059 13.6057 20.7473 13.7275 20.9002C13.5326 20.9646 13.3295 21.0048 13.1264 21.0209C13.1346 21.536 13.8819 22.2442 14.3286 22.558L14.5155 22.7512C14.3936 22.8236 14.3205 22.8075 14.2068 22.8639L13.8494 22.9363C14.02 23.3065 14.0037 23.2823 14.3043 23.556C14.418 23.6364 15.2384 24.2078 15.3034 24.2722C15.1328 24.3607 14.946 24.409 14.751 24.401C14.7266 24.6022 14.751 24.4251 14.7998 24.5137C14.7835 24.5861 14.7673 24.5298 14.7998 24.6183C14.8322 24.6988 14.816 24.6505 14.881 24.7148L14.9785 24.8436C15.1978 25.0207 15.7745 25.6725 15.9776 25.6886C16.0182 25.745 15.9776 25.7128 16.0344 25.7772C16.0588 25.7772 16.075 25.8093 16.1075 25.8174C16.2456 25.8979 16.2131 25.8174 16.3106 25.9381L15.8314 26.1876C15.8882 26.5095 16.2862 26.6785 16.5543 26.8958C16.8711 27.097 17.066 27.3706 17.4803 27.4913C17.3422 27.6362 17.2204 27.6121 17.0498 27.6523C17.0985 27.8374 17.2041 27.9983 17.3585 28.111L17.7727 28.4651C18.122 28.7548 18.2845 28.9399 18.8206 29.0928C18.7394 29.2297 18.7394 29.2055 18.585 29.2216C18.585 29.3021 18.5769 29.2699 18.6338 29.3343L18.6013 29.4791C18.9099 29.7045 19.4054 30.3563 19.7872 30.5253L20.1934 30.6944L20.0634 30.8151C20.3558 31.2416 19.9903 30.9036 20.6645 31.5716L20.9732 31.9257C21.4768 32.4246 21.956 32.819 22.3459 33.3984C22.4596 33.5755 22.5571 33.7284 22.7115 33.7364C22.7358 33.9457 22.7764 33.9054 22.8983 34.0583L23.0851 34.2515V34.2756C22.8983 34.1549 22.7033 34.0422 22.5084 33.9376L20.9732 32.819C20.632 32.5051 19.5354 31.306 19.178 31.1692L19.0562 31.475C18.9018 31.3382 18.9018 31.2336 18.4063 30.8151C18.1626 30.6139 17.8946 30.4368 17.6265 30.2759L17.5209 30.638C17.3341 30.5414 17.3991 30.5093 17.1798 30.3C16.8224 29.9701 16.4081 29.7045 15.9613 29.5033L15.8639 29.9218C15.7907 29.8815 15.1084 29.1572 14.4099 29.0204C14.4099 29.1975 14.3611 29.3745 14.2636 29.5274C14.0281 29.3182 14.0281 29.2136 13.6382 29.0767C13.3782 28.9641 13.1264 28.8031 12.8259 28.787L12.7365 29.2779C12.5416 29.1411 12.3304 29.0365 12.1111 28.956C11.8511 28.8916 11.5831 28.8434 11.315 28.8273L11.2257 29.2216C10.7139 28.948 10.5677 29.0204 10.0479 29.0285C9.47925 29.0285 8.91065 29.0848 8.35017 29.1814C7.99276 29.2538 7.01801 29.2136 6.72559 29.455C6.8718 29.7206 7.21296 29.801 7.52975 29.8976C7.91965 30.0103 8.2202 30.0586 8.60198 30.1954C9.37365 30.4529 9.98287 30.8473 10.4702 30.8794C10.4621 30.9921 10.3971 31.0887 10.2997 31.1531C10.3565 31.3462 10.4134 31.3301 10.6571 31.3865C11.4125 31.5877 11.4125 31.7164 12.1923 31.7084C12.1598 31.8935 12.0867 32.0705 11.9649 32.2234C12.7284 32.6258 12.9477 32.4729 13.5732 32.5695C13.5001 32.7626 13.4026 32.8431 13.3458 32.9799C13.76 33.3099 14.483 33.2133 14.9703 33.2777L14.8566 33.5594L14.7754 33.672C15.2709 33.8491 15.807 33.9054 16.3269 33.8169L16.2781 34.0342L16.3512 34.1549C16.5056 34.2676 18.1464 34.2595 18.2764 34.2595L18.2032 34.4768C19.0237 34.847 21.7123 34.8953 22.4109 35.0241C22.4109 35.0241 19.8684 35.1126 19.2511 35.2011C19.2755 35.3379 19.2673 35.2574 19.2836 35.3862C18.8531 35.3379 18.3495 35.6115 18.0976 35.7886C18.1139 35.8208 18.1383 35.8449 18.1545 35.8771C18.1708 35.9093 18.1708 35.9093 18.1951 35.9093C18.0652 36.0059 17.9352 35.9093 17.0742 36.6014C16.7249 36.875 16.4081 37.1809 16.1075 37.5108L15.9613 37.7844C16.1319 37.9534 16.4487 37.8166 16.8305 37.7281C16.9929 37.6879 17.131 37.6718 17.261 37.6476C18.4469 37.4786 17.7159 37.5993 18.2032 37.6315C18.4307 37.6557 19.6248 37.1084 19.5273 37.3982C19.5273 37.3982 19.4948 37.543 19.7953 37.4867C19.8684 37.4786 19.9334 37.4464 19.9984 37.4062L20.9894 36.8348H21.1437C21.3224 36.859 21.5174 36.698 21.6717 36.6014L22.0048 36.3922C22.0535 36.36 22.1022 36.3197 22.1347 36.2715C22.216 36.2715 22.1835 36.2795 22.2728 36.2232C22.3053 36.1829 22.3459 36.1588 22.3947 36.1507C22.4596 36.0864 22.5409 36.0461 22.6302 36.022C22.7521 35.9978 22.882 35.9817 23.0039 35.9817L23.1257 36.0139C23.1257 36.0139 23.1907 36.0542 23.1501 36.2473L22.9389 36.9475C22.8658 37.366 22.7277 37.7442 22.6302 38.1627C22.4272 38.9675 22.2728 39.7803 22.1672 40.6012C22.1104 41.0518 22.0535 41.2933 22.1916 41.6071L22.4109 41.6554C22.4678 41.6152 22.4109 41.6313 22.4921 41.5428L22.5246 41.5025L22.5652 41.4623C22.7439 40.3678 22.6708 40.1263 22.9795 38.7824C23.0851 38.3397 23.1745 37.8247 23.3044 37.3901C23.4506 36.9797 23.5725 36.5612 23.6781 36.1347L23.7025 36.1588Z" fill="#73C9B7"/>
</g>
</svg>
