<svg width="40" height="45" viewBox="0 0 40 45" fill="none" xmlns="http://www.w3.org/2000/svg">
<path d="M21.0493 44.2824L5.75749 40.1824C5.18623 40.0291 4.69925 39.6552 4.40365 39.1429C4.10804 38.6306 4.02803 38.0218 4.18121 37.4506L12.6691 5.79307C12.8222 5.22182 13.1961 4.73481 13.7083 4.43917C14.2205 4.14354 14.8292 4.0635 15.4005 4.21666L30.6923 8.31663C31.2636 8.4698 31.7506 8.84362 32.0463 9.35586C32.3421 9.86811 32.4222 10.4768 32.2692 11.0482L23.7813 42.7056C23.6281 43.277 23.2542 43.7641 22.7418 44.0598C22.2295 44.3555 21.6207 44.4356 21.0493 44.2824Z" fill="#1F2853"/>
<path d="M14.3367 4.01997L13.686 4.45279L13.5831 4.83672L14.4578 4.74835L14.3367 4.01997Z" fill="#07282D"/>
<path d="M22.9163 43.9475L23.619 43.4851L22.8696 43.0068L22.9163 43.9475Z" fill="#07282D"/>
<path d="M21.7746 43.8027L6.4837 39.703C5.91243 39.5497 5.42545 39.1758 5.12985 38.6635C4.83425 38.1512 4.75424 37.5424 4.90741 36.9711L13.3953 5.31364C13.5488 4.74273 13.9226 4.25612 14.4347 3.96078C14.9469 3.66544 15.5553 3.58553 16.1263 3.73863L31.4176 7.83847C31.9889 7.99165 32.476 8.36546 32.7717 8.87771C33.0674 9.38995 33.1476 9.99868 32.9945 10.57L24.507 42.2261C24.3538 42.7975 23.9799 43.2846 23.4676 43.5803C22.9552 43.876 22.3459 43.9559 21.7746 43.8027Z" fill="#121844"/>
<path d="M31.5126 12.813L13.554 7.99805L6.38815 34.7246L24.3467 39.5396L31.5126 12.813Z" fill="#A6D7C5"/>
<path d="M24.8006 9.34617L21.1009 8.35425C21.0101 8.3299 20.9327 8.27047 20.8857 8.18904C20.8387 8.10761 20.826 8.01085 20.8503 7.92004C20.8747 7.82923 20.9341 7.75181 21.0155 7.70481C21.097 7.65782 21.1937 7.64509 21.2845 7.66944L24.9842 8.66137C25.075 8.68571 25.1524 8.74514 25.1994 8.82657C25.2464 8.908 25.2591 9.00476 25.2348 9.09557C25.2104 9.18638 25.151 9.2638 25.0696 9.3108C24.9881 9.3578 24.8914 9.37052 24.8006 9.34617Z" fill="#75C099"/>
<path d="M17.4356 40.5762L11.8544 39.0798C11.7635 39.0555 11.6861 38.9961 11.6391 38.9146C11.5921 38.8332 11.5794 38.7364 11.6038 38.6456C11.6281 38.5548 11.6875 38.4774 11.769 38.4304C11.8504 38.3834 11.9471 38.3707 12.038 38.395L17.6192 39.8914C17.71 39.9158 17.7874 39.9752 17.8344 40.0566C17.8814 40.1381 17.8941 40.2348 17.8698 40.3256C17.8454 40.4165 17.786 40.4939 17.7046 40.5409C17.6231 40.5879 17.5264 40.6006 17.4356 40.5762Z" fill="#75C099"/>
<g opacity="0.23">
<mask id="mask0_5251_22403" style="mask-type:luminance" maskUnits="userSpaceOnUse" x="6" y="7" width="26" height="33">
<path d="M31.5126 12.814L13.554 7.99902L6.38815 34.7255L24.3467 39.5405L31.5126 12.814Z" fill="white"/>
</mask>
<g mask="url(#mask0_5251_22403)">
<path d="M6.3879 34.7265L31.5123 12.815L24.3465 39.5415L6.3879 34.7265Z" fill="white"/>
</g>
</g>
<path d="M22.5052 32.3703L11.7781 29.4942C11.5086 29.422 11.2787 29.2455 11.1392 29.0038C10.9997 28.7621 10.9619 28.4748 11.0342 28.2052L11.9891 24.6439C12.0614 24.3743 12.2378 24.1444 12.4795 24.0048C12.7212 23.8652 13.0085 23.8273 13.2782 23.8995L24.0048 26.7755C24.2745 26.8478 24.5044 27.0243 24.644 27.2661C24.7836 27.5079 24.8213 27.7953 24.749 28.065L23.7942 31.6264C23.7584 31.7599 23.6966 31.8851 23.6124 31.9947C23.5283 32.1044 23.4233 32.1964 23.3035 32.2654C23.1838 32.3345 23.0516 32.3793 22.9145 32.3973C22.7775 32.4153 22.6382 32.4061 22.5047 32.3702" fill="#FFDC50"/>
<path d="M14.6697 24.2726L22.6137 26.4025C23.2523 26.5737 23.7968 26.9916 24.1273 27.5643C24.4578 28.137 24.5473 28.8175 24.3761 29.4561L24.1674 30.2344C24.0826 30.5506 23.9363 30.8471 23.7369 31.1069C23.5376 31.3667 23.289 31.5846 23.0054 31.7483C22.7217 31.912 22.4087 32.0182 22.084 32.0609C21.7593 32.1036 21.4294 32.0819 21.1132 31.9971L13.1697 29.8673C12.5311 29.6961 11.9866 29.2782 11.6561 28.7055C11.3256 28.1328 11.2361 27.4523 11.4073 26.8137L11.6161 26.035C11.7873 25.3963 12.2052 24.8519 12.7779 24.5213C13.3506 24.1908 14.0311 24.1014 14.6697 24.2726Z" stroke="white" stroke-width="0.831831" stroke-miterlimit="10"/>
<path d="M16.1477 26.4122C16.6003 26.5336 16.8538 26.7943 16.7345 27.2394C16.7227 27.36 16.6735 27.4739 16.5938 27.5651C16.514 27.6563 16.4077 27.7202 16.2897 27.748C16.3939 27.8197 16.4696 27.9256 16.5038 28.0474C16.538 28.1691 16.5285 28.299 16.477 28.4145C16.3431 28.9138 15.9874 29.0342 15.5059 28.9051L14.5465 28.6478L15.2131 26.1616L16.1477 26.4122ZM15.5262 26.6616L15.35 27.3188L15.8567 27.4546C16.0903 27.5172 16.2192 27.4247 16.2808 27.1949C16.3396 26.9758 16.252 26.8562 16.0222 26.7946L15.5262 26.6616ZM15.2478 27.6999L15.0677 28.3715L15.5889 28.5113C15.8262 28.5749 15.983 28.5203 16.0513 28.2658C16.1195 28.0112 15.9596 27.8907 15.7615 27.8376L15.2478 27.6999Z" fill="#231E56"/>
<path d="M17.7028 29.0861C17.9976 29.1651 18.2221 29.1176 18.3078 28.7977L18.7595 27.113L19.1836 27.2267L18.7319 28.9114C18.572 29.5078 18.1885 29.6593 17.592 29.4994C17.0026 29.3414 16.7503 29.0199 16.9104 28.423L17.3621 26.7383L17.7862 26.852L17.3345 28.5367C17.2478 28.8599 17.4151 29.0089 17.7028 29.0861Z" fill="#231E56"/>
<path d="M19.9866 30.1059L19.5625 29.9922L19.8476 28.9287L19.4673 27.3018L19.9376 27.4279L20.1817 28.5136L20.9325 27.6946L21.4033 27.8208L20.2699 29.0454L19.9866 30.1059Z" fill="#231E56"/>
<path d="M12.96 13.7082L11.3979 13.2894C11.2177 13.2411 11.064 13.1231 10.9707 12.9615C10.8774 12.7998 10.8522 12.6078 10.9005 12.4275L11.4741 10.2881L15.9585 11.4904L15.8038 12.0673C15.6444 12.662 15.2553 13.169 14.722 13.4767C14.1888 13.7845 13.5547 13.8677 12.96 13.7082Z" fill="#75C099"/>
<path d="M17.4439 14.9105C17.1494 14.8316 16.8734 14.6954 16.6316 14.5098C16.3898 14.3241 16.1869 14.0927 16.0345 13.8287C15.8821 13.5647 15.7832 13.2732 15.7435 12.9709C15.7037 12.6687 15.7239 12.3616 15.8028 12.0671L15.9575 11.4902L20.4419 12.6926L20.2872 13.2695C20.1278 13.8641 19.7386 14.3711 19.2054 14.6789C18.6722 14.9866 18.0385 15.0699 17.4439 14.9105Z" fill="#E5F4F7"/>
<path d="M21.9285 16.1126C21.3338 15.9532 20.8268 15.5641 20.5191 15.0308C20.2113 14.4976 20.128 13.8639 20.2875 13.2693L20.4421 12.6924L24.9265 13.8947L24.7719 14.4716C24.6124 15.0663 24.2233 15.5733 23.69 15.881C23.1568 16.1888 22.5232 16.2721 21.9285 16.1126Z" fill="#75C099"/>
<path d="M26.4124 17.3148C25.8177 17.1554 25.3107 16.7662 25.003 16.233C24.6952 15.6997 24.6119 15.0661 24.7713 14.4714L24.926 13.8945L29.4104 15.0969L29.2557 15.6738C29.0963 16.2684 28.7072 16.7754 28.1739 17.0832C27.6407 17.3909 27.0071 17.4742 26.4124 17.3148Z" fill="#E5F4F7"/>
<path d="M32.4593 18.9367L30.8972 18.5179C30.6028 18.439 30.3268 18.3028 30.0849 18.1172C29.8431 17.9316 29.6402 17.7001 29.4878 17.4361C29.3355 17.1721 29.2366 16.8806 29.1968 16.5784C29.1571 16.2761 29.1773 15.969 29.2562 15.6746L29.4109 15.0977L33.8953 16.3L33.3217 18.4394C33.2733 18.6197 33.1554 18.7734 32.9937 18.8666C32.8321 18.9599 32.64 18.9852 32.4598 18.9369" fill="#75C099"/>
<path d="M13.5975 7.97337L17.1827 8.93462L15.961 11.4911L11.4766 10.2888L13.5975 7.97337Z" fill="#A6D7C3"/>
<path d="M17.1841 8.93541L20.7707 9.89702L20.4468 12.6942L15.9624 11.4919L17.1841 8.93541Z" fill="white"/>
<path d="M20.7703 9.896L24.3568 10.8576L24.9303 13.8954L20.4459 12.6931L20.7703 9.896Z" fill="#A6D7C3"/>
<path d="M24.3567 10.8574L27.9433 11.819L29.4141 15.0974L24.9297 13.8951L24.3567 10.8574Z" fill="white"/>
<path d="M27.9438 11.8193L31.5304 12.781L33.8986 16.3L29.4142 15.0976L27.9438 11.8193Z" fill="#A6D7C3"/>
<path d="M34.1738 8.45355C34.1331 8.44253 34.0965 8.41969 34.0688 8.38792C34.041 8.35615 34.0232 8.31687 34.0178 8.27504C34.0123 8.2332 34.0193 8.19067 34.0379 8.15282C34.0566 8.11496 34.086 8.08347 34.1225 8.06231L35.0832 7.50785C35.1322 7.4806 35.19 7.47372 35.2441 7.48869C35.2981 7.50365 35.3441 7.53926 35.3722 7.58783C35.4002 7.63641 35.408 7.69406 35.3939 7.74835C35.3798 7.80264 35.345 7.84921 35.2969 7.87803L34.3362 8.4325C34.3119 8.44651 34.2851 8.4556 34.2573 8.45923C34.2295 8.46287 34.2013 8.46098 34.1743 8.45368" fill="#75C099"/>
<path d="M35.3818 9.92465L34.4444 9.67332C34.3896 9.65864 34.3429 9.62281 34.3146 9.57371C34.2863 9.52462 34.2786 9.46628 34.2933 9.41152C34.308 9.35677 34.3438 9.31009 34.3929 9.28176C34.442 9.25342 34.5003 9.24575 34.5551 9.26043L35.4925 9.51176C35.5472 9.52644 35.5939 9.56227 35.6222 9.61137C35.6506 9.66046 35.6583 9.71881 35.6436 9.77356C35.6289 9.82831 35.5931 9.87499 35.544 9.90332C35.4949 9.93166 35.4365 9.93933 35.3818 9.92465Z" fill="#75C099"/>
<path d="M33.337 7.69109C33.2789 7.6755 33.2293 7.63748 33.1992 7.58538C33.169 7.53328 33.1608 7.47135 33.1763 7.41318L33.4434 6.41692C33.4611 6.36121 33.4996 6.31447 33.5509 6.28642C33.6022 6.25837 33.6623 6.25117 33.7188 6.26631C33.7753 6.28145 33.8237 6.31777 33.8541 6.36772C33.8845 6.41766 33.8945 6.4774 33.8819 6.53451L33.6152 7.52936C33.5995 7.58739 33.5615 7.63684 33.5094 7.66688C33.4574 7.69693 33.3955 7.70513 33.3374 7.68969" fill="#75C099"/>
</svg>
