<svg width="46" height="39" viewBox="0 0 46 39" fill="none" xmlns="http://www.w3.org/2000/svg">
<mask id="mask0_5251_22257" style="mask-type:luminance" maskUnits="userSpaceOnUse" x="0" y="9" width="46" height="18">
<path d="M45.5778 9.70068H0V26.1863H45.5778V9.70068Z" fill="white"/>
</mask>
<g mask="url(#mask0_5251_22257)">
<path d="M15.0018 22.1338C15.7979 22.1338 16.4492 22.7851 16.4492 23.5812C16.4492 24.3772 15.8051 25.0285 15.0018 25.0285C14.2058 25.0285 13.5544 24.3845 13.5544 23.5812C13.5544 22.7851 14.1985 22.1338 15.0018 22.1338Z" fill="#67BFA8"/>
</g>
<mask id="mask1_5251_22257" style="mask-type:luminance" maskUnits="userSpaceOnUse" x="0" y="9" width="46" height="18">
<path d="M45.5778 9.70068H0V26.1863H45.5778V9.70068Z" fill="white"/>
</mask>
<g mask="url(#mask1_5251_22257)">
<path d="M39.0355 21.9746C39.8316 21.9746 40.4829 22.6259 40.4829 23.422C40.4829 24.218 39.8388 24.8694 39.0355 24.8694C38.2395 24.8694 37.5881 24.2253 37.5881 23.422C37.5881 22.6187 38.2322 21.9746 39.0355 21.9746Z" fill="#67BFA8"/>
</g>
<mask id="mask2_5251_22257" style="mask-type:luminance" maskUnits="userSpaceOnUse" x="0" y="9" width="46" height="18">
<path d="M45.5778 9.70068H0V26.1863H45.5778V9.70068Z" fill="white"/>
</mask>
<g mask="url(#mask2_5251_22257)">
<path d="M5.82568 13.1672H0.23158C0.123027 13.1528 0.0217106 13.2324 0 13.3409V13.587C0.0144737 13.6955 0.11579 13.7751 0.23158 13.7607H5.82568C5.93424 13.7751 6.03555 13.6955 6.05726 13.587V13.3409C6.04279 13.2324 5.94147 13.16 5.82568 13.1672Z" fill="#5CB496"/>
</g>
<mask id="mask3_5251_22257" style="mask-type:luminance" maskUnits="userSpaceOnUse" x="0" y="9" width="46" height="18">
<path d="M45.5778 9.70068H0V26.1863H45.5778V9.70068Z" fill="white"/>
</mask>
<g mask="url(#mask3_5251_22257)">
<path d="M5.70968 15.1355H1.85243C1.74388 15.121 1.64256 15.2006 1.62085 15.3092V15.5552C1.63532 15.6638 1.73664 15.7434 1.85243 15.7289H5.71692C5.82547 15.7434 5.92679 15.6638 5.9485 15.5552V15.3092C5.92679 15.2006 5.82547 15.121 5.70968 15.1355Z" fill="#5CB496"/>
</g>
<mask id="mask4_5251_22257" style="mask-type:luminance" maskUnits="userSpaceOnUse" x="0" y="9" width="46" height="18">
<path d="M45.5778 9.70068H0V26.1863H45.5778V9.70068Z" fill="white"/>
</mask>
<g mask="url(#mask4_5251_22257)">
<path d="M5.55806 17.1042H3.45936C3.35081 17.0898 3.24949 17.1694 3.22778 17.2779V17.524C3.24226 17.6325 3.34357 17.7121 3.45936 17.6977H5.55082C5.65937 17.7121 5.76069 17.6325 5.7824 17.524V17.2779C5.76793 17.1694 5.66661 17.0898 5.55806 17.1042Z" fill="#5CB496"/>
</g>
<mask id="mask5_5251_22257" style="mask-type:luminance" maskUnits="userSpaceOnUse" x="0" y="9" width="46" height="18">
<path d="M45.5778 9.70068H0V26.1863H45.5778V9.70068Z" fill="white"/>
</mask>
<g mask="url(#mask5_5251_22257)">
<path d="M39.0359 20.8091C37.5523 20.8091 36.3438 22.0104 36.3438 23.5012C36.3438 24.9848 37.5451 26.1933 39.0359 26.1933C40.5194 26.1933 41.7207 24.992 41.728 23.5012C41.7207 22.0176 40.5194 20.8091 39.0359 20.8091ZM39.0359 24.8617C38.2832 24.8617 37.6681 24.2466 37.6681 23.494C37.6681 22.7413 38.2832 22.1262 39.0359 22.1262C39.7885 22.1262 40.4036 22.7413 40.4036 23.494C40.3964 24.2538 39.7885 24.8617 39.0359 24.8617Z" fill="#232055"/>
</g>
<mask id="mask6_5251_22257" style="mask-type:luminance" maskUnits="userSpaceOnUse" x="0" y="9" width="46" height="18">
<path d="M45.5778 9.70068H0V26.1863H45.5778V9.70068Z" fill="white"/>
</mask>
<g mask="url(#mask6_5251_22257)">
<path d="M14.9153 20.8091C13.4317 20.8091 12.2231 22.0104 12.2231 23.5012C12.2231 24.9848 13.4245 26.1933 14.9153 26.1933C16.4061 26.1933 17.6074 24.992 17.6074 23.5012C17.6074 22.0176 16.4061 20.8091 14.9153 20.8091ZM14.9153 24.8617C14.1626 24.8617 13.5475 24.2466 13.5475 23.494C13.5475 22.7413 14.1626 22.1262 14.9153 22.1262C15.6679 22.1262 16.283 22.7413 16.283 23.494C16.283 24.2538 15.6751 24.8617 14.9153 24.8617Z" fill="#232055"/>
</g>
<mask id="mask7_5251_22257" style="mask-type:luminance" maskUnits="userSpaceOnUse" x="0" y="9" width="46" height="18">
<path d="M45.5778 9.70068H0V26.1863H45.5778V9.70068Z" fill="white"/>
</mask>
<g mask="url(#mask7_5251_22257)">
<path d="M45.5779 22.6836L45.3608 19.6948C45.2595 18.4428 44.6154 17.8783 43.9786 17.5455L40.6568 15.8376C40.3095 15.6494 39.9911 15.4178 39.6943 15.15L36.018 11.5823C35.7792 11.3507 34.3174 9.70068 29.3456 9.70068H9.21988C7.67119 9.70068 7.13566 10.1928 7.07777 11.6546L6.54224 21.8514C6.46263 22.7271 6.83171 23.3205 7.78698 23.5376L10.9712 23.9718L11.2824 24.7968C11.3041 24.8547 11.362 24.8981 11.4199 24.8981H11.5502C11.608 24.8981 11.6587 24.8475 11.6587 24.7896C11.6587 24.7896 11.6587 24.3698 11.6515 24.0586V23.5014C11.6515 21.7067 13.1061 20.252 14.9008 20.252C16.6956 20.252 18.1502 21.7067 18.1502 23.5014C18.1502 23.704 18.1285 23.8994 18.0923 24.1021H35.0772L35.3956 24.9271C35.4174 24.985 35.4753 25.0284 35.5331 25.0284H35.6634C35.7213 25.0284 35.772 24.9777 35.772 24.9198C35.772 24.9198 35.7647 24.4132 35.7647 24.0948V23.5014C35.7647 21.7067 37.2193 20.252 39.0068 20.252C40.8016 20.252 42.2562 21.7067 42.2562 23.4942C42.2562 23.6968 42.2345 23.8994 42.1983 24.0948H42.2851C42.6832 24.0876 43.074 24.0297 43.4575 23.9211L45.0279 23.4507C45.3753 23.3422 45.5924 23.031 45.5779 22.6836ZM38.7246 15.9533C38.6812 16.0547 38.5799 16.127 38.4713 16.127H32.1608C31.3864 16.127 31.0969 15.7941 31.0969 15.0198V11.2349C31.0969 11.0829 31.22 10.9599 31.3719 10.9599C31.3864 10.9599 31.3937 10.9599 31.4009 10.9599C33.2391 11.177 34.6068 11.6836 35.345 12.429L35.3884 12.4724L38.6667 15.6494C38.7391 15.729 38.768 15.8448 38.7246 15.9533ZM44.8108 20.4691H44.6227C44.5286 20.4619 44.4345 20.4185 44.3694 20.3461L43.1898 18.877C43.1391 18.8119 43.1608 18.754 43.2477 18.754H44.3621C44.8253 18.754 44.9194 19.3619 44.9266 19.5211L44.9628 20.3099C44.9628 20.3895 44.9049 20.4619 44.8253 20.4619C44.8181 20.4691 44.8108 20.4691 44.8108 20.4691Z" fill="#73C9B7"/>
</g>
<mask id="mask8_5251_22257" style="mask-type:luminance" maskUnits="userSpaceOnUse" x="0" y="9" width="46" height="18">
<path d="M45.5778 9.70068H0V26.1863H45.5778V9.70068Z" fill="white"/>
</mask>
<g mask="url(#mask8_5251_22257)">
<path d="M20.7192 18.6237C20.7265 18.4717 20.8423 18.3487 20.9942 18.327C21.3633 18.2184 21.7396 18.1243 22.087 17.9796C22.7311 17.7408 23.2956 17.3283 23.7225 16.7928C24.287 16.0691 24.4462 15.1138 24.1568 14.2454C24.0482 13.9125 23.7877 13.6447 23.4548 13.5289C23.4258 13.5217 23.3969 13.5144 23.3752 13.5C23.2087 13.4638 23.0929 13.3046 23.1291 13.1309C23.1364 13.1019 23.1436 13.0802 23.1581 13.0513C23.2666 12.6894 23.4692 12.6243 23.7515 12.8776C23.9614 13.0658 24.1423 13.2829 24.3449 13.471C24.4752 13.5941 24.6199 13.7026 24.7791 13.7967C25.5028 14.1296 25.9515 14.8677 25.9153 15.6638C25.9008 16.402 25.662 17.1112 25.2278 17.7046C24.9166 18.1533 24.5258 18.5441 24.0771 18.8553C23.4692 19.2895 22.7239 19.4993 21.9712 19.4414C21.6745 19.427 21.3923 19.3329 21.1462 19.1737" fill="#FEDB50"/>
</g>
<mask id="mask9_5251_22257" style="mask-type:luminance" maskUnits="userSpaceOnUse" x="0" y="9" width="46" height="18">
<path d="M46 9.70068H0V26.428H46V9.70068Z" fill="white"/>
</mask>
<g mask="url(#mask9_5251_22257)">
<path d="M17.195 14.7956C17.3108 14.7015 17.4773 14.7015 17.6003 14.7956C17.9332 14.991 18.2516 15.2009 18.599 15.3673C19.2069 15.6785 19.8944 15.8232 20.5819 15.7726C21.4938 15.7002 22.3115 15.1719 22.753 14.3686C22.9267 14.0647 22.9484 13.6956 22.8036 13.3699C22.7964 13.341 22.7819 13.3193 22.7674 13.2903C22.6806 13.1456 22.724 12.9502 22.8688 12.8634C22.8905 12.8489 22.9194 12.8344 22.9411 12.8272C23.2813 12.6607 23.4622 12.762 23.4694 13.1456C23.4694 13.4278 23.4332 13.7028 23.4332 13.9851C23.426 14.166 23.4477 14.3469 23.4911 14.5206C23.7299 15.2805 23.4911 16.1127 22.8832 16.6265C22.3332 17.1114 21.6457 17.4226 20.9148 17.5022C20.372 17.5746 19.822 17.5528 19.2865 17.4298C18.5556 17.2706 17.897 16.8653 17.4339 16.2792C17.2457 16.0548 17.1227 15.7798 17.072 15.4831" fill="#FEDB50"/>
</g>
</svg>
