<svg width="41" height="55" viewBox="0 0 41 55" fill="none" xmlns="http://www.w3.org/2000/svg">
<mask id="mask0_5251_22473" style="mask-type:luminance" maskUnits="userSpaceOnUse" x="-5" y="-4" width="49" height="63">
<path d="M29.8215 -3.64687L-4.13916 5.45947L10.0394 58.336L44 49.2297L29.8215 -3.64687Z" fill="white"/>
</mask>
<g mask="url(#mask0_5251_22473)">
<path d="M24.8065 22.6542L8.63965 26.9893L15.5246 52.6655L31.6914 48.3304L24.8065 22.6542Z" fill="#1D1650"/>
</g>
<mask id="mask1_5251_22473" style="mask-type:luminance" maskUnits="userSpaceOnUse" x="5" y="0" width="36" height="56">
<path d="M40.1865 0.26416H5.02686V55.0074H40.1865V0.26416Z" fill="white"/>
</mask>
<g mask="url(#mask1_5251_22473)">
<path d="M24.3778 33.4682C21.2994 31.5417 17.253 32.4807 15.3265 35.5591C15.2491 35.685 15.1716 35.8108 15.1039 35.9464L14.3682 35.5011C16.2946 31.8999 20.767 30.5446 24.3681 32.4711C24.5133 32.5485 24.6585 32.6356 24.7941 32.7228L24.3778 33.4682Z" fill="#F8E47D"/>
</g>
<mask id="mask2_5251_22473" style="mask-type:luminance" maskUnits="userSpaceOnUse" x="5" y="0" width="36" height="56">
<path d="M40.1865 0.26416H5.02686V55.0074H40.1865V0.26416Z" fill="white"/>
</mask>
<g mask="url(#mask2_5251_22473)">
<path d="M22.199 37.2341C21.0954 36.5468 19.6433 36.8759 18.956 37.9795C18.9269 38.0182 18.9076 38.0666 18.8785 38.115L18.1428 37.66C18.9753 36.1208 20.9018 35.54 22.441 36.3725C22.4991 36.4016 22.5571 36.4403 22.6152 36.479L22.199 37.2341Z" fill="#F8E47D"/>
</g>
<mask id="mask3_5251_22473" style="mask-type:luminance" maskUnits="userSpaceOnUse" x="5" y="0" width="36" height="56">
<path d="M40.1865 0.26416H5.02686V55.0074H40.1865V0.26416Z" fill="white"/>
</mask>
<g mask="url(#mask3_5251_22473)">
<path d="M23.3709 35.2977C21.2218 33.9521 18.3855 34.6103 17.0399 36.7594C16.9915 36.8465 16.9334 36.9337 16.8947 37.0208L16.1589 36.5658C17.5723 33.9327 20.854 32.9453 23.4871 34.3586C23.5936 34.4167 23.6904 34.4748 23.7872 34.5329L23.3709 35.2977Z" fill="#F8E47D"/>
</g>
<mask id="mask4_5251_22473" style="mask-type:luminance" maskUnits="userSpaceOnUse" x="5" y="0" width="36" height="56">
<path d="M40.1865 0.26416H5.02686V55.0074H40.1865V0.26416Z" fill="white"/>
</mask>
<g mask="url(#mask4_5251_22473)">
<path d="M20.6116 37.9599C21.1053 37.8244 21.628 38.1438 21.7636 38.6569C21.8991 39.1797 21.6087 39.7024 21.115 39.8379C20.6213 39.9735 20.0985 39.654 19.963 39.1409C19.8275 38.6182 20.1179 38.0954 20.6116 37.9599Z" fill="#F8E47D"/>
</g>
<mask id="mask5_5251_22473" style="mask-type:luminance" maskUnits="userSpaceOnUse" x="5" y="0" width="36" height="56">
<path d="M40.1865 0.26416H5.02686V55.0074H40.1865V0.26416Z" fill="white"/>
</mask>
<g mask="url(#mask5_5251_22473)">
<path d="M15.7038 53.3615C16.0136 54.5038 17.0784 55.2202 18.0949 54.9491L30.6021 51.5997C31.6089 51.3286 32.18 50.1766 31.8799 49.0343L31.696 48.3276L15.5295 52.6645L15.7038 53.3615Z" fill="#5B5596"/>
</g>
<mask id="mask6_5251_22473" style="mask-type:luminance" maskUnits="userSpaceOnUse" x="5" y="0" width="36" height="56">
<path d="M40.1865 0.26416H5.02686V55.0074H40.1865V0.26416Z" fill="white"/>
</mask>
<g mask="url(#mask6_5251_22473)">
<path d="M24.5622 21.7353C24.2524 20.593 23.1876 19.8766 22.1711 20.1477L9.66389 23.5068C8.65711 23.7779 8.08596 24.9299 8.38606 26.0722L8.62807 26.9821L24.7945 22.6453L24.5622 21.7353Z" fill="#5B5596"/>
</g>
<mask id="mask7_5251_22473" style="mask-type:luminance" maskUnits="userSpaceOnUse" x="5" y="0" width="36" height="56">
<path d="M40.1865 0.26416H5.02686V55.0074H40.1865V0.26416Z" fill="white"/>
</mask>
<g mask="url(#mask7_5251_22473)">
<path d="M25.7328 51.8997L23.1578 52.5871C22.9061 52.6548 22.6447 52.5096 22.5769 52.2579C22.5092 52.0062 22.6544 51.7449 22.9061 51.6771L25.4811 50.9898C25.7328 50.922 25.9942 51.0672 26.0619 51.3189C26.1297 51.5706 25.9845 51.832 25.7328 51.8997Z" fill="#B8DACF"/>
</g>
<mask id="mask8_5251_22473" style="mask-type:luminance" maskUnits="userSpaceOnUse" x="5" y="0" width="36" height="56">
<path d="M40.1865 0.26416H5.02686V55.0074H40.1865V0.26416Z" fill="white"/>
</mask>
<g mask="url(#mask8_5251_22473)">
<path d="M16.2462 23.2456C16.2365 23.0132 16.4205 22.8196 16.6528 22.8099C16.8851 22.8003 17.0787 22.9842 17.0884 23.2165C17.0981 23.4488 16.9142 23.6425 16.6818 23.6521C16.4398 23.6618 16.2462 23.4779 16.2462 23.2456Z" fill="#C0DED3"/>
</g>
<mask id="mask9_5251_22473" style="mask-type:luminance" maskUnits="userSpaceOnUse" x="5" y="0" width="36" height="56">
<path d="M40.1865 0.26416H5.02686V55.0074H40.1865V0.26416Z" fill="white"/>
</mask>
<g mask="url(#mask9_5251_22473)">
<g opacity="0.289">
<mask id="mask10_5251_22473" style="mask-type:luminance" maskUnits="userSpaceOnUse" x="8" y="22" width="24" height="27">
<path d="M31.6185 22.6455H8.66602V48.0568H31.6185V22.6455Z" fill="white"/>
</mask>
<g mask="url(#mask10_5251_22473)">
<path d="M24.8034 22.6455L8.66602 26.9727L31.6185 48.0568L24.8034 22.6455Z" fill="#5B5596"/>
</g>
</g>
</g>
<mask id="mask11_5251_22473" style="mask-type:luminance" maskUnits="userSpaceOnUse" x="5" y="0" width="36" height="56">
<path d="M40.1865 0.26416H5.02686V55.0074H40.1865V0.26416Z" fill="white"/>
</mask>
<g mask="url(#mask11_5251_22473)">
<path d="M17.5434 43.6426C17.5821 43.8265 17.5144 43.933 17.3498 43.9814L17.0884 44.0492C16.9432 44.0879 16.798 44.0008 16.7496 43.8555L16.5754 43.1973C16.556 43.1295 16.5657 43.0521 16.6044 42.994C16.6431 42.9262 16.7012 42.8778 16.769 42.8681L17.0303 42.8004C17.1949 42.752 17.3111 42.8197 17.3692 42.994L17.2336 43.0327C17.2046 42.9456 17.1465 42.9165 17.0691 42.9359L16.9335 42.9746C16.8948 42.9843 16.8658 43.0037 16.8464 43.0424C16.827 43.0714 16.827 43.1101 16.8367 43.1489L17.011 43.8071C17.0303 43.8846 17.1078 43.9233 17.1755 43.9039L17.3111 43.8652C17.3885 43.8459 17.4176 43.7878 17.4079 43.7007L17.5434 43.6426Z" fill="white"/>
</g>
<mask id="mask12_5251_22473" style="mask-type:luminance" maskUnits="userSpaceOnUse" x="5" y="0" width="36" height="56">
<path d="M40.1865 0.26416H5.02686V55.0074H40.1865V0.26416Z" fill="white"/>
</mask>
<g mask="url(#mask12_5251_22473)">
<path d="M17.8237 42.5775L18.085 42.5097C18.2302 42.471 18.3754 42.5581 18.4239 42.7033L18.5981 43.3616C18.6368 43.5068 18.5497 43.652 18.4045 43.7004L18.1431 43.7682C17.9979 43.8069 17.8527 43.7197 17.8043 43.5745L17.63 42.9163C17.5913 42.7614 17.6785 42.6162 17.8237 42.5775ZM17.8914 42.8388L18.0657 43.4971C18.085 43.5649 18.1625 43.6133 18.2399 43.5842C18.3077 43.5649 18.3464 43.4874 18.3367 43.4197L18.1625 42.7614C18.1528 42.7227 18.1334 42.6936 18.0947 42.6839C18.027 42.6452 17.9495 42.6646 17.9108 42.7323C17.8914 42.7711 17.8817 42.8098 17.8914 42.8388Z" fill="white"/>
</g>
<mask id="mask13_5251_22473" style="mask-type:luminance" maskUnits="userSpaceOnUse" x="5" y="0" width="36" height="56">
<path d="M40.1865 0.26416H5.02686V55.0074H40.1865V0.26416Z" fill="white"/>
</mask>
<g mask="url(#mask13_5251_22473)">
<path d="M18.9371 43.5552L18.6177 42.3645L18.6758 42.3451L19.5857 42.8098L19.4115 42.1515L19.547 42.1128L19.8568 43.3035L19.7987 43.3229L18.8887 42.8582L19.0727 43.5165L18.9371 43.5552Z" fill="white"/>
</g>
<mask id="mask14_5251_22473" style="mask-type:luminance" maskUnits="userSpaceOnUse" x="5" y="0" width="36" height="56">
<path d="M40.1865 0.26416H5.02686V55.0074H40.1865V0.26416Z" fill="white"/>
</mask>
<g mask="url(#mask14_5251_22473)">
<path d="M20.1278 43.2359L19.8083 42.0452L19.8664 42.0258L20.7764 42.4905L20.6022 41.8322L20.728 41.7935L21.0475 42.9842L20.9894 43.0035L20.0794 42.5389L20.2537 43.1971L20.1278 43.2359Z" fill="white"/>
</g>
<mask id="mask15_5251_22473" style="mask-type:luminance" maskUnits="userSpaceOnUse" x="5" y="0" width="36" height="56">
<path d="M40.1865 0.26416H5.02686V55.0074H40.1865V0.26416Z" fill="white"/>
</mask>
<g mask="url(#mask15_5251_22473)">
<path d="M21.3185 42.9162L20.999 41.7255L21.6573 41.5513L21.696 41.6771L21.2991 41.7836L21.4056 42.1805L21.667 42.1127L21.7057 42.2483L21.4346 42.316L21.5411 42.7129L21.938 42.6064L21.9768 42.742L21.3185 42.9162Z" fill="white"/>
</g>
<mask id="mask16_5251_22473" style="mask-type:luminance" maskUnits="userSpaceOnUse" x="5" y="0" width="36" height="56">
<path d="M40.1865 0.26416H5.02686V55.0074H40.1865V0.26416Z" fill="white"/>
</mask>
<g mask="url(#mask16_5251_22473)">
<path d="M22.9643 42.1904C23.003 42.3744 22.9353 42.4808 22.7707 42.5292L22.5093 42.597C22.3641 42.6357 22.2189 42.5486 22.1705 42.4034L21.9963 41.7451C21.9769 41.6774 21.9866 41.5999 22.0253 41.5418C22.064 41.4741 22.1221 41.4257 22.1899 41.416L22.4512 41.3482C22.6158 41.2998 22.732 41.3676 22.7901 41.5418L22.6545 41.5806C22.6255 41.4934 22.5674 41.4644 22.49 41.4837L22.3544 41.5225C22.3157 41.5322 22.2867 41.5515 22.2673 41.5902C22.2479 41.6193 22.2479 41.658 22.2576 41.6967L22.4319 42.355C22.4512 42.4324 22.5287 42.4712 22.5964 42.4518L22.732 42.4131C22.8094 42.3937 22.8385 42.3356 22.8288 42.2485L22.9643 42.1904Z" fill="white"/>
</g>
<mask id="mask17_5251_22473" style="mask-type:luminance" maskUnits="userSpaceOnUse" x="5" y="0" width="36" height="56">
<path d="M40.1865 0.26416H5.02686V55.0074H40.1865V0.26416Z" fill="white"/>
</mask>
<g mask="url(#mask17_5251_22473)">
<path d="M23.429 42.3453L23.1482 41.2901L22.8869 41.3579L22.8481 41.232L23.6419 41.019L23.6807 41.1449L23.4096 41.2223L23.7 42.2775L23.429 42.3453Z" fill="white"/>
</g>
<mask id="mask18_5251_22473" style="mask-type:luminance" maskUnits="userSpaceOnUse" x="-5" y="-3" width="49" height="63">
<path d="M28.9607 -2.4706L-5 6.63574L9.17851 59.5123L43.1392 50.4059L28.9607 -2.4706Z" fill="white"/>
</mask>
<g mask="url(#mask18_5251_22473)">
<path d="M24.1683 40.88L23.9065 40.9502L24.2249 42.1377L24.4867 42.0675L24.1683 40.88Z" fill="white"/>
</g>
<mask id="mask19_5251_22473" style="mask-type:luminance" maskUnits="userSpaceOnUse" x="5" y="0" width="36" height="56">
<path d="M40.1865 0.26416H5.02686V55.0074H40.1865V0.26416Z" fill="white"/>
</mask>
<g mask="url(#mask19_5251_22473)">
<path d="M24.881 41.958L24.5615 40.7673L24.6293 40.748L25.5393 41.2126L25.3553 40.5543L25.4909 40.5156L25.8103 41.7063L25.7522 41.7257L24.8423 41.261L25.0165 41.9193L24.881 41.958Z" fill="white"/>
</g>
<mask id="mask20_5251_22473" style="mask-type:luminance" maskUnits="userSpaceOnUse" x="5" y="0" width="36" height="56">
<path d="M40.1865 0.26416H5.02686V55.0074H40.1865V0.26416Z" fill="white"/>
</mask>
<g mask="url(#mask20_5251_22473)">
<path d="M26.2939 40.8736L26.6908 40.7672L26.7973 41.1641C26.8264 41.2415 26.807 41.3189 26.7683 41.3867C26.7295 41.4448 26.6715 41.4835 26.6037 41.5029L26.3423 41.5706C26.1971 41.6094 26.0519 41.5222 26.0035 41.377L25.8293 40.7188C25.8099 40.651 25.8196 40.5735 25.8583 40.5155C25.897 40.4477 25.9551 40.3993 26.0229 40.3896L26.2842 40.3219C26.4488 40.2735 26.565 40.3412 26.6231 40.5155L26.4875 40.5542C26.4585 40.4671 26.4004 40.438 26.323 40.4574L26.1874 40.4961C26.1487 40.5058 26.1197 40.5251 26.1003 40.5639C26.081 40.5929 26.081 40.6316 26.0906 40.6704L26.2649 41.3286C26.2746 41.3674 26.2939 41.3964 26.3326 41.4158C26.3617 41.4351 26.4004 41.4351 26.4391 41.4254C26.5069 41.4158 26.5553 41.348 26.5456 41.2705C26.5456 41.2609 26.5456 41.2609 26.5456 41.2512L26.4779 40.9898L26.3423 41.0285L26.2939 40.8736Z" fill="white"/>
</g>
<mask id="mask21_5251_22473" style="mask-type:luminance" maskUnits="userSpaceOnUse" x="5" y="0" width="36" height="56">
<path d="M40.1865 0.26416H5.02686V55.0074H40.1865V0.26416Z" fill="white"/>
</mask>
<g mask="url(#mask21_5251_22473)">
<path d="M16.1299 4.79461C16.3235 4.73652 21.5994 6.9824 22.1028 6.75975C22.9256 6.41125 22.8772 6.44998 23.8356 5.8401C27.6207 3.57486 27.7659 0.874001 28.763 0.815918C30.1473 1.03857 26.885 6.07243 25.704 6.44998C31.6478 3.4587 31.7349 0.709433 32.6352 1.23218C33.3128 1.58068 31.9769 3.52646 30.5345 4.9979C29.1018 6.5371 27.5626 7.60196 27.8821 7.53419C33.8162 5.17215 34.2422 2.03566 35.1425 2.33576C36.2944 2.65521 33.5064 6.91464 29.0825 8.65713C28.3564 9.02499 33.4193 7.3793 33.5064 11.4161C33.5548 13.3909 33.5355 15.6852 32.6933 15.1431C31.9963 14.6978 32.3061 13.3619 32.2189 11.4935C32.0931 9.02499 27.3496 9.39285 27.0979 12.3454C26.9527 15.056 29.944 14.8623 31.2703 14.8817C33.3322 14.9107 33.6517 16.6532 31.822 16.4596C29.2567 16.1886 28.5307 16.2757 27.5433 15.8498C25.4329 14.9301 22.2771 12.1712 21.1057 11.5516C20.5346 11.2515 14.4068 9.46061 14.3584 9.46061C14.9586 7.90205 15.5491 6.35317 16.1299 4.79461Z" fill="#F9BD9D"/>
</g>
<mask id="mask22_5251_22473" style="mask-type:luminance" maskUnits="userSpaceOnUse" x="5" y="0" width="36" height="56">
<path d="M40.1865 0.26416H5.02686V55.0074H40.1865V0.26416Z" fill="white"/>
</mask>
<g mask="url(#mask22_5251_22473)">
<path d="M17.4276 11.1063L5.02686 6.95339V0.26416L19.4411 5.09473L17.4276 11.1063Z" fill="#87C7B7"/>
</g>
<mask id="mask23_5251_22473" style="mask-type:luminance" maskUnits="userSpaceOnUse" x="5" y="0" width="36" height="56">
<path d="M40.1865 0.26416H5.02686V55.0074H40.1865V0.26416Z" fill="white"/>
</mask>
<g mask="url(#mask23_5251_22473)">
<path d="M17.3108 11.1835L16.8074 11.019C16.5848 10.9415 16.4589 10.6995 16.5364 10.4769L18.3466 5.06546C18.4241 4.84281 18.6661 4.71696 18.8887 4.79441L19.3921 4.95898C19.6148 5.03642 19.7406 5.27843 19.6632 5.50109L17.8529 10.9125C17.7755 11.1351 17.5334 11.2513 17.3108 11.1835Z" fill="white"/>
</g>
<mask id="mask24_5251_22473" style="mask-type:luminance" maskUnits="userSpaceOnUse" x="5" y="0" width="36" height="56">
<path d="M40.1865 0.26416H5.02686V55.0074H40.1865V0.26416Z" fill="white"/>
</mask>
<g mask="url(#mask24_5251_22473)">
<path d="M13.7293 9.98346L14.7845 10.332C14.8523 10.3513 14.9297 10.3126 14.9587 10.2448L16.9529 4.28164C16.9723 4.21387 16.9336 4.13643 16.8658 4.10739L15.8106 3.75889C15.7429 3.73953 15.6654 3.77825 15.6364 3.84601L13.6422 9.80921C13.6228 9.87697 13.6616 9.95442 13.7293 9.98346Z" fill="white"/>
</g>
<mask id="mask25_5251_22473" style="mask-type:luminance" maskUnits="userSpaceOnUse" x="5" y="0" width="36" height="56">
<path d="M40.1865 0.26416H5.02686V55.0074H40.1865V0.26416Z" fill="white"/>
</mask>
<g mask="url(#mask25_5251_22473)">
<path d="M11.7053 9.30562L11.2019 9.14105C10.9793 9.0636 10.8534 8.82159 10.9309 8.59894L12.7411 3.18753C12.8186 2.96488 13.0606 2.83903 13.2832 2.91648L13.7866 3.08105C14.0093 3.15849 14.1351 3.4005 14.0577 3.62316L12.2474 9.03456C12.17 9.25721 11.928 9.37338 11.7053 9.30562Z" fill="white"/>
</g>
<mask id="mask26_5251_22473" style="mask-type:luminance" maskUnits="userSpaceOnUse" x="5" y="0" width="36" height="56">
<path d="M40.1865 0.26416H5.02686V55.0074H40.1865V0.26416Z" fill="white"/>
</mask>
<g mask="url(#mask26_5251_22473)">
<path d="M8.8982 8.36665L8.39481 8.20208C8.17216 8.12464 8.04631 7.88263 8.12375 7.65997L9.93401 2.24857C10.0115 2.02592 10.2535 1.90007 10.4761 1.97751L10.9795 2.14208C11.2022 2.21953 11.328 2.46154 11.2506 2.68419L9.4403 8.0956C9.37254 8.31825 9.13053 8.43441 8.8982 8.36665Z" fill="white"/>
</g>
<mask id="mask27_5251_22473" style="mask-type:luminance" maskUnits="userSpaceOnUse" x="5" y="0" width="36" height="56">
<path d="M40.1865 0.26416H5.02686V55.0074H40.1865V0.26416Z" fill="white"/>
</mask>
<g mask="url(#mask27_5251_22473)">
<path d="M6.10034 7.42769L5.59696 7.26312C5.3743 7.18567 5.24846 6.94366 5.3259 6.72101L7.13616 1.3096C7.2136 1.08695 7.45562 0.961105 7.67827 1.03855L8.18165 1.20312C8.4043 1.28056 8.53015 1.52257 8.45271 1.74523L6.64245 7.15663C6.56501 7.37928 6.323 7.49545 6.10034 7.42769Z" fill="white"/>
</g>
<mask id="mask28_5251_22473" style="mask-type:luminance" maskUnits="userSpaceOnUse" x="5" y="0" width="36" height="56">
<path d="M40.1865 0.26416H5.02686V55.0074H40.1865V0.26416Z" fill="white"/>
</mask>
<g mask="url(#mask28_5251_22473)">
<path d="M39.3534 18.4247C35.6748 14.7267 29.7019 14.717 26.004 18.3859C25.9943 18.3956 25.9943 18.3956 25.9846 18.4053L25.1521 17.5728C29.2954 13.4295 36.0136 13.4295 40.1569 17.5728C40.1666 17.5825 40.1666 17.5825 40.1762 17.5921L39.3534 18.4247Z" fill="#1D1650"/>
</g>
<mask id="mask29_5251_22473" style="mask-type:luminance" maskUnits="userSpaceOnUse" x="5" y="0" width="36" height="56">
<path d="M40.1865 0.26416H5.02686V55.0074H40.1865V0.26416Z" fill="white"/>
</mask>
<g mask="url(#mask29_5251_22473)">
<path d="M35.0649 22.5197C33.7483 21.1935 31.6089 21.1838 30.2827 22.5004L29.4502 21.6678C31.2314 19.8963 34.1259 19.906 35.8974 21.6872L35.0649 22.5197Z" fill="#1D1650"/>
</g>
<mask id="mask30_5251_22473" style="mask-type:luminance" maskUnits="userSpaceOnUse" x="5" y="0" width="36" height="56">
<path d="M40.1865 0.26416H5.02686V55.0074H40.1865V0.26416Z" fill="white"/>
</mask>
<g mask="url(#mask30_5251_22473)">
<path d="M37.3401 20.4382C34.7651 17.8535 30.5831 17.8438 28.0081 20.4188L27.1755 19.5863C30.2152 16.5563 35.1426 16.566 38.1726 19.6056L37.3401 20.4382Z" fill="#1D1650"/>
</g>
<mask id="mask31_5251_22473" style="mask-type:luminance" maskUnits="userSpaceOnUse" x="5" y="0" width="36" height="56">
<path d="M40.1865 0.26416H5.02686V55.0074H40.1865V0.26416Z" fill="white"/>
</mask>
<g mask="url(#mask31_5251_22473)">
<path d="M33.6319 23.3618C33.3899 23.0617 33.2544 22.81 32.5767 22.8003C31.8991 22.81 31.7636 23.0617 31.5216 23.3618C31.1343 23.8361 31.5506 24.1846 31.5506 24.6686C31.599 25.0074 31.9088 25.0365 32.054 25.2301C32.1895 25.3753 32.3831 25.4624 32.5864 25.4624C32.8091 25.414 32.9543 25.4237 33.0995 25.2301C33.2447 25.0268 33.6319 25.0074 33.6803 24.6686C33.6803 24.1749 34.0191 23.8264 33.6319 23.3618ZM32.2379 24.2911C32.1702 24.3492 32.1798 24.3492 31.9088 24.4363C31.6765 24.5137 31.5409 24.2233 31.5313 24.1459C31.5216 24.0684 31.5506 23.7974 31.7055 23.7877C31.9281 23.778 32.0056 23.7393 32.2089 23.7393C32.3347 23.7393 32.4412 23.8458 32.4412 23.9716C32.4412 24.0104 32.4315 24.0491 32.4122 24.0878C32.3638 24.1749 32.3057 24.2427 32.2379 24.2911ZM32.7123 24.5525C32.6445 24.5718 32.6251 24.5137 32.5864 24.5137C32.5574 24.5137 32.538 24.5815 32.4703 24.5621C32.4122 24.5428 32.4219 24.5234 32.4509 24.3589C32.4703 24.2233 32.538 24.1556 32.5864 24.1556C32.6639 24.1556 32.7026 24.2427 32.722 24.3492C32.7413 24.4169 32.7704 24.5331 32.7123 24.5525ZM33.6416 24.1459C33.6319 24.2233 33.4964 24.5137 33.2641 24.4363C32.993 24.3492 33.0124 24.3492 32.9349 24.2911C32.8672 24.233 32.8091 24.1652 32.7607 24.0975C32.6929 23.9813 32.7316 23.8458 32.8478 23.778C32.8865 23.7587 32.9252 23.749 32.964 23.749C33.1576 23.749 33.2447 23.7877 33.4674 23.7974C33.6222 23.7974 33.661 24.0684 33.6416 24.1459Z" fill="#1D1650"/>
</g>
<mask id="mask32_5251_22473" style="mask-type:luminance" maskUnits="userSpaceOnUse" x="5" y="0" width="36" height="56">
<path d="M40.1865 0.26416H5.02686V55.0074H40.1865V0.26416Z" fill="white"/>
</mask>
<g mask="url(#mask32_5251_22473)">
<path d="M31.4354 26.3046C32.2389 26.0238 33.0424 25.7528 33.8556 25.4817C33.9524 25.5108 34.0685 25.5398 34.1847 25.5785C34.2815 25.5979 34.388 25.5495 34.4364 25.4527C34.5235 25.3559 34.5138 25.2107 34.417 25.1235C34.4073 24.959 34.2621 24.8331 34.0976 24.8428C34.0298 24.8428 33.9717 24.8718 33.9233 24.9106C33.8652 25.0074 33.7975 25.0945 33.7394 25.1816C32.9359 25.4624 32.1324 25.7334 31.3193 26.0045C31.2225 25.9754 31.1063 25.9464 30.9901 25.9077C30.8933 25.8883 30.7868 25.9367 30.7384 26.0335C30.6513 26.1303 30.661 26.2755 30.7578 26.3626C30.7675 26.5272 30.9127 26.6531 31.0773 26.6434C31.145 26.6434 31.2031 26.6143 31.2515 26.5756C31.3096 26.4788 31.3773 26.382 31.4354 26.3046Z" fill="#1D1650"/>
</g>
<mask id="mask33_5251_22473" style="mask-type:luminance" maskUnits="userSpaceOnUse" x="5" y="0" width="36" height="56">
<path d="M40.1865 0.26416H5.02686V55.0074H40.1865V0.26416Z" fill="white"/>
</mask>
<g mask="url(#mask33_5251_22473)">
<path d="M30.7378 25.4527C30.7862 25.5398 30.8927 25.5882 30.9895 25.5786C31.096 25.5398 31.2121 25.5108 31.3089 25.4914H31.3186C31.5509 25.5689 31.7929 25.6463 32.0253 25.7334H32.035C32.1802 25.685 32.3254 25.6366 32.4706 25.5882C32.4803 25.5882 32.4899 25.5786 32.4803 25.5689C32.4803 25.5592 32.4706 25.5592 32.4706 25.5592C32.1221 25.443 31.7736 25.3269 31.4348 25.201C31.4348 25.201 31.4251 25.201 31.4251 25.1913C31.367 25.1139 31.2992 25.0171 31.2412 24.93C31.1153 24.8235 30.9217 24.8428 30.8152 24.9687C30.7765 25.0171 30.7571 25.0752 30.7475 25.1332C30.7475 25.1429 30.7475 25.1429 30.7378 25.1429C30.6603 25.2204 30.6603 25.3656 30.7378 25.4527Z" fill="#1D1650"/>
</g>
<mask id="mask34_5251_22473" style="mask-type:luminance" maskUnits="userSpaceOnUse" x="5" y="0" width="36" height="56">
<path d="M40.1865 0.26416H5.02686V55.0074H40.1865V0.26416Z" fill="white"/>
</mask>
<g mask="url(#mask34_5251_22473)">
<path d="M34.4357 26.0337C34.3873 25.9466 34.2808 25.8982 34.184 25.9079C34.0775 25.9466 33.9614 25.9757 33.8646 26.0047H33.8549C33.6225 25.9273 33.3805 25.8498 33.1482 25.7627H33.1385L32.7029 25.9079C32.6932 25.9079 32.6835 25.9273 32.6932 25.9369C32.6932 25.9466 32.7029 25.9466 32.7029 25.9466C33.0514 26.0628 33.3999 26.179 33.7387 26.3048C33.7387 26.3048 33.7484 26.3048 33.7484 26.3145C33.8065 26.3919 33.8742 26.4887 33.9323 26.5759C34.0582 26.6823 34.2518 26.663 34.3583 26.5371C34.397 26.4887 34.4164 26.4306 34.426 26.3726C34.426 26.3629 34.426 26.3629 34.4357 26.3629C34.5132 26.2758 34.5228 26.1306 34.4357 26.0337Z" fill="#1D1650"/>
</g>
<mask id="mask35_5251_22473" style="mask-type:luminance" maskUnits="userSpaceOnUse" x="5" y="0" width="36" height="56">
<path d="M40.1865 0.26416H5.02686V55.0074H40.1865V0.26416Z" fill="white"/>
</mask>
<g mask="url(#mask35_5251_22473)">
<path d="M39.3538 18.4247L40.1864 17.5922C38.2019 15.5883 35.4913 14.4557 32.6646 14.4654H32.5872V15.6464H32.6646C35.1719 15.6367 37.5823 16.6435 39.3538 18.4247Z" fill="#5B5596"/>
</g>
<mask id="mask36_5251_22473" style="mask-type:luminance" maskUnits="userSpaceOnUse" x="5" y="0" width="36" height="56">
<path d="M40.1865 0.26416H5.02686V55.0074H40.1865V0.26416Z" fill="white"/>
</mask>
<g mask="url(#mask36_5251_22473)">
<path d="M32.6646 21.5223C33.5649 21.5223 34.4265 21.8805 35.0654 22.5194L35.8979 21.6869C35.046 20.8253 33.8747 20.3413 32.6646 20.3413C32.6356 20.3413 32.6162 20.3413 32.5872 20.3413V21.5223C32.6162 21.5223 32.6356 21.5223 32.6646 21.5223Z" fill="#5B5596"/>
</g>
<mask id="mask37_5251_22473" style="mask-type:luminance" maskUnits="userSpaceOnUse" x="5" y="0" width="36" height="56">
<path d="M40.1865 0.26416H5.02686V55.0074H40.1865V0.26416Z" fill="white"/>
</mask>
<g mask="url(#mask37_5251_22473)">
<path d="M32.6646 18.4927C34.4168 18.4927 36.1012 19.1897 37.3403 20.4385L38.1728 19.606C36.7207 18.1345 34.7362 17.3117 32.6646 17.3214H32.5872V18.5024C32.6162 18.4927 32.6356 18.4927 32.6646 18.4927Z" fill="#5B5596"/>
</g>
<mask id="mask38_5251_22473" style="mask-type:luminance" maskUnits="userSpaceOnUse" x="5" y="0" width="36" height="56">
<path d="M40.1865 0.26416H5.02686V55.0074H40.1865V0.26416Z" fill="white"/>
</mask>
<g mask="url(#mask38_5251_22473)">
<path d="M32.5968 24.1459C32.6743 24.1459 32.713 24.233 32.7324 24.3395C32.7517 24.4073 32.7808 24.5234 32.713 24.5525C32.6452 24.5718 32.6259 24.5137 32.5872 24.5137V25.4624C32.8098 25.414 32.955 25.4237 33.1002 25.2301C33.2454 25.0268 33.6327 25.0074 33.6811 24.6686C33.6811 24.1846 34.0296 23.8361 33.6423 23.3618C33.4003 23.0617 33.2648 22.81 32.5968 22.8003V24.1459ZM32.9647 23.7393C33.1583 23.7393 33.2454 23.778 33.4681 23.7877C33.623 23.7974 33.6617 24.0684 33.6423 24.1459C33.6326 24.2233 33.4971 24.5137 33.2648 24.4363C32.9937 24.3492 33.0131 24.3492 32.9357 24.2911C32.8679 24.233 32.8098 24.1652 32.7614 24.0975C32.6936 23.9813 32.7324 23.8458 32.8485 23.778C32.8873 23.7587 32.926 23.7393 32.9647 23.7393Z" fill="#5B5596"/>
</g>
<mask id="mask39_5251_22473" style="mask-type:luminance" maskUnits="userSpaceOnUse" x="5" y="0" width="36" height="56">
<path d="M40.1865 0.26416H5.02686V55.0074H40.1865V0.26416Z" fill="white"/>
</mask>
<g mask="url(#mask39_5251_22473)">
<path d="M33.8553 25.4817C33.9521 25.5108 34.0683 25.5398 34.1844 25.5785C34.2812 25.5979 34.3877 25.5495 34.4361 25.4527C34.5233 25.3559 34.5136 25.2107 34.4168 25.1235C34.4071 24.959 34.2619 24.8331 34.0973 24.8428C34.0296 24.8428 33.9715 24.8718 33.9231 24.9106C33.865 25.0074 33.7972 25.0945 33.7391 25.1816C33.3519 25.3172 32.9744 25.443 32.5872 25.5785V25.9173C33.0131 25.7721 33.4294 25.6269 33.8553 25.4817Z" fill="#5B5596"/>
</g>
<mask id="mask40_5251_22473" style="mask-type:luminance" maskUnits="userSpaceOnUse" x="5" y="0" width="36" height="56">
<path d="M40.1865 0.26416H5.02686V55.0074H40.1865V0.26416Z" fill="white"/>
</mask>
<g mask="url(#mask40_5251_22473)">
<path d="M34.184 25.9079C34.0775 25.9466 33.9614 25.9757 33.8646 26.0047H33.8549C33.6225 25.9273 33.3805 25.8498 33.1482 25.7627H33.1385L32.7029 25.9079C32.6932 25.9079 32.6835 25.9273 32.6932 25.9369C32.6932 25.9466 32.7029 25.9466 32.7029 25.9466C33.0514 26.0628 33.3999 26.179 33.7387 26.3048C33.7387 26.3048 33.7484 26.3048 33.7484 26.3145C33.8065 26.3919 33.8742 26.4887 33.9323 26.5759C34.0582 26.6823 34.2518 26.663 34.3583 26.5371C34.397 26.4887 34.4163 26.4306 34.426 26.3726C34.426 26.3629 34.426 26.3629 34.4357 26.3629C34.5228 26.2758 34.5325 26.1306 34.4454 26.0337C34.3873 25.9466 34.2808 25.8982 34.184 25.9079Z" fill="#5B5596"/>
</g>
<mask id="mask41_5251_22473" style="mask-type:luminance" maskUnits="userSpaceOnUse" x="5" y="0" width="36" height="56">
<path d="M40.1865 0.26416H5.02686V55.0074H40.1865V0.26416Z" fill="white"/>
</mask>
<g mask="url(#mask41_5251_22473)">
<path d="M33.5066 11.4161C33.555 13.3909 33.5357 15.6852 32.6935 15.1431C31.9965 14.6978 32.3062 13.3619 32.2191 11.4935C32.1707 10.5061 31.3769 9.97369 30.4282 9.87689L30.8445 8.64746C32.0642 8.75395 33.4582 9.31542 33.5066 11.4161Z" fill="#F9BD9D"/>
</g>
<mask id="mask42_5251_22473" style="mask-type:luminance" maskUnits="userSpaceOnUse" x="5" y="0" width="36" height="56">
<path d="M40.1865 0.26416H5.02686V55.0074H40.1865V0.26416Z" fill="white"/>
</mask>
<g mask="url(#mask42_5251_22473)">
<path d="M25.7036 6.44021C25.7907 6.39181 25.8779 6.35309 25.965 6.30469C25.8779 6.36277 25.7907 6.41117 25.7036 6.44021Z" fill="#30302F"/>
</g>
<path d="M4.91975 6.58574C4.91975 6.58574 5.37063 1.66241 5.37063 1.13684C5.37063 0.61127 0.941551 -0.595227 0.564152 2.71355C0.186752 6.02232 4.91975 6.58574 4.91975 6.58574Z" fill="#87C7B7" stroke="#87C7B7" stroke-width="0.968051"/>
</svg>
