<svg width="40" height="45" viewBox="0 0 40 45" fill="none" xmlns="http://www.w3.org/2000/svg">
<g opacity="0.64">
<path d="M24.2537 8.61541C24.2513 8.70755 24.2673 8.79925 24.301 8.88508C24.3346 8.97091 24.385 9.04914 24.4493 9.11516C24.5137 9.18118 24.5906 9.23365 24.6755 9.26947C24.7604 9.3053 24.8517 9.32376 24.9438 9.32376C25.036 9.32376 25.1273 9.3053 25.2122 9.26947C25.2971 9.23365 25.374 9.18118 25.4383 9.11516C25.5027 9.04914 25.5531 8.97091 25.5867 8.88508C25.6203 8.79925 25.6364 8.70755 25.634 8.61541C25.4742 8.03883 25.2423 7.48474 24.9436 6.96631C24.6451 7.48477 24.4133 8.03885 24.2537 8.61541Z" fill="white"/>
<path d="M22.0586 3.88055C22.0586 4.0636 22.1313 4.23917 22.2607 4.3686C22.3902 4.49804 22.5657 4.57073 22.7488 4.57073C22.9318 4.57073 23.1074 4.49804 23.2368 4.3686C23.3663 4.23917 23.439 4.0636 23.439 3.88055C23.2791 3.30398 23.0472 2.7499 22.7485 2.23145C22.4501 2.74993 22.2183 3.30401 22.0586 3.88055Z" fill="white"/>
<path d="M17.9487 5.8454C17.9534 6.02534 18.0282 6.19637 18.1571 6.32199C18.286 6.44761 18.4589 6.5179 18.6389 6.5179C18.8189 6.5179 18.9918 6.44761 19.1207 6.32199C19.2497 6.19637 19.3244 6.02534 19.3291 5.8454C19.1692 5.269 18.9373 4.7151 18.6387 4.19678C18.3403 4.71512 18.1085 5.26902 17.9487 5.8454Z" fill="white"/>
</g>
<path d="M14.7856 14.2754L13.5491 14.9206L13.437 14.7058C13.4156 14.6648 13.4112 14.6169 13.4248 14.5726C13.4384 14.5283 13.4689 14.4912 13.5097 14.4692L14.4359 13.9859C14.4773 13.9643 14.5256 13.96 14.5702 13.974C14.6148 13.9881 14.652 14.0192 14.6736 14.0606L14.7856 14.2754Z" fill="#FCE469"/>
<path d="M13.5554 14.4452L14.3923 14.0096L14.118 13.8501L13.5838 14.129L13.5554 14.4452Z" fill="#FCE469"/>
<path d="M13.0625 11.8302L12.5283 12.1089L13.5819 14.1282L14.1161 13.8495L13.0625 11.8302Z" fill="#FCE469"/>
<path d="M12.3559 11.1284C12.4268 11.0914 12.5095 11.0842 12.5857 11.1081C12.662 11.1321 12.7256 11.1854 12.7627 11.2562L13.0626 11.8313L12.5284 12.1103L12.2285 11.5352C12.2101 11.5001 12.1988 11.4617 12.1953 11.4223C12.1918 11.3829 12.196 11.3432 12.2079 11.3054C12.2197 11.2676 12.2388 11.2325 12.2642 11.2021C12.2896 11.1718 12.3208 11.1467 12.3559 11.1284Z" fill="#FCE469"/>
<path d="M26.1899 38.9029L27.2241 38.3633L15.3091 15.5273L14.2749 16.0669L26.1899 38.9029Z" fill="#333465"/>
<path d="M26.1904 38.9025L26.7073 38.6328L14.7922 15.7968L14.2753 16.0665L26.1904 38.9025Z" fill="#231F56"/>
<path d="M31.9396 44.0313L31.9861 44.0062C32.4382 43.7596 32.8155 43.3958 33.0785 42.9531C33.3416 42.5105 33.4806 42.0052 33.4811 41.4902C33.4816 40.9753 33.3435 40.4697 33.0812 40.0265C32.819 39.5834 32.4424 39.2189 31.9908 38.9715C31.9544 38.9517 31.9145 38.9394 31.8733 38.9355C31.8321 38.9315 31.7906 38.9359 31.7511 38.9484C31.7117 38.9609 31.6752 38.9813 31.6438 39.0083C31.6125 39.0352 31.5869 39.0683 31.5686 39.1054L31.1878 39.879C31.1538 39.9489 31.1475 40.0292 31.1703 40.1036C31.1931 40.178 31.2432 40.2409 31.3106 40.2798C31.4975 40.3884 31.6566 40.5389 31.7754 40.7196C31.8941 40.9002 31.9693 41.106 31.9949 41.3207C32.0205 41.5353 31.9958 41.753 31.9229 41.9565C31.8499 42.16 31.7307 42.3438 31.5745 42.4933C31.4184 42.6428 31.2296 42.7539 31.0232 42.818C30.8167 42.882 30.5981 42.8972 30.3848 42.8623C30.1714 42.8274 29.9691 42.7434 29.7938 42.6169C29.6185 42.4904 29.475 42.3249 29.3746 42.1335L27.368 38.2871L26.0615 38.9682L28.0686 42.8146C28.2771 43.2118 28.5755 43.5548 28.9399 43.8164C29.3043 44.078 29.7248 44.2509 30.1678 44.3214C30.7742 44.4188 31.3959 44.317 31.9396 44.0313Z" fill="#FCE469"/>
<path opacity="0.63" d="M2.76617 35.0947C2.90565 34.9506 3.12045 34.74 3.40731 34.495C4.60275 33.4456 6.03022 32.695 7.57232 32.305C9.11441 31.9149 10.7271 31.8965 12.2777 32.2512V32.2457L12.2749 32.2359C12.1266 31.75 8.43133 19.428 13.3331 15.3497H13.3359C13.4882 15.2232 13.6476 15.1056 13.8134 14.9973L14.255 14.7648L14.1551 14.5732C12.0403 15.6719 10.1264 17.1199 8.4941 18.8562C7.62964 19.7234 6.84436 20.6662 6.1476 21.6732L6.14434 21.6773C3.55562 25.254 2.25289 29.3915 2.53882 33.3643C2.58011 33.9451 2.65603 34.523 2.76617 35.0947Z" fill="#528987"/>
<path d="M14.1541 14.573L14.254 14.7646L14.6952 14.5321C14.8789 14.4579 15.0667 14.3944 15.2578 14.342H15.261C21.459 12.6408 29.5293 22.8934 29.7231 23.1408L29.7269 23.1454C30.3229 21.6706 31.2606 20.3584 32.4627 19.3167C33.6649 18.275 35.0971 17.5336 36.6417 17.1534C37.0067 17.0581 37.3024 17.0018 37.5 16.9702C37.0946 16.5524 36.6645 16.1591 36.2121 15.7925C33.1166 13.2852 28.9779 11.9871 24.5634 12.0643H24.5582C23.3339 12.0598 22.1115 12.1645 20.9058 12.3772C18.5475 12.7235 16.2648 13.4659 14.1541 14.573Z" fill="#096E54"/>
<path d="M12.2783 32.251C14.7152 29.9846 17.4203 28.025 20.3332 26.4157C23.3187 24.9472 26.4727 23.8495 29.7248 23.1467L29.721 23.1421C29.5253 22.8906 21.3718 12.4803 15.1655 14.1648H15.1618C14.9705 14.2165 14.7825 14.2796 14.5987 14.3535L14.1515 14.5721L13.7158 14.8143C13.55 14.9226 13.3908 15.0406 13.2388 15.1676H13.236C8.34313 19.2627 12.1202 31.7405 12.2708 32.2305L12.2736 32.2403L12.2783 32.251Z" fill="#73C9B7"/>
<path d="M13.4097 14.658L13.5492 14.9215L14.1564 14.6031L12.346 11.1333C12.2778 11.1716 12.2272 11.235 12.205 11.31C12.1828 11.385 12.1907 11.4657 12.2269 11.535L13.5808 14.1293L13.5543 14.4455L13.4613 14.4943C13.4328 14.5091 13.4113 14.5347 13.4016 14.5654C13.392 14.5961 13.3949 14.6294 13.4097 14.658Z" fill="#FCE469"/>
</svg>
