<svg width="40" height="39" viewBox="0 0 40 39" fill="none" xmlns="http://www.w3.org/2000/svg">
<path d="M35.7583 9.91602H3.83813V13.3589H35.7583V9.91602Z" fill="#231F56"/>
<path d="M31.8826 0.538471L27.7507 0L23.8927 29.604L28.0246 30.1424L31.8826 0.538471Z" fill="#FFDC50"/>
<path d="M28.1263 13.242L26.8625 13.0747C26.7691 13.0644 26.6755 13.0911 26.6016 13.1491C26.5277 13.2071 26.4796 13.2917 26.4674 13.3849C26.4553 13.478 26.4802 13.5722 26.5368 13.6471C26.5933 13.7221 26.677 13.7719 26.7699 13.7858L28.0337 13.9531C28.0493 13.9552 28.0649 13.9561 28.0806 13.9559C28.1719 13.9562 28.2599 13.9216 28.3266 13.8593C28.3933 13.7969 28.4337 13.7114 28.4396 13.6202C28.4454 13.5291 28.4162 13.4391 28.358 13.3687C28.2998 13.2984 28.2169 13.2528 28.1263 13.2415V13.242ZM28.6517 9.21076L27.3879 9.04343C27.2945 9.0331 27.2009 9.05981 27.127 9.11781C27.0531 9.1758 27.005 9.26045 26.9928 9.35358C26.9807 9.44671 27.0056 9.54087 27.0621 9.61585C27.1187 9.69082 27.2024 9.74061 27.2953 9.75453L28.5591 9.92186C28.5747 9.92378 28.5903 9.92471 28.606 9.92465C28.6973 9.92494 28.7853 9.89034 28.852 9.82796C28.9187 9.76557 28.9591 9.68009 28.965 9.58894C28.9708 9.49779 28.9416 9.40784 28.8834 9.33746C28.8252 9.26708 28.7423 9.22156 28.6517 9.2102V9.21076ZM28.389 11.227L27.1252 11.0596C27.0785 11.0536 27.031 11.0567 26.9855 11.069C26.94 11.0813 26.8974 11.1024 26.86 11.1311C26.8227 11.1599 26.7914 11.1957 26.7679 11.2365C26.7444 11.2774 26.7291 11.3224 26.723 11.3692C26.717 11.4159 26.7202 11.4634 26.7324 11.5089C26.7447 11.5544 26.7658 11.597 26.7945 11.6343C26.8233 11.6717 26.8591 11.703 26.8999 11.7265C26.9408 11.75 26.9859 11.7652 27.0326 11.7713L28.2964 11.9386C28.312 11.9405 28.3276 11.9415 28.3433 11.9414C28.4346 11.9417 28.5226 11.9071 28.5893 11.8447C28.656 11.7823 28.6964 11.6968 28.7023 11.6057C28.7081 11.5145 28.6789 11.4246 28.6207 11.3542C28.5625 11.2838 28.4796 11.2383 28.389 11.227ZM29.138 5.48232L27.8742 5.31499C27.7799 5.30271 27.6845 5.32843 27.609 5.38648C27.5336 5.44453 27.4844 5.53015 27.4721 5.62453C27.4598 5.7189 27.4855 5.81429 27.5436 5.88971C27.6016 5.96512 27.6873 6.01438 27.7816 6.02666L29.0454 6.19399C29.061 6.1959 29.0766 6.19682 29.0923 6.19676C29.1836 6.19704 29.2716 6.16247 29.3384 6.10008C29.4051 6.0377 29.4455 5.95221 29.4513 5.86106C29.4571 5.76991 29.428 5.67997 29.3698 5.60958C29.3115 5.5392 29.2287 5.49368 29.138 5.48232ZM28.8753 7.49795L27.6115 7.33064C27.5644 7.32357 27.5163 7.32598 27.4701 7.33772C27.4239 7.34946 27.3805 7.37028 27.3424 7.399C27.3043 7.42771 27.2724 7.46372 27.2484 7.50493C27.2244 7.54614 27.2089 7.59173 27.2028 7.639C27.1966 7.68628 27.1999 7.7343 27.2126 7.78027C27.2252 7.82625 27.2468 7.86925 27.2763 7.90675C27.3057 7.94426 27.3424 7.9755 27.384 7.99868C27.4257 8.02186 27.4715 8.0365 27.5189 8.04175L28.7828 8.20906C28.7983 8.21106 28.8139 8.21199 28.8296 8.21185C28.9209 8.21213 29.0089 8.17756 29.0757 8.11517C29.1424 8.05279 29.1828 7.96729 29.1886 7.87613C29.1944 7.78498 29.1653 7.69504 29.1071 7.62465C29.0488 7.55427 28.966 7.50876 28.8753 7.49739V7.49795ZM29.6612 1.44879L28.3974 1.28147C28.304 1.27115 28.2103 1.29784 28.1365 1.35584C28.0626 1.41383 28.0144 1.49849 28.0023 1.59162C27.9902 1.68475 28.0151 1.77892 28.0716 1.85389C28.1282 1.92887 28.2119 1.97866 28.3048 1.99258L29.5686 2.15991C29.5842 2.16183 29.5998 2.16275 29.6155 2.16268C29.7068 2.16297 29.7948 2.12839 29.8615 2.06601C29.9282 2.00362 29.9686 1.91814 29.9745 1.82698C29.9803 1.73583 29.9511 1.64589 29.8929 1.5755C29.8347 1.50512 29.7518 1.46015 29.6612 1.44879ZM29.3985 3.46444L28.1347 3.29712C28.0875 3.29006 28.0394 3.29245 27.9932 3.30419C27.947 3.31593 27.9036 3.33677 27.8656 3.36548C27.8275 3.39419 27.7955 3.43021 27.7716 3.47142C27.7476 3.51262 27.7321 3.55819 27.7259 3.60547C27.7197 3.65275 27.7231 3.70078 27.7357 3.74676C27.7483 3.79273 27.77 3.83574 27.7995 3.87324C27.8289 3.91074 27.8655 3.94199 27.9072 3.96517C27.9488 3.98835 27.9947 4.00299 28.0421 4.00823L29.3059 4.17554C29.3214 4.17755 29.3371 4.17849 29.3528 4.17833C29.4441 4.17862 29.5321 4.14404 29.5988 4.08166C29.6655 4.01927 29.7059 3.93377 29.7118 3.84262C29.7176 3.75147 29.6884 3.66152 29.6302 3.59114C29.572 3.52076 29.4891 3.47524 29.3985 3.46388V3.46444ZM27.8614 15.2582L26.5976 15.0909C26.5504 15.0839 26.5023 15.0863 26.4561 15.098C26.4099 15.1097 26.3665 15.1306 26.3284 15.1593C26.2904 15.188 26.2584 15.224 26.2345 15.2652C26.2105 15.3064 26.1949 15.352 26.1888 15.3993C26.1826 15.4466 26.186 15.4946 26.1986 15.5406C26.2112 15.5865 26.2329 15.6295 26.2623 15.667C26.2918 15.7045 26.3284 15.7358 26.3701 15.759C26.4117 15.7821 26.4576 15.7968 26.505 15.802L27.7688 15.9693C27.7843 15.9713 27.8 15.9722 27.8157 15.9721C27.907 15.9724 27.995 15.9378 28.0617 15.8755C28.1284 15.8131 28.1688 15.7276 28.1747 15.6364C28.1805 15.5453 28.1513 15.4553 28.0931 15.3849C28.0349 15.3146 27.952 15.269 27.8614 15.2577V15.2582Z" fill="#303875"/>
<path d="M14.1895 3.14373L13.9832 5.78683C13.9832 5.78683 14.4963 6.11254 14.938 8.62735C15.3083 10.7345 16.7958 18.9209 16.7958 18.9209L18.1176 18.6911L16.3301 8.42045C16.3301 8.42045 15.8532 6.09191 16.2503 5.3373L15.2464 2.96191L14.1895 3.14373Z" fill="#A6D7C3"/>
<path d="M14.8542 15.7173L15.0216 16.7L15.4996 16.6175L17.1426 26.1508L20.276 25.6109L18.6329 16.0776L19.1639 15.9861L18.9965 15.0034L14.8542 15.7173Z" fill="#FFDC50"/>
<path d="M23.4926 17.9031C23.1414 18.3655 22.9461 18.9273 22.9348 19.5077C22.8233 20.8965 22.7675 26.4236 22.7675 26.4236H21.3129C21.3129 26.4236 21.4089 20.5513 21.386 19.6343C21.3581 18.5144 20.5176 18.5652 20.2293 17.4592C20.1105 17.0865 20.0789 16.6916 20.1369 16.3048C20.1949 15.918 20.341 15.5497 20.5639 15.2282L21.062 16.8306C21.3905 16.9734 21.7535 17.0172 22.1066 16.9567C22.4214 16.841 22.6851 16.6178 22.8512 16.3264L22.3709 14.7241C22.3709 14.7241 22.8272 14.6532 23.3821 15.3772C23.6837 15.7236 23.8588 16.162 23.8789 16.6208C23.8989 17.0797 23.7627 17.5318 23.4926 17.9031Z" fill="#A6D7C3"/>
<path d="M11.1307 8.83476L11.3923 8.82751L11.7108 6.56424L10.5468 3.11523L10.0036 3.13084L9.58527 7.55032L9.59308 7.62839C9.37663 7.58771 9.15427 7.59037 8.93886 7.6362L8.94165 7.56816L8.27236 3.17881L7.72913 3.19443L6.76147 6.70424L7.20765 8.94576L7.46923 8.9385L7.48764 9.58214L6.92266 12.3758L8.38335 12.7774L8.78159 11.1962L8.79161 10.9681C9.16413 11.0793 9.56349 11.0596 9.92326 10.9123L9.94835 11.1605L10.4353 12.7166L11.8709 12.233L11.1486 9.47561L11.1307 8.83476Z" fill="#A6D7C3"/>
<path d="M6.74024 12.2148L8.62537 12.8875C7.55206 15.5356 6.85264 18.3204 6.54726 21.1614C6.11222 24.5374 6.43963 25.8943 7.12397 28.7432C7.35989 29.7254 6.82781 30.6334 5.95273 29.7522C4.57513 28.3623 4.26893 24.6673 4.5874 20.5011C4.76225 17.6257 5.49337 14.8117 6.74024 12.2148Z" fill="#303875"/>
<path d="M11.9892 12.0679L10.1448 12.8459C11.366 15.4291 12.2215 18.1697 12.6869 20.9888C13.3121 24.3352 13.0617 25.7083 12.5397 28.5913C12.3595 29.5857 12.9418 30.4619 13.7639 29.5327C15.0612 28.067 15.1582 24.3609 14.6049 20.2186C14.2684 17.3581 13.3801 14.59 11.9892 12.0679Z" fill="#303875"/>
<path d="M31.7942 18.727L33.8472 18.6099L35.1372 30.6764L32.1076 30.8498L31.7942 18.727Z" fill="#303875"/>
<path d="M33.0254 8.44335L31.4707 8.53223L32.0527 18.7132L33.6074 18.6243L33.0254 8.44335Z" fill="#A6D7C3"/>
<path d="M37.4939 3.70768C37.7265 3.69438 37.9549 3.77402 38.1288 3.92909C38.3026 4.08415 38.4078 4.30194 38.4211 4.53453L38.4847 5.64818C38.4916 5.76352 38.4757 5.87908 38.4379 5.98826C38.4 6.09743 38.341 6.19806 38.2642 6.28439C38.1874 6.37072 38.0943 6.44105 37.9903 6.49135C37.8863 6.54166 37.7734 6.57095 37.658 6.57754C37.4254 6.59084 37.1971 6.51119 37.0232 6.35613C36.8493 6.20106 36.7442 5.98328 36.7309 5.75068L36.6672 4.63704C36.6603 4.5217 36.6763 4.40613 36.7141 4.29696C36.7519 4.18779 36.811 4.08716 36.8878 4.00083C36.9646 3.9145 37.0576 3.84416 37.1616 3.79386C37.2657 3.74356 37.3786 3.71427 37.4939 3.70768Z" fill="#A6D7C3"/>
<path d="M32.6056 8.73317C32.9706 8.71229 33.2496 8.39957 33.2287 8.03469C33.2078 7.66982 32.895 7.39095 32.53 7.41183L31.8128 7.45286C31.4478 7.47374 31.1688 7.78646 31.1896 8.15134C31.2105 8.51621 31.5233 8.79508 31.8884 8.7742L32.6056 8.73317Z" fill="#5CB497"/>
<path d="M31.1724 7.85512L33.2053 7.73911C33.2053 7.73911 33.1183 6.10439 35.0247 5.99563C36.5924 5.90584 36.7943 6.49759 36.7943 6.49759L36.6454 3.8902C36.6454 3.8902 36.4407 4.18301 35.3381 4.24659C35.0289 4.27233 34.7178 4.22633 34.4292 4.11218C34.1407 3.99803 33.8824 3.81879 33.6744 3.58846C32.103 3.27735 30.4722 3.57288 29.1099 4.41557C26.6185 5.83779 25.7674 8.20816 25.7423 8.70064C25.7172 9.19312 26.0429 9.4307 26.6235 8.95663C27.4133 8.31189 28.8712 6.0687 30.0402 6.00065C30.9197 5.95046 31.1724 7.85512 31.1724 7.85512Z" fill="#A6D7C3"/>
<path d="M9.2514 18.3015C9.56739 19.0405 9.64043 19.8608 9.45999 20.644C9.14376 22.5464 7.3501 29.9882 7.3501 29.9882L9.30216 30.4767C9.30216 30.4767 11.1572 22.5614 11.4979 21.3383C11.914 19.8447 13.025 20.1961 13.7846 18.8129C14.2269 18.0076 14.6001 16.6902 14.0881 15.708L12.8783 17.6907C12.3892 17.7713 11.8873 17.7075 11.4338 17.5073C11.0502 17.2457 10.7715 16.8569 10.6468 16.4096L11.8331 14.4208C11.8331 14.4208 11.2447 14.172 10.2548 14.9562C9.73428 15.3185 9.35181 15.8464 9.16962 16.4538C8.98743 17.0613 9.01626 17.7125 9.2514 18.3015Z" fill="#A6D7C3"/>
<path d="M39.9902 36.8515V24.4777C37.8151 23.1241 37.9824 19.0621 37.9824 19.0621V7.729H35.187V23.2373H4.80626V7.729H2.01759V19.0627C2.01759 19.0627 2.18491 23.1246 0.00975553 24.4783V36.8521C0.00975553 36.8521 -0.241226 38.8599 1.80286 38.8599H38.1988C40.2412 38.8599 39.9902 36.8515 39.9902 36.8515Z" fill="#231F56"/>
</svg>
