<svg width="40" height="32" viewBox="0 0 40 32" fill="none" xmlns="http://www.w3.org/2000/svg">
<mask id="mask0_5251_22827" style="mask-type:luminance" maskUnits="userSpaceOnUse" x="2" y="0" width="35" height="32">
<path d="M37 0.155762H2.00049V31.2691H37V0.155762Z" fill="white"/>
</mask>
<g mask="url(#mask0_5251_22827)">
<path d="M36.9907 15.6831C36.9874 16.1984 36.7817 16.6918 36.4179 17.0568C36.054 17.4217 35.5613 17.629 35.046 17.6339H33.1013L33.144 27.3691C33.143 27.5337 33.1329 27.6981 33.1138 27.8616V28.8404C33.1139 29.1595 33.0511 29.4755 32.9291 29.7704C32.807 30.0653 32.6281 30.3332 32.4025 30.5589C32.1769 30.7847 31.9091 30.9637 31.6142 31.0859C31.3194 31.2081 31.0034 31.271 30.6843 31.2711H29.7111C29.6442 31.2711 29.5772 31.2711 29.5095 31.265C29.4244 31.2711 29.3393 31.2711 29.2542 31.2711H25.8213C25.1768 31.2712 24.5587 31.0153 24.1029 30.5597C23.647 30.1041 23.3908 29.4861 23.3906 28.8416V23.4918C23.391 23.2367 23.341 22.984 23.2437 22.7482C23.1463 22.5125 23.0035 22.2981 22.8233 22.1175C22.6431 21.937 22.4292 21.7936 22.1936 21.6958C21.958 21.5979 21.7055 21.5474 21.4504 21.5471H17.5569C17.0417 21.5466 16.5475 21.7507 16.1828 22.1145C15.8181 22.4784 15.6128 22.9722 15.6122 23.4874V28.8396C15.6123 29.1587 15.5495 29.4747 15.4275 29.7696C15.3055 30.0645 15.1265 30.3324 14.9009 30.5581C14.6753 30.7838 14.4075 30.9629 14.1127 31.0851C13.8178 31.2073 13.5018 31.2702 13.1827 31.2703H9.7837C9.69296 31.2703 9.60141 31.2642 9.51027 31.2582C9.43767 31.2642 9.36508 31.2703 9.29168 31.2703H8.32013C8.001 31.2704 7.68497 31.2076 7.3901 31.0856C7.09523 30.9635 6.82728 30.7846 6.60157 30.559C6.37585 30.3334 6.19679 30.0655 6.0746 29.7707C5.95241 29.4759 5.8895 29.1599 5.88944 28.8408V22.0335C5.88847 21.9767 5.89049 21.9199 5.89549 21.8633V17.6339H3.94473C3.43529 17.6401 2.94423 17.4438 2.57954 17.088C2.21485 16.7322 2.0064 16.2462 2.00002 15.7368C2.00002 15.719 2.00002 15.7009 2.00002 15.6831C1.99557 15.4113 2.04725 15.1415 2.15183 14.8906C2.25641 14.6396 2.41163 14.413 2.60779 14.2248L18.1889 0.642866C18.3653 0.472893 18.5754 0.341791 18.8056 0.258016C19.0358 0.17424 19.281 0.139654 19.5254 0.156486C19.987 0.148257 20.4375 0.298421 20.8019 0.581968L36.3208 14.2244C36.5461 14.3915 36.7254 14.6128 36.8422 14.8677C36.9591 15.1227 37.0096 15.403 36.9891 15.6827" fill="#231E56"/>
</g>
<mask id="mask1_5251_22827" style="mask-type:luminance" maskUnits="userSpaceOnUse" x="2" y="0" width="35" height="32">
<path d="M37 0H2V31.2013H37V0Z" fill="white"/>
</mask>
<g mask="url(#mask1_5251_22827)">
<path d="M17.5254 17.5084V17.5064L17.6847 16.0702C17.6884 16.0269 17.7074 15.9862 17.7383 15.9556C17.7691 15.9249 17.8099 15.9062 17.8533 15.9028H21.5677C21.612 15.9035 21.6543 15.9213 21.6858 15.9525C21.7172 15.9837 21.7353 16.0259 21.7362 16.0702L21.8956 17.5064V17.5084H22.8155L22.6195 15.9863C22.5941 15.7457 22.4849 15.5216 22.311 15.3535C22.137 15.1853 21.9094 15.0836 21.6681 15.0664H17.7504C17.5091 15.0836 17.2815 15.1853 17.1075 15.3535C16.9336 15.5216 16.8244 15.7457 16.7991 15.9863L16.6055 17.5088L17.5254 17.5084Z" fill="#5CB497"/>
<path d="M10.7205 23.9111V30.5208C10.7204 30.6303 10.7419 30.7387 10.7838 30.8399C10.8257 30.941 10.8871 31.033 10.9645 31.1104C11.0419 31.1878 11.1338 31.2492 11.235 31.2911C11.3362 31.333 11.4446 31.3545 11.5541 31.3544H27.8672C28.0882 31.3544 28.3003 31.2666 28.4566 31.1103C28.6129 30.9539 28.7008 30.7419 28.7008 30.5208V23.9111C22.8673 25.8685 16.5539 25.8685 10.7205 23.9111Z" fill="#79BCA8"/>
<path d="M11.413 24.0888H11.2981V23.7944L11.3751 23.821L11.5768 23.8896L11.5405 23.9993L11.4159 23.957L11.413 24.0888Z" fill="white"/>
<path d="M28.1233 24.0884H28.0071V23.957L27.8825 23.9993L27.8462 23.8896L28.0478 23.8211L28.1249 23.7944L28.1233 24.0884Z" fill="white"/>
<path d="M19.7104 25.2979H19.4999V25.1817C19.6415 25.1817 19.7822 25.1817 19.9246 25.1817V25.2979H19.7088M19.0732 25.2906C18.9317 25.2874 18.7881 25.2829 18.6469 25.2777L18.6514 25.1615C18.7917 25.1668 18.9337 25.1712 19.0756 25.1745L19.0732 25.2906ZM20.3517 25.2906L20.3488 25.1745C20.49 25.1712 20.6312 25.1668 20.7727 25.1611L20.7772 25.2773C20.6392 25.2825 20.4952 25.287 20.3533 25.2906H20.3517ZM18.221 25.2579C18.0803 25.2503 17.9387 25.2414 17.7956 25.2313L17.8036 25.1156C17.9448 25.1257 18.0859 25.1337 18.2275 25.1422L18.221 25.2579ZM21.203 25.2579L21.1966 25.1422C21.3381 25.1345 21.4789 25.1257 21.62 25.1156L21.6281 25.2313C21.4882 25.2406 21.3458 25.2495 21.2026 25.2571L21.203 25.2579ZM17.3717 25.1987C17.2313 25.1866 17.0894 25.1728 16.9474 25.1583L16.9591 25.043C17.0999 25.0575 17.2414 25.0708 17.3818 25.0833L17.3717 25.1987ZM22.054 25.1987L22.0439 25.0833C22.1855 25.0708 22.3262 25.0575 22.4662 25.043L22.4779 25.1583C22.3383 25.1716 22.196 25.1849 22.054 25.1987ZM16.5231 25.1123C16.3816 25.0954 16.2408 25.0773 16.1001 25.0579L16.1158 24.943C16.2541 24.9611 16.3957 24.9793 16.5369 24.9966L16.5231 25.1123ZM22.9013 25.1123L22.8876 24.9966C23.0288 24.9797 23.1699 24.9619 23.3083 24.9422L23.324 25.0571C23.1853 25.0752 23.0417 25.0934 22.9013 25.1099V25.1123ZM15.6778 24.9986C15.5367 24.9772 15.3955 24.9543 15.2568 24.9309L15.2761 24.8163C15.4141 24.8397 15.5548 24.8623 15.6952 24.8837L15.6778 24.9986ZM23.7438 24.9986L23.7257 24.8841C23.8652 24.8627 24.008 24.8401 24.1443 24.8167L24.1637 24.9313L23.7438 24.997V24.9986ZM14.8353 24.8571C14.6958 24.8308 14.553 24.8034 14.4167 24.7764L14.4401 24.6627C14.5776 24.6909 14.7176 24.7183 14.8571 24.7433L14.8353 24.8571ZM24.5835 24.8571L24.5621 24.7429C24.7005 24.7171 24.8404 24.6897 24.9791 24.6623L25.0025 24.776C24.8634 24.8014 24.7226 24.8288 24.5839 24.8567L24.5835 24.8571ZM13.9993 24.6873C13.8598 24.6566 13.7198 24.6239 13.5839 24.5913L13.6109 24.4784C13.7464 24.5106 13.8856 24.5429 14.0243 24.5735L13.9993 24.6873ZM25.4183 24.6873L25.3933 24.5739C25.5308 24.5437 25.6696 24.5114 25.8067 24.4788L25.8337 24.5917C25.6962 24.6215 25.5567 24.6538 25.4187 24.6844L25.4183 24.6873ZM13.1701 24.488C13.0322 24.4517 12.8939 24.4154 12.7583 24.3775L12.7894 24.2658C12.9245 24.3033 13.0624 24.3404 13.1996 24.3755L13.1701 24.488ZM26.2471 24.488L26.2181 24.3755C26.3552 24.3392 26.4931 24.3029 26.6278 24.2658L26.6589 24.3775C26.5238 24.4126 26.385 24.4493 26.2475 24.4852L26.2471 24.488ZM12.3506 24.259C12.2151 24.2186 12.0788 24.1783 11.9429 24.1339L11.978 24.0234C12.1123 24.0662 12.249 24.1077 12.3837 24.1481L12.3506 24.259ZM27.071 24.259L27.038 24.1481C27.1731 24.1077 27.3098 24.0674 27.4433 24.0234L27.4784 24.1339C27.3441 24.1743 27.207 24.2146 27.071 24.2549V24.259Z" fill="white"/>
<path d="M22.1125 17.4663H22.6155C22.7728 17.4663 22.9237 17.5288 23.035 17.6401C23.1462 17.7513 23.2087 17.9022 23.2087 18.0596C23.2087 18.2169 23.1462 18.3678 23.035 18.4791C22.9237 18.5903 22.7728 18.6528 22.6155 18.6528H22.1125C21.9552 18.6528 21.8043 18.5903 21.693 18.4791C21.5818 18.3678 21.5193 18.2169 21.5193 18.0596C21.5193 17.9022 21.5818 17.7513 21.693 17.6401C21.8043 17.5288 21.9552 17.4663 22.1125 17.4663Z" fill="#0C123F"/>
<path d="M17.3071 17.4663H16.803C16.4753 17.4663 16.2097 17.7319 16.2097 18.0596C16.2097 18.3872 16.4753 18.6528 16.803 18.6528H17.3071C17.6347 18.6528 17.9003 18.3872 17.9003 18.0596C17.9003 17.7319 17.6347 17.4663 17.3071 17.4663Z" fill="#0C123F"/>
<path d="M27.8676 18.2266H11.5541C11.4446 18.2266 11.3362 18.2481 11.2351 18.29C11.1339 18.3319 11.042 18.3933 10.9646 18.4707C10.8872 18.5481 10.8258 18.64 10.7839 18.7412C10.742 18.8423 10.7205 18.9507 10.7205 19.0602V24.1256C16.554 26.083 22.8669 26.083 28.7004 24.1256V19.0602C28.7004 18.8392 28.6127 18.6273 28.4565 18.471C28.3003 18.3147 28.0885 18.2268 27.8676 18.2266Z" fill="#0C123F"/>
<path d="M27.8676 18.0117H11.5541C11.333 18.0117 11.121 18.0995 10.9646 18.2559C10.8083 18.4122 10.7205 18.6242 10.7205 18.8453V23.9108C16.554 25.8681 22.8669 25.8681 28.7004 23.9108V18.8453C28.7004 18.6244 28.6127 18.4125 28.4565 18.2562C28.3003 18.0999 28.0885 18.0119 27.8676 18.0117Z" fill="#79BCA8"/>
<path d="M15.3448 23.7871H13.6215C13.559 23.7871 13.4991 23.8119 13.455 23.8561C13.4108 23.9003 13.386 23.9602 13.386 24.0226V26.4828C13.386 26.5137 13.3921 26.5443 13.4039 26.5729C13.4158 26.6015 13.4331 26.6274 13.455 26.6493C13.4768 26.6712 13.5028 26.6885 13.5314 26.7004C13.56 26.7122 13.5906 26.7183 13.6215 26.7183H15.3448C15.4071 26.7181 15.4668 26.6932 15.5108 26.649C15.5548 26.6049 15.5795 26.5451 15.5795 26.4828V24.0226C15.5791 23.9606 15.5542 23.9012 15.5103 23.8574C15.4663 23.8136 15.4069 23.7889 15.3448 23.7887" fill="#FFDC50"/>
<path d="M25.9735 23.7871H24.2502C24.1877 23.7871 24.1278 23.8119 24.0836 23.8561C24.0395 23.9003 24.0146 23.9602 24.0146 24.0226V26.4828C24.0146 26.5137 24.0207 26.5443 24.0326 26.5729C24.0444 26.6015 24.0618 26.6274 24.0836 26.6493C24.1055 26.6712 24.1315 26.6885 24.16 26.7004C24.1886 26.7122 24.2192 26.7183 24.2502 26.7183H25.9735C26.0358 26.7181 26.0955 26.6932 26.1395 26.649C26.1835 26.6049 26.2082 26.5451 26.2082 26.4828V24.0226C26.2077 23.9606 26.1827 23.9013 26.1388 23.8575C26.0949 23.8138 26.0355 23.789 25.9735 23.7887" fill="#FFDC50"/>
<path d="M14.8918 26.3606H14.0743C14.0339 26.3606 13.9951 26.3445 13.9665 26.3159C13.9379 26.2873 13.9219 26.2485 13.9219 26.2081C13.9219 26.1677 13.9379 26.1289 13.9665 26.1003C13.9951 26.0717 14.0339 26.0557 14.0743 26.0557H14.8918C14.9322 26.0557 14.971 26.0717 14.9996 26.1003C15.0282 26.1289 15.0443 26.1677 15.0443 26.2081C15.0443 26.2485 15.0282 26.2873 14.9996 26.3159C14.971 26.3445 14.9322 26.3606 14.8918 26.3606Z" fill="#79BCA8"/>
<path d="M25.521 26.3606H24.7035C24.663 26.3606 24.6243 26.3445 24.5957 26.3159C24.5671 26.2873 24.551 26.2485 24.551 26.2081C24.551 26.1677 24.5671 26.1289 24.5957 26.1003C24.6243 26.0717 24.663 26.0557 24.7035 26.0557H25.521C25.5614 26.0557 25.6002 26.0717 25.6288 26.1003C25.6573 26.1289 25.6734 26.1677 25.6734 26.2081C25.6734 26.2485 25.6573 26.2873 25.6288 26.3159C25.6002 26.3445 25.5614 26.3606 25.521 26.3606Z" fill="#79BCA8"/>
</g>
</svg>
