<svg width="40" height="41" viewBox="0 0 40 41" fill="none" xmlns="http://www.w3.org/2000/svg">
<path d="M10.0845 14.46V21.6032H6.05637L3.78837 24.1448V21.5988L2.13086 23.6828V32.2734H24.5V27.9152L21.2149 24.0263L18.6 14.4614L10.0845 14.46ZM14.2692 15.8679H17.4595L19.569 23.584H14.2688L14.2692 15.8679ZM11.4322 15.8679H13.2092V23.584H11.4327L11.4322 15.8679Z" fill="white"/>
<path d="M0 34.9081V38.4699L2.08153 40.3008H22.9643L25.0458 38.4699V34.9081L22.9643 33.0771H2.08153L0 34.9081ZM2.24294 35.92L2.92811 35.3172H22.1177L22.8028 35.92V37.4546L22.1177 38.0574H2.92811L2.24294 37.4546V35.92Z" fill="#73C9B7"/>
<path d="M20.3676 15.0401L19.7812 12.8955H13.3154L20.661 6.2876L29.11 6.63211L30.0385 10.5518L23.6836 12.0571L20.3676 15.0401Z" fill="white"/>
<path d="M24.4402 13.2182L30.3234 11.8242L34.3915 24.1804L32.5408 26.8078L24.4402 13.2182Z" fill="white"/>
<path d="M36.5307 23.0083L39.9999 28.3234L37.6438 35.5601H28.8946L27.4038 30.8449L30.873 30.7967L36.5307 23.0083Z" fill="#FCE469"/>
</svg>
