<svg width="40" height="39" viewBox="0 0 40 39" fill="none" xmlns="http://www.w3.org/2000/svg">
<path d="M12.5246 21.5215V20.7088C12.5246 18.4772 12.5246 16.2455 12.5246 14.0139C12.5246 13.1216 12.7057 12.9458 13.5961 12.941C14.16 12.9382 14.7239 12.941 15.3726 12.941C15.3726 12.4269 15.3641 11.971 15.3726 11.5156C15.3892 10.818 15.5892 10.6152 16.2844 10.6067C17.226 10.5967 18.1671 10.6043 19.1689 10.6043V7.42556C19.162 7.21567 19.167 7.00556 19.184 6.79625C19.1833 6.70547 19.2013 6.61552 19.237 6.53203C19.2726 6.44853 19.3251 6.37329 19.3912 6.31102C19.4572 6.24874 19.5354 6.20077 19.6209 6.17011C19.7063 6.13945 19.7972 6.12675 19.8877 6.13282C19.9785 6.12957 20.069 6.14589 20.1529 6.18068C20.2368 6.21546 20.3122 6.2679 20.3741 6.33443C20.436 6.40097 20.4828 6.48003 20.5114 6.56626C20.54 6.65248 20.5497 6.74385 20.5398 6.83416C20.5479 7.86579 20.5706 8.89837 20.5355 9.92858C20.518 10.4498 20.682 10.6347 21.2099 10.6086C21.987 10.5712 22.767 10.6043 23.5456 10.6015C23.6562 10.5844 23.7693 10.594 23.8754 10.6293C23.9816 10.6647 24.0778 10.7248 24.1561 10.8048C24.2344 10.8847 24.2925 10.9822 24.3256 11.0891C24.3587 11.196 24.3658 11.3092 24.3465 11.4194C24.3403 11.899 24.3465 12.3785 24.3465 12.9396C25.1312 12.9396 25.8401 12.933 26.5486 12.9396C27.2821 12.9481 27.5006 13.1538 27.5025 13.8741C27.5101 16.2743 27.5025 18.6745 27.5068 21.0742C27.5068 21.5618 27.4077 21.9949 26.8064 21.9793C26.2154 21.9636 26.1221 21.5248 26.1226 21.0424C26.1226 19.0632 26.1226 17.0843 26.1226 15.1057V14.3688H13.9283V37.5343C15.1016 37.5343 16.2124 37.5481 17.3208 37.5116C17.4241 37.5083 17.5989 37.1912 17.6022 37.0173C17.6269 35.7758 17.6117 34.5332 17.6169 33.2912C17.6202 32.4856 17.8216 32.2833 18.6196 32.2781C19.5674 32.2724 20.5152 32.2705 21.4629 32.2781C22.2003 32.2852 22.4078 32.4899 22.4107 33.2111C22.4178 34.4745 22.4277 35.7374 22.4074 37.0021C22.4007 37.4144 22.5348 37.5561 22.9485 37.5471C23.9745 37.5244 25.0018 37.54 26.1235 37.54C26.1235 36.6832 26.1235 35.8919 26.1235 35.1005C26.1138 34.8691 26.1195 34.6373 26.1406 34.4067C26.1965 33.9968 26.4571 33.6921 26.8575 33.7997C27.0022 33.8495 27.1331 33.9328 27.2394 34.0428C27.3458 34.1528 27.4245 34.2865 27.4693 34.4328C27.5239 35.1671 27.5382 35.9038 27.512 36.6396C27.512 36.9088 27.512 37.178 27.512 37.54H38.8661C39.0556 37.54 39.2892 37.4775 39.4248 37.5646C39.6617 37.7177 40.0119 37.9755 39.9991 38.1684C39.9825 38.4209 39.6892 38.6896 39.456 38.8792C39.339 38.974 39.0902 38.909 38.9011 38.909C26.2931 38.909 13.685 38.909 1.07671 38.909C0.929467 38.9158 0.781948 38.9131 0.635052 38.901C0.219462 38.8465 -0.075764 38.5783 0.0190115 38.1902C0.0683695 38.0441 0.151929 37.912 0.262719 37.8049C0.37351 37.6977 0.50832 37.6186 0.655903 37.5741C1.34632 37.5044 2.04158 37.4966 2.73338 37.5509C3.23617 37.5789 3.37643 37.4116 3.37312 36.9116C3.34326 32.2203 3.3371 27.5255 3.32573 22.8323C3.32289 21.6788 3.48211 21.522 4.63031 21.522L12.5246 21.5215ZM10.268 30.6152C10.7746 30.6309 11.1248 30.4257 11.1817 29.8945C11.1856 29.7844 11.1661 29.6748 11.1247 29.5728C11.0832 29.4709 11.0206 29.3788 10.941 29.3027C10.8615 29.2266 10.7667 29.1682 10.663 29.1314C10.5592 29.0945 10.4489 29.08 10.3391 29.0889C10.2299 29.0725 10.1185 29.0788 10.0119 29.1075C9.90525 29.1361 9.8057 29.1865 9.71947 29.2555C9.63323 29.3245 9.56219 29.4105 9.51078 29.5082C9.45938 29.606 9.42872 29.7132 9.42074 29.8234C9.36482 30.2584 9.75245 30.5991 10.268 30.6143M10.2818 33.1581C10.8253 33.1618 11.1878 32.8628 11.1888 32.4098C11.1835 32.2991 11.1557 32.1907 11.1072 32.0911C11.0587 31.9915 10.9904 31.9028 10.9066 31.8303C10.8227 31.7579 10.725 31.7033 10.6194 31.6698C10.5138 31.6363 10.4025 31.6246 10.2922 31.6355C10.1817 31.6256 10.0703 31.6389 9.96521 31.6743C9.86007 31.7098 9.76346 31.7667 9.68148 31.8414C9.5995 31.9162 9.53395 32.0072 9.48898 32.1086C9.44402 32.21 9.42062 32.3197 9.42027 32.4307C9.42417 32.5369 9.45023 32.6412 9.49678 32.7368C9.54333 32.8324 9.60934 32.9173 9.69058 32.9859C9.77182 33.0545 9.8665 33.1054 9.96855 33.1353C10.0706 33.1652 10.1778 33.1734 10.2832 33.1595L10.2818 33.1581ZM7.01202 33.1547C7.56219 33.1633 7.90576 32.8808 7.91239 32.4136C7.91122 32.3029 7.88685 32.1937 7.84087 32.093C7.7949 31.9924 7.72832 31.9024 7.64545 31.8291C7.56258 31.7557 7.46524 31.7005 7.35973 31.6671C7.25422 31.6337 7.14287 31.6228 7.03287 31.635C6.92245 31.625 6.81115 31.6378 6.70592 31.6727C6.6007 31.7077 6.50382 31.764 6.42135 31.8381C6.33888 31.9122 6.27259 32.0025 6.22664 32.1034C6.18069 32.2043 6.15606 32.3136 6.1543 32.4245C6.15603 32.5313 6.18048 32.6364 6.22604 32.733C6.27159 32.8296 6.33719 32.9153 6.41848 32.9845C6.49977 33.0538 6.59488 33.1049 6.69747 33.1345C6.80006 33.1641 6.90777 33.1715 7.01344 33.1562L7.01202 33.1547ZM7.02671 29.0879C6.91512 29.0735 6.80171 29.0835 6.6944 29.1174C6.58709 29.1513 6.48845 29.2081 6.40537 29.284C6.32229 29.3599 6.25677 29.453 6.21336 29.5568C6.16995 29.6607 6.14971 29.7727 6.15404 29.8851C6.15838 29.9976 6.18718 30.1077 6.23845 30.2079C6.28972 30.3081 6.36221 30.3959 6.45089 30.4651C6.53956 30.5344 6.64228 30.5835 6.75188 30.609C6.86148 30.6346 6.97532 30.6359 7.08547 30.6129C7.57546 30.5967 7.89106 30.3759 7.91097 29.8589C7.91085 29.7478 7.88695 29.638 7.84088 29.5369C7.79481 29.4358 7.72764 29.3458 7.64388 29.2728C7.56012 29.1998 7.46171 29.1456 7.35526 29.1138C7.24881 29.082 7.13678 29.0728 7.02671 29.0879ZM10.5258 25.531C10.7098 25.5114 10.8796 25.4227 11.0006 25.2827C11.1217 25.1427 11.185 24.962 11.1779 24.7771C11.1844 24.6775 11.1703 24.5777 11.1363 24.4839C11.1023 24.3901 11.0493 24.3044 10.9804 24.2321C10.9116 24.1599 10.8286 24.1027 10.7365 24.0642C10.6445 24.0257 10.5455 24.0067 10.4457 24.0084C9.88798 23.9899 9.38994 24.3719 9.40321 24.7865C9.4179 25.1794 9.88325 25.5187 10.5239 25.5296L10.5258 25.531ZM6.85706 25.531C7.44657 25.5177 7.94698 25.1415 7.94698 24.7647C7.94698 24.388 7.44135 24.0013 6.93383 24.0117C6.83359 24.0002 6.73205 24.012 6.63713 24.0462C6.5422 24.0804 6.45646 24.1361 6.3866 24.2089C6.31674 24.2817 6.26464 24.3697 6.23438 24.4659C6.20411 24.5622 6.19649 24.6641 6.21212 24.7638C6.23439 25.2059 6.43294 25.522 6.85706 25.5319V25.531ZM7.06083 28.0734C7.16641 28.0893 7.27424 28.0812 7.37623 28.0495C7.47821 28.0179 7.5717 27.9635 7.64968 27.8906C7.72765 27.8176 7.78809 27.7279 7.82645 27.6283C7.86481 27.5286 7.88009 27.4216 7.87116 27.3151C7.8977 26.8654 7.45036 26.5247 6.89924 26.5489C6.42773 26.5697 6.23581 26.8735 6.21828 27.2967C6.19458 27.8227 6.48744 28.0795 7.06225 28.071L7.06083 28.0734ZM7.04377 34.2006C6.93301 34.1817 6.81943 34.1873 6.71109 34.2171C6.60276 34.247 6.5023 34.3002 6.41683 34.3732C6.33136 34.4462 6.26298 34.537 6.21651 34.6393C6.17005 34.7416 6.14664 34.8529 6.14794 34.9653C6.14925 35.0776 6.17524 35.1883 6.22407 35.2895C6.2729 35.3908 6.34338 35.48 6.43052 35.5509C6.51766 35.6219 6.61933 35.6728 6.72833 35.7001C6.83734 35.7274 6.95101 35.7304 7.06131 35.7089C7.54561 35.6995 7.87211 35.4886 7.90812 34.9754C7.9413 34.51 7.58447 34.2034 7.04472 34.2011L7.04377 34.2006ZM10.2903 35.7028C10.3996 35.7169 10.5107 35.7082 10.6164 35.6772C10.7222 35.6462 10.8204 35.5936 10.9047 35.5227C10.9891 35.4518 11.0578 35.3641 11.1066 35.2652C11.1553 35.1664 11.183 35.0585 11.1878 34.9484C11.1878 34.5034 10.812 34.2006 10.2818 34.2001C10.1767 34.1866 10.07 34.1951 9.96839 34.2251C9.86678 34.255 9.77251 34.3057 9.69155 34.374C9.61059 34.4423 9.54471 34.5267 9.49809 34.6219C9.45147 34.717 9.42513 34.8207 9.42074 34.9266C9.37335 35.3649 9.77236 35.6999 10.2908 35.7037L10.2903 35.7028ZM9.45865 27.3478C9.52926 27.7108 9.68516 28.0643 10.2296 28.0776C10.7405 28.0904 11.1163 27.9018 11.1741 27.373C11.1883 27.2726 11.1812 27.1703 11.1532 27.0728C11.1252 26.9754 11.0769 26.8849 11.0115 26.8074C10.9461 26.73 10.865 26.6672 10.7736 26.6232C10.6823 26.5792 10.5826 26.555 10.4813 26.5522C10.361 26.5302 10.2374 26.5339 10.1186 26.5631C9.9998 26.5922 9.88853 26.6462 9.79205 26.7213C9.69558 26.7965 9.61609 26.8912 9.55879 26.9993C9.5015 27.1073 9.46769 27.2263 9.4596 27.3483L9.45865 27.3478Z" fill="#1F2853"/>
<path d="M37.0714 26.7207C37.0714 27.8144 37.1301 28.9119 37.0553 30.0008C37.0211 30.5509 36.8581 31.0852 36.5796 31.5607C36.3011 32.0362 35.9147 32.4396 35.4517 32.7384C34.2366 33.571 33.006 34.3804 31.7952 35.2187C31.6526 35.3424 31.4707 35.4113 31.2819 35.4133C31.0931 35.4153 30.9098 35.3502 30.7646 35.2296C29.5353 34.3799 28.2866 33.5606 27.0569 32.7128C26.5868 32.4048 26.1972 31.9886 25.9209 31.4991C25.6445 31.0097 25.4894 30.4611 25.4685 29.8994C25.3941 28.3911 25.4353 26.8785 25.4173 25.3677C25.4116 24.9076 25.3576 24.447 25.3557 23.9869C25.3557 23.4509 25.5192 23.1201 26.1713 23.0524C27.8215 22.8145 29.3791 22.1429 30.6849 21.1062C30.8432 20.9572 31.0523 20.8741 31.2696 20.8735C31.487 20.873 31.6964 20.9552 31.8554 21.1033C33.2979 22.1065 34.81 22.9728 36.625 23.0979C37.0851 23.1296 37.1391 23.449 37.1377 23.8148C37.1354 24.783 37.1377 25.7516 37.1377 26.7202L37.0714 26.7207ZM30.7584 28.3494C30.3831 27.9381 30.0476 27.5324 29.6727 27.1685C29.1899 26.7008 28.6648 26.6865 28.2885 27.0865C28.1809 27.1793 28.0944 27.2942 28.0348 27.4232C27.9752 27.5523 27.944 27.6927 27.9433 27.8348C27.9425 27.977 27.9722 28.1176 28.0304 28.2474C28.0885 28.3771 28.1738 28.4928 28.2805 28.5868C28.8354 29.1602 29.4031 29.7217 29.9741 30.2795C30.6101 30.9003 31.064 30.8993 31.6981 30.261C32.6597 29.294 33.6146 28.3205 34.5627 27.3405C35.0512 26.8377 35.0655 26.279 34.6186 25.8658C34.3837 25.7095 34.1018 25.6397 33.8211 25.6683C33.5405 25.6969 33.2784 25.8222 33.0799 26.0226C32.3497 26.7714 31.6038 27.504 30.7579 28.3489L30.7584 28.3494Z" fill="#FFDC50"/>
<path d="M10.2682 30.6153C9.75214 30.5997 9.36498 30.2589 9.4209 29.8244C9.42889 29.7143 9.45953 29.6071 9.51091 29.5094C9.56228 29.4117 9.63329 29.3257 9.71947 29.2567C9.80564 29.1878 9.90514 29.1373 10.0117 29.1086C10.1183 29.0799 10.2296 29.0735 10.3388 29.0899C10.4485 29.0811 10.5589 29.0956 10.6627 29.1324C10.7664 29.1693 10.8612 29.2277 10.9407 29.3037C11.0203 29.3798 11.0829 29.4719 11.1244 29.5739C11.1658 29.6759 11.1853 29.7855 11.1814 29.8955C11.125 30.4262 10.7738 30.6309 10.2677 30.6163" fill="#75C099"/>
<path d="M10.2817 33.1589C10.1765 33.1726 10.0696 33.1642 9.96779 33.1343C9.866 33.1044 9.77156 33.0536 9.6905 32.9852C9.60944 32.9167 9.54354 32.8321 9.49699 32.7368C9.45045 32.6415 9.42428 32.5375 9.42017 32.4315C9.42052 32.3205 9.44392 32.2109 9.48888 32.1094C9.53385 32.008 9.5994 31.917 9.68137 31.8423C9.76335 31.7675 9.85997 31.7106 9.96511 31.6751C10.0702 31.6397 10.1816 31.6265 10.2921 31.6363C10.4023 31.6254 10.5137 31.637 10.6193 31.6704C10.7249 31.7039 10.8226 31.7584 10.9064 31.8308C10.9903 31.9032 11.0586 31.9919 11.1071 32.0915C11.1556 32.1911 11.1834 32.2995 11.1887 32.4101C11.1887 32.8636 10.8252 33.1631 10.2817 33.1589Z" fill="#75C099"/>
<path d="M7.01265 33.1564C6.90753 33.1707 6.8006 33.1625 6.69885 33.1325C6.59711 33.1025 6.50286 33.0513 6.4223 32.9823C6.34175 32.9133 6.2767 32.828 6.23144 32.7321C6.18617 32.6362 6.16171 32.5318 6.15967 32.4257C6.16143 32.3148 6.18605 32.2055 6.232 32.1046C6.27796 32.0037 6.34424 31.9134 6.42671 31.8393C6.50918 31.7652 6.60606 31.7089 6.71129 31.674C6.81651 31.639 6.92782 31.6262 7.03824 31.6362C7.14824 31.624 7.25958 31.6349 7.3651 31.6683C7.47061 31.7018 7.56794 31.7569 7.65081 31.8303C7.73369 31.9037 7.80026 31.9936 7.84624 32.0943C7.89222 32.1949 7.91658 32.3041 7.91775 32.4148C7.91017 32.882 7.56566 33.165 7.01502 33.1564" fill="#75C099"/>
<path d="M7.02815 29.0902C7.13822 29.0751 7.25025 29.0838 7.3567 29.1156C7.46315 29.1474 7.56156 29.2016 7.64532 29.2746C7.72908 29.3476 7.79625 29.4377 7.84232 29.5388C7.88839 29.6399 7.91229 29.7496 7.91241 29.8607C7.8925 30.3768 7.57738 30.5986 7.08739 30.6147C6.97717 30.6379 6.86321 30.6368 6.75345 30.6115C6.6437 30.5861 6.54081 30.5371 6.45196 30.4679C6.36311 30.3986 6.29045 30.3108 6.23906 30.2106C6.18766 30.1104 6.15877 30.0001 6.15439 29.8875C6.15002 29.775 6.17027 29.6628 6.21373 29.5589C6.2572 29.455 6.32282 29.3618 6.40603 29.2859C6.48924 29.21 6.58802 29.1531 6.69547 29.1193C6.80293 29.0855 6.91646 29.0756 7.02815 29.0902Z" fill="#75C099"/>
<path d="M10.5273 25.533C9.88663 25.5211 9.42128 25.1818 9.40659 24.788C9.39142 24.3734 9.88947 23.9914 10.4491 24.0099C10.5488 24.0082 10.6478 24.0272 10.7398 24.0657C10.8318 24.1041 10.9148 24.1613 10.9836 24.2334C11.0524 24.3056 11.1055 24.3913 11.1395 24.485C11.1736 24.5788 11.1878 24.6786 11.1813 24.7781C11.1886 24.9635 11.1251 25.1447 11.0036 25.2849C10.8822 25.4251 10.7118 25.5138 10.5273 25.533Z" fill="#75C099"/>
<path d="M6.85853 25.5324C6.43204 25.5234 6.23586 25.2063 6.21454 24.7647C6.19881 24.665 6.20636 24.563 6.23659 24.4667C6.26682 24.3704 6.31891 24.2824 6.3888 24.2096C6.45868 24.1368 6.54446 24.0811 6.63943 24.0469C6.7344 24.0128 6.83599 24.001 6.93625 24.0126C7.44377 24.0013 7.95224 24.3917 7.9494 24.7656C7.94656 25.1395 7.44851 25.5186 6.85948 25.5319" fill="#75C099"/>
<path d="M7.06424 28.0751C6.48943 28.0822 6.19657 27.8263 6.22074 27.3007C6.21077 27.2058 6.22102 27.1097 6.2508 27.019C6.28058 26.9282 6.32922 26.8448 6.39353 26.7742C6.45785 26.7035 6.53637 26.6473 6.62395 26.6092C6.71153 26.5711 6.80619 26.5519 6.9017 26.553C7.45329 26.5288 7.90063 26.8695 7.87362 27.3192C7.88235 27.4256 7.86695 27.5325 7.82855 27.632C7.79015 27.7315 7.72976 27.8211 7.65188 27.894C7.57401 27.9669 7.48066 28.0213 7.37882 28.053C7.27698 28.0848 7.16928 28.0931 7.06376 28.0774" fill="#75C099"/>
<path d="M7.04665 34.2007C7.58687 34.2035 7.9437 34.5101 7.911 34.975C7.87499 35.4887 7.54849 35.6991 7.06418 35.7085C6.95403 35.7298 6.84054 35.7267 6.73174 35.6993C6.62294 35.6719 6.52149 35.6209 6.43455 35.55C6.3476 35.4791 6.27729 35.39 6.22858 35.2889C6.17987 35.1878 6.15394 35.0773 6.15264 34.9651C6.15134 34.8529 6.17468 34.7418 6.22103 34.6396C6.26738 34.5375 6.3356 34.4467 6.42087 34.3738C6.50614 34.3009 6.60638 34.2476 6.71451 34.2177C6.82265 34.1878 6.93603 34.182 7.04665 34.2007Z" fill="#75C099"/>
<path d="M10.2913 35.7037C9.77243 35.7009 9.37296 35.3644 9.42177 34.9271C9.42623 34.8212 9.45261 34.7175 9.49926 34.6224C9.5459 34.5274 9.61178 34.443 9.69272 34.3747C9.77366 34.3064 9.86791 34.2557 9.96948 34.2257C10.0711 34.1957 10.1778 34.1872 10.2828 34.2006C10.3928 34.18 10.5059 34.1837 10.6143 34.2117C10.7226 34.2396 10.8235 34.291 10.9098 34.3622C10.9961 34.4334 11.0657 34.5227 11.1137 34.6237C11.1617 34.7248 11.1869 34.8352 11.1875 34.9471C11.1882 35.0589 11.1642 35.1696 11.1174 35.2712C11.0705 35.3728 11.0019 35.4629 10.9165 35.5351C10.831 35.6072 10.7307 35.6598 10.6226 35.6889C10.5146 35.7181 10.4015 35.7231 10.2913 35.7037Z" fill="#75C099"/>
<path d="M9.4597 27.3489C9.46785 27.2269 9.50171 27.1079 9.55907 26.9999C9.61642 26.8919 9.69596 26.7972 9.79248 26.722C9.889 26.6469 10.0003 26.593 10.1191 26.5639C10.2379 26.5349 10.3615 26.5312 10.4819 26.5533C10.5832 26.556 10.6829 26.5801 10.7743 26.6241C10.8657 26.6681 10.9468 26.7309 11.0122 26.8084C11.0777 26.8859 11.126 26.9763 11.1539 27.0738C11.1819 27.1713 11.189 27.2736 11.1747 27.374C11.1169 27.9029 10.7411 28.0915 10.2302 28.0787C9.68622 28.0654 9.53078 27.7119 9.4597 27.3489Z" fill="#75C099"/>
<path d="M30.7585 28.3499C31.6039 27.5045 32.3498 26.7719 33.0805 26.0237C33.279 25.8232 33.5411 25.698 33.8217 25.6694C34.1024 25.6408 34.3843 25.7105 34.6192 25.8668C35.0675 26.28 35.0523 26.8387 34.5633 27.3415C33.6127 28.319 32.6578 29.2925 31.6987 30.262C31.0656 30.8994 30.6088 30.9008 29.9747 30.2805C29.4061 29.7228 28.8374 29.1612 28.2811 28.5878C28.1744 28.4938 28.0891 28.3781 28.031 28.2484C27.9728 28.1187 27.9431 27.978 27.9439 27.8358C27.9446 27.6937 27.9758 27.5533 28.0354 27.4243C28.095 27.2952 28.1815 27.1804 28.2891 27.0875C28.6654 26.6876 29.1895 26.7018 29.6733 27.1695C30.0491 27.5325 30.3842 27.9381 30.7595 28.3495" fill="white"/>
<path d="M24.0277 24.7576C24.0125 25.2315 23.778 25.5338 23.2956 25.4921C22.879 25.4566 22.4322 25.34 22.4388 24.777C22.4464 24.1875 22.897 24.0748 23.3501 24.0539C23.8031 24.0331 24.0438 24.2913 24.0277 24.7576Z" fill="#75C099"/>
<path d="M19.9537 25.4343C19.4101 25.4717 19.1514 25.2376 19.1315 24.7898C19.1064 24.2278 19.5144 24.0994 19.9641 24.0738C20.0679 24.0576 20.174 24.0637 20.2752 24.0917C20.3765 24.1197 20.4706 24.169 20.5513 24.2363C20.632 24.3035 20.6975 24.3872 20.7433 24.4818C20.7891 24.5763 20.8143 24.6796 20.8171 24.7846C20.7867 25.4006 20.3432 25.439 19.9518 25.4352" fill="#75C099"/>
<path d="M17.481 24.9074C17.4756 24.9978 17.4511 25.086 17.4091 25.1663C17.3672 25.2465 17.3087 25.317 17.2376 25.373C17.1665 25.4291 17.0843 25.4694 16.9965 25.4914C16.9087 25.5134 16.8172 25.5166 16.728 25.5007C16.6276 25.5099 16.5263 25.4989 16.4301 25.4683C16.334 25.4378 16.245 25.3882 16.1683 25.3227C16.0916 25.2571 16.0289 25.1769 15.9837 25.0867C15.9385 24.9965 15.9119 24.8982 15.9054 24.7975C15.8679 24.3677 16.3513 24.008 16.8872 24.0526C17.2663 24.0848 17.5189 24.271 17.4796 24.9055" fill="#75C099"/>
<path d="M19.9756 26.624C20.4257 26.6629 20.8285 26.7633 20.8134 27.3372C20.7977 27.9196 20.3513 27.9959 19.9267 28.0006C19.4875 28.0035 19.1212 27.777 19.1401 27.2898C19.1591 26.8027 19.532 26.6401 19.9756 26.6264" fill="#75C099"/>
<path d="M16.7778 26.5751C16.882 26.5733 16.9854 26.5927 17.0819 26.632C17.1784 26.6713 17.2659 26.7298 17.3392 26.8039C17.4124 26.878 17.4699 26.9662 17.5081 27.0631C17.5464 27.16 17.5646 27.2637 17.5616 27.3679C17.4981 27.9119 17.0697 28.001 16.6427 28.0033C16.5482 28.0162 16.452 28.0069 16.3617 27.9763C16.2714 27.9457 16.1894 27.8945 16.1223 27.8267C16.0551 27.759 16.0046 27.6766 15.9747 27.5861C15.9448 27.4955 15.9363 27.3992 15.9499 27.3048C15.9495 27.2003 15.9713 27.0969 16.0142 27.0015C16.057 26.9061 16.1197 26.821 16.1981 26.7519C16.2765 26.6828 16.3688 26.6312 16.4688 26.6007C16.5688 26.5702 16.6741 26.5615 16.7778 26.5751Z" fill="#75C099"/>
<path d="M20.7808 29.8552C20.7495 30.3523 20.4491 30.5452 19.996 30.5589C19.5008 30.5741 19.1298 30.2599 19.1677 29.8368C19.2118 29.3496 19.526 29.179 19.987 29.1847C20.4481 29.1904 20.7452 29.3591 20.7808 29.8548" fill="#75C099"/>
<path d="M23.1776 30.5631C22.7639 30.5238 22.4241 30.3475 22.4402 29.8481C22.4573 29.3078 22.8269 29.1699 23.3013 29.1846C23.741 29.1974 24.0358 29.3917 24.0386 29.8481C24.0429 30.3821 23.6771 30.547 23.1771 30.5641" fill="#75C099"/>
<path d="M23.2548 22.8933C22.7914 22.9013 22.4521 22.7426 22.4412 22.2384C22.4307 21.746 22.7459 21.5337 23.2022 21.5276C23.6723 21.52 24.0438 21.6953 24.0386 22.2284C24.0339 22.7194 23.7093 22.9099 23.2548 22.8919" fill="#75C099"/>
<path d="M16.695 22.8942C16.2457 22.9212 15.9149 22.708 15.9088 22.2379C15.9022 21.7351 16.2438 21.5124 16.7381 21.527C17.1982 21.5403 17.5095 21.7365 17.5048 22.2303C17.5001 22.7331 17.1783 22.9103 16.695 22.8942Z" fill="#75C099"/>
<path d="M23.2487 20.3549C22.7748 20.3587 22.4431 20.1777 22.4431 19.6829C22.4431 19.1541 22.7971 18.9778 23.2814 18.9882C23.7486 18.9977 24.0548 19.2062 24.0396 19.6957C24.0244 20.1852 23.6942 20.3672 23.2497 20.3549" fill="#75C099"/>
<path d="M20.7801 19.7364C20.6981 20.2657 20.3314 20.3766 19.8693 20.3496C19.4248 20.324 19.1481 20.0937 19.1732 19.6464C19.2026 19.1227 19.5698 18.963 20.0485 18.9867C20.1482 18.9784 20.2486 18.9922 20.3424 19.0272C20.4362 19.0622 20.521 19.1175 20.591 19.1891C20.6609 19.2608 20.7141 19.347 20.7468 19.4416C20.7795 19.5362 20.7909 19.6369 20.7801 19.7364Z" fill="#75C099"/>
<path d="M16.6657 20.3549C16.1918 20.3635 15.8928 20.1218 15.9075 19.6527C15.926 19.1385 16.2937 18.9636 16.778 18.9892C17.2519 19.0143 17.5296 19.2356 17.4993 19.728C17.467 20.2393 17.1168 20.3692 16.6633 20.3545" fill="#75C099"/>
<path d="M23.2093 16.4453C23.7206 16.4453 24.0409 16.642 24.039 17.1315C24.0371 17.621 23.7158 17.8172 23.2524 17.8162C22.7667 17.8162 22.4231 17.6267 22.4411 17.0945C22.4582 16.597 22.8013 16.4339 23.2093 16.4448" fill="#75C099"/>
<path d="M20.7819 17.114C20.7853 17.2132 20.7671 17.3119 20.7286 17.4034C20.6901 17.4949 20.6322 17.5769 20.5589 17.6438C20.4856 17.7107 20.3986 17.7609 20.304 17.7909C20.2094 17.821 20.1094 17.8301 20.0109 17.8177C19.5266 17.8253 19.1731 17.639 19.1741 17.1178C19.1741 16.6771 19.4584 16.46 19.9067 16.4472C20.3848 16.433 20.7237 16.5775 20.7819 17.114Z" fill="#75C099"/>
<path d="M16.6732 16.4458C17.1499 16.4354 17.4916 16.5932 17.502 17.1092C17.5124 17.612 17.2006 17.8072 16.731 17.82C16.2614 17.8328 15.9221 17.6305 15.9093 17.1519C15.8965 16.6733 16.2098 16.4411 16.6737 16.4477" fill="#75C099"/>
<path d="M16.7242 30.561C16.2361 30.5426 15.8987 30.3312 15.9087 29.8502C15.9186 29.3692 16.2555 29.174 16.7271 29.184C17.1986 29.1939 17.5161 29.3631 17.5047 29.8777C17.4933 30.3923 17.1464 30.5411 16.7242 30.562" fill="#75C099"/>
<path d="M20.7824 22.1786C20.7483 22.7188 20.4474 22.8946 19.9797 22.8984C19.512 22.9022 19.1774 22.715 19.1741 22.2227C19.1708 21.7303 19.512 21.5318 19.9707 21.5256C20.0676 21.5099 20.1668 21.5148 20.2618 21.5398C20.3567 21.5649 20.4454 21.6097 20.5219 21.6712C20.5985 21.7327 20.6613 21.8096 20.7063 21.8969C20.7512 21.9843 20.7773 22.0801 20.7829 22.1781" fill="#75C099"/>
<path d="M23.4368 27.9683C22.8435 27.9645 22.4488 27.8531 22.4417 27.3001C22.437 26.7817 22.8047 26.6533 23.2425 26.6367C23.3466 26.6188 23.4534 26.6245 23.555 26.6533C23.6566 26.6821 23.7505 26.7333 23.8297 26.8032C23.9089 26.8731 23.9714 26.9598 24.0126 27.0571C24.0539 27.1543 24.0728 27.2595 24.068 27.365C24.0769 27.4489 24.0664 27.5336 24.0374 27.6128C24.0083 27.692 23.9616 27.7634 23.9006 27.8217C23.8396 27.8799 23.7661 27.9234 23.6858 27.9488C23.6054 27.9743 23.5202 27.9809 23.4368 27.9683Z" fill="#75C099"/>
</svg>
