<svg width="40" height="44" viewBox="0 0 40 44" fill="none" xmlns="http://www.w3.org/2000/svg">
<mask id="mask0_5251_23431" style="mask-type:luminance" maskUnits="userSpaceOnUse" x="0" y="3" width="40" height="41">
<path d="M40 3.271H0V43.3176H40V3.271Z" fill="white"/>
</mask>
<g mask="url(#mask0_5251_23431)">
<path d="M16.6969 26.815H23.4652C23.6256 26.815 23.7794 26.7513 23.8929 26.6379C24.0064 26.5245 24.0702 26.3707 24.0703 26.2103V24.2345C24.0703 24.1551 24.0546 24.0764 24.0242 24.003C23.9938 23.9296 23.9492 23.863 23.893 23.8068C23.8368 23.7507 23.7701 23.7061 23.6967 23.6758C23.6233 23.6454 23.5446 23.6298 23.4652 23.6299H16.6969C16.6175 23.6299 16.5389 23.6455 16.4655 23.6759C16.3922 23.7063 16.3255 23.7508 16.2694 23.807C16.2132 23.8631 16.1687 23.9298 16.1383 24.0031C16.1079 24.0765 16.0923 24.1551 16.0923 24.2345V26.2103C16.0923 26.3707 16.156 26.5245 16.2694 26.6379C16.3828 26.7513 16.5366 26.815 16.6969 26.815Z" fill="#FFDC50"/>
<path d="M21.2857 14.3481H18.7886V21.1269H21.2857V14.3481Z" fill="#0A113F"/>
<path d="M39.5249 24.9688H34.9177V26.9769H39.5249V24.9688Z" fill="#FFDC50"/>
<path d="M12.2642 24.957H7.65698V26.9652H12.2642V24.957Z" fill="#FFDC50"/>
<path d="M32.6714 25.1641H27.769V26.818H32.6714V25.1641Z" fill="#0A113F"/>
<path d="M5.294 25.1353H0.391602V26.7892H5.294V25.1353Z" fill="#0A113F"/>
<mask id="mask1_5251_23431" style="mask-type:luminance" maskUnits="userSpaceOnUse" x="16" y="11" width="9" height="5">
<path d="M24.2547 11.688H16.0911V15.9538H24.2547V11.688Z" fill="white"/>
</mask>
<g mask="url(#mask1_5251_23431)">
<path d="M24.1267 15.9538C21.281 13.6099 18.7548 13.6242 16.1572 15.9538L16.0911 13.5537C18.6144 11.0871 21.3343 11.0452 24.2547 13.5537L24.1267 15.9538Z" fill="#92C88E"/>
</g>
<path d="M27.2261 26.059V17.8496C27.2994 14.7245 28.7691 12.5459 30.0422 12.5459C31.3153 12.5459 32.785 14.7245 32.8583 17.8496V26.059C32.8578 26.4276 32.7111 26.781 32.4504 27.0415C32.1897 27.3021 31.8362 27.4485 31.4677 27.4488H28.6168C28.2482 27.4484 27.8949 27.3019 27.6342 27.0414C27.3735 26.7809 27.2267 26.4276 27.2261 26.059ZM27.8736 17.5407H32.2118C32.168 16.4427 31.8824 15.368 31.3753 14.3932C30.9649 13.6557 30.4412 13.1796 30.0422 13.1796C29.6432 13.1796 29.1205 13.6557 28.7091 14.3932C28.2021 15.368 27.9164 16.4427 27.8726 17.5407M29.2862 21.1081H30.7949V18.1729H29.2862V21.1081ZM27.8579 24.6755H32.2237V18.1729H31.4286V21.4233C31.4286 21.5073 31.3953 21.5878 31.3359 21.6473C31.2765 21.7067 31.196 21.7402 31.112 21.7403H28.9696C28.8855 21.7402 28.805 21.7067 28.7457 21.6473C28.6863 21.5878 28.653 21.5073 28.653 21.4233V18.1729H27.8579V24.6755ZM27.8579 26.059C27.8581 26.2598 27.938 26.4522 28.0801 26.594C28.2221 26.7359 28.4146 26.8156 28.6153 26.8156H31.4667C31.6673 26.8154 31.8597 26.7357 32.0017 26.5939C32.1436 26.452 32.2234 26.2597 32.2237 26.059V25.3087H27.8579V26.059ZM24.4856 11.8208V25.362C24.4848 25.9157 24.2643 26.4463 23.8727 26.8376C23.481 27.2289 22.9501 27.4489 22.3965 27.4492H17.6927C17.139 27.4489 16.6082 27.2289 16.2165 26.8376C15.8249 26.4463 15.6044 25.9157 15.6035 25.362V11.8208C15.7173 6.92697 18.0431 3.271 20.0446 3.271C22.0461 3.271 24.3704 6.92697 24.4856 11.8208ZM23.852 23.9175H16.2372V25.362C16.238 25.7476 16.3916 26.1172 16.6645 26.3897C16.9373 26.6621 17.3071 26.8153 17.6927 26.8156H22.396C22.7817 26.8154 23.1516 26.6623 23.4246 26.3898C23.6975 26.1173 23.8512 25.7477 23.852 25.362V23.9175ZM23.852 16.5318C23.316 15.8245 22.6052 15.2688 21.7895 14.9193V21.4242C21.7896 21.4658 21.7814 21.507 21.7655 21.5455C21.7496 21.584 21.7263 21.6189 21.6969 21.6484C21.6675 21.6778 21.6326 21.7012 21.5942 21.7171C21.5557 21.7331 21.5145 21.7413 21.4729 21.7413H18.6163C18.5746 21.7414 18.5334 21.7332 18.4949 21.7173C18.4564 21.7014 18.4214 21.678 18.3919 21.6486C18.3625 21.6191 18.3391 21.5841 18.3232 21.5456C18.3073 21.5071 18.2991 21.4659 18.2992 21.4242V14.9193C17.4836 15.2687 16.7729 15.8244 16.2372 16.5318V23.2839H23.852V16.5318ZM21.1563 21.1081V14.7088C20.4266 14.5249 19.6626 14.5249 18.9329 14.7088V21.1081H21.1563ZM23.852 13.7133C23.4193 13.1069 22.8481 12.6127 22.1858 12.2717C21.5236 11.9306 20.7895 11.7527 20.0446 11.7527C19.2997 11.7527 18.5656 11.9306 17.9033 12.2717C17.2411 12.6127 16.6699 13.1069 16.2372 13.7133V15.5701C16.7279 15.0538 17.3184 14.6426 17.973 14.3617C18.6275 14.0808 19.3323 13.9359 20.0446 13.9359C20.7569 13.9359 21.4617 14.0808 22.1162 14.3617C22.7708 14.6426 23.3613 15.0538 23.852 15.5701V13.7133ZM23.3092 8.1853H16.78C16.4439 9.37274 16.2615 10.5984 16.2372 11.8322V12.7535C16.7279 12.2372 17.3184 11.826 17.973 11.5451C18.6275 11.2642 19.3323 11.1193 20.0446 11.1193C20.7569 11.1193 21.4617 11.2642 22.1162 11.5451C22.7708 11.826 23.3613 12.2372 23.852 12.7535V11.8284C23.8274 10.5958 23.645 9.3715 23.3092 8.1853ZM22.4227 6.01238C21.6986 4.71215 20.7868 3.90421 20.0422 3.90421C19.2976 3.90421 18.3882 4.71358 17.6617 6.01238C17.3905 6.50518 17.1617 7.0201 16.9776 7.55161H23.1073C22.9233 7.02001 22.6942 6.50507 22.4227 6.01238ZM39.9984 17.8501V26.059C39.9978 26.4276 39.851 26.7809 39.5903 27.0414C39.3296 27.3019 38.9763 27.4484 38.6077 27.4488H35.7611C35.3925 27.4485 35.0391 27.3021 34.7784 27.0415C34.5176 26.781 34.3709 26.4276 34.3704 26.059V17.8496C34.4438 14.7245 35.9135 12.5459 37.1866 12.5459C38.4597 12.5459 39.927 14.7245 39.9984 17.8501ZM35.0132 17.5407H39.3509C39.3074 16.4427 39.0217 15.3679 38.5144 14.3932C38.104 13.6557 37.5808 13.1796 37.1813 13.1796C36.7819 13.1796 36.2596 13.6557 35.8482 14.3932C35.3412 15.368 35.0557 16.4427 35.0122 17.5407M36.4277 21.1081H37.9364V18.1729H36.4277V21.1081ZM39.3647 25.3087H34.9994V26.059C34.9996 26.2597 35.0795 26.452 35.2214 26.5939C35.3633 26.7357 35.5557 26.8154 35.7564 26.8156H38.6077C38.8084 26.8156 39.001 26.7359 39.143 26.594C39.285 26.4522 39.3649 26.2598 39.3652 26.059L39.3647 25.3087ZM39.3647 18.1739H38.5701V21.4242C38.5701 21.5083 38.5367 21.589 38.4772 21.6484C38.4178 21.7079 38.3371 21.7413 38.253 21.7413H36.1106C36.069 21.7413 36.0278 21.7331 35.9893 21.7171C35.9509 21.7012 35.9159 21.6778 35.8865 21.6484C35.8571 21.6189 35.8338 21.584 35.8179 21.5455C35.8021 21.507 35.7939 21.4658 35.794 21.4242V18.1729H34.9994V24.675H39.3647V18.1739ZM12.8607 17.8501V26.059C12.8602 26.4276 12.7135 26.781 12.4528 27.0415C12.1921 27.3021 11.8386 27.4485 11.47 27.4488H8.62105C8.25246 27.4485 7.89902 27.3021 7.6383 27.0415C7.37758 26.781 7.23087 26.4276 7.23036 26.059V17.8568C7.30368 14.7241 8.7734 12.5459 10.0465 12.5459C11.3196 12.5459 12.7893 14.7245 12.8607 17.8501ZM12.2289 25.3087H7.86167V26.059C7.86192 26.2598 7.94184 26.4522 8.08387 26.594C8.22589 26.7359 8.41842 26.8156 8.61915 26.8156H11.47C11.6708 26.8156 11.8633 26.7359 12.0053 26.594C12.1473 26.4522 12.2273 26.2598 12.2275 26.059L12.2289 25.3087ZM12.2289 18.1739H11.4324V21.4242C11.4325 21.4658 11.4243 21.507 11.4085 21.5455C11.3926 21.584 11.3693 21.6189 11.3399 21.6484C11.3105 21.6778 11.2755 21.7012 11.2371 21.7171C11.1986 21.7331 11.1574 21.7413 11.1158 21.7413H8.97336C8.93171 21.7414 8.89045 21.7332 8.85195 21.7173C8.81345 21.7014 8.77847 21.678 8.74901 21.6486C8.71956 21.6191 8.69621 21.5841 8.68029 21.5456C8.66438 21.5071 8.65622 21.4659 8.65628 21.4242V18.1729H7.86167V24.675H12.227L12.2289 18.1739ZM10.8006 18.1739H9.28997V21.1076H10.7987L10.8006 18.1739ZM11.3791 14.3932C10.9682 13.6557 10.445 13.1796 10.046 13.1796C9.64705 13.1796 9.12429 13.6557 8.71294 14.3932C8.20571 15.3679 7.92007 16.4427 7.87643 17.5407H12.2142C12.1706 16.4427 11.8851 15.368 11.3781 14.3932M0.0888672 26.059V17.8568C0.162187 14.7241 1.63191 12.5459 2.905 12.5459C4.17809 12.5459 5.64781 14.7245 5.71922 17.8501V26.059C5.71872 26.4276 5.57201 26.781 5.31129 27.0415C5.05056 27.3021 4.69713 27.4485 4.32854 27.4488H1.48194C1.11293 27.4492 0.758884 27.303 0.497647 27.0423C0.23641 26.7817 0.089372 26.428 0.0888672 26.059ZM5.08791 25.3087H0.720176V26.059C0.720299 26.1588 0.740126 26.2575 0.778516 26.3496C0.816906 26.4417 0.873105 26.5253 0.943885 26.5956C1.01466 26.6659 1.09863 26.7215 1.19097 26.7592C1.2833 26.797 1.38218 26.8161 1.48194 26.8156H4.33044C4.53117 26.8156 4.72369 26.7359 4.86572 26.594C5.00775 26.4522 5.08766 26.2598 5.08791 26.059V25.3087ZM0.735887 17.5407H5.07363C5.02997 16.4428 4.7445 15.368 4.2376 14.3932C3.82673 13.6557 3.30349 13.1796 2.90452 13.1796C2.50555 13.1796 1.98279 13.6557 1.57144 14.3932C1.06454 15.368 0.779551 16.4428 0.735887 17.5407ZM2.14847 21.1081H3.65962V18.1729H2.14847V21.1081ZM0.720176 18.1729V24.675H5.08553V18.1729H4.29092V21.4233C4.29092 21.5073 4.25752 21.588 4.19805 21.6475C4.13859 21.7069 4.05794 21.7403 3.97384 21.7403H1.83139C1.74738 21.7402 1.66685 21.7067 1.60749 21.6473C1.54813 21.5878 1.51479 21.5073 1.51479 21.4233V18.1729H0.720176Z" fill="#5BB699"/>
<path d="M39.9114 29.7653C39.9115 29.807 39.9033 29.8483 39.8874 29.8867C39.8715 29.9252 39.8482 29.9602 39.8187 29.9897C39.7892 30.0191 39.7543 30.0425 39.7158 30.0584C39.6773 30.0743 39.636 30.0825 39.5944 30.0824H0.3166C0.232568 30.0824 0.151977 30.049 0.0925574 29.9896C0.0331376 29.9302 -0.000244141 29.8496 -0.000244141 29.7656C-0.000244141 29.6815 0.0331376 29.601 0.0925574 29.5415C0.151977 29.4821 0.232568 29.4487 0.3166 29.4487H39.5948C39.6365 29.4487 39.6777 29.4568 39.7161 29.4727C39.7546 29.4886 39.7896 29.5119 39.819 29.5413C39.8485 29.5707 39.8718 29.6056 39.8878 29.6441C39.9037 29.6825 39.9114 29.7237 39.9114 29.7653Z" fill="white"/>
<mask id="mask2_5251_23431" style="mask-type:luminance" maskUnits="userSpaceOnUse" x="0" y="31" width="40" height="2">
<path d="M39.9114 31.5884H0V32.2221H39.9114V31.5884Z" fill="white"/>
</mask>
<g mask="url(#mask2_5251_23431)">
<path d="M39.5944 31.5884H0.3166C0.232568 31.5884 0.151977 31.6218 0.0925575 31.6812C0.0331376 31.7406 -0.000244141 31.8212 -0.000244141 31.9052C-0.000244141 31.9893 0.0331376 32.0698 0.0925575 32.1293C0.151977 32.1887 0.232568 32.2221 0.3166 32.2221H39.5948C39.6789 32.2221 39.7595 32.1887 39.8189 32.1293C39.8783 32.0698 39.9117 31.9893 39.9117 31.9052C39.9117 31.8212 39.8783 31.7406 39.8189 31.6812C39.7595 31.6218 39.6784 31.5884 39.5944 31.5884Z" fill="white"/>
</g>
<path d="M39.5943 33.7285H23.883C23.8413 33.7285 23.8001 33.7366 23.7616 33.7525C23.7231 33.7684 23.6881 33.7918 23.6586 33.8212C23.6292 33.8507 23.6058 33.8857 23.5899 33.9242C23.574 33.9627 23.5659 34.0039 23.5659 34.0456V43.0006C23.5659 43.0846 23.5993 43.1652 23.6587 43.2246C23.7181 43.284 23.7987 43.3174 23.8828 43.3174C23.9668 43.3174 24.0474 43.284 24.1068 43.2246C24.1662 43.1652 24.1996 43.0846 24.1996 43.0006V34.3622H39.5938C39.6779 34.3622 39.7584 34.3288 39.8179 34.2694C39.8773 34.21 39.9107 34.1294 39.9107 34.0454C39.9107 33.9613 39.8773 33.8807 39.8179 33.8213C39.7584 33.7619 39.6783 33.7285 39.5943 33.7285Z" fill="white"/>
<path d="M39.5944 35.8696H26.0256C25.9416 35.8696 25.8611 35.903 25.8017 35.9624C25.7423 36.0217 25.709 36.1023 25.709 36.1862V43.0011C25.709 43.0852 25.7424 43.1658 25.8018 43.2252C25.8612 43.2846 25.9418 43.318 26.0258 43.318C26.1099 43.318 26.1905 43.2846 26.2499 43.2252C26.3093 43.1658 26.3427 43.0852 26.3427 43.0011V36.5033H39.5944C39.6785 36.5033 39.7591 36.4699 39.8185 36.4105C39.8779 36.3511 39.9113 36.2705 39.9113 36.1865C39.9113 36.1024 39.8779 36.0218 39.8185 35.9624C39.7591 35.903 39.6785 35.8696 39.5944 35.8696Z" fill="white"/>
<path d="M16.0279 43.3176C16.0695 43.3176 16.1107 43.3094 16.1492 43.2935C16.1876 43.2775 16.2225 43.2542 16.2519 43.2247C16.2813 43.1953 16.3047 43.1603 16.3205 43.1219C16.3364 43.0834 16.3446 43.0422 16.3445 43.0006V34.0456C16.3446 34.004 16.3364 33.9628 16.3205 33.9243C16.3047 33.8858 16.2813 33.8509 16.2519 33.8214C16.2225 33.792 16.1876 33.7686 16.1492 33.7527C16.1107 33.7367 16.0695 33.7285 16.0279 33.7285H0.3166C0.232568 33.7285 0.151977 33.7619 0.0925574 33.8213C0.0331376 33.8807 -0.000244141 33.9613 -0.000244141 34.0454C-0.000244141 34.1294 0.0331376 34.21 0.0925574 34.2694C0.151977 34.3288 0.232568 34.3622 0.3166 34.3622H15.7113V43.0006C15.7113 43.0847 15.7447 43.1653 15.8042 43.2248C15.8636 43.2842 15.9438 43.3176 16.0279 43.3176Z" fill="white"/>
<path d="M0.3166 36.5033H13.5688V43.0011C13.5688 43.0852 13.6022 43.1658 13.6616 43.2252C13.7211 43.2846 13.8017 43.318 13.8857 43.318C13.9697 43.318 14.0503 43.2846 14.1097 43.2252C14.1691 43.1658 14.2025 43.0852 14.2025 43.0011V36.1862C14.2024 36.1022 14.1689 36.0217 14.1095 35.9623C14.05 35.903 13.9695 35.8696 13.8854 35.8696H0.3166C0.232568 35.8696 0.151977 35.903 0.0925574 35.9624C0.0331376 36.0218 -0.000244141 36.1024 -0.000244141 36.1865C-0.000244141 36.2705 0.0331376 36.3511 0.0925574 36.4105C0.151977 36.4699 0.232568 36.5033 0.3166 36.5033Z" fill="white"/>
</g>
</svg>
