<svg width="44" height="43" viewBox="0 0 44 43" fill="none" xmlns="http://www.w3.org/2000/svg">
<g clip-path="url(#clip0_5251_23023)">
<mask id="mask0_5251_23023" style="mask-type:luminance" maskUnits="userSpaceOnUse" x="13" y="1" width="18" height="63">
<path d="M30.8875 1.58545H13.853V63.7927H30.8875V1.58545Z" fill="white"/>
</mask>
<g mask="url(#mask0_5251_23023)">
<path d="M25.6702 18.1035C25.9481 17.1461 25.986 15.0067 25.3165 11.1771C25.2976 11.0707 25.2913 10.0897 25.6008 9.98921C25.7334 9.97148 25.8724 10.0247 25.9482 10.1251C26.4913 10.8225 27.9125 14.8117 27.7482 16.1768L25.6702 18.1035Z" fill="#E5A28B"/>
</g>
<mask id="mask1_5251_23023" style="mask-type:luminance" maskUnits="userSpaceOnUse" x="13" y="1" width="18" height="63">
<path d="M30.8875 1.58545H13.853V63.7927H30.8875V1.58545Z" fill="white"/>
</mask>
<g mask="url(#mask1_5251_23023)">
<path d="M27.0341 17.0338C27.2046 15.9345 27.2678 13.0505 25.6508 9.32138C25.4803 8.92542 25.6066 8.52355 25.9351 8.36989C26.0424 8.32261 26.5477 8.36989 26.6551 8.47627C27.3625 9.18545 28.3226 12.3472 28.3415 13.8838L27.0341 17.0338Z" fill="#F0AE92"/>
</g>
<mask id="mask2_5251_23023" style="mask-type:luminance" maskUnits="userSpaceOnUse" x="13" y="1" width="18" height="63">
<path d="M30.8875 1.58545H13.853V63.7927H30.8875V1.58545Z" fill="white"/>
</mask>
<g mask="url(#mask2_5251_23023)">
<path d="M30.8872 15.0835C30.8872 14.1616 29.8198 10.8225 29.8198 10.8225C29.3335 9.20319 27.2491 6.24826 26.2828 5.675C26.1691 5.59817 26.0112 5.60408 25.9038 5.69864C25.6006 5.94094 25.7964 6.70331 25.8596 6.88652C26.8765 9.79417 27.6092 11.248 27.7671 12.4477C28.0008 14.2325 27.1355 15.6213 26.3775 16.4191C25.8659 16.9569 23.4532 18.328 23.4532 18.328C23.9837 15.9936 23.9837 13.5824 23.4469 11.2539C23.2258 10.3556 22.9352 10.1842 22.6573 10.1665C22.4173 10.1606 22.1773 10.2492 22.0068 10.4088C21.3625 11.0943 21.7478 12.6605 21.451 14.3448C21.3373 15.0599 21.1415 15.7572 20.8636 16.425C20.4404 17.4652 20.213 18.5703 20.1877 19.6873C20.1877 19.7346 20.1877 19.8055 20.1941 19.8882C20.2699 21.082 20.5541 22.2522 21.0467 23.3514C21.1667 23.6174 21.2994 23.8715 21.451 24.1256C21.451 24.1256 22.6826 26.0463 21.9184 27.3938L28.3545 27.6242C28.3545 27.6242 27.6471 25.8867 28.2029 24.4329C28.2155 24.4329 30.8872 18.6235 30.8872 15.0835Z" fill="#F9BD9D"/>
</g>
<mask id="mask3_5251_23023" style="mask-type:luminance" maskUnits="userSpaceOnUse" x="13" y="1" width="18" height="63">
<path d="M30.8875 1.58545H13.853V63.7927H30.8875V1.58545Z" fill="white"/>
</mask>
<g mask="url(#mask3_5251_23023)">
<path d="M25.9793 26.537C26.5793 26.1115 26.9204 25.8573 27.4825 24.4094C27.4825 24.4094 30.1605 18.6 30.1542 15.06C30.1542 14.1381 29.0868 10.7931 29.0868 10.7931C28.6194 9.24469 26.8699 6.46114 25.8593 5.73423C25.9603 5.61012 26.1435 5.58648 26.2825 5.66922C27.2488 6.24248 29.3268 9.20332 29.8195 10.8167C29.8195 10.8167 30.8869 14.1558 30.8869 15.0777C30.8869 18.6177 28.2152 24.4271 28.2152 24.4271C27.6594 25.881 28.3668 27.6185 28.3668 27.6185L21.9307 27.388C21.937 27.3762 21.9496 27.3584 21.9559 27.3466C23.0423 27.2934 25.1898 27.0984 25.9793 26.537Z" fill="#EAAF9A"/>
</g>
<mask id="mask4_5251_23023" style="mask-type:luminance" maskUnits="userSpaceOnUse" x="13" y="1" width="18" height="63">
<path d="M30.8875 1.58545H13.853V63.7927H30.8875V1.58545Z" fill="white"/>
</mask>
<g mask="url(#mask4_5251_23023)">
<path d="M23.1627 11.242C22.9795 10.4796 22.7395 10.2432 22.4995 10.1782C22.5564 10.1664 22.6195 10.1605 22.6764 10.1664C22.9543 10.19 23.2448 10.3555 23.4659 11.2538C24.0027 13.5823 24.0027 15.9935 23.4722 18.3279C23.2511 18.4757 23.0995 18.5879 23.0995 18.5879C23.8322 15.4321 23.4469 12.4062 23.1627 11.242Z" fill="#EAAF9A"/>
</g>
<mask id="mask5_5251_23023" style="mask-type:luminance" maskUnits="userSpaceOnUse" x="13" y="1" width="18" height="63">
<path d="M30.8875 1.58545H13.853V63.7927H30.8875V1.58545Z" fill="white"/>
</mask>
<g mask="url(#mask5_5251_23023)">
<path d="M23.1812 11.1595L23.1623 10.8699C23.137 10.5567 22.8465 10.3203 22.5117 10.3439C22.1769 10.3557 21.918 10.6158 21.9306 10.929V10.9349L21.9496 11.2245C21.9622 11.3841 22.1138 11.5082 22.2843 11.4963L22.8843 11.4668C23.0549 11.455 23.1875 11.325 23.1812 11.1595Z" fill="#FEE6D4"/>
</g>
<mask id="mask6_5251_23023" style="mask-type:luminance" maskUnits="userSpaceOnUse" x="13" y="1" width="18" height="63">
<path d="M30.8875 1.58545H13.853V63.7927H30.8875V1.58545Z" fill="white"/>
</mask>
<g mask="url(#mask6_5251_23023)">
<path d="M21.2549 28.4102L21.2991 26.519L29.0679 26.8441L29.2005 29.3558L21.2549 28.4102Z" fill="#EEEEEE"/>
</g>
<mask id="mask7_5251_23023" style="mask-type:luminance" maskUnits="userSpaceOnUse" x="13" y="1" width="18" height="63">
<path d="M30.8875 1.58545H13.853V63.7927H30.8875V1.58545Z" fill="white"/>
</mask>
<g mask="url(#mask7_5251_23023)">
<path d="M29.0679 26.8442L25.1519 26.6787L24.9624 29.2968L29.2005 29.3559L29.0679 26.8442Z" fill="#D4D3D2"/>
</g>
<mask id="mask8_5251_23023" style="mask-type:luminance" maskUnits="userSpaceOnUse" x="13" y="1" width="18" height="63">
<path d="M30.8875 1.58545H13.853V63.7927H30.8875V1.58545Z" fill="white"/>
</mask>
<g mask="url(#mask8_5251_23023)">
<path d="M20.4783 62.9002L30.0093 63.7926L29.744 28.3097L20.9836 28.2329L20.4783 62.9002Z" fill="#73C9B7"/>
</g>
<mask id="mask9_5251_23023" style="mask-type:luminance" maskUnits="userSpaceOnUse" x="13" y="1" width="18" height="63">
<path d="M30.8875 1.58545H13.853V63.7927H30.8875V1.58545Z" fill="white"/>
</mask>
<g mask="url(#mask9_5251_23023)">
<path d="M25.2024 63.3436L30.0089 63.7927L29.7689 28.3099L25.5687 28.2744L25.2024 63.3436Z" fill="#347C69"/>
</g>
<mask id="mask10_5251_23023" style="mask-type:luminance" maskUnits="userSpaceOnUse" x="13" y="1" width="18" height="63">
<path d="M30.8875 1.58545H13.853V63.7927H30.8875V1.58545Z" fill="white"/>
</mask>
<g mask="url(#mask10_5251_23023)">
<path d="M26.832 6.68563C26.5414 6.42559 26.3646 6.07691 26.333 5.70459C26.6993 5.97644 27.0278 6.28967 27.3057 6.63835C27.192 6.76246 26.9836 6.7861 26.832 6.68563Z" fill="#FEE6D4"/>
</g>
<mask id="mask11_5251_23023" style="mask-type:luminance" maskUnits="userSpaceOnUse" x="13" y="1" width="18" height="63">
<path d="M30.8875 1.58545H13.853V63.7927H30.8875V1.58545Z" fill="white"/>
</mask>
<g mask="url(#mask11_5251_23023)">
<path d="M24.2233 1.81602C22.3096 2.45429 21.6843 3.64217 21.3937 5.70471C19.7768 4.28635 18.4883 3.73082 16.5746 4.37499C14.465 5.07827 13.3407 7.21173 14.0734 9.13244C15.3998 12.6193 20.5474 14.8295 25.7013 17.0398C28.2025 12.2765 30.6974 7.51313 29.371 4.02631C28.6446 2.0997 26.3329 1.10684 24.2233 1.81602Z" fill="#67BFA8"/>
</g>
<mask id="mask12_5251_23023" style="mask-type:luminance" maskUnits="userSpaceOnUse" x="13" y="1" width="18" height="63">
<path d="M30.8875 1.58545H13.853V63.7927H30.8875V1.58545Z" fill="white"/>
</mask>
<g mask="url(#mask12_5251_23023)">
<path d="M23.4654 18.3279C23.9959 15.9935 23.9959 13.5764 23.4591 11.242C23.238 10.3437 22.9475 10.1723 22.6695 10.1546C22.4295 10.1487 22.1895 10.2373 22.019 10.3969C21.3747 11.0824 21.76 12.6485 21.4632 14.3328C21.3495 15.0479 21.1537 15.7453 20.8758 16.4131C20.4526 17.4533 20.2252 18.5584 20.2 19.6754C20.2 19.7226 20.2 19.7936 20.2063 19.8763" fill="#F9BD9D"/>
</g>
<mask id="mask13_5251_23023" style="mask-type:luminance" maskUnits="userSpaceOnUse" x="13" y="1" width="18" height="63">
<path d="M30.8875 1.58545H13.853V63.7927H30.8875V1.58545Z" fill="white"/>
</mask>
<g mask="url(#mask13_5251_23023)">
<path d="M23.1559 11.2361C22.9727 10.4737 22.7327 10.2374 22.4927 10.1723C22.5495 10.1605 22.6127 10.1546 22.6695 10.1605C22.9474 10.1842 23.238 10.3496 23.459 11.2479C23.9959 13.5823 23.9959 15.9995 23.459 18.3339C23.238 18.4816 23.0864 18.588 23.0864 18.588C23.8317 15.4262 23.4401 12.4004 23.1559 11.2361Z" fill="#EAAF9A"/>
</g>
<mask id="mask14_5251_23023" style="mask-type:luminance" maskUnits="userSpaceOnUse" x="13" y="0" width="20" height="44">
<path d="M32.8448 36.41V9.47415C32.8448 4.24172 28.6031 0 23.3706 0C18.1382 0 13.8965 4.24173 13.8965 9.47415V32.6183C13.8965 38.4688 18.3589 43.3535 24.1856 43.881L24.6235 43.9206C25.2059 43.9734 25.7924 43.9582 26.3712 43.8754C30.0859 43.3441 32.8448 40.1625 32.8448 36.41Z" fill="white"/>
</mask>
<g mask="url(#mask14_5251_23023)">
<path d="M24.2724 6.6062L24.2514 6.40627C24.2233 6.19001 23.9001 6.0268 23.5277 6.04312C23.1554 6.05128 22.8673 6.23081 22.8814 6.44707V6.45115L22.9024 6.65109C22.9165 6.76125 23.0851 6.84286 23.2748 6.83878L23.9422 6.81838C24.1319 6.8143 24.2795 6.72045 24.2724 6.6062C24.2724 6.61028 24.2724 6.61028 24.2724 6.6062Z" fill="#FEE6D4"/>
</g>
<path d="M25.0495 31.9277C25.4032 31.9277 25.6938 32.1804 25.6938 32.4899C25.6938 32.7994 25.4032 33.052 25.0495 33.052C24.6958 33.052 24.4053 32.7994 24.4053 32.4899C24.4053 32.1804 24.6958 31.9277 25.0495 31.9277Z" fill="#FCE469"/>
<path d="M25.0495 33.7026C25.4032 33.7026 25.6938 33.9553 25.6938 34.2648C25.6938 34.5743 25.4032 34.8269 25.0495 34.8269C24.6958 34.8269 24.4053 34.5743 24.4053 34.2648C24.4053 33.9553 24.6958 33.7026 25.0495 33.7026Z" fill="#FCE469"/>
</g>
<defs>
<clipPath id="clip0_5251_23023">
<rect width="43.4042" height="43" fill="white"/>
</clipPath>
</defs>
</svg>
