<svg width="151" height="151" viewBox="0 0 151 151" fill="none" xmlns="http://www.w3.org/2000/svg">
<rect x="32" y="43" width="88" height="23" rx="11.5" fill="black"/>
<circle cx="75.5" cy="75.5" r="75.5" fill="black"/>
<path d="M11 63C11 68.1858 14.9474 72.4497 20.0014 72.9508C20.551 73.0053 21 72.5523 21 72V54C21 53.4477 20.551 52.9947 20.0014 53.0492C14.9474 53.5503 11 57.8142 11 63Z" fill="white"/>
<path d="M140 63C140 68.1858 136.053 72.4497 130.999 72.9508C130.449 73.0053 130 72.5523 130 72V54C130 53.4477 130.449 52.9947 130.999 53.0492C136.053 53.5503 140 57.8142 140 63Z" fill="white"/>
<rect x="27" y="39" width="97" height="33" rx="16" fill="white"/>
<rect x="32" y="43" width="88" height="23" rx="11.5" fill="black"/>
<path d="M63.0033 71.5H88.5C99 101 97.503 117.5 89.5035 124C81.5039 130.5 70.9983 130.776 63 125C55.0018 119.224 52.4999 102.5 63.0033 71.5Z" fill="white"/>
<path d="M68.8766 81.2895C70.4987 81.7072 73.4058 83.2954 72.1474 86.3444C71.3621 88.2473 65.4172 80.7584 68.8766 81.2895Z" fill="black"/>
<path d="M83.044 81C81.4094 81.1707 78.3549 82.3266 79.121 85.6086C79.5991 87.6568 86.4765 81 83.044 81Z" fill="black"/>
</svg>
