<svg width="43" height="41" viewBox="0 0 43 41" fill="none" xmlns="http://www.w3.org/2000/svg">
<path d="M34.9123 18.9859C34.6563 19.8753 34.372 20.7589 34.1607 21.6589C34.1267 21.8047 34.1219 21.9559 34.1467 22.1036C34.1714 22.2513 34.2251 22.3926 34.3048 22.5195C34.9656 23.3499 35.4199 24.3252 35.6304 25.3654C35.8409 26.4055 35.8015 27.4808 35.5156 28.5028C35.2296 29.5247 34.7052 30.4643 33.9854 31.2441C33.2657 32.024 32.3711 32.6219 31.3753 32.9887C30.1357 33.4741 28.7692 33.53 27.494 33.1477C27.3244 33.071 27.1325 33.0598 26.9552 33.1162C26.7778 33.1726 26.6276 33.2926 26.5335 33.4531C25.768 34.4484 24.7877 35.2579 23.6656 35.8213C22.5435 36.3848 21.3087 36.6876 20.0533 36.7072C18.7979 36.7267 17.5542 36.4626 16.4152 35.9344C15.2761 35.4062 14.271 34.6276 13.4748 33.6567C13.3732 33.5584 13.2528 33.4818 13.1207 33.4314C12.9886 33.3811 12.8477 33.3581 12.7064 33.3638C11.1515 33.4818 9.60421 33.0523 8.33251 32.1498C7.06082 31.2472 6.14476 29.9284 5.74293 28.4216C5.5102 27.5207 5.46298 26.5819 5.60415 25.6621C5.74532 24.7424 6.07192 23.8609 6.56414 23.0713C6.62055 22.9511 6.65007 22.8202 6.65065 22.6874C6.65123 22.5547 6.62285 22.4235 6.5675 22.3029C5.69488 20.8238 5.43659 19.0616 5.84804 17.3943C6.25948 15.7269 7.3079 14.2872 8.76845 13.3839C9.87837 12.7127 11.1566 12.3719 12.4533 12.4013C12.6142 12.392 12.7715 12.3496 12.9153 12.2769C13.0592 12.2042 13.1865 12.1027 13.2894 11.9787C14.0332 10.9004 15.0289 10.0198 16.19 9.41337C17.3511 8.80693 18.6427 8.49293 19.9526 8.49861C21.2626 8.50429 22.5513 8.82947 23.7072 9.44595C24.863 10.0624 25.851 10.9516 26.5854 12.0363C26.6793 12.204 26.8247 12.3371 27.0001 12.4157C27.1755 12.4943 27.3716 12.5144 27.5593 12.4728C28.4781 12.3767 29.4068 12.4728 30.2864 12.7549C31.166 13.037 31.9774 13.499 32.6689 14.1115C33.3604 14.724 33.9169 15.4736 34.3031 16.3128C34.6893 17.1519 34.8968 18.0622 34.9123 18.9859ZM22.0106 28.1445C23.7294 27.8122 23.5839 28.1205 23.5599 26.6558C23.5509 26.4037 23.5944 26.1525 23.6877 25.9181C23.7809 25.6838 23.9219 25.4713 24.1016 25.2943C24.6001 24.7423 25 24.1088 25.2839 23.4214C26.0499 21.5259 25.549 19.8052 24.2168 18.3659C23.6035 17.6751 22.7994 17.1813 21.906 16.9465C21.0125 16.7118 20.0696 16.7466 19.1959 17.0466C18.36 17.3048 17.607 17.779 17.0129 18.4212C16.4188 19.0634 16.0046 19.851 15.8121 20.7044C15.6197 21.5579 15.6557 22.447 15.9167 23.282C16.1777 24.1171 16.6543 24.8685 17.2985 25.4605C17.5054 25.6974 17.6389 25.9894 17.6827 26.3009C17.748 26.6414 17.6529 27.0126 17.7168 27.3536C17.7374 27.4718 17.7822 27.5846 17.8482 27.6848C17.9143 27.785 18.0004 27.8706 18.101 27.9361C18.4786 28.0616 18.8682 28.1477 19.2636 28.193V26.08L20.1204 26.1194V28.3587H21.2278C21.2278 27.8252 21.2072 27.3353 21.2355 26.8488C21.2533 26.5434 21.0396 26.0646 21.6432 26.0723C22.208 26.08 21.9842 26.5319 22.0048 26.8119C22.0356 27.2489 22.012 27.6902 22.012 28.1441L22.0106 28.1445ZM16.3615 25.7337C16.232 25.8217 16.1084 25.918 15.9913 26.0219C15.3497 26.6567 14.8161 27.4309 13.6607 26.9396C13.4095 26.833 12.7636 27.282 12.5201 27.6297C12.4613 27.7264 12.4248 27.835 12.4132 27.9475C12.4017 28.0601 12.4153 28.1738 12.4531 28.2805C12.491 28.3871 12.5521 28.484 12.632 28.564C12.712 28.6441 12.8087 28.7054 12.9153 28.7434C13.5661 28.9254 13.7994 29.3783 14.127 29.859C14.2697 30.0742 14.4916 30.2242 14.7445 30.2765C14.9973 30.3287 15.2606 30.279 15.4769 30.138C15.9884 29.8787 16.2789 29.4177 16.0398 28.948C15.6633 28.2065 16.033 27.8631 16.52 27.4371C17.1976 26.8412 17.1314 26.2774 16.363 25.7347L16.3615 25.7337ZM28.8127 28.231C28.8608 27.3051 28.1226 26.6519 27.4421 26.9435C26.6166 27.2974 26.1801 26.9194 25.7008 26.4104C25.5621 26.222 25.3858 26.0646 25.1831 25.9479C25.0824 25.9113 24.9749 25.8976 24.8682 25.9076C24.7616 25.9177 24.6585 25.9513 24.5664 26.006C24.1193 26.3845 24.225 27.0073 24.8445 27.525C25.283 27.891 25.6335 28.1618 25.246 28.8289C24.9406 29.3543 25.3276 29.9675 25.9495 30.1952C26.0773 30.2539 26.2159 30.2851 26.3565 30.2868C26.4971 30.2885 26.6364 30.2606 26.7656 30.205C26.8947 30.1494 27.0107 30.0673 27.1061 29.964C27.2014 29.8607 27.274 29.7386 27.3192 29.6054C27.3824 29.4209 27.4891 29.2543 27.6303 29.1197C27.7715 28.9852 27.943 28.8865 28.1303 28.8322C28.3941 28.6768 28.6256 28.4722 28.8123 28.2295L28.8127 28.231ZM12.4538 17.0361C12.4668 18.0681 13.2179 18.5037 14.1961 18.2011C14.3607 18.1307 14.543 18.1124 14.7183 18.149C14.8936 18.1855 15.0535 18.2749 15.1763 18.4053C15.3314 18.5412 15.6176 18.5282 15.8443 18.5825C15.9317 18.1839 16.7664 17.9798 16.1262 17.3708C16.0418 17.2646 15.9825 17.1406 15.9527 17.0082C15.923 16.8758 15.9235 16.7384 15.9543 16.6063C16.1978 15.7995 16.0369 15.2909 15.3444 14.9975C14.7791 14.7573 14.249 15.0537 13.8753 15.7178C13.7361 15.9661 13.4268 16.1155 13.203 16.3205C12.9043 16.5952 12.6147 16.8805 12.4529 17.0346M25.6864 18.8572C26.1877 18.0614 26.8389 18.0926 27.6102 18.2809C27.8534 18.3457 28.1124 18.3113 28.3302 18.1852C28.5481 18.0591 28.7069 17.8517 28.7719 17.6085C28.7847 17.5613 28.7937 17.5131 28.7988 17.4645C28.9179 16.8531 28.5438 16.5419 28.0304 16.285C27.7406 16.1282 27.5008 15.8931 27.3384 15.6064C27.2278 15.3665 27.038 15.1721 26.8009 15.0558C26.5638 14.9394 26.2938 14.9083 26.0365 14.9677C25.3881 15.1872 24.9535 15.7601 25.2201 16.2936C25.5457 16.9444 25.4395 17.3636 24.8243 17.7252L25.6864 18.8572Z" fill="#231E56"/>
<path d="M42.9891 18.3434C43.1466 20.0693 41.544 21.8193 39.5496 21.804C39.1006 21.8052 38.6557 21.718 38.2404 21.5474C37.8251 21.3767 37.4475 21.1259 37.1291 20.8093C36.8108 20.4926 36.5579 20.1164 36.3849 19.702C36.212 19.2877 36.1223 18.8433 36.1212 18.3943V18.3765C36.1131 17.9212 36.1948 17.4687 36.3615 17.0449C36.5283 16.6211 36.777 16.2344 37.0932 15.9067C37.4095 15.579 37.7872 15.3168 38.2048 15.1351C38.6224 14.9534 39.0717 14.8558 39.527 14.8477H39.5414C41.301 14.839 43.1269 16.3984 42.9891 18.3424" fill="#75C099"/>
<path d="M12.0416 37.6084C12.179 39.3118 10.5202 40.6862 8.98203 40.6872C8.16484 40.6641 7.38874 40.3238 6.81816 39.7383C6.24757 39.1529 5.92734 38.3682 5.92529 37.5507C5.93405 36.7461 6.25622 35.9767 6.82334 35.4059C7.39046 34.8351 8.15782 34.508 8.96234 34.494C10.683 34.4671 12.2237 36.002 12.0407 37.6074" fill="#75C099"/>
<path d="M29.5986 39.8419C29.0007 39.8172 28.4338 39.5692 28.0098 39.1469C27.5857 38.7246 27.3355 38.1586 27.3083 37.5608C27.3331 36.9602 27.5804 36.3903 28.0021 35.9619C28.4239 35.5335 28.9898 35.2773 29.59 35.2432C30.1893 35.2846 30.7533 35.5416 31.1777 35.9667C31.6022 36.3918 31.8584 36.9562 31.899 37.5555C31.8646 38.1531 31.6108 38.7169 31.1863 39.1389C30.7618 39.5609 30.1964 39.8112 29.5986 39.8419Z" fill="#232B62"/>
<path d="M34.9281 9.10162C34.9292 9.39597 34.8723 9.68766 34.7607 9.96002C34.6491 10.2324 34.4849 10.4801 34.2775 10.689C34.0702 10.8979 33.8236 11.0639 33.5521 11.1775C33.2806 11.2911 32.9893 11.3501 32.6949 11.3511H32.6585C32.2072 11.3518 31.7658 11.2183 31.3906 10.9675C31.0154 10.7167 30.7233 10.36 30.5514 9.94273C30.3795 9.52546 30.3356 9.06649 30.4252 8.62419C30.5149 8.18189 30.7341 7.77626 31.0549 7.45888C31.3758 7.1415 31.7838 6.92672 32.227 6.84185C32.6702 6.75699 33.1287 6.80588 33.5441 6.9823C33.9595 7.15872 34.313 7.45471 34.5597 7.83261C34.8064 8.21051 34.9351 8.65324 34.9295 9.1045" fill="#232B62"/>
<path d="M2.31583 20.7677C2.6083 20.7599 2.89921 20.8129 3.17012 20.9234C3.44104 21.0339 3.68606 21.1994 3.88967 21.4096C4.09328 21.6197 4.25103 21.8698 4.35295 22.144C4.45486 22.4183 4.49871 22.7107 4.48171 23.0028C4.49245 23.2867 4.44715 23.57 4.34841 23.8364C4.24966 24.1028 4.09941 24.3472 3.90622 24.5555C3.71304 24.7639 3.4807 24.9321 3.22249 25.0507C2.96427 25.1692 2.68524 25.2358 2.40131 25.2465C2.3432 25.2465 2.28461 25.2465 2.22602 25.2465C1.62989 25.2406 1.06048 24.9983 0.643049 24.5726C0.225617 24.147 -0.00565456 23.573 0.000105056 22.9769C0.000105056 22.9672 0.000105056 22.9576 0.000105056 22.948C0.0332417 21.6994 1.12003 20.6069 2.31583 20.7677Z" fill="#232B62"/>
<path d="M9.5478 5.91889C10.8209 5.78538 11.8126 6.96725 11.8049 8.14672C11.8029 8.73593 11.5691 9.30069 11.154 9.71885C10.7389 10.137 10.1759 10.375 9.58669 10.3813C9.28896 10.3929 8.99198 10.3436 8.71402 10.2362C8.43606 10.1289 8.18299 9.96583 7.97037 9.75707C7.75775 9.54832 7.59008 9.29829 7.47765 9.02235C7.36521 8.74641 7.31041 8.45039 7.3166 8.15249C7.24744 6.89233 8.43796 5.74504 9.5478 5.91889Z" fill="#75C099"/>
<path d="M22.0107 28.1461C22.0107 27.6927 22.0347 27.2509 22.002 26.8129C21.9819 26.5329 22.2057 26.0806 21.6404 26.0733C21.0363 26.0652 21.25 26.5445 21.2327 26.8499C21.2044 27.3364 21.225 27.8257 21.225 28.3598H20.1176V26.1204L19.2608 26.081V28.1941C18.8654 28.1489 18.4758 28.0628 18.0982 27.9372C17.9976 27.8716 17.9116 27.7861 17.8455 27.6859C17.7794 27.5857 17.7346 27.4729 17.714 27.3546C17.6496 27.0132 17.7452 26.642 17.6799 26.3019C17.6361 25.9904 17.5026 25.6984 17.2957 25.4615C16.6515 24.8695 16.1749 24.1181 15.9139 23.2831C15.6529 22.448 15.6169 21.5589 15.8093 20.7055C16.0018 19.852 16.416 19.0645 17.0101 18.4222C17.6042 17.78 18.3572 17.3059 19.1931 17.0477C20.0666 16.7478 21.0093 16.7129 21.9025 16.9475C22.7958 17.182 23.5997 17.6756 24.2131 18.366C25.5453 19.8067 26.0452 21.5259 25.2802 23.4215C24.9962 24.1088 24.5962 24.7424 24.0978 25.2944C23.9181 25.4716 23.7772 25.6843 23.6841 25.919C23.591 26.1536 23.5477 26.4051 23.5571 26.6573C23.582 28.1201 23.7271 27.8133 22.0088 28.1461M21.3484 21.7992C21.3519 22.0655 21.4526 22.3214 21.6317 22.5186C21.8107 22.7157 22.0557 22.8406 22.3204 22.8697C22.6008 22.8447 22.8638 22.7231 23.0644 22.5256C23.265 22.3282 23.3908 22.0671 23.4202 21.7872C23.3917 21.5099 23.2621 21.2527 23.0562 21.0648C22.8503 20.8769 22.5824 20.7713 22.3036 20.7681C22.1693 20.7594 22.0347 20.7808 21.9097 20.8307C21.7846 20.8806 21.6723 20.9577 21.5808 21.0564C21.4893 21.1552 21.4209 21.2731 21.3808 21.4016C21.3406 21.5301 21.3295 21.6659 21.3484 21.7992ZM17.9503 21.7694C17.9405 22.0476 18.0401 22.3184 18.2276 22.5241C18.4151 22.7297 18.6756 22.8538 18.9535 22.8697C19.2216 22.8456 19.4723 22.7267 19.6606 22.5344C19.8488 22.342 19.9624 22.0889 19.9807 21.8203C19.9827 21.6846 19.958 21.5498 19.908 21.4237C19.8579 21.2975 19.7835 21.1824 19.6889 21.085C19.5944 20.9876 19.4816 20.9098 19.3569 20.856C19.2323 20.8022 19.0983 20.7735 18.9626 20.7715H18.9266C18.7936 20.7599 18.6597 20.778 18.5345 20.8243C18.4093 20.8707 18.2959 20.9443 18.2025 21.0397C18.1092 21.1351 18.0381 21.2501 17.9945 21.3763C17.9509 21.5024 17.9358 21.6367 17.9503 21.7694ZM20.5916 23.2529L19.8712 24.5371H21.4234C21.2077 24.137 21.0392 23.8167 20.8615 23.5026C20.8192 23.4291 20.7337 23.3802 20.5945 23.2529H20.5916Z" fill="white"/>
<path d="M16.3615 25.7339C17.1298 26.2765 17.1961 26.8384 16.518 27.4354C16.0335 27.8609 15.6637 28.2037 16.0378 28.9462C16.2779 29.4178 15.9864 29.8774 15.4749 30.1367C15.2586 30.2776 14.9954 30.3272 14.7425 30.275C14.4897 30.2227 14.2678 30.0728 14.125 29.8577C13.7975 29.3775 13.5645 28.9241 12.9133 28.7421C12.8068 28.704 12.7101 28.6427 12.6302 28.5626C12.5503 28.4825 12.4892 28.3857 12.4514 28.2791C12.4136 28.1725 12.3999 28.0588 12.4114 27.9462C12.423 27.8337 12.4594 27.7251 12.5181 27.6284C12.7616 27.2807 13.4075 26.8312 13.6587 26.9383C14.8141 27.4296 15.3477 26.6559 15.9893 26.0211C16.1065 25.9171 16.2304 25.8209 16.36 25.7329" fill="white"/>
<path d="M28.813 28.2299C28.6263 28.4725 28.3948 28.6771 28.131 28.8326C27.9437 28.8869 27.7722 28.9855 27.631 29.12C27.4898 29.2546 27.3831 29.4212 27.3199 29.6058C27.2747 29.7389 27.202 29.861 27.1065 29.9642C27.0111 30.0675 26.895 30.1495 26.7659 30.205C26.6367 30.2605 26.4973 30.2883 26.3567 30.2865C26.2161 30.2847 26.0775 30.2533 25.9498 30.1945C25.3284 29.9669 24.9413 29.3536 25.2462 28.8283C25.6338 28.1612 25.2827 27.8903 24.8448 27.5244C24.2248 27.0067 24.1191 26.3834 24.5667 26.0054C24.6588 25.9507 24.7618 25.917 24.8685 25.907C24.9751 25.8969 25.0827 25.9107 25.1833 25.9473C25.386 26.064 25.5623 26.2215 25.701 26.4098C26.1813 26.9183 26.6173 27.2968 27.4424 26.9428C28.1234 26.6494 28.861 27.303 28.8135 28.2294" fill="white"/>
<path d="M12.4546 17.0374C12.616 16.8833 12.9055 16.598 13.2042 16.3228C13.4266 16.1183 13.7359 15.9684 13.8766 15.7201C14.2502 15.0545 14.7809 14.7597 15.3456 14.9998C16.0381 15.2932 16.199 15.8018 15.9555 16.6086C15.9247 16.7407 15.9242 16.8782 15.954 17.0105C15.9837 17.1429 16.0431 17.2669 16.1275 17.3731C16.7676 17.9821 15.9354 18.1857 15.8456 18.5848C15.6189 18.5305 15.3327 18.5435 15.1776 18.4076C15.0548 18.2772 14.8949 18.1878 14.7196 18.1513C14.5443 18.1148 14.362 18.133 14.1974 18.2035C13.2196 18.5065 12.4685 18.0709 12.4555 17.0389" fill="white"/>
<path d="M25.687 18.8569L24.8274 17.7249C25.4426 17.3633 25.5478 16.9436 25.2231 16.2933C24.9561 15.7593 25.3917 15.1864 26.0395 14.9674C26.2969 14.908 26.5668 14.9391 26.804 15.0555C27.0411 15.1718 27.2309 15.3662 27.3414 15.6061C27.5038 15.8928 27.7437 16.1279 28.0335 16.2847C28.5449 16.5416 28.919 16.8528 28.8019 17.4642C28.7887 17.5882 28.7513 17.7084 28.6917 17.818C28.6321 17.9275 28.5515 18.0243 28.4545 18.1027C28.3575 18.1811 28.246 18.2396 28.1264 18.2749C28.0068 18.3102 27.8814 18.3216 27.7573 18.3084C27.7087 18.3031 27.6605 18.2941 27.6133 18.2815C26.8401 18.0923 26.1908 18.0616 25.6889 18.8578" fill="white"/>
<path d="M21.3487 21.7986C21.3302 21.6655 21.3416 21.53 21.382 21.4019C21.4224 21.2738 21.4908 21.1563 21.5822 21.0578C21.6737 20.9594 21.7859 20.8826 21.9107 20.8328C22.0355 20.7831 22.1698 20.7618 22.3039 20.7704C22.5831 20.7734 22.8515 20.8792 23.0576 21.0677C23.2637 21.2562 23.393 21.514 23.4209 21.7919C23.3911 22.0711 23.2654 22.3314 23.0653 22.5284C22.8651 22.7253 22.6028 22.8468 22.3231 22.872C22.0578 22.8434 21.8122 22.7187 21.6326 22.5214C21.4531 22.3241 21.3521 22.0678 21.3487 21.801" fill="#232B62"/>
<path d="M17.9523 21.7696C17.9375 21.6369 17.9525 21.5025 17.996 21.3762C18.0395 21.2499 18.1106 21.1349 18.204 21.0394C18.2974 20.944 18.4109 20.8705 18.5362 20.8243C18.6616 20.778 18.7956 20.7602 18.9286 20.7722C19.2027 20.7667 19.4677 20.8704 19.6654 21.0603C19.8631 21.2503 19.9772 21.5109 19.9828 21.785C19.9828 21.797 19.9828 21.809 19.9828 21.821C19.9645 22.0896 19.851 22.3428 19.6627 22.5352C19.4744 22.7275 19.2236 22.8464 18.9555 22.8703C18.6777 22.8544 18.4171 22.7304 18.2296 22.5247C18.0421 22.3191 17.9426 22.0477 17.9523 21.7696Z" fill="#232B62"/>
<path d="M20.5951 23.252C20.7344 23.3797 20.8198 23.4282 20.8621 23.5017C21.0417 23.8153 21.2088 24.1361 21.4245 24.5361H19.8733L20.5951 23.252Z" fill="#232B62"/>
</svg>
