<svg width="44" height="50" viewBox="0 0 44 50" fill="none" xmlns="http://www.w3.org/2000/svg">
<g clip-path="url(#clip0_5251_22141)">
<path d="M23.8482 20.1217L25.6886 18.4748C25.7974 18.3655 25.9682 18.3577 26.0925 18.4514L30.7984 22.713C30.9149 22.8223 30.9227 23.0018 30.8217 23.1189L29.3851 25.1326L30.5499 26.1941L32.0409 24.0321C32.5379 23.314 32.468 22.2993 31.8856 21.7686L26.9156 17.2728C26.3332 16.742 25.3237 16.7811 24.6636 17.3508L22.6833 19.068L23.8482 20.1217Z" fill="#67BFA8"/>
<path d="M7.91323 20.4731L0.365052 28.8949C-0.16301 29.4803 -0.116416 30.3857 0.473771 30.9165L21.1536 49.6333C21.736 50.1641 22.6368 50.1172 23.1649 49.524L30.7131 41.1022C21.0837 36.9031 13.0774 29.6598 7.921 20.4731" fill="#232055"/>
<path d="M8.58871 21.4956L8.44116 21.3629L8.77508 20.9883L8.84497 21.1132C8.89933 21.2224 8.96146 21.3239 9.02358 21.4332L8.85274 21.5346C8.81391 21.4722 8.78285 21.402 8.74402 21.3395L8.59647 21.5034L8.58871 21.4956Z" fill="white"/>
<path d="M29.7734 40.665L29.6258 40.5323L29.7734 40.3684C29.7035 40.3372 29.6336 40.306 29.5637 40.2825L29.6414 40.103C29.7501 40.1499 29.8666 40.1967 29.9753 40.2435L30.0995 40.2982L29.7656 40.6728L29.7734 40.665Z" fill="white"/>
<path d="M17.721 32.5556C17.6356 32.4775 17.5424 32.3917 17.457 32.3136L17.589 32.1653C17.7676 32.3292 17.9462 32.4932 18.1248 32.6493L17.9928 32.7976C17.8996 32.7117 17.8065 32.6336 17.7133 32.5478M16.9289 31.8141C16.7503 31.6502 16.5795 31.4785 16.4009 31.3068L16.5407 31.1663C16.7115 31.338 16.8901 31.5019 17.061 31.6736L16.9289 31.8219V31.8141ZM18.5442 33.2815L18.6762 33.1332C18.8626 33.2893 19.0412 33.4454 19.2276 33.6015L19.1033 33.7576C18.9169 33.6015 18.7306 33.4454 18.552 33.2893L18.5442 33.2815ZM15.8806 30.7994C15.7097 30.6277 15.5389 30.456 15.3681 30.2765L15.5078 30.136C15.6787 30.3077 15.8495 30.4872 16.0126 30.6589L15.8728 30.7994H15.8806ZM19.6624 34.2181L19.7867 34.062C19.9731 34.2181 20.1672 34.3664 20.3536 34.5147L20.2293 34.6708C20.043 34.5225 19.8488 34.3664 19.6624 34.2181ZM14.871 29.7457C14.708 29.5662 14.5449 29.3867 14.3818 29.2072L14.5294 29.0745C14.6924 29.254 14.8555 29.4335 15.0186 29.613L14.871 29.7457ZM20.8117 35.1157L20.9282 34.9596C21.1224 35.1079 21.3165 35.2484 21.5107 35.3967L21.3942 35.5606C21.2 35.4201 21.0059 35.2718 20.8117 35.1235V35.1157ZM13.8926 28.6608C13.7295 28.4735 13.5742 28.294 13.4189 28.1066L13.5664 27.9818C13.7217 28.1613 13.8771 28.3486 14.0401 28.5359L13.8926 28.6686V28.6608ZM21.9844 35.9821L22.1008 35.8182C22.295 35.9587 22.4969 36.0991 22.6988 36.2318L22.5901 36.3957C22.3959 36.2553 22.194 36.1148 21.9921 35.9743L21.9844 35.9821ZM12.9529 27.5447C12.7976 27.3573 12.6423 27.1622 12.4948 26.9749L12.6501 26.85C12.7976 27.0373 12.9529 27.2247 13.1005 27.4198L12.9452 27.5447H12.9529ZM23.1803 36.8016L23.289 36.6377C23.4909 36.7704 23.6928 36.9031 23.8947 37.0358L23.786 37.2075C23.5841 37.0748 23.3822 36.9421 23.1803 36.8094V36.8016ZM12.0521 26.4051C11.9046 26.21 11.757 26.0149 11.6173 25.8197L11.7726 25.7026C11.9123 25.8978 12.0599 26.0929 12.2074 26.288L12.0521 26.4129V26.4051ZM24.4072 37.5899L24.5082 37.4182C24.7101 37.5431 24.9198 37.668 25.1294 37.7929L25.0285 37.9646C24.8188 37.8397 24.6091 37.7148 24.4072 37.5899ZM11.1824 25.2265C11.0426 25.0236 10.9028 24.8285 10.763 24.6255L10.9261 24.5163C11.0581 24.7114 11.1979 24.9143 11.3377 25.1094L11.1746 25.2265H11.1824ZM25.6653 38.3314L25.7662 38.1597C25.9759 38.2768 26.1856 38.3939 26.3952 38.511L26.302 38.6827C26.0924 38.5656 25.8749 38.4407 25.6653 38.3236V38.3314ZM10.3592 24.0245C10.2272 23.8216 10.0952 23.6187 9.96318 23.4079L10.1263 23.2986C10.2583 23.5016 10.3903 23.7045 10.5223 23.9075L10.3592 24.0167V24.0245ZM26.9388 39.0261L27.032 38.8466C27.2494 38.9558 27.4669 39.0729 27.6766 39.1744L27.5911 39.3539C27.3815 39.2446 27.164 39.1276 26.9466 39.0183L26.9388 39.0261ZM9.5749 22.7913C9.45065 22.5806 9.3264 22.3698 9.20215 22.1669L9.37299 22.0654C9.49724 22.2762 9.62149 22.4869 9.74574 22.6898L9.5749 22.7913ZM28.2434 39.6817L28.3289 39.5022C28.5463 39.6037 28.7637 39.7129 28.9812 39.8066L28.8958 39.9861C28.6783 39.8847 28.4609 39.7754 28.2357 39.6739L28.2434 39.6817Z" fill="white"/>
<path d="M29.7112 25.328L30.348 25.9056C30.7595 26.2803 30.7984 26.9281 30.4256 27.3418C30.0529 27.7555 29.4083 27.7945 28.9967 27.4198L28.36 26.8423C27.9484 26.4676 27.9096 25.8198 28.2823 25.4061C28.6551 24.9924 29.2996 24.9534 29.7112 25.328Z" fill="#2E3D4A"/>
<path d="M21.745 19.1021L21.3656 19.5256C21.0959 19.8267 21.1201 20.2906 21.4197 20.5617L22.4758 21.5175C22.7754 21.7886 23.2369 21.7643 23.5067 21.4632L23.886 21.0398C24.1558 20.7386 24.1316 20.2747 23.832 20.0036L22.7759 19.0478C22.4763 18.7767 22.0147 18.801 21.745 19.1021Z" fill="#2E3D4A"/>
<path d="M36.1411 32.8987L15.4612 14.1819C14.8788 13.6511 13.978 13.6979 13.4499 14.2911L7.66455 20.746C12.8287 29.9327 20.8273 37.1759 30.4566 41.3751L36.242 34.9202C36.7701 34.3348 36.7235 33.4294 36.1333 32.8987" fill="#17242C"/>
<path d="M36.382 32.6257L15.7022 13.9089C15.1198 13.3782 14.219 13.425 13.6909 14.0182L7.90552 20.4731C13.0697 29.6598 21.0682 36.903 30.6976 41.1022L36.483 34.6473C37.0111 34.0619 36.9645 33.1565 36.3743 32.6257" fill="#333465"/>
<path d="M13.9159 25.6242L11.7338 23.6495C11.5707 23.5012 11.3145 23.5168 11.1669 23.6807L8.35576 26.8184C8.20821 26.9823 8.22374 27.2399 8.38682 27.3882L10.569 29.3629C10.732 29.5112 10.9883 29.4956 11.1358 29.3317L13.947 26.194C14.0945 26.0301 14.079 25.7725 13.9159 25.6242Z" fill="#FCE469"/>
<path d="M27.3893 37.8161L25.2072 35.8414C25.0441 35.6931 24.7878 35.7087 24.6403 35.8726L21.8291 39.0103C21.6816 39.1742 21.6971 39.4318 21.8602 39.5801L24.0423 41.5548C24.2054 41.7031 24.4617 41.6875 24.6092 41.5236L27.4204 38.3859C27.5679 38.222 27.5524 37.9644 27.3893 37.8161Z" fill="#FCE469"/>
<path d="M10.4058 28.3798L9.37301 27.4432C9.26429 27.3495 9.25653 27.1778 9.35748 27.0763C9.45067 26.9671 9.62151 26.9593 9.72247 27.0607L10.7553 27.9973C10.864 28.091 10.8718 28.2627 10.7708 28.3642C10.6776 28.4735 10.5068 28.4813 10.4058 28.3798Z" fill="#40505B"/>
<path d="M23.8792 40.579L22.8464 39.6424C22.7377 39.5487 22.7299 39.377 22.8309 39.2756C22.9241 39.1663 23.0949 39.1585 23.1959 39.2599L24.2287 40.1966C24.3374 40.2902 24.3452 40.4619 24.2442 40.5634C24.151 40.6727 23.9802 40.6805 23.8792 40.579Z" fill="#40505B"/>
<path d="M26.7759 23.3608C26.5352 23.0486 26.5585 22.6037 26.8225 22.3149L27.7 21.3315C27.7777 21.2456 27.7699 21.1129 27.6845 21.0427C27.6845 21.0427 27.6612 21.0193 27.6535 21.0193C27.5913 20.9802 27.5059 20.9802 27.4438 21.0193C27.4283 21.0271 27.4127 21.0427 27.3972 21.0583L27.0011 21.5032C26.7216 21.7998 26.2634 21.8154 25.9683 21.5344C25.6577 21.2456 25.6422 20.7539 25.9295 20.4495L26.4032 19.9187C26.442 19.8797 26.4575 19.8251 26.4575 19.7704C26.4575 19.7158 26.4265 19.6611 26.3877 19.6299C26.3022 19.5519 26.178 19.5597 26.1003 19.6377C25.9838 19.7782 25.8208 19.8641 25.6422 19.8875C25.6111 19.8875 25.5723 19.8875 25.5412 19.8875C25.3393 19.8719 25.1452 19.7704 25.0131 19.6143C24.7646 19.3021 24.7802 18.8572 25.052 18.5684L28.663 14.5331C28.8494 14.3224 29.0823 14.1663 29.3541 14.0726C29.5793 13.9712 29.8434 14.0024 30.0453 14.1429L31.6295 12.3867L35.3569 15.9381L34.1843 17.2415C34.6813 18.545 34.8599 19.9499 34.7046 21.3393C34.6658 21.6749 34.526 21.9871 34.3086 22.2369L33.268 23.3998C33.0506 23.6418 32.6856 23.6574 32.4448 23.4467C32.2973 23.314 32.2274 23.1188 32.2585 22.9237C32.2818 22.7988 32.3051 22.6739 32.3439 22.5569C32.4448 22.2134 32.6157 21.8934 32.8331 21.6124C32.9884 21.4095 33.136 21.1129 32.9884 20.8475L29.556 24.6721C29.2998 24.9687 28.8649 25.0389 28.531 24.8282C28.166 24.594 28.0573 24.1023 28.2902 23.7276C28.3135 23.6886 28.3368 23.6574 28.3679 23.6262L29.1522 22.752C29.2299 22.6661 29.2221 22.5335 29.1367 22.4554C29.0357 22.3852 28.9037 22.4086 28.8261 22.4944L28.0029 23.4154C27.7078 23.7433 27.203 23.7589 26.8847 23.4623C26.8536 23.4311 26.8225 23.3998 26.7992 23.3686" fill="#FED5A6"/>
<path d="M31.3905 11.1328L30.4863 12.1421L35.4782 16.6597L36.3824 15.6504L31.3905 11.1328Z" fill="#FEFFFF"/>
<path d="M42.7108 8.58568L36.6615 16.063L31.0237 10.9585L37.0809 4.19137C37.2749 3.90257 37.2749 3.90257 37.6631 3.51231C38.0514 3.12206 38.828 3.51231 38.828 3.51231C38.828 3.51231 42.7108 5.07335 42.7108 8.58568Z" fill="#232055"/>
</g>
<defs>
<clipPath id="clip0_5251_22141">
<rect width="44" height="50" fill="white"/>
</clipPath>
</defs>
</svg>
