<svg width="48" height="45" viewBox="0 0 48 45" fill="none" xmlns="http://www.w3.org/2000/svg">
<mask id="mask0_5251_21883" style="mask-type:alpha" maskUnits="userSpaceOnUse" x="-3" y="0" width="53" height="52">
<rect x="-2.97217" width="52" height="52" rx="26" fill="#F9FAFB"/>
</mask>
<g mask="url(#mask0_5251_21883)">
<g filter="url(#filter0_d_5251_21883)">
<path d="M39.0365 23.0498L37.8033 21.9159L40.1357 19.3797C40.1639 19.3495 40.1859 19.314 40.2003 19.2752C40.2147 19.2365 40.2212 19.1953 40.2196 19.154C40.2179 19.1127 40.2081 19.0721 40.1907 19.0346C40.1732 18.9972 40.1486 18.9635 40.118 18.9357L32.8792 12.279C32.8488 12.2511 32.8131 12.2295 32.7744 12.2153C32.7356 12.2012 32.6944 12.1948 32.6532 12.1966C32.6119 12.1984 32.5715 12.2082 32.534 12.2257C32.4966 12.2431 32.463 12.2677 32.4351 12.2981L30.1027 14.8326L28.7101 13.5522C28.6799 13.5242 28.6444 13.5024 28.6058 13.4882C28.5671 13.4739 28.526 13.4675 28.4848 13.4692C28.4436 13.4709 28.4032 13.4807 28.3658 13.4981C28.3285 13.5155 28.2949 13.5401 28.2671 13.5706L21.0966 21.3677C20.1053 22.4501 18.8173 23.2168 17.3932 23.5723C17.3532 23.5747 17.314 23.585 17.2779 23.6026C16.6634 23.7439 16.0334 23.8062 15.4031 23.788C15.384 23.788 15.3653 23.7852 15.3462 23.7859C14.5024 23.7589 13.6691 23.5903 12.8811 23.2873L10.9977 22.5638H10.9949L5.22288 20.3379C5.15256 20.3105 5.07469 20.3095 5.00366 20.335C4.93263 20.3605 4.87324 20.4109 4.83647 20.4768L4.39727 21.2583C4.02755 20.9442 3.56767 20.7556 3.08386 20.7195C2.81987 20.7164 2.55825 20.7695 2.31636 20.8753C2.07447 20.9811 1.85785 21.1371 1.68088 21.333C0.417113 22.6013 1.47812 25.2715 1.76906 25.9315L1.43507 26.5252C1.4001 26.5869 1.38716 26.6587 1.39839 26.7287C1.40963 26.7987 1.44435 26.8629 1.49687 26.9106L14.1647 38.5597C15.2927 39.5941 16.6899 40.2888 18.1954 40.5638C19.7009 40.8389 21.2534 40.6831 22.6743 40.1145C22.6889 40.1092 22.7041 40.1145 22.7191 40.1082C22.734 40.102 22.7402 40.0905 22.7538 40.0832C23.853 39.636 24.84 38.9516 25.6441 38.0789L39.056 23.4949C39.0842 23.4646 39.1062 23.4289 39.1205 23.39C39.1349 23.3511 39.1413 23.3097 39.1395 23.2683C39.1377 23.2269 39.1277 23.1862 39.11 23.1487C39.0923 23.1112 39.0673 23.0776 39.0365 23.0498ZM32.6847 12.954L39.4615 19.186L37.3416 21.491L30.5648 15.2589L32.6847 12.954ZM2.12736 21.7725C2.24327 21.6388 2.38646 21.5315 2.54731 21.4577C2.70816 21.3839 2.88294 21.3454 3.05991 21.3448C3.44407 21.3825 3.80471 21.5472 4.0848 21.8128L2.16242 25.2312C1.77913 24.2001 1.37848 22.5242 2.12771 21.7715L2.12736 21.7725ZM2.10479 26.6144L5.25031 21.0198L8.70275 22.3503L4.36984 28.6975L2.10479 26.6144ZM4.83612 29.1263L9.30338 22.5811L10.4876 23.037L7.37892 31.4632L4.83612 29.1263ZM7.87852 31.9243L11.0726 23.2651L12.6565 23.8744C12.9516 23.987 13.253 24.0821 13.5592 24.1594L12.1677 35.8694L7.87852 31.9243ZM14.5897 38.0959L12.7381 36.3947L14.1758 24.2959C14.5059 24.356 14.8396 24.3951 15.1747 24.4129L22.1608 39.6433C20.8771 40.0967 19.4943 40.1921 18.1606 39.9193C16.8269 39.6465 15.5925 39.0158 14.59 38.0949L14.5897 38.0959ZM25.181 37.6525C24.4964 38.3977 23.6674 38.9958 22.7444 39.4104L15.8673 24.4167C16.3652 24.4008 16.8606 24.3387 17.347 24.231L29.0167 33.4825L25.181 37.6525ZM29.441 33.0204L18.098 24.0258C19.3113 23.6267 20.4133 22.9469 21.3143 22.0416L30.2273 32.1652L29.441 33.0204ZM30.6561 31.7011L21.7501 21.585L22.7277 20.522L34.3238 27.7115L30.6561 31.7011ZM34.7554 27.2432L23.1617 20.0529L26.9197 15.9662L35.5209 26.411L34.7554 27.2432ZM35.9497 25.9447L27.3485 15.4999L28.5167 14.2295L38.381 23.3008L35.9497 25.9447Z" fill="#B2DDCD"/>
<path d="M4.64883 20.8232L1.59566 26.2167C1.07939 24.7075 0.572494 22.2241 1.73106 20.9985C1.90516 20.7851 2.11972 20.6083 2.3624 20.4782C2.60509 20.348 2.8711 20.2672 3.14515 20.2402C3.70072 20.2445 4.23554 20.4519 4.64883 20.8232Z" fill="#F3BD9A"/>
<path d="M8.70269 22.3485L4.36979 28.6958L2.10474 26.6126L5.25026 21.0181L8.70269 22.3485Z" fill="white"/>
<path d="M10.4873 23.0364L7.37717 31.4627L4.83472 29.1247L9.30163 22.5806L10.4873 23.0364Z" fill="white"/>
<path d="M13.5606 24.1584L12.1691 35.868L7.87891 31.9229L11.073 23.2637L12.6569 23.873C12.9523 23.9857 13.2541 24.081 13.5606 24.1584Z" fill="white"/>
<path d="M38.1601 22.2429L29.3005 14.0957L39.0276 4.14013C39.0276 4.14013 43.5276 2.64013 45.5276 5.14013C47.5276 7.64014 47.0276 10.6401 47.0276 10.6401L41.0278 18.5002L38.1601 22.2429Z" fill="#F3BD9A"/>
<path d="M15.1748 24.4098L22.161 39.6391C20.8775 40.0929 19.4948 40.1888 18.161 39.9165C16.8272 39.6442 15.5927 39.014 14.5898 38.0935L12.7383 36.3923L14.176 24.2935C14.5061 24.3534 14.8398 24.3922 15.1748 24.4098Z" fill="white"/>
<path d="M38.3799 23.2984L35.9496 25.9422L27.3484 15.4974L28.5167 14.2271L38.3799 23.2984Z" fill="white"/>
<path d="M26.9184 15.9644L35.5196 26.4091L34.7558 27.2424L23.1604 20.0511L26.9184 15.9644Z" fill="white"/>
<path d="M22.7277 20.5234L34.3224 27.7102L30.655 31.6994L21.75 21.5851L22.7277 20.5234Z" fill="white"/>
<path d="M21.3145 22.04L30.2275 32.1637L29.4411 33.0188L18.0981 24.0242C19.3115 23.6252 20.4135 22.9454 21.3145 22.04Z" fill="white"/>
<path d="M17.3471 24.23L29.0147 33.4825L25.1811 37.6512C24.4965 38.3964 23.6675 38.9944 22.7445 39.409L15.8674 24.4154C16.3654 24.3996 16.8607 24.3375 17.3471 24.23Z" fill="white"/>
<path d="M25.0694 21.5071C24.8125 21.0703 24.6814 20.5709 24.6906 20.0642C24.6926 19.8978 24.716 19.7323 24.7601 19.5718C24.8027 19.395 24.8925 19.2331 25.0198 19.1031C25.0794 19.0436 25.1502 18.9964 25.2281 18.9643C25.2999 18.9337 25.3782 18.9215 25.456 18.9288C25.5337 18.9362 25.6084 18.9628 25.6732 19.0063C25.7682 19.0692 25.8506 19.1492 25.9162 19.2424C26.0381 19.4161 26.1285 19.6099 26.1832 19.8149C26.2187 19.9283 26.2449 20.0444 26.2617 20.1621C26.2672 20.1927 26.2681 20.2239 26.2645 20.2548C26.2619 20.282 26.2495 20.3075 26.2298 20.3264C26.21 20.3454 26.1841 20.3566 26.1567 20.358C26.1294 20.3594 26.1024 20.351 26.0807 20.3342C26.0591 20.3174 26.0442 20.2934 26.0388 20.2666C26.0362 20.256 26.0343 20.2452 26.0332 20.2343C26.0058 20.0166 25.946 19.8042 25.8558 19.6041C25.803 19.4793 25.7264 19.366 25.6301 19.2705C25.6037 19.2372 25.5701 19.2102 25.5318 19.1917C25.4935 19.1732 25.4515 19.1636 25.409 19.1636C25.3664 19.1636 25.3245 19.1732 25.2862 19.1917C25.2479 19.2102 25.2143 19.2372 25.1878 19.2705C25.1243 19.3338 25.0741 19.4092 25.0403 19.4923C24.9963 19.5968 24.9682 19.7073 24.9569 19.8201C24.9245 20.1149 24.948 20.4131 25.0264 20.6992C25.1283 21.0912 25.3209 21.4539 25.5888 21.7577C25.6881 21.873 25.8053 21.9715 25.936 22.0494C25.9967 22.0869 26.0629 22.1146 26.1322 22.1317C26.1766 22.1427 26.2228 22.1445 26.2679 22.1369C26.2924 22.1328 26.3154 22.1225 26.3348 22.107C26.3542 22.0915 26.3693 22.0713 26.3787 22.0483C26.3967 22.0063 26.4052 21.9608 26.4037 21.915C26.4019 21.8492 26.3925 21.7839 26.3755 21.7202C26.3453 21.596 26.3085 21.4737 26.2714 21.3522C26.2585 21.3113 26.2572 21.3099 26.2197 21.3307C26.1289 21.3776 26.0354 21.4187 25.9395 21.454C25.913 21.4673 25.8823 21.4698 25.854 21.4609C25.8257 21.4519 25.8021 21.4322 25.7881 21.406C25.774 21.379 25.7708 21.3475 25.7793 21.3181C25.7877 21.2888 25.8072 21.2638 25.8336 21.2484C25.8517 21.2361 25.8713 21.2261 25.8919 21.2186C26.012 21.1745 26.1274 21.1186 26.2363 21.0516C26.3402 20.9905 26.4444 20.9291 26.5488 20.8676C26.5788 20.8466 26.6133 20.833 26.6495 20.8276C26.6667 20.8249 26.6844 20.8266 26.7008 20.8325C26.7172 20.8384 26.7319 20.8484 26.7435 20.8615C26.7551 20.8745 26.7632 20.8903 26.7671 20.9073C26.771 20.9243 26.7705 20.9421 26.7658 20.9589C26.7602 20.9821 26.75 21.0039 26.7357 21.0231C26.7215 21.0423 26.7035 21.0583 26.6828 21.0703C26.6321 21.1026 26.5786 21.1328 26.528 21.1637C26.4842 21.1897 26.4835 21.1897 26.4992 21.2404C26.5467 21.396 26.5853 21.5529 26.6203 21.7123C26.6401 21.794 26.6484 21.8782 26.645 21.9622C26.6461 22.0248 26.6334 22.0869 26.6078 22.144C26.5823 22.2011 26.5444 22.2518 26.497 22.2927C26.4495 22.3335 26.3937 22.3633 26.3334 22.3801C26.2731 22.3968 26.2098 22.4001 26.1481 22.3896C26.0425 22.3781 25.94 22.3467 25.8461 22.2969C25.6596 22.1994 25.4935 22.0671 25.3569 21.907C25.2484 21.7833 25.1521 21.6494 25.0694 21.5071Z" fill="#231F56"/>
<path d="M28.3523 20.954C28.2287 20.7159 28.1172 20.4721 28.0051 20.2281C27.8641 19.9211 27.7325 19.6104 27.619 19.2907C27.5892 19.2066 27.5624 19.1212 27.5336 19.0369C27.5214 19.0021 27.5204 18.999 27.4843 19.0133C27.1822 19.132 26.8719 19.2299 26.5743 19.3604C26.5545 19.3695 26.5339 19.3769 26.5129 19.3827C26.484 19.392 26.4527 19.39 26.4252 19.3771C26.3978 19.3642 26.3763 19.3414 26.365 19.3132C26.3546 19.2854 26.3557 19.2545 26.368 19.2275C26.3803 19.2004 26.4028 19.1793 26.4306 19.1688C26.5184 19.1285 26.608 19.0917 26.6979 19.0563C26.9201 18.9685 27.1454 18.8893 27.3645 18.7924C27.4517 18.7536 27.4524 18.7553 27.4284 18.6633C27.3979 18.5476 27.3675 18.4311 27.3374 18.314C27.329 18.2861 27.3243 18.2571 27.3236 18.2279C27.3228 18.2002 27.3319 18.1731 27.3493 18.1515C27.3666 18.1299 27.3911 18.1151 27.4183 18.1099C27.4448 18.1056 27.4718 18.1107 27.4949 18.1243C27.518 18.1378 27.5356 18.159 27.5447 18.1842C27.5511 18.2013 27.5563 18.2188 27.5603 18.2366C27.593 18.3598 27.6249 18.4838 27.6579 18.607C27.67 18.6522 27.6711 18.6529 27.7114 18.6338L28.1561 18.4223C28.1948 18.4017 28.2361 18.3865 28.279 18.3772C28.3108 18.3681 28.3448 18.37 28.3754 18.3826C28.4061 18.3952 28.4315 18.4178 28.4478 18.4466C28.4594 18.478 28.4598 18.5125 28.4489 18.5441C28.438 18.5758 28.4165 18.6027 28.388 18.6202C28.3454 18.6514 28.2986 18.6767 28.2492 18.6952C28.1023 18.7595 27.9544 18.8223 27.8068 18.8851L27.7968 18.8897C27.7482 18.9108 27.7482 18.9108 27.7662 18.9619C27.8579 19.2216 27.9679 19.4743 28.0787 19.7257C28.2401 20.0916 28.4214 20.4478 28.6127 20.7988C28.6474 20.8613 28.6821 20.9231 28.7206 20.9828C28.7461 21.0186 28.764 21.0593 28.7731 21.1023C28.7798 21.1273 28.7792 21.1536 28.7713 21.1783C28.7634 21.2029 28.7486 21.2247 28.7286 21.2412C28.7083 21.257 28.6841 21.2668 28.6585 21.2696C28.6329 21.2725 28.6071 21.2681 28.5839 21.2571C28.5382 21.2375 28.4997 21.2045 28.4734 21.1623C28.428 21.0957 28.3915 21.0242 28.3523 20.954Z" fill="#231F56"/>
<path d="M28.1383 25.9708C28.2177 26.1101 28.2671 26.2646 28.283 26.4242C28.2869 26.4642 28.2881 26.5045 28.2865 26.5447C28.2859 26.6768 28.2377 26.8043 28.1509 26.9039C28.064 27.0035 27.9441 27.0685 27.8133 27.087C27.6484 27.1157 27.4786 27.0949 27.3255 27.0273C27.2656 27.0018 27.2118 26.9638 27.1677 26.9159C27.1235 26.868 27.0901 26.8113 27.0696 26.7495C27.0419 26.6716 27.0288 26.5892 27.0311 26.5065C27.0286 26.4123 27.0582 26.32 27.115 26.2448C27.1717 26.1696 27.2523 26.1158 27.3435 26.0923C27.4006 26.0719 27.4616 26.0652 27.5216 26.0728C27.5564 26.076 27.5895 26.0895 27.6164 26.1117C27.634 26.1252 27.647 26.1438 27.6538 26.1648C27.6605 26.1859 27.6607 26.2086 27.6543 26.2298C27.6483 26.2512 27.636 26.2702 27.6188 26.2843C27.6017 26.2984 27.5806 26.3069 27.5585 26.3086C27.5386 26.311 27.5186 26.311 27.4987 26.3086C27.4658 26.3066 27.4328 26.3113 27.4018 26.3225C27.3708 26.3336 27.3423 26.351 27.3182 26.3735C27.2906 26.3981 27.2734 26.4324 27.2703 26.4693C27.2592 26.5476 27.2707 26.6275 27.3033 26.6995C27.32 26.7407 27.3508 26.7746 27.3901 26.7953C27.463 26.8358 27.544 26.8594 27.6273 26.8642C27.7105 26.8691 27.7938 26.8552 27.8709 26.8235C27.9144 26.8057 27.9527 26.7773 27.9825 26.7409C28.0122 26.7045 28.0323 26.6613 28.041 26.6151C28.0472 26.5903 28.0508 26.565 28.0518 26.5395C28.0581 26.344 27.9945 26.1527 27.8723 25.9999C27.7767 25.8825 27.6418 25.8038 27.4925 25.7784C27.4116 25.7633 27.3292 25.7575 27.247 25.7611C27.1578 25.7632 27.0682 25.7666 26.979 25.768C26.9131 25.7699 26.8473 25.7633 26.7832 25.7482C26.7164 25.7346 26.6551 25.7016 26.607 25.6534C26.5588 25.6052 26.5259 25.5439 26.5124 25.4771C26.4847 25.3394 26.4966 25.1968 26.5466 25.0656C26.5966 24.9344 26.6827 24.8201 26.795 24.7358C26.8436 24.7005 26.9002 24.6776 26.9598 24.6694C27.0194 24.6612 27.08 24.6679 27.1364 24.6887C27.1928 24.7096 27.2431 24.7441 27.283 24.7892C27.3228 24.8342 27.3509 24.8884 27.3647 24.9469C27.3716 24.9717 27.3729 24.9976 27.3685 25.0229C27.3644 25.0465 27.353 25.0681 27.3359 25.0848C27.3189 25.1016 27.297 25.1126 27.2734 25.1163C27.2506 25.1197 27.2274 25.1161 27.2068 25.1058C27.1862 25.0956 27.1692 25.0792 27.1581 25.0591C27.1482 25.0395 27.1403 25.0191 27.1345 24.9979C27.1298 24.9782 27.1204 24.9599 27.1071 24.9446C27.0937 24.9293 27.0769 24.9175 27.058 24.9101C27.039 24.9028 27.0186 24.9002 26.9985 24.9025C26.9783 24.9047 26.959 24.9119 26.9422 24.9233C26.9084 24.9417 26.8785 24.9666 26.8544 24.9966C26.7668 25.1017 26.7236 25.2368 26.7339 25.3733C26.7405 25.475 26.7773 25.5121 26.8776 25.5264C26.9376 25.533 26.9979 25.5347 27.0582 25.5316C27.1456 25.5291 27.2317 25.5257 27.321 25.5257C27.4437 25.525 27.5655 25.5458 27.681 25.5871C27.8747 25.6558 28.037 25.792 28.1383 25.9708Z" fill="#231F56"/>
<path d="M27.0908 20.6879C27.0737 20.6821 27.0554 20.6809 27.0377 20.6845C26.9442 20.6853 26.8517 20.6654 26.7669 20.6261C26.7072 20.6001 26.6544 20.5604 26.613 20.5101C26.5715 20.4598 26.5425 20.4005 26.5283 20.3369C26.4793 20.1576 26.4915 19.967 26.5631 19.7953C26.5944 19.7186 26.6463 19.6521 26.7131 19.6031C26.7799 19.5541 26.8589 19.5245 26.9415 19.5176C27.0171 19.5074 27.094 19.5172 27.1646 19.5462C27.2352 19.5751 27.2969 19.6221 27.3435 19.6825C27.3721 19.7163 27.3898 19.7579 27.3942 19.8019C27.399 19.8321 27.3921 19.8629 27.375 19.8882C27.358 19.9135 27.332 19.9315 27.3022 19.9384C27.2742 19.9441 27.245 19.9392 27.2204 19.9245C27.1958 19.9099 27.1776 19.8866 27.1693 19.8592C27.1528 19.8236 27.1257 19.794 27.0917 19.7744C27.0577 19.7548 27.0184 19.7462 26.9793 19.7498C26.9379 19.7513 26.8977 19.7642 26.8631 19.7871C26.8285 19.81 26.801 19.8421 26.7835 19.8797C26.724 20.0128 26.7161 20.1633 26.7613 20.3019C26.7702 20.33 26.7859 20.3555 26.8069 20.3763C26.8278 20.397 26.8536 20.4123 26.8818 20.421C26.9569 20.4511 27.0395 20.4573 27.1182 20.4387C27.1657 20.4261 27.2141 20.417 27.263 20.4116C27.2903 20.4084 27.3179 20.4092 27.3449 20.414C27.3674 20.4169 27.3887 20.4256 27.4068 20.4391C27.4249 20.4526 27.4393 20.4706 27.4485 20.4912C27.4578 20.5119 27.4616 20.5345 27.4595 20.5571C27.4575 20.5796 27.4497 20.6012 27.4369 20.6199C27.4238 20.6396 27.4093 20.6584 27.3935 20.6761C27.2955 20.7923 27.2233 20.9279 27.1817 21.074C27.1526 21.1807 27.1617 21.2942 27.2074 21.3948C27.2244 21.442 27.2573 21.4817 27.3005 21.507C27.3437 21.5324 27.3944 21.5418 27.4439 21.5337C27.4922 21.5288 27.5388 21.513 27.5801 21.4873C27.6214 21.4617 27.6562 21.427 27.682 21.3858C27.7257 21.3162 27.7637 21.2432 27.7956 21.1674C27.8046 21.1455 27.8154 21.1244 27.8279 21.1042C27.8416 21.0824 27.8623 21.0659 27.8867 21.0575C27.9111 21.049 27.9376 21.0491 27.9619 21.0577C27.987 21.0671 28.0081 21.0849 28.0216 21.108C28.035 21.1312 28.0401 21.1583 28.0358 21.1848C28.0344 21.1974 28.0314 21.2097 28.0268 21.2216C27.9846 21.3346 27.9287 21.442 27.8602 21.5413C27.8161 21.6034 27.7596 21.6555 27.6942 21.6943C27.6287 21.7331 27.5559 21.7578 27.4803 21.7667C27.3764 21.7833 27.2699 21.763 27.1793 21.7093C27.0887 21.6557 27.0196 21.5721 26.9842 21.4729C26.9204 21.3184 26.9127 21.1465 26.9623 20.9869C26.9884 20.9013 27.0233 20.8187 27.0665 20.7404C27.0797 20.7258 27.0882 20.7075 27.0908 20.6879Z" fill="#231F56"/>
<path d="M28.508 24.9352C28.5671 25.0167 28.596 25.1162 28.5897 25.2166C28.5833 25.3171 28.5422 25.4122 28.4733 25.4855C28.4086 25.5537 28.3231 25.5983 28.2302 25.6123C28.1577 25.6246 28.0833 25.6221 28.0117 25.605C27.9401 25.5878 27.8728 25.5563 27.8137 25.5124C27.7546 25.4685 27.7049 25.4131 27.6678 25.3496C27.6307 25.286 27.6068 25.2156 27.5977 25.1425C27.5914 25.0917 27.5944 25.0402 27.6063 24.9904C27.6171 24.947 27.656 24.9231 27.6758 24.8884C27.6956 24.8537 27.6959 24.8113 27.7254 24.7811C27.7455 24.7597 27.769 24.7417 27.7949 24.728C27.9002 24.6623 28.0266 24.6391 28.1484 24.6629C28.2703 24.6868 28.3785 24.7559 28.4514 24.8564C28.475 24.8859 28.4958 24.9182 28.508 24.9352ZM28.3181 25.0776C28.2992 25.045 28.2773 25.0143 28.2525 24.9859C28.2294 24.9581 28.2007 24.9353 28.1684 24.919C28.136 24.9028 28.1007 24.8934 28.0645 24.8915C28.0284 24.8896 27.9922 24.8952 27.9584 24.908C27.9245 24.9208 27.8936 24.9405 27.8678 24.9658C27.8598 24.9731 27.8487 24.979 27.8469 24.9904C27.8336 25.0397 27.8297 25.0911 27.8355 25.1418C27.8539 25.2219 27.9031 25.2915 27.9724 25.3355C28.0417 25.3796 28.1256 25.3945 28.2059 25.3772C28.2337 25.3714 28.2598 25.3594 28.2822 25.342C28.3046 25.3247 28.3228 25.3024 28.3354 25.277C28.3479 25.2516 28.3546 25.2237 28.3548 25.1953C28.355 25.167 28.3487 25.1389 28.3365 25.1134C28.3299 25.0981 28.3212 25.0838 28.3181 25.0776Z" fill="#231F56"/>
<path d="M29.8241 24.4905C29.8578 24.5446 29.8786 24.6056 29.8849 24.669C29.8913 24.7324 29.883 24.7964 29.8608 24.856C29.8386 24.9157 29.803 24.9695 29.7567 25.0133C29.7104 25.057 29.6547 25.0896 29.5939 25.1085C29.4951 25.1428 29.3884 25.1474 29.287 25.1217C29.1937 25.1002 29.1109 25.0466 29.053 24.9703C28.9826 24.8773 28.9318 24.771 28.9037 24.6578C28.8946 24.6366 28.8919 24.6132 28.8958 24.5905C28.8997 24.5677 28.9102 24.5466 28.9259 24.5297C28.9673 24.4902 28.9988 24.4416 29.0179 24.3877C29.0556 24.3174 29.1172 24.2628 29.1915 24.2339C29.2415 24.2113 29.2955 24.1987 29.3504 24.197C29.4053 24.1953 29.46 24.2044 29.5113 24.2239C29.641 24.2776 29.7505 24.3709 29.8241 24.4905ZM29.6214 24.6079C29.5743 24.5359 29.5075 24.479 29.429 24.444C29.4051 24.4347 29.3796 24.4304 29.354 24.4313C29.3283 24.4323 29.3032 24.4385 29.2801 24.4495C29.2628 24.4557 29.2477 24.4668 29.2367 24.4815C29.2257 24.4962 29.2193 24.5138 29.2183 24.5322C29.218 24.5514 29.213 24.5702 29.2038 24.5871C29.1946 24.604 29.1815 24.6184 29.1655 24.629C29.1619 24.631 29.1587 24.6337 29.1562 24.6369C29.1537 24.6402 29.1519 24.6439 29.1509 24.6479C29.1499 24.6518 29.1497 24.656 29.1504 24.66C29.151 24.6641 29.1525 24.6679 29.1547 24.6714C29.175 24.724 29.2017 24.7739 29.2342 24.82C29.2652 24.8613 29.311 24.889 29.362 24.8971C29.4159 24.9074 29.4716 24.9027 29.5231 24.8835C29.5499 24.8747 29.5743 24.8598 29.5944 24.8401C29.6146 24.8204 29.63 24.7964 29.6394 24.7698C29.6489 24.7433 29.6521 24.7149 29.6489 24.6869C29.6457 24.6589 29.6362 24.632 29.621 24.6082L29.6214 24.6079Z" fill="#231F56"/>
<path d="M27.1207 23.788C27.0238 23.412 26.9589 23.0401 26.8828 22.67C26.8762 22.6434 26.8717 22.6162 26.8696 22.5888C26.8656 22.5665 26.8703 22.5436 26.8826 22.5246C26.8949 22.5057 26.914 22.4921 26.9359 22.4867C26.9582 22.4822 26.9814 22.486 27.0009 22.4976C27.0205 22.5091 27.0351 22.5275 27.0418 22.5492C27.0575 22.5911 27.0691 22.6343 27.0766 22.6784C27.1363 22.9853 27.1894 23.2936 27.2637 23.5974C27.2908 23.7078 27.3158 23.8182 27.3415 23.9286C27.3504 23.9655 27.3529 24.0037 27.3488 24.0414C27.3481 24.064 27.3412 24.086 27.3288 24.1048C27.3164 24.1237 27.299 24.1387 27.2785 24.1483C27.258 24.1578 27.2353 24.1614 27.2129 24.1587C27.1904 24.156 27.1692 24.1472 27.1516 24.1331C27.1116 24.1054 27.0764 24.0714 27.0474 24.0324C26.9262 23.8788 26.8167 23.7163 26.7197 23.5463C26.6982 23.5068 26.6697 23.4715 26.6356 23.4422C26.6724 23.6095 26.7099 23.7765 26.7453 23.9446C26.7596 24.0119 26.77 24.0796 26.7801 24.1473C26.7835 24.1711 26.7847 24.1952 26.7835 24.2192C26.7859 24.2452 26.7797 24.2713 26.766 24.2935C26.7523 24.3157 26.7318 24.3329 26.7075 24.3424C26.6844 24.3505 26.6594 24.3509 26.636 24.3437C26.6127 24.3365 26.5922 24.3221 26.5776 24.3025C26.5432 24.2642 26.5112 24.2237 26.4818 24.1813C26.3115 23.9273 26.1555 23.664 26.0145 23.3925C25.9489 23.2717 25.885 23.1495 25.8204 23.0287C25.8092 23.0116 25.7997 22.9933 25.7923 22.9742C25.7855 22.9562 25.7851 22.9364 25.7911 22.9182C25.7971 22.8999 25.8091 22.8843 25.8253 22.8738C25.8421 22.8614 25.8627 22.8553 25.8836 22.8566C25.9044 22.8579 25.9241 22.8666 25.9392 22.8811C25.9681 22.9112 25.9909 22.9466 26.0065 22.9853C26.1572 23.271 26.3072 23.5575 26.4749 23.8335C26.4932 23.8701 26.5191 23.9024 26.5509 23.9283C26.519 23.7814 26.4888 23.6505 26.4624 23.5203C26.4253 23.3386 26.3901 23.1565 26.3565 22.9738C26.3493 22.9333 26.3467 22.8921 26.3485 22.8509C26.3479 22.8301 26.3544 22.8098 26.3671 22.7933C26.3797 22.7767 26.3977 22.7651 26.4179 22.7603C26.4382 22.755 26.4596 22.7564 26.4791 22.7642C26.4985 22.772 26.5149 22.7859 26.5259 22.8037C26.5407 22.8269 26.5535 22.8513 26.5641 22.8766C26.7095 23.1767 26.8749 23.4667 27.0592 23.7446C27.0654 23.7561 27.0742 23.766 27.0848 23.7735C27.0955 23.781 27.1078 23.786 27.1207 23.788Z" fill="#67BFA8"/>
<path d="M27.5209 23.2391C27.4654 23.0693 27.4095 22.8995 27.3546 22.7294C27.3411 22.6871 27.3296 22.6436 27.3199 22.6003C27.2911 22.4728 27.3199 22.4086 27.4393 22.3645C27.5827 22.3167 27.7288 22.2772 27.8768 22.2465C27.8933 22.2414 27.9108 22.2404 27.9278 22.2434C27.9449 22.2464 27.9609 22.2534 27.9747 22.2638C27.9875 22.2727 27.9976 22.285 28.0037 22.2993C28.0099 22.3136 28.0118 22.3293 28.0094 22.3447C28.0071 22.3637 27.9987 22.3814 27.9856 22.3954C27.9725 22.4093 27.9553 22.4187 27.9365 22.4221L27.6167 22.502C27.6001 22.5062 27.582 22.5086 27.5664 22.5138C27.4991 22.535 27.4925 22.5419 27.5122 22.6089C27.547 22.7211 27.5841 22.8315 27.6181 22.9433C27.6327 22.9905 27.6581 22.9915 27.6949 22.97C27.7598 22.9315 27.8258 22.8943 27.891 22.8565C27.9257 22.834 27.9636 22.817 28.0035 22.8061C28.0206 22.7986 28.0398 22.7975 28.0576 22.8029C28.0755 22.8083 28.0908 22.82 28.1008 22.8357C28.1108 22.8514 28.1149 22.8702 28.1122 22.8887C28.1096 22.9071 28.1005 22.924 28.0865 22.9363C28.0661 22.9642 28.0395 22.9869 28.0087 23.0026C27.9247 23.0499 27.8431 23.1002 27.7577 23.145C27.714 23.1679 27.6952 23.1922 27.7147 23.2422C27.7594 23.3575 27.7994 23.4748 27.8442 23.5894C27.8681 23.6508 27.8712 23.6501 27.933 23.6175C28.0216 23.5716 28.1128 23.5312 28.2063 23.4963C28.244 23.479 28.2861 23.4733 28.3271 23.48C28.3462 23.482 28.364 23.4902 28.3779 23.5034C28.3918 23.5166 28.4009 23.534 28.4038 23.5529C28.4065 23.572 28.4024 23.5913 28.3923 23.6076C28.3823 23.624 28.3668 23.6363 28.3486 23.6425C28.3264 23.6519 28.3035 23.6588 28.2792 23.6672C28.1755 23.7039 28.0751 23.7494 27.9792 23.8033C27.9525 23.819 27.9245 23.8323 27.8955 23.8432C27.8801 23.8516 27.8631 23.8566 27.8456 23.8578C27.8282 23.8591 27.8106 23.8566 27.7942 23.8505C27.7777 23.8444 27.7628 23.8349 27.7503 23.8225C27.7379 23.8102 27.7282 23.7953 27.7219 23.779C27.6938 23.7241 27.6733 23.6654 27.6504 23.6078C27.6018 23.4866 27.5536 23.3648 27.5056 23.2439L27.5209 23.2391Z" fill="#67BFA8"/>
<path d="M29.2755 22.459C29.198 22.2206 29.1207 21.9822 29.0436 21.7438C29.0298 21.7122 29.0234 21.6779 29.0249 21.6435C29.0249 21.6226 29.0324 21.6023 29.046 21.5865C29.0596 21.5706 29.0785 21.5602 29.0991 21.557C29.118 21.5536 29.1374 21.5567 29.1543 21.5657C29.1712 21.5747 29.1845 21.5891 29.1922 21.6067C29.1996 21.6222 29.2057 21.6383 29.2102 21.6549C29.3307 22.0715 29.488 22.4743 29.6175 22.8871C29.656 23.0093 29.6585 23.0083 29.773 22.9513C29.8498 22.9131 29.9262 22.8742 30.0036 22.8368C30.04 22.8166 30.0821 22.8088 30.1234 22.8145C30.1382 22.815 30.1526 22.8199 30.1646 22.8286C30.1767 22.8372 30.1859 22.8493 30.1911 22.8632C30.1963 22.8771 30.1973 22.8922 30.1939 22.9067C30.1905 22.9211 30.1828 22.9343 30.172 22.9444C30.1543 22.9656 30.1318 22.9822 30.1063 22.993C29.98 23.0475 29.8609 23.1152 29.7394 23.1791C29.6179 23.243 29.5415 23.2166 29.4929 23.0812C29.4189 22.8729 29.3505 22.6645 29.2797 22.4562L29.2755 22.459Z" fill="#67BFA8"/>
<path d="M29.051 23.4266C28.9997 23.446 28.9474 23.4628 28.8944 23.4769C28.7656 23.5057 28.709 23.4707 28.6739 23.3436C28.633 23.1946 28.5955 23.0447 28.5538 22.8961C28.4812 22.6381 28.407 22.3808 28.333 22.1236C28.3225 22.0945 28.3169 22.0639 28.3167 22.0329C28.3161 22.0138 28.3222 21.9951 28.3339 21.98C28.3456 21.9648 28.3623 21.9542 28.3809 21.95C28.3992 21.9438 28.419 21.9445 28.4368 21.9518C28.4546 21.9592 28.4692 21.9727 28.4778 21.9899C28.4942 22.0232 28.5072 22.0581 28.5167 22.0941C28.6253 22.4593 28.7312 22.8252 28.8257 23.1946C28.8298 23.211 28.8354 23.2276 28.8389 23.2443C28.8475 23.2832 28.8684 23.295 28.9062 23.279C28.9869 23.2496 29.0656 23.2148 29.1416 23.1748C29.1757 23.1515 29.2149 23.1366 29.2558 23.1311C29.2703 23.1281 29.2854 23.1295 29.2991 23.1351C29.3128 23.1407 29.3246 23.1502 29.3329 23.1625C29.3412 23.1747 29.3457 23.1892 29.3459 23.204C29.346 23.2188 29.3417 23.2333 29.3336 23.2457C29.316 23.2794 29.2882 23.3068 29.2541 23.3238C29.1887 23.3625 29.1209 23.3968 29.051 23.4266Z" fill="#67BFA8"/>
<path d="M23.9889 35.6413C23.9126 35.6443 23.8377 35.6198 23.7779 35.5722C23.7181 35.5247 23.6773 35.4573 23.6629 35.3823C23.6254 35.2818 23.5718 35.188 23.5043 35.1046C23.1345 34.5973 22.9418 33.9824 22.9561 33.3548C22.9548 33.0533 23.0541 32.7601 23.2383 32.5215C23.2953 32.4375 23.3694 32.3666 23.4558 32.3134C23.5423 32.2603 23.639 32.2261 23.7397 32.2132C23.8419 32.2102 23.9436 32.229 24.0381 32.2682C24.1326 32.3074 24.2177 32.3661 24.2879 32.4406C24.4808 32.6199 24.6072 32.8593 24.6465 33.1197C24.6583 33.1891 24.6677 33.2586 24.6764 33.328C24.7431 33.2075 24.8264 33.0969 24.9239 32.9996C25.0665 32.861 25.2474 32.7686 25.4432 32.7343C25.639 32.7 25.8406 32.7254 26.0217 32.8072C26.1365 32.8557 26.2361 32.934 26.3103 33.034C26.3845 33.134 26.4305 33.2521 26.4436 33.3759C26.4808 33.6122 26.4584 33.8541 26.3783 34.0796C26.2983 34.305 26.1632 34.5068 25.9853 34.6668C25.9371 34.7124 25.8853 34.7539 25.8304 34.7911C25.3253 35.1338 24.7765 35.4073 24.1986 35.6042C24.1503 35.6208 24.1004 35.6324 24.0497 35.6389C24.0295 35.6409 24.0092 35.6417 23.9889 35.6413ZM23.7831 32.475H23.7601C23.6962 32.486 23.6352 32.5103 23.581 32.5461C23.5269 32.582 23.4808 32.6287 23.4456 32.6833C23.2974 32.8767 23.2179 33.1139 23.2196 33.3575C23.2068 33.9285 23.3821 34.4878 23.7185 34.9494C23.8036 35.0566 23.8702 35.1774 23.9153 35.3066C23.9358 35.3761 23.9473 35.383 24.0195 35.3761C24.0526 35.3719 24.0851 35.3645 24.1167 35.3539C24.6728 35.1642 25.201 34.9008 25.687 34.5706C25.7297 34.5414 25.77 34.5087 25.8075 34.473C25.9548 34.3415 26.0664 34.1748 26.1319 33.9885C26.1973 33.8022 26.2145 33.6023 26.1818 33.4075C26.1739 33.3283 26.1444 33.2528 26.0964 33.1893C26.0485 33.1258 25.9839 33.0767 25.9099 33.0475C25.778 32.9883 25.6314 32.9701 25.489 32.9952C25.3466 33.0204 25.2151 33.0877 25.1114 33.1884C25.0308 33.2692 24.9619 33.361 24.9069 33.461C24.8663 33.5342 24.826 33.6092 24.7833 33.6891L24.7201 33.8068C24.7072 33.8309 24.687 33.8505 24.6625 33.8626C24.6379 33.8748 24.6102 33.879 24.5831 33.8747C24.556 33.8704 24.531 33.8578 24.5114 33.8386C24.4919 33.8194 24.4788 33.7945 24.474 33.7676C24.4705 33.7474 24.467 33.7297 24.4639 33.7134C24.4577 33.6804 24.4521 33.6519 24.4479 33.6221C24.4406 33.5679 24.4344 33.5138 24.4278 33.4596C24.416 33.3617 24.4038 33.2603 24.3875 33.1628C24.3574 32.96 24.2595 32.7735 24.1098 32.6336C24.0246 32.5416 23.908 32.485 23.7831 32.475Z" fill="#67BFA8"/>
<path d="M22.2592 27.4428C22.2141 27.4426 22.1696 27.4327 22.1286 27.4139C22.0876 27.3951 22.0511 27.3677 22.0215 27.3337C21.992 27.2996 21.97 27.2597 21.9571 27.2165C21.9442 27.1733 21.9406 27.1278 21.9467 27.0831L22.0262 26.5082C22.0278 26.4974 22.0262 26.4864 22.0217 26.4766C22.0171 26.4667 22.0098 26.4584 22.0005 26.4526L21.5766 26.186C21.5219 26.1517 21.4789 26.1014 21.4537 26.042C21.4284 25.9825 21.4219 25.9168 21.4352 25.8535C21.4485 25.7903 21.4809 25.7327 21.528 25.6885C21.575 25.6442 21.6346 25.6155 21.6985 25.6062L22.2314 25.528C22.2405 25.5267 22.249 25.5232 22.2564 25.5178C22.2638 25.5124 22.2697 25.5053 22.2738 25.4971L22.6428 24.7538C22.6686 24.702 22.7082 24.6582 22.7572 24.6273C22.8062 24.5964 22.8627 24.5796 22.9206 24.5787C22.9785 24.5777 23.0356 24.5927 23.0855 24.622C23.1355 24.6513 23.1764 24.6938 23.2039 24.7448L23.5511 25.3909C23.5564 25.401 23.5647 25.4092 23.5748 25.4145C23.5849 25.4197 23.5964 25.4218 23.6077 25.4204L24.0118 25.3704C24.0695 25.3634 24.1281 25.3725 24.181 25.3966C24.2339 25.4207 24.2791 25.459 24.3116 25.5071C24.3442 25.5553 24.3628 25.6115 24.3655 25.6696C24.3682 25.7277 24.3547 25.7854 24.3267 25.8364L23.984 26.4571C23.98 26.4644 23.9776 26.4726 23.9772 26.4809C23.9767 26.4893 23.9781 26.4976 23.9813 26.5054L24.1201 26.8526C24.1436 26.9114 24.1489 26.976 24.1352 27.0379C24.1215 27.0998 24.0895 27.1561 24.0434 27.1996C23.9972 27.2431 23.9391 27.2717 23.8765 27.2817C23.8139 27.2917 23.7498 27.2826 23.6924 27.2557L23.1129 26.9821C23.1043 26.978 23.0948 26.9762 23.0852 26.9768C23.0757 26.9774 23.0665 26.9804 23.0584 26.9855L22.4293 27.39C22.3789 27.4236 22.3198 27.4419 22.2592 27.4428ZM22.9258 24.8389C22.9154 24.8387 22.9052 24.8416 22.8963 24.8471C22.8875 24.8527 22.8805 24.8607 22.8761 24.8701L22.5071 25.6131C22.4846 25.6591 22.4514 25.6989 22.4101 25.7291C22.3689 25.7594 22.3209 25.7791 22.2703 25.7867L21.7374 25.8648C21.7258 25.8662 21.715 25.8712 21.7065 25.8792C21.6981 25.8872 21.6925 25.8978 21.6905 25.9093C21.6876 25.9205 21.6885 25.9324 21.693 25.9432C21.6975 25.9539 21.7054 25.9628 21.7155 25.9686L22.1394 26.2353C22.1908 26.2677 22.2318 26.3142 22.2575 26.3693C22.2832 26.4244 22.2924 26.4858 22.2842 26.546L22.2043 27.1213C22.2029 27.132 22.2046 27.1428 22.2091 27.1526C22.2137 27.1624 22.2209 27.1706 22.23 27.1764C22.2391 27.1822 22.2496 27.1853 22.2604 27.1853C22.2712 27.1853 22.2817 27.1823 22.2908 27.1765L22.9199 26.772C22.9649 26.7429 23.0166 26.7257 23.07 26.7222C23.1235 26.7187 23.177 26.7289 23.2254 26.7519L23.8049 27.0255C23.8151 27.0304 23.8267 27.0321 23.8379 27.0304C23.8492 27.0286 23.8597 27.0235 23.8679 27.0157C23.8762 27.0078 23.8819 26.9977 23.8843 26.9865C23.8867 26.9754 23.8856 26.9638 23.8813 26.9533L23.7424 26.6061C23.7249 26.5627 23.7172 26.5159 23.7201 26.4692C23.7229 26.4224 23.7361 26.3769 23.7587 26.336L24.1014 25.7152C24.1067 25.7062 24.1092 25.6959 24.1088 25.6855C24.1084 25.6751 24.1049 25.665 24.0989 25.6565C24.0933 25.6477 24.0852 25.6407 24.0756 25.6363C24.0661 25.6319 24.0555 25.6304 24.0451 25.6319L23.641 25.6818C23.5778 25.6901 23.5136 25.6788 23.457 25.6495C23.4004 25.6202 23.3541 25.5743 23.3244 25.518L22.9772 24.8719C22.9731 24.8617 22.966 24.853 22.9568 24.847C22.9476 24.841 22.9368 24.8379 22.9258 24.8382V24.8389Z" fill="#FCE469"/>
<path d="M12.6724 35.4315C12.6723 35.4234 12.6742 35.4155 12.6778 35.4083C12.6814 35.4011 12.6867 35.3949 12.6932 35.3901L13.0786 35.1124C13.125 35.0793 13.1601 35.0328 13.1792 34.9791C13.1983 34.9254 13.2003 34.8672 13.1852 34.8123C13.17 34.7573 13.1383 34.7084 13.0944 34.6721C13.0505 34.6358 12.9965 34.6139 12.9397 34.6093L12.5002 34.5722C12.4905 34.5712 12.4812 34.5674 12.4736 34.5612C12.466 34.555 12.4604 34.5468 12.4575 34.5374L12.2877 34.0556C12.2702 34.0052 12.2385 33.961 12.1966 33.9281C12.1546 33.8953 12.104 33.8752 12.051 33.8703C11.9979 33.8654 11.9445 33.8759 11.8972 33.9005C11.85 33.9251 11.8107 33.9628 11.7843 34.009L11.4555 34.5802C11.4514 34.5874 11.4454 34.5935 11.4382 34.5978C11.4311 34.6021 11.4229 34.6045 11.4145 34.6048L10.8504 34.6249C10.8092 34.6264 10.7689 34.6369 10.7323 34.6558C10.6958 34.6747 10.6639 34.7015 10.6389 34.7343C10.6965 34.7855 10.7553 34.8345 10.8153 34.8815C10.8188 34.873 10.8248 34.8658 10.8325 34.8607C10.8401 34.8556 10.8491 34.853 10.8583 34.853L11.4225 34.8329C11.4696 34.8312 11.5155 34.8176 11.5559 34.7933C11.5963 34.769 11.6299 34.7349 11.6534 34.694L11.9825 34.1233C11.9873 34.115 11.9943 34.1083 12.0027 34.1039C12.0112 34.0995 12.0207 34.0977 12.0302 34.0985C12.0396 34.0994 12.0487 34.103 12.0562 34.1089C12.0637 34.1147 12.0693 34.1226 12.0725 34.1316L12.2426 34.6142C12.2604 34.6647 12.2924 34.7089 12.3348 34.7416C12.3772 34.7743 12.4281 34.7941 12.4814 34.7985L12.921 34.8357C12.9311 34.8365 12.9407 34.8405 12.9486 34.847C12.9564 34.8535 12.962 34.8622 12.9647 34.872C12.9674 34.8818 12.967 34.8922 12.9636 34.9018C12.9602 34.9114 12.9539 34.9197 12.9456 34.9256L12.5599 35.2034L12.5502 35.2106C12.5166 35.2371 12.4895 35.271 12.4711 35.3097C12.4528 35.3483 12.4436 35.3907 12.4443 35.4335L12.4481 35.6849C12.5236 35.706 12.6001 35.7256 12.6776 35.7439L12.6724 35.4315Z" fill="#231F56"/>
<path d="M19.4363 33.5441C19.432 33.5478 19.4286 33.5525 19.4263 33.5577C19.424 33.5629 19.4228 33.5685 19.4228 33.5743C19.3934 33.7248 19.3833 33.8784 19.3929 34.0315C19.3968 34.0583 19.3963 34.0855 19.3912 34.1121C19.3861 34.1379 19.3727 34.1614 19.353 34.1789C19.3334 34.1964 19.3085 34.2071 19.2823 34.2093C19.256 34.2114 19.2298 34.205 19.2075 34.1909C19.1853 34.1768 19.1682 34.1558 19.1589 34.1311C19.149 34.104 19.1435 34.0754 19.1426 34.0464C19.1324 33.8881 19.1413 33.7291 19.169 33.5729C19.1749 33.5382 19.1811 33.5034 19.1874 33.4663C19.1954 33.4198 19.1957 33.4194 19.1562 33.3996C19.0242 33.333 18.8899 33.2715 18.7548 33.2111C18.5361 33.1132 18.3104 33.0316 18.0886 32.9413C18.058 32.9305 18.029 32.9155 18.0024 32.8969C17.9757 32.8794 17.9566 32.8524 17.9487 32.8215C17.9409 32.7905 17.9449 32.7577 17.9601 32.7296C17.9762 32.702 18.0024 32.6817 18.0332 32.6731C18.0639 32.6644 18.0968 32.668 18.125 32.683C18.4868 32.8313 18.8541 32.9702 19.2068 33.1365C19.218 33.1417 19.2298 33.1455 19.2416 33.15C19.2586 33.1385 19.2565 33.1205 19.2596 33.1059C19.3013 32.9087 19.3468 32.7118 19.4016 32.5178C19.4138 32.4737 19.4138 32.473 19.3718 32.4525L18.8701 32.2112C18.7333 32.1459 18.6003 32.0723 18.468 32.0005C18.4406 31.9867 18.4158 31.9683 18.3948 31.9459C18.3751 31.9244 18.3635 31.8968 18.3618 31.8678C18.3601 31.8387 18.3684 31.8099 18.3854 31.7862C18.403 31.763 18.4285 31.7469 18.4571 31.7409C18.4857 31.7349 18.5154 31.7394 18.5409 31.7536C18.5635 31.7647 18.5847 31.779 18.6066 31.7915C18.8822 31.9449 19.168 32.0789 19.4551 32.2081C19.4964 32.2268 19.4967 32.2261 19.5283 32.1879L19.5318 32.1838C19.5487 32.159 19.5732 32.1403 19.6017 32.1306C19.6301 32.1209 19.6609 32.1207 19.6894 32.13C19.7154 32.1446 19.7361 32.167 19.7485 32.1941C19.761 32.2211 19.7646 32.2514 19.7589 32.2806C19.7537 32.3452 19.7533 32.3459 19.8144 32.3733C20.1814 32.5369 20.5473 32.7028 20.9192 32.8552C21.006 32.89 21.0928 32.9247 21.183 32.9518C21.2177 32.9617 21.2497 32.9793 21.2768 33.0031C21.2922 33.0159 21.3043 33.0321 21.3122 33.0505C21.3201 33.0688 21.3235 33.0888 21.3221 33.1088C21.3208 33.1287 21.3147 33.148 21.3044 33.1652C21.2941 33.1823 21.2799 33.1967 21.2629 33.2073C21.2402 33.2222 21.2147 33.2324 21.188 33.2372C21.1612 33.242 21.1338 33.2412 21.1073 33.2351C21.0477 33.223 20.9895 33.2046 20.9338 33.1802C20.6504 33.0674 20.3783 32.934 20.1005 32.8032C19.9703 32.741 19.8408 32.6778 19.711 32.615L19.6967 32.608C19.6735 32.5941 19.662 32.6018 19.6537 32.6268C19.6394 32.6771 19.6242 32.7271 19.6099 32.7775C19.5683 32.9229 19.5304 33.0694 19.4954 33.2167C19.4839 33.2635 19.4839 33.2642 19.5301 33.2861C19.8745 33.4467 20.2191 33.6072 20.564 33.7676C20.6195 33.7933 20.6768 33.8152 20.7324 33.8406C20.7692 33.8561 20.8019 33.8799 20.8282 33.91C20.8411 33.9229 20.8506 33.9387 20.856 33.9561C20.8613 33.9735 20.8623 33.9919 20.8589 34.0098C20.8555 34.0277 20.8477 34.0445 20.8363 34.0587C20.8249 34.0728 20.8102 34.084 20.7935 34.0912C20.7531 34.112 20.7072 34.1198 20.6623 34.1134C20.6087 34.1059 20.5565 34.0906 20.5074 34.068C20.3977 34.0218 20.2911 33.9694 20.1845 33.9159L19.4901 33.5687C19.4738 33.5574 19.4556 33.5491 19.4363 33.5441Z" fill="#231F56"/>
<path d="M20.6706 31.0159C20.3967 30.8778 20.1466 30.6967 19.93 30.4795C19.8192 30.3657 19.7237 30.238 19.6457 30.0997C19.5959 30.014 19.5627 29.9198 19.5478 29.8219C19.5316 29.7505 19.5417 29.6757 19.5763 29.6111C19.6109 29.5466 19.6676 29.4967 19.736 29.4706C19.8016 29.4401 19.8725 29.4229 19.9448 29.4199C20.0171 29.4169 20.0892 29.4282 20.1571 29.4532C20.2233 29.4715 20.285 29.5033 20.3383 29.5466C20.3581 29.5623 20.3754 29.5809 20.3897 29.6018C20.4052 29.6238 20.4129 29.6503 20.4116 29.6771C20.4103 29.704 20.4001 29.7297 20.3827 29.7501C20.3652 29.7705 20.3415 29.7846 20.3152 29.79C20.2888 29.7955 20.2615 29.7921 20.2373 29.7802C20.2211 29.7726 20.206 29.7628 20.1925 29.7511C20.125 29.6988 20.0419 29.6707 19.9564 29.6712C19.9128 29.6703 19.8699 29.6817 19.8325 29.7042C19.8195 29.7101 19.8088 29.72 19.802 29.7326C19.7952 29.7451 19.7928 29.7596 19.795 29.7737C19.8015 29.8274 19.8169 29.8798 19.8405 29.9285C19.8759 30.0019 19.9185 30.0717 19.9675 30.1368C20.1091 30.3241 20.2825 30.4851 20.4797 30.6125C20.6928 30.758 20.9247 30.8737 21.1692 30.9565C21.2764 30.9935 21.388 31.0169 21.5011 31.026C21.5477 31.0311 21.5948 31.0272 21.64 31.0145C21.6719 31.0041 21.6747 30.9926 21.6611 30.9621C21.6435 30.9306 21.6199 30.9029 21.5917 30.8805C21.5089 30.811 21.4214 30.7472 21.3299 30.6895C21.2021 30.6055 21.0713 30.526 20.9386 30.4489C20.9279 30.4427 20.9164 30.4368 20.9056 30.4305C20.8876 30.4191 20.8748 30.4232 20.8709 30.4444C20.8671 30.4656 20.8616 30.4902 20.8574 30.5139C20.855 30.5281 20.855 30.5427 20.8529 30.5569C20.8504 30.5858 20.8378 30.613 20.8172 30.6335C20.7966 30.6539 20.7693 30.6664 20.7404 30.6687C20.7103 30.6702 20.6808 30.6609 20.657 30.6425C20.6332 30.6241 20.6167 30.5978 20.6105 30.5684C20.6028 30.5294 20.6035 30.4893 20.6126 30.4507C20.6297 30.3659 20.654 30.2827 20.6852 30.2021C20.7279 30.0777 20.7783 29.956 20.8362 29.8379C20.8619 29.7823 20.8943 29.73 20.9327 29.6823C20.9608 29.646 21.0012 29.6213 21.0463 29.6129C21.0662 29.6079 21.0871 29.6086 21.1066 29.6149C21.1261 29.6212 21.1435 29.6328 21.1568 29.6484C21.1701 29.664 21.1788 29.6831 21.1818 29.7034C21.1848 29.7237 21.1821 29.7444 21.174 29.7632C21.1651 29.7888 21.1523 29.813 21.1362 29.8348C21.073 29.9291 21.0208 30.0303 20.9806 30.1365C20.9661 30.1712 20.9664 30.1712 20.9997 30.191C21.1812 30.2951 21.3585 30.4056 21.5316 30.5225C21.618 30.5781 21.7 30.6403 21.7767 30.7086C21.827 30.7528 21.8676 30.8068 21.8962 30.8673C21.9146 30.9027 21.9249 30.9417 21.9263 30.9816C21.9277 31.0214 21.9202 31.0611 21.9043 31.0977C21.8885 31.1343 21.8646 31.1669 21.8346 31.1931C21.8045 31.2193 21.769 31.2385 21.7306 31.2492C21.6514 31.2747 21.5679 31.2837 21.4851 31.2756C21.3251 31.262 21.1679 31.2256 21.0181 31.1676C20.8991 31.1247 20.783 31.074 20.6706 31.0159Z" fill="#231F56"/>
<path d="M19.6102 31.9265C19.473 31.8571 19.3432 31.7772 19.2123 31.6977C19.18 31.6783 19.147 31.6595 19.1147 31.6404C19.0977 31.6318 19.0826 31.6196 19.0706 31.6047C19.0587 31.5898 19.05 31.5725 19.0453 31.554C19.0409 31.535 19.0412 31.5153 19.0461 31.4965C19.0511 31.4777 19.0604 31.4603 19.0735 31.4459C19.0866 31.4315 19.1029 31.4204 19.1211 31.4137C19.1394 31.4069 19.159 31.4047 19.1783 31.4071C19.2157 31.4126 19.2514 31.4267 19.2824 31.4484C19.3984 31.5179 19.5137 31.5873 19.6296 31.6568C19.831 31.7768 20.0491 31.8664 20.2768 31.9224C20.359 31.9435 20.4441 31.9517 20.5288 31.9467C20.5576 31.9449 20.586 31.9397 20.6135 31.931C20.6361 31.9237 20.641 31.9109 20.6299 31.8904C20.6112 31.8574 20.5878 31.8272 20.5604 31.8008C20.4913 31.7323 20.4165 31.6697 20.3368 31.6137C20.07 31.4202 19.7958 31.2377 19.5143 31.0662C19.491 31.0528 19.4688 31.0375 19.448 31.0204C19.4252 31.0023 19.4093 30.977 19.4029 30.9486C19.3966 30.9202 19.4003 30.8905 19.4133 30.8645C19.4284 30.8385 19.4525 30.819 19.481 30.8095C19.5095 30.8 19.5405 30.8013 19.5682 30.8131C19.5869 30.8194 19.6048 30.8278 19.6216 30.8381C19.9341 31.0277 20.2389 31.2294 20.533 31.4471C20.6072 31.5011 20.6769 31.5611 20.7413 31.6266C20.7836 31.6684 20.8199 31.7158 20.8493 31.7675C20.8736 31.8028 20.8888 31.8435 20.8936 31.886C20.8984 31.9286 20.8927 31.9717 20.8769 32.0115C20.8611 32.0513 20.8358 32.0866 20.8031 32.1143C20.7704 32.142 20.7314 32.1612 20.6896 32.1702C20.6169 32.1923 20.5411 32.2019 20.4653 32.1987C20.3212 32.1922 20.1788 32.1646 20.0428 32.1168C19.9552 32.0886 19.8695 32.0554 19.7858 32.0171C19.7289 31.9897 19.6706 31.9571 19.6102 31.9265Z" fill="#231F56"/>
<path d="M17.2371 35.0086C17.1375 34.9589 17.0371 34.911 16.9389 34.8596C16.8667 34.8218 16.7747 34.7839 16.824 34.6801C16.8733 34.5763 16.9708 34.5999 17.0545 34.6402C17.1746 34.6982 17.292 34.7614 17.41 34.8242C17.5142 34.8798 17.6208 34.9339 17.7225 34.9947C17.7829 35.0294 17.8287 35.0846 17.7937 35.1606C17.7864 35.178 17.7753 35.1935 17.7613 35.2061C17.7473 35.2187 17.7306 35.2281 17.7126 35.2335C17.6945 35.2389 17.6755 35.2402 17.6569 35.2374C17.6382 35.2346 17.6205 35.2277 17.6048 35.2172C17.4767 35.1592 17.352 35.0929 17.226 35.0301L17.2371 35.0086Z" fill="#67BFA8"/>
<path d="M16.4486 35.9569C16.3972 36.0555 16.3 36.0611 16.2486 35.9798C16.2287 35.9485 16.2168 35.9127 16.2139 35.8757C16.2025 35.6614 16.1945 35.4476 16.1865 35.2334C16.1837 35.1591 16.209 35.0962 16.2906 35.0875C16.3093 35.0845 16.3284 35.0858 16.3465 35.0911C16.3645 35.0965 16.3812 35.1058 16.3952 35.1185C16.4092 35.1312 16.4202 35.1468 16.4273 35.1643C16.4345 35.1818 16.4376 35.2006 16.4365 35.2195C16.4503 35.4406 16.4566 35.6621 16.4635 35.8836C16.4619 35.9086 16.4568 35.9333 16.4486 35.9569Z" fill="#67BFA8"/>
<path d="M15.5664 33.9692C15.497 33.9265 15.3866 33.8633 15.2821 33.7925C15.2248 33.7536 15.1779 33.696 15.2189 33.6231C15.2282 33.6066 15.2409 33.5924 15.2563 33.5814C15.2716 33.5703 15.2891 33.5627 15.3077 33.5591C15.3262 33.5555 15.3453 33.5559 15.3636 33.5603C15.382 33.5648 15.3992 33.5732 15.414 33.5849C15.6154 33.6974 15.8153 33.8133 16.0139 33.9303C16.0276 33.9374 16.0398 33.9471 16.0497 33.9589C16.0596 33.9706 16.0671 33.9842 16.0718 33.9989C16.0765 34.0136 16.0782 34.029 16.0769 34.0443C16.0757 34.0597 16.0713 34.0746 16.0643 34.0883C16.0572 34.102 16.0475 34.1141 16.0358 34.1241C16.024 34.134 16.0104 34.1415 15.9957 34.1462C15.981 34.1509 15.9656 34.1526 15.9503 34.1513C15.9349 34.15 15.92 34.1457 15.9063 34.1386C15.8046 34.0914 15.706 34.0387 15.5664 33.9692Z" fill="#67BFA8"/>
<path d="M16.4862 33.1236C16.5324 33.0403 16.5786 32.9907 16.6571 33.015C16.6861 33.0238 16.7107 33.0436 16.7254 33.0701C16.7401 33.0967 16.7439 33.128 16.7359 33.1573C16.7147 33.3418 16.6799 33.5245 16.6317 33.7038C16.6105 33.7684 16.5765 33.8368 16.4928 33.8211C16.4033 33.8045 16.3803 33.7312 16.3932 33.6496C16.4234 33.4667 16.4567 33.2844 16.4862 33.1236Z" fill="#67BFA8"/>
<path d="M17.0073 34.1574C16.9576 34.1227 16.9281 34.081 16.9556 34.0245C16.9695 33.9904 16.9924 33.9608 17.0219 33.9387C17.1538 33.8568 17.2885 33.7793 17.4243 33.7036C17.4365 33.695 17.4502 33.689 17.4648 33.6857C17.4794 33.6825 17.4945 33.6822 17.5091 33.6849C17.5238 33.6876 17.5378 33.6932 17.5503 33.7014C17.5628 33.7095 17.5735 33.7201 17.5819 33.7325C17.5997 33.7522 17.6095 33.7778 17.6095 33.8043C17.6095 33.8309 17.5997 33.8565 17.5819 33.8762C17.4412 34.0181 17.2639 34.1183 17.0698 34.1658C17.0486 34.1672 17.0274 34.1644 17.0073 34.1574Z" fill="#67BFA8"/>
<path d="M15.645 34.7922C15.5402 34.9043 15.4185 34.9993 15.2843 35.0737C15.2585 35.0897 15.2275 35.095 15.1979 35.0885C15.1683 35.082 15.1424 35.0643 15.1256 35.039C15.1162 35.0273 15.1093 35.0137 15.1053 34.9991C15.1014 34.9845 15.1005 34.9693 15.1028 34.9544C15.105 34.9395 15.1104 34.9252 15.1184 34.9125C15.1265 34.8997 15.1371 34.8888 15.1496 34.8803C15.2496 34.7918 15.3579 34.7123 15.4561 34.622C15.52 34.5637 15.5808 34.5363 15.6492 34.6026C15.7096 34.6592 15.6839 34.7231 15.645 34.7922Z" fill="#67BFA8"/>
<path d="M16.2529 34.589C16.2244 34.5715 16.2037 34.5437 16.1953 34.5113C16.1869 34.4789 16.1914 34.4445 16.2078 34.4154C16.2425 34.346 16.2967 34.3133 16.3682 34.3519C16.3834 34.3589 16.3968 34.3692 16.4077 34.3819C16.4186 34.3947 16.4266 34.4096 16.4312 34.4257C16.4358 34.4418 16.4369 34.4587 16.4344 34.4752C16.4319 34.4918 16.4259 34.5076 16.4168 34.5216C16.4109 34.5371 16.4018 34.5512 16.3902 34.5631C16.3786 34.5749 16.3647 34.5843 16.3494 34.5906C16.334 34.5969 16.3176 34.6 16.301 34.5998C16.2844 34.5995 16.2681 34.5958 16.2529 34.589Z" fill="#67BFA8"/>
<path d="M25.3859 29.4479C25.2957 29.5128 25.2061 29.5792 25.1148 29.642C25.0478 29.6882 24.971 29.7517 24.9023 29.66C24.8336 29.5684 24.9002 29.4927 24.9749 29.4375C25.0821 29.3583 25.1932 29.2837 25.3033 29.2087C25.4012 29.142 25.4988 29.074 25.5998 29.0118C25.6595 28.975 25.729 28.9601 25.7796 29.0264C25.7916 29.041 25.8002 29.058 25.8048 29.0763C25.8094 29.0945 25.8099 29.1136 25.8063 29.132C25.8027 29.1505 25.795 29.168 25.7839 29.1831C25.7727 29.1983 25.7583 29.2108 25.7418 29.2198C25.6307 29.3059 25.5144 29.3854 25.3998 29.4674L25.3859 29.4479Z" fill="#67BFA8"/>
<path d="M25.8569 30.5873C25.9198 30.679 25.8809 30.7679 25.7837 30.7748C25.7468 30.7773 25.7098 30.7708 25.676 30.7557C25.4813 30.6658 25.2886 30.5728 25.0952 30.4801C25.0282 30.4478 24.9848 30.3961 25.0143 30.3204C25.0204 30.3025 25.0304 30.2862 25.0436 30.2727C25.0569 30.2592 25.073 30.2488 25.0907 30.2424C25.1085 30.236 25.1275 30.2336 25.1463 30.2355C25.1651 30.2374 25.1832 30.2435 25.1993 30.2534C25.4014 30.3443 25.6 30.4426 25.7993 30.5398C25.8205 30.5531 25.8398 30.5691 25.8569 30.5873Z" fill="#67BFA8"/>
<path d="M23.686 30.4393C23.6166 30.481 23.5083 30.5487 23.3968 30.6088C23.3357 30.6414 23.2618 30.657 23.2173 30.5852C23.2071 30.5693 23.2004 30.5514 23.1978 30.5327C23.1952 30.514 23.1966 30.4949 23.2021 30.4768C23.2075 30.4587 23.2168 30.442 23.2294 30.4279C23.2419 30.4137 23.2573 30.4025 23.2746 30.3949C23.4684 30.2695 23.6635 30.1463 23.86 30.0255C23.8723 30.0167 23.8863 30.0105 23.9012 30.0074C23.916 30.0042 23.9313 30.0041 23.9461 30.007C23.961 30.01 23.9751 30.016 23.9876 30.0246C24 30.0332 24.0106 30.0442 24.0187 30.0571C24.0278 30.0692 24.0345 30.083 24.0382 30.0977C24.0419 30.1124 24.0426 30.1277 24.0402 30.1427C24.0378 30.1577 24.0325 30.172 24.0244 30.1849C24.0163 30.1977 24.0058 30.2088 23.9933 30.2175C23.9062 30.2859 23.8128 30.3484 23.686 30.4393Z" fill="#67BFA8"/>
<path d="M23.3672 29.2325C23.3148 29.1527 23.2929 29.0888 23.3506 29.0308C23.372 29.0091 23.4009 28.9967 23.4314 28.9961C23.4618 28.9955 23.4912 29.0069 23.5134 29.0277C23.6668 29.1325 23.8122 29.2486 23.9484 29.3749C23.9957 29.4235 24.0404 29.4856 23.988 29.5516C23.9763 29.5664 23.9616 29.5784 23.9448 29.587C23.9281 29.5956 23.9096 29.6004 23.8908 29.6012C23.872 29.602 23.8532 29.5987 23.8358 29.5916C23.8183 29.5845 23.8027 29.5737 23.7898 29.5599C23.6422 29.4471 23.4964 29.3335 23.3672 29.2325Z" fill="#67BFA8"/>
<path d="M24.5257 29.2526C24.4719 29.28 24.4216 29.2873 24.3837 29.2359C24.3601 29.2078 24.3445 29.1737 24.3386 29.1373C24.3282 28.9825 24.3223 28.8273 24.3188 28.6721C24.3169 28.6573 24.3179 28.6423 24.3219 28.6279C24.3258 28.6135 24.3326 28.6 24.3418 28.5883C24.351 28.5766 24.3625 28.5668 24.3755 28.5595C24.3886 28.5523 24.4029 28.5477 24.4178 28.5461C24.4438 28.5397 24.4714 28.5432 24.4949 28.5561C24.5185 28.5689 24.5364 28.5901 24.5452 28.6155C24.6047 28.8063 24.6106 29.0098 24.5622 29.2036C24.5577 29.2217 24.5372 29.2377 24.5257 29.2526Z" fill="#67BFA8"/>
<path d="M24.4511 30.7539C24.5015 30.8992 24.5288 31.0515 24.532 31.2053C24.5339 31.2356 24.5239 31.2655 24.5041 31.2886C24.4844 31.3117 24.4564 31.3261 24.4261 31.3289C24.4113 31.3317 24.3961 31.3315 24.3813 31.3282C24.3666 31.3249 24.3528 31.3186 24.3406 31.3096C24.3285 31.3007 24.3184 31.2893 24.3108 31.2763C24.3033 31.2632 24.2986 31.2487 24.2969 31.2337C24.2657 31.1035 24.2452 30.9709 24.2119 30.8418C24.1897 30.7577 24.1942 30.6918 24.2848 30.6619C24.3632 30.6352 24.408 30.6876 24.4511 30.7539Z" fill="#67BFA8"/>
<path d="M24.5549 30.1211C24.5262 30.1379 24.4922 30.143 24.4598 30.1353C24.4275 30.1276 24.3993 30.1077 24.3813 30.0797C24.369 30.0684 24.3595 30.0543 24.3536 30.0386C24.3477 30.0229 24.3455 30.006 24.3473 29.9893C24.3491 29.9727 24.3548 29.9566 24.3639 29.9426C24.373 29.9285 24.3853 29.9167 24.3997 29.9082C24.413 29.898 24.4283 29.8907 24.4447 29.8869C24.461 29.8831 24.478 29.8828 24.4944 29.8861C24.5109 29.8894 24.5264 29.8961 24.54 29.9059C24.5537 29.9158 24.565 29.9284 24.5733 29.9429C24.5844 29.9556 24.5927 29.9704 24.5978 29.9864C24.6029 30.0024 24.6047 30.0193 24.6029 30.036C24.6012 30.0527 24.5961 30.0689 24.5878 30.0835C24.5795 30.0982 24.5683 30.1109 24.5549 30.1211Z" fill="#67BFA8"/>
<path d="M14.8714 28.4439C14.9451 28.3934 15.0117 28.3331 15.0693 28.2648C15.0787 28.2539 15.0855 28.241 15.0891 28.2271C15.0928 28.2132 15.0933 28.1987 15.0905 28.1846C15.0742 28.0623 15.0681 27.9388 15.0724 27.8155C15.072 27.7919 15.0759 27.7683 15.0839 27.7461C15.0921 27.7232 15.1076 27.7037 15.1279 27.6904C15.1483 27.6772 15.1725 27.671 15.1967 27.6728C15.2209 27.6751 15.2436 27.6854 15.2612 27.7023C15.2787 27.7191 15.29 27.7414 15.2932 27.7655C15.2956 27.7845 15.2963 27.8037 15.2953 27.8228C15.2905 27.9526 15.2989 28.0825 15.3203 28.2106C15.3324 28.2819 15.3574 28.3503 15.3939 28.4127C15.4142 28.4456 15.4413 28.4737 15.4733 28.4954C15.5053 28.517 15.5416 28.5315 15.5796 28.538C15.5884 28.5414 15.5978 28.543 15.6071 28.5427C15.6165 28.5424 15.6258 28.5401 15.6343 28.5361C15.6428 28.5321 15.6504 28.5265 15.6566 28.5195C15.6629 28.5124 15.6676 28.5042 15.6706 28.4953C15.6807 28.4771 15.6888 28.4577 15.6946 28.4377C15.7033 28.4103 15.7097 28.3822 15.7137 28.3537C15.7447 28.1181 15.7414 27.8793 15.7039 27.6447C15.7005 27.6256 15.6949 27.6072 15.6918 27.5881C15.6861 27.562 15.69 27.5347 15.7028 27.5112C15.7155 27.4877 15.7362 27.4695 15.7612 27.46C15.7872 27.4514 15.8154 27.4522 15.8408 27.4624C15.8662 27.4726 15.8872 27.4914 15.9001 27.5156C15.9175 27.5478 15.9284 27.5832 15.932 27.6197C15.9647 27.8732 15.9654 28.1298 15.9341 28.3835C15.926 28.4537 15.906 28.522 15.8751 28.5856C15.8474 28.6534 15.7952 28.7083 15.7289 28.7394C15.6626 28.7705 15.587 28.7756 15.5172 28.7536C15.4511 28.7392 15.3887 28.7113 15.3338 28.6717C15.279 28.6321 15.2329 28.5816 15.1984 28.5234C15.1786 28.4912 15.1776 28.4908 15.1505 28.5141C15.0738 28.58 14.9908 28.6381 14.9026 28.6877C14.8932 28.6921 14.885 28.6989 14.8789 28.7074C14.8728 28.7159 14.869 28.7259 14.8679 28.7363C14.8603 28.7789 14.8463 28.8201 14.8263 28.8585C14.7885 28.9365 14.7264 29 14.6492 29.0394C14.5721 29.0789 14.4842 29.092 14.3989 29.0769C14.3111 29.063 14.2288 29.0254 14.1608 28.9682C14.0929 28.911 14.0418 28.8363 14.0131 28.7522C13.9754 28.6495 13.9585 28.5404 13.9635 28.4311C13.9642 28.3476 13.9749 28.2645 13.9954 28.1835C14.0033 28.1418 14.0197 28.1021 14.0434 28.0669C14.0672 28.0317 14.0979 28.0018 14.1336 27.9788C14.1694 27.9559 14.2094 27.9405 14.2513 27.9335C14.2932 27.9266 14.3361 27.9282 14.3773 27.9384C14.4898 27.9574 14.5942 28.0089 14.6776 28.0867C14.761 28.1645 14.8197 28.265 14.8464 28.3759C14.8504 28.3999 14.8589 28.423 14.8714 28.4439ZM14.6284 28.4141C14.6116 28.3606 14.5837 28.3112 14.5464 28.2693C14.4892 28.2079 14.4128 28.1678 14.3298 28.1554C14.276 28.1464 14.2506 28.1641 14.2294 28.2148C14.2219 28.2342 14.2186 28.255 14.2199 28.2758C14.2211 28.2966 14.2269 28.3169 14.2367 28.3353C14.2766 28.4031 14.3347 28.4584 14.4044 28.4949C14.4741 28.5314 14.5527 28.5477 14.6311 28.5418C14.6485 28.5418 14.653 28.5335 14.6513 28.5175C14.6461 28.4823 14.6379 28.4476 14.627 28.4137L14.6284 28.4141ZM14.6249 28.7661C14.4803 28.7674 14.3387 28.7253 14.2183 28.6453C14.232 28.702 14.2627 28.7532 14.3062 28.7922C14.3278 28.8137 14.3537 28.8306 14.3821 28.8419C14.4105 28.8532 14.4409 28.8586 14.4714 28.8578C14.5027 28.8581 14.5334 28.8498 14.5602 28.8338C14.5869 28.8177 14.6087 28.7945 14.6231 28.7668L14.6249 28.7661Z" fill="#67BFA8"/>
<path d="M13.5546 28.8366C13.5372 28.8422 13.522 28.8528 13.5108 28.8672C13.4569 28.9176 13.3945 28.9581 13.3265 28.987C13.2773 29.0075 13.2238 29.0156 13.1708 29.0106C13.1178 29.0056 13.0668 28.9876 13.0223 28.9581C12.9364 28.9034 12.8711 28.8215 12.8369 28.7255C12.8057 28.641 12.7841 28.5532 12.7727 28.4637C12.7688 28.4302 12.7632 28.397 12.7557 28.3641C12.7481 28.3384 12.7502 28.3107 12.7618 28.2865C12.7733 28.2623 12.7934 28.2432 12.8182 28.2329C12.8437 28.2223 12.872 28.2212 12.8983 28.2296C12.9245 28.2379 12.9469 28.2553 12.9616 28.2787C12.9778 28.3066 12.9865 28.3381 12.9869 28.3704C12.9925 28.4358 13.0036 28.5008 13.0199 28.5644C13.0296 28.6083 13.0456 28.6505 13.0675 28.6898C13.0803 28.7121 13.0967 28.7321 13.1161 28.7491C13.1349 28.7695 13.1603 28.7826 13.1879 28.7859C13.2154 28.7893 13.2432 28.7828 13.2664 28.7675C13.3364 28.734 13.3948 28.6804 13.4341 28.6134C13.4734 28.5465 13.4918 28.4693 13.4869 28.3919C13.4852 28.3678 13.4852 28.3437 13.4869 28.3197C13.4883 28.2923 13.4997 28.2664 13.5189 28.2469C13.5381 28.2273 13.5637 28.2154 13.591 28.2134C13.6177 28.2127 13.6438 28.2212 13.6649 28.2375C13.6859 28.2539 13.7007 28.277 13.7067 28.303C13.7101 28.3153 13.7121 28.328 13.7126 28.3408C13.7207 28.4834 13.7398 28.6251 13.7695 28.7648C13.797 28.9228 13.8168 29.0819 13.8289 29.2418C13.8323 29.289 13.833 29.2883 13.8785 29.3022C14.0097 29.3404 14.1374 29.3895 14.2604 29.4491C14.2876 29.4626 14.314 29.4775 14.3396 29.4938C14.3646 29.5089 14.3845 29.5311 14.3965 29.5577C14.4062 29.5764 14.4104 29.5975 14.4085 29.6185C14.4066 29.6395 14.3987 29.6595 14.3857 29.6761C14.3731 29.693 14.356 29.7059 14.3363 29.7134C14.3167 29.7209 14.2953 29.7227 14.2746 29.7185C14.2479 29.7132 14.2224 29.7029 14.1997 29.6879C14.1049 29.6339 14.0066 29.5865 13.9052 29.5463C13.8884 29.5369 13.8696 29.5316 13.8504 29.531C13.8442 29.5476 13.8422 29.5655 13.8445 29.5831C13.8425 29.6505 13.833 29.7174 13.8164 29.7827C13.7973 29.8581 13.7634 29.9289 13.7167 29.991C13.6834 30.0379 13.637 30.0738 13.5833 30.0942C13.5296 30.1146 13.471 30.1185 13.415 30.1056C13.3346 30.0859 13.2608 30.0454 13.201 29.9881C13.1412 29.9309 13.0974 29.859 13.0741 29.7796C13.0541 29.7214 13.0518 29.6587 13.0674 29.5992C13.0829 29.5397 13.1157 29.4862 13.1616 29.4452C13.2458 29.3676 13.349 29.3135 13.4608 29.2887C13.4996 29.2785 13.5392 29.2721 13.5792 29.2696C13.5955 29.2696 13.6074 29.2651 13.6056 29.2446C13.596 29.1078 13.5789 28.9716 13.5546 28.8366ZM13.4622 29.5202C13.4092 29.5389 13.3602 29.5674 13.3178 29.6043C13.3016 29.6176 13.29 29.6357 13.2845 29.656C13.2791 29.6763 13.2802 29.6978 13.2876 29.7174C13.3058 29.776 13.3435 29.8265 13.3945 29.8605C13.4067 29.8724 13.4218 29.8811 13.4382 29.8857C13.4547 29.8902 13.472 29.8906 13.4886 29.8867C13.5053 29.8828 13.5206 29.8747 13.5333 29.8633C13.546 29.8518 13.5556 29.8374 13.5612 29.8212C13.5674 29.8101 13.5733 29.7987 13.5782 29.7865C13.6115 29.6997 13.626 29.6068 13.6205 29.514C13.6205 29.4938 13.6094 29.4907 13.5924 29.4921C13.5481 29.4964 13.5044 29.5059 13.4622 29.5202Z" fill="#67BFA8"/>
<path d="M11.3268 30.2051C11.314 30.11 11.3021 30.0145 11.2879 29.9197C11.2585 29.6746 11.2445 29.4278 11.2459 29.1809C11.2435 29.0979 11.2424 29.0143 11.2414 28.9309C11.2398 28.9036 11.2433 28.8761 11.2518 28.85C11.259 28.8277 11.2728 28.8081 11.2914 28.7939C11.31 28.7797 11.3326 28.7715 11.356 28.7705C11.3794 28.7701 11.4024 28.7767 11.422 28.7896C11.4416 28.8025 11.4568 28.821 11.4657 28.8427C11.4778 28.8708 11.4836 28.9011 11.4827 28.9316C11.4827 29.0438 11.4827 29.1563 11.4782 29.2681C11.473 29.5471 11.4932 29.826 11.5386 30.1013C11.5573 30.2266 11.5754 30.352 11.5875 30.478C11.5915 30.5098 11.5915 30.542 11.5875 30.5738C11.5858 30.5988 11.5768 30.6227 11.5617 30.6427C11.5466 30.6627 11.526 30.6778 11.5025 30.6863C11.4795 30.6942 11.4548 30.6955 11.4312 30.6898C11.4075 30.6841 11.386 30.6718 11.3692 30.6544C11.3445 30.6314 11.3223 30.6059 11.3028 30.5783C11.1628 30.3888 11.0345 30.1908 10.9185 29.9857C10.8012 29.7833 10.6998 29.5718 10.5859 29.3673C10.5727 29.3437 10.5581 29.3205 10.5456 29.2979C10.5372 29.2856 10.5314 29.2716 10.5285 29.257C10.5256 29.2423 10.5257 29.2272 10.5288 29.2126C10.5319 29.198 10.5379 29.1842 10.5466 29.172C10.5552 29.1598 10.5662 29.1494 10.5789 29.1416C10.5916 29.1337 10.6058 29.1286 10.6206 29.1264C10.6354 29.1242 10.6504 29.125 10.6649 29.1288C10.6793 29.1326 10.6929 29.1393 10.7047 29.1485C10.7164 29.1577 10.7262 29.1692 10.7335 29.1823C10.7721 29.2412 10.8069 29.3025 10.8376 29.366C10.9727 29.6208 11.1025 29.8784 11.2594 30.1211C11.2765 30.153 11.2994 30.1815 11.3268 30.2051Z" fill="#67BFA8"/>
<path d="M10.1015 31.3958C10.1188 31.3896 10.1337 31.3782 10.1442 31.3632C10.2311 31.2733 10.3249 31.1904 10.4247 31.1153C10.4645 31.0853 10.5073 31.0596 10.5525 31.0385C10.586 31.0225 10.6231 31.0156 10.6601 31.0187C10.6941 31.0213 10.7258 31.037 10.7483 31.0625C10.7646 31.0795 10.7737 31.1022 10.7737 31.1259C10.7737 31.1495 10.7646 31.1722 10.7483 31.1892C10.73 31.2095 10.7068 31.2247 10.681 31.2337C10.6347 31.252 10.5912 31.2766 10.5518 31.3069C10.4515 31.3786 10.3584 31.46 10.2741 31.5499C10.2368 31.5898 10.2031 31.6327 10.1734 31.6784C10.1622 31.6991 10.1451 31.716 10.1242 31.7269C10.1034 31.7378 10.0797 31.7422 10.0564 31.7395C10.0332 31.7366 10.0113 31.727 9.99341 31.7119C9.97553 31.6968 9.96243 31.6769 9.95569 31.6544C9.94805 31.635 9.94145 31.6152 9.93486 31.5954C9.74344 31.0399 9.55607 30.4822 9.37276 29.9223C9.35262 29.8612 9.33179 29.8008 9.31061 29.7401C9.3044 29.7235 9.30031 29.7062 9.29846 29.6887C9.29598 29.6654 9.30114 29.6419 9.31317 29.6218C9.32519 29.6017 9.34342 29.5861 9.36512 29.5772C9.38689 29.5685 9.41089 29.567 9.43358 29.5729C9.45627 29.5788 9.47646 29.5919 9.49115 29.6102C9.50673 29.6291 9.51852 29.6508 9.52587 29.6741C9.54485 29.7285 9.56336 29.7831 9.58142 29.838C9.74761 30.3435 9.91657 30.8482 10.0883 31.352L10.1015 31.3958Z" fill="#67BFA8"/>
<path d="M11.6832 29.8446C11.628 29.6596 11.6433 29.4607 11.7263 29.2863C11.7668 29.2018 11.8326 29.1319 11.9145 29.0863C11.9492 29.0661 11.9879 29.0534 12.028 29.0493C12.068 29.0452 12.1085 29.0497 12.1466 29.0625C12.1848 29.0753 12.2198 29.0961 12.2492 29.1235C12.2787 29.1509 12.302 29.1843 12.3175 29.2214C12.3423 29.2721 12.355 29.3279 12.3546 29.3843C12.3542 29.4407 12.3408 29.4963 12.3155 29.5467C12.2838 29.619 12.235 29.6826 12.1733 29.7318C12.1116 29.781 12.0389 29.8145 11.9613 29.8293L11.9426 29.8331C11.9224 29.8363 11.92 29.8463 11.929 29.8633C11.9551 29.9155 11.9995 29.9563 12.0537 29.9779C12.0777 29.9867 12.1026 29.9928 12.128 29.996C12.2042 30.0079 12.2818 30.0064 12.3575 29.9915C12.376 29.9866 12.3952 29.9843 12.4144 29.9849C12.4337 29.9853 12.4525 29.9912 12.4687 30.0017C12.4849 30.0123 12.4978 30.0271 12.5061 30.0446C12.5147 30.062 12.5183 30.0814 12.5164 30.1007C12.5146 30.1201 12.5074 30.1385 12.4957 30.1539C12.4844 30.1697 12.4702 30.1831 12.4537 30.1933C12.4373 30.2035 12.419 30.2103 12.3998 30.2133C12.2577 30.243 12.1102 30.2334 11.9731 30.1855C11.901 30.1561 11.8371 30.1097 11.7866 30.0504C11.7362 29.9911 11.7007 29.9205 11.6832 29.8446ZM11.961 29.6016C12.0004 29.5856 12.0357 29.5609 12.0643 29.5294C12.0929 29.4979 12.1141 29.4604 12.1262 29.4196C12.1359 29.3848 12.1322 29.3477 12.1158 29.3155C12.1131 29.3066 12.1085 29.2984 12.1021 29.2916C12.0958 29.2848 12.088 29.2795 12.0794 29.2762C12.0707 29.2728 12.0614 29.2715 12.0521 29.2723C12.0428 29.2731 12.0339 29.276 12.0259 29.2808C11.9928 29.2971 11.965 29.3225 11.9457 29.354C11.907 29.4132 11.8842 29.4814 11.8794 29.5519C11.8745 29.6123 11.8825 29.6193 11.9419 29.6043L11.961 29.6016Z" fill="#67BFA8"/>
<path d="M9.99597 30.1992C9.97111 30.1255 9.9581 30.0483 9.95744 29.9704C9.95458 29.927 9.96684 29.884 9.99215 29.8486C10.0006 29.8368 10.0066 29.8234 10.0099 29.8093C10.0183 29.7807 10.0326 29.7542 10.0519 29.7315C10.0711 29.7087 10.0949 29.6902 10.1217 29.6771C10.2004 29.6355 10.2909 29.6214 10.3786 29.6371C10.4666 29.6521 10.5452 29.701 10.5977 29.7732C10.6529 29.8464 10.6912 29.931 10.7098 30.0208C10.7276 30.1039 10.7342 30.189 10.7292 30.2739C10.7254 30.3543 10.7027 30.4327 10.6629 30.5027C10.6481 30.5323 10.6276 30.5586 10.6024 30.5801C10.5773 30.6016 10.5481 30.6178 10.5165 30.6278C10.485 30.6378 10.4518 30.6414 10.4188 30.6383C10.3859 30.6353 10.3539 30.6256 10.3248 30.61C10.2638 30.581 10.2093 30.5399 10.1647 30.4891C10.0898 30.4047 10.0324 30.3061 9.99597 30.1992ZM10.2095 30.1347C10.2419 30.2286 10.2984 30.3124 10.3734 30.3777C10.4397 30.4315 10.4709 30.4242 10.4914 30.343C10.5113 30.2733 10.5164 30.2003 10.5065 30.1286C10.4966 30.0568 10.4718 29.988 10.4338 29.9263C10.4169 29.8957 10.3894 29.8724 10.3564 29.8608C10.3233 29.8493 10.2872 29.8504 10.255 29.8638C10.2413 29.8678 10.2292 29.8758 10.2203 29.8868C10.2054 29.9036 10.1945 29.9234 10.188 29.9448C10.1816 29.9663 10.1799 29.9889 10.1831 30.0111C10.1892 30.0527 10.1979 30.094 10.2091 30.1347H10.2095Z" fill="#67BFA8"/>
<path d="M16.1981 28.041C16.1872 28.0038 16.182 27.9652 16.1825 27.9264C16.1825 27.7565 16.1815 27.5867 16.1797 27.4171C16.1797 27.3577 16.1762 27.2987 16.1752 27.2397C16.1742 27.2221 16.1752 27.2045 16.1783 27.1872C16.1825 27.1658 16.1931 27.1461 16.2088 27.1309C16.2245 27.1156 16.2445 27.1056 16.2661 27.1022C16.2885 27.099 16.3112 27.1028 16.3313 27.1129C16.3515 27.1231 16.368 27.1392 16.3786 27.1591C16.3893 27.179 16.3956 27.2009 16.397 27.2233C16.3991 27.2487 16.4009 27.2744 16.4012 27.3001C16.4049 27.5049 16.4083 27.7099 16.4113 27.9149C16.4129 27.9518 16.4088 27.9887 16.3991 28.0243C16.397 28.0306 16.3949 28.0365 16.3929 28.0424C16.3706 28.0976 16.3311 28.1316 16.2887 28.1281C16.2325 28.1236 16.2151 28.0802 16.1981 28.041Z" fill="#67BFA8"/>
<path d="M16.2383 28.7031C16.236 28.6942 16.2342 28.6852 16.2331 28.6761C16.2268 28.6204 16.224 28.5644 16.2247 28.5084C16.2238 28.4874 16.2284 28.4665 16.2381 28.4479C16.2478 28.4292 16.2622 28.4134 16.2799 28.4021C16.2963 28.3918 16.3151 28.386 16.3345 28.3853C16.3539 28.3847 16.3731 28.3891 16.3901 28.3983C16.4072 28.4075 16.4215 28.4211 16.4316 28.4376C16.4417 28.4541 16.4472 28.473 16.4476 28.4924C16.4518 28.5466 16.4521 28.6011 16.4528 28.6556C16.4528 28.6717 16.4505 28.6877 16.4459 28.7031C16.4405 28.727 16.4273 28.7484 16.4085 28.7641C16.3897 28.7797 16.3662 28.7887 16.3417 28.7896C16.3175 28.788 16.2945 28.7788 16.2759 28.7633C16.2573 28.7477 16.2441 28.7267 16.2383 28.7031Z" fill="#67BFA8"/>
<path d="M9.59433 26.2561C9.58868 26.2574 9.5832 26.2594 9.57802 26.262C9.47538 26.329 9.38486 26.4129 9.31034 26.5102C9.25514 26.5785 9.22057 26.6611 9.21069 26.7484C9.20986 26.7576 9.208 26.7667 9.20514 26.7755C9.19891 26.7977 9.18547 26.8172 9.16693 26.831C9.14839 26.8448 9.1258 26.852 9.10272 26.8515C9.07869 26.8507 9.05568 26.8416 9.03758 26.8258C9.01948 26.81 9.00741 26.7884 9.00342 26.7647C8.99919 26.7406 8.99919 26.7159 9.00342 26.6918C9.0142 26.6205 9.03772 26.5517 9.07286 26.4887C9.13055 26.3835 9.2065 26.2895 9.29714 26.2109C9.40906 26.1086 9.53702 26.0253 9.67592 25.9644C9.74471 25.9342 9.81827 25.9162 9.89326 25.9113C9.93142 25.9092 9.9697 25.912 10.0071 25.9197C10.0875 25.9321 10.1606 25.9734 10.2126 26.036C10.2646 26.0985 10.2919 26.1779 10.2894 26.2592C10.2892 26.3283 10.2775 26.3968 10.2547 26.462C10.2319 26.5302 10.2043 26.5966 10.1721 26.6609C10.163 26.6733 10.1571 26.6877 10.155 26.7029C10.1665 26.7147 10.1783 26.7053 10.1898 26.7029C10.2493 26.6886 10.3104 26.6819 10.3717 26.6828C10.4253 26.6837 10.4783 26.6947 10.5279 26.7151C10.58 26.7344 10.6251 26.769 10.6573 26.8142C10.6896 26.8594 10.7075 26.9133 10.7088 26.9689C10.7148 27.0599 10.6903 27.1504 10.6394 27.2261C10.5285 27.4033 10.3728 27.5481 10.188 27.6459C10.065 27.7078 9.93581 27.7568 9.80265 27.792C9.77774 27.7998 9.75147 27.8022 9.72557 27.799C9.70181 27.7964 9.67957 27.786 9.66236 27.7694C9.64514 27.7528 9.63391 27.731 9.63044 27.7073C9.62747 27.6836 9.63274 27.6596 9.64539 27.6393C9.65803 27.619 9.67727 27.6037 9.69988 27.5959C9.71282 27.5912 9.72605 27.5874 9.73946 27.5844C9.84006 27.5581 9.93867 27.5247 10.0346 27.4844C10.0731 27.4685 10.0735 27.4667 10.0571 27.4317C10.0068 27.323 9.96721 27.2108 9.9252 27.099C9.91479 27.0716 9.90577 27.0543 9.86966 27.0518C9.85445 27.0501 9.83982 27.045 9.8268 27.0369C9.81378 27.0289 9.80271 27.018 9.79435 27.0052C9.786 26.9924 9.78057 26.9779 9.77846 26.9627C9.77636 26.9475 9.77762 26.9321 9.78216 26.9175C9.78866 26.8955 9.79876 26.8747 9.81202 26.856C9.81705 26.8493 9.82018 26.8413 9.8211 26.8329C9.82202 26.8246 9.82068 26.8161 9.81723 26.8085C9.74455 26.6268 9.67199 26.445 9.59955 26.263C9.59807 26.2605 9.59632 26.2582 9.59433 26.2561ZM10.1474 27.0494C10.184 27.1332 10.2208 27.217 10.2578 27.3008C10.271 27.3306 10.2745 27.3317 10.2984 27.3088C10.357 27.2551 10.409 27.1946 10.4533 27.1286C10.4704 27.1033 10.4833 27.0754 10.4915 27.0459C10.5147 26.9567 10.4845 26.9098 10.3939 26.8991C10.3037 26.8933 10.2133 26.9092 10.1304 26.9452C10.127 26.9459 10.1238 26.9474 10.1211 26.9496C10.1185 26.9518 10.1164 26.9546 10.1151 26.9578C10.1138 26.961 10.1133 26.9645 10.1136 26.9679C10.114 26.9714 10.1152 26.9747 10.1172 26.9775C10.1269 27.0005 10.1373 27.0244 10.1474 27.0484V27.0494ZM9.96339 26.5842C9.97277 26.5842 9.97555 26.5797 9.97832 26.5741C10.0166 26.5028 10.0462 26.4271 10.0665 26.3488C10.0747 26.3161 10.0775 26.2824 10.0748 26.2488C10.075 26.2225 10.0661 26.1969 10.0498 26.1763C10.0334 26.1556 10.0106 26.1412 9.98492 26.1353C9.93764 26.1215 9.88743 26.1215 9.84014 26.1353C9.78564 26.1484 9.78459 26.1491 9.80542 26.2019C9.85334 26.3241 9.90264 26.4449 9.95159 26.5679C9.95506 26.5731 9.95611 26.5814 9.96374 26.5831L9.96339 26.5842Z" fill="#231F56"/>
<path d="M11.936 25.9682C11.918 25.9713 11.9079 25.9845 11.8944 25.9911C11.8743 26.0025 11.851 26.007 11.8281 26.0037C11.8052 26.0004 11.7841 25.9896 11.768 25.973C11.7523 25.956 11.7426 25.9344 11.7404 25.9114C11.7381 25.8884 11.7434 25.8653 11.7555 25.8456C11.7745 25.818 11.7986 25.7945 11.8267 25.7762C11.8614 25.7501 11.8614 25.7498 11.8465 25.713C11.8086 25.6192 11.7704 25.5262 11.7319 25.4328C11.7197 25.4026 11.7187 25.4026 11.6888 25.4182C11.659 25.4338 11.6302 25.4509 11.6007 25.4668C11.5874 25.4744 11.5734 25.4808 11.559 25.4859C11.5335 25.4951 11.5056 25.4943 11.4807 25.4836C11.4558 25.473 11.4359 25.4534 11.425 25.4286C11.4144 25.4045 11.4134 25.3772 11.4222 25.3523C11.4309 25.3275 11.4488 25.3068 11.4722 25.2946C11.5184 25.2675 11.5652 25.2418 11.6131 25.2175C11.8663 25.0877 12.1308 24.9813 12.4033 24.8995C12.447 24.8856 12.4921 24.8766 12.5377 24.8724C12.5699 24.869 12.6024 24.8759 12.6304 24.8922C12.6491 24.9023 12.6647 24.9173 12.6753 24.9356C12.686 24.9539 12.6915 24.9748 12.691 24.996C12.6905 25.0172 12.6842 25.0379 12.6727 25.0557C12.6612 25.0736 12.645 25.0879 12.6259 25.0971C12.6009 25.1086 12.5744 25.1164 12.5471 25.12C12.3456 25.1605 12.1482 25.2186 11.9569 25.2936C11.9496 25.2964 11.943 25.3002 11.9357 25.3026C11.9169 25.3092 11.9142 25.321 11.9214 25.3373C11.9353 25.3696 11.9482 25.4023 11.9614 25.4349C11.9853 25.4929 12.0089 25.5508 12.0336 25.6085C12.0454 25.6363 12.0471 25.6366 12.0735 25.6217C12.1496 25.579 12.2263 25.5377 12.3054 25.5012C12.3738 25.4668 12.4454 25.4394 12.5193 25.4196C12.5519 25.4106 12.5863 25.4106 12.6189 25.4196C12.642 25.426 12.6626 25.4392 12.678 25.4575C12.6934 25.4757 12.703 25.4982 12.7054 25.522C12.7069 25.5457 12.7011 25.5693 12.6886 25.5895C12.6762 25.6097 12.6578 25.6256 12.636 25.6349C12.6206 25.6417 12.6047 25.6472 12.5884 25.6512C12.4401 25.6948 12.2961 25.7519 12.1582 25.8217C12.1273 25.8362 12.1263 25.8383 12.1398 25.871C12.1889 25.9897 12.2382 26.1083 12.2877 26.2268C12.302 26.2615 12.3159 26.2963 12.3294 26.3286C12.3352 26.3427 12.3402 26.3572 12.3443 26.3719C12.3547 26.4011 12.3537 26.4332 12.3416 26.4617C12.3294 26.4902 12.307 26.5131 12.2787 26.5258C12.2496 26.5364 12.2176 26.5358 12.1889 26.5242C12.1601 26.5126 12.1367 26.4908 12.1232 26.4629C12.107 26.4334 12.0935 26.4025 12.0829 26.3706C12.0412 26.2523 11.9996 26.134 11.9579 26.0157C11.9542 25.9985 11.9467 25.9822 11.936 25.9682Z" fill="#231F56"/>
<path d="M11.5686 25.6836C11.5752 25.703 11.576 25.7238 11.5709 25.7435C11.5658 25.7633 11.5549 25.7811 11.5398 25.7947C11.5232 25.8106 11.5033 25.8224 11.4815 25.8295C11.3533 25.8797 11.2302 25.942 11.1138 26.0156C11.0464 26.0544 10.9805 26.0959 10.9159 26.1399C10.8874 26.1593 10.8874 26.16 10.9017 26.1916C10.9294 26.2513 10.9569 26.311 10.9853 26.37C10.9996 26.3992 11.001 26.3999 11.0291 26.3818C11.1384 26.3124 11.2464 26.2388 11.3586 26.1735C11.3915 26.1544 11.4252 26.1364 11.4589 26.118C11.4844 26.1037 11.513 26.096 11.5422 26.0958C11.5645 26.0949 11.5866 26.1009 11.6054 26.1128C11.6243 26.1247 11.6392 26.142 11.6481 26.1624C11.6564 26.1824 11.6584 26.2044 11.6541 26.2255C11.6498 26.2467 11.6392 26.266 11.6238 26.2812C11.6044 26.3006 11.5815 26.3164 11.5565 26.3277C11.4141 26.402 11.2746 26.4814 11.1381 26.5659C11.0923 26.594 11.0923 26.5943 11.1152 26.6422C11.1483 26.7117 11.1815 26.7821 11.2148 26.8537C11.2293 26.8809 11.241 26.9095 11.2495 26.9391C11.258 26.9659 11.2563 26.9948 11.2448 27.0204C11.2333 27.0461 11.2127 27.0665 11.187 27.078C11.1613 27.0889 11.1324 27.0898 11.1061 27.0804C11.0798 27.071 11.058 27.052 11.045 27.0273C11.0211 26.9846 11.0002 26.9403 10.9825 26.8946C10.9613 26.8472 10.9409 26.7994 10.9214 26.7512C10.9131 26.7311 10.9058 26.7193 10.8784 26.7249C10.8559 26.7309 10.832 26.7288 10.811 26.7189C10.79 26.7089 10.7731 26.6919 10.7635 26.6707C10.7532 26.6499 10.7503 26.6263 10.755 26.6036C10.7597 26.5809 10.7718 26.5604 10.7895 26.5454C10.8183 26.5162 10.8183 26.5162 10.8017 26.4811C10.7763 26.4273 10.752 26.3728 10.7256 26.3194C10.7135 26.295 10.7093 26.294 10.6888 26.3114C10.6445 26.344 10.6049 26.3825 10.5711 26.4259C10.5577 26.4477 10.5366 26.4636 10.5119 26.4705C10.4873 26.4774 10.4609 26.4747 10.4382 26.4631C10.4159 26.4508 10.3985 26.4312 10.389 26.4076C10.3794 26.3841 10.3783 26.3579 10.3857 26.3336C10.396 26.3013 10.4142 26.2721 10.4389 26.2489C10.4855 26.2025 10.535 26.1591 10.5871 26.119C10.6173 26.0947 10.618 26.094 10.6013 26.059C10.5725 25.9985 10.542 25.9385 10.5125 25.8781C10.5047 25.8631 10.4981 25.8475 10.4927 25.8316C10.4865 25.8118 10.4865 25.7906 10.4927 25.7709C10.4989 25.7512 10.511 25.7338 10.5274 25.7211C10.5446 25.7082 10.5654 25.701 10.5869 25.7003C10.6084 25.6997 10.6296 25.7058 10.6475 25.7177C10.6695 25.7321 10.687 25.7523 10.6982 25.776C10.7242 25.8277 10.7496 25.8802 10.776 25.9319C10.7933 25.9666 10.7944 25.9666 10.826 25.944C10.9586 25.8534 11.0909 25.7628 11.2311 25.6843C11.2812 25.6552 11.3344 25.6319 11.3898 25.6149C11.4248 25.603 11.4628 25.603 11.4978 25.6149C11.5139 25.6205 11.5286 25.6295 11.5408 25.6414C11.5531 25.6533 11.5626 25.6677 11.5686 25.6836Z" fill="#231F56"/>
<path d="M23.8347 27.2328L22.9668 26.8096L22.1294 27.2904L22.2599 26.3273L21.5471 25.6725L22.4956 25.499L22.8925 24.6133L23.3483 25.4701L24.3062 25.5778L23.6393 26.2791L23.8347 27.2328Z" fill="#FCE469"/>
<path d="M17.7607 39.0504C17.7155 39.0503 17.671 39.0405 17.63 39.0217C17.589 39.0029 17.5524 38.9755 17.5229 38.9415C17.4933 38.9074 17.4713 38.8674 17.4584 38.8242C17.4455 38.781 17.4421 38.7355 17.4482 38.6908L17.528 38.1158C17.5295 38.105 17.5278 38.0941 17.5232 38.0842C17.5186 38.0744 17.5112 38.066 17.502 38.0603L17.0781 37.794C17.0233 37.7597 16.9804 37.7094 16.9551 37.65C16.9298 37.5905 16.9234 37.5248 16.9367 37.4615C16.95 37.3983 16.9823 37.3407 17.0294 37.2965C17.0765 37.2522 17.136 37.2235 17.2 37.2142L17.7329 37.1357C17.7419 37.1344 17.7505 37.131 17.7579 37.1256C17.7653 37.1202 17.7713 37.1131 17.7752 37.1048L18.1443 36.3618C18.17 36.3099 18.2095 36.266 18.2585 36.235C18.3074 36.204 18.364 36.187 18.422 36.1861C18.4799 36.1851 18.537 36.2001 18.587 36.2295C18.637 36.2588 18.678 36.3014 18.7054 36.3525L19.0525 36.9989C19.0579 37.009 19.0662 37.0171 19.0763 37.0223C19.0864 37.0276 19.0979 37.0296 19.1091 37.0281L19.5133 36.9784C19.571 36.9713 19.6296 36.9803 19.6826 37.0044C19.7356 37.0284 19.7809 37.0667 19.8134 37.1149C19.846 37.1631 19.8647 37.2194 19.8673 37.2776C19.8699 37.3357 19.8563 37.3934 19.8282 37.4444L19.4858 38.0651C19.4817 38.0724 19.4793 38.0806 19.4788 38.0889C19.4782 38.0973 19.4796 38.1056 19.4827 38.1134L19.6216 38.4606C19.6451 38.5195 19.6503 38.584 19.6366 38.6459C19.6229 38.7078 19.591 38.7642 19.5448 38.8076C19.4987 38.8511 19.4406 38.8797 19.378 38.8897C19.3154 38.8997 19.2512 38.8906 19.1938 38.8637L18.6144 38.5904C18.6058 38.5863 18.5962 38.5844 18.5867 38.5851C18.5771 38.5857 18.5679 38.5887 18.5599 38.5939L17.9308 38.9984C17.8803 39.0317 17.8212 39.0498 17.7607 39.0504ZM18.4269 36.4465C18.4165 36.4464 18.4063 36.4493 18.3975 36.4549C18.3887 36.4604 18.3817 36.4684 18.3773 36.4778L18.0082 37.2211C17.9857 37.2671 17.9523 37.3069 17.911 37.3371C17.8697 37.3673 17.8217 37.3871 17.7711 37.3947L17.2381 37.4732C17.2266 37.4747 17.2158 37.4798 17.2073 37.4878C17.1987 37.4957 17.1929 37.5061 17.1904 37.5175C17.188 37.5288 17.1891 37.5407 17.1937 37.5514C17.1983 37.5621 17.206 37.5712 17.2159 37.5773L17.6398 37.8436C17.6913 37.876 17.7323 37.9225 17.758 37.9776C17.7837 38.0328 17.7929 38.0941 17.7846 38.1544L17.7051 38.7293C17.7035 38.74 17.7051 38.751 17.7096 38.7608C17.7141 38.7707 17.7214 38.779 17.7305 38.7848C17.7396 38.7907 17.7502 38.7938 17.7611 38.7937C17.7719 38.7936 17.7825 38.7904 17.7916 38.7845L18.4203 38.38C18.4653 38.3508 18.517 38.3336 18.5705 38.3302C18.624 38.3267 18.6775 38.3371 18.7258 38.3602L19.3056 38.6335C19.3157 38.6387 19.3272 38.6406 19.3385 38.6388C19.3497 38.6371 19.3601 38.6318 19.3681 38.6238C19.3768 38.6162 19.3828 38.606 19.3853 38.5948C19.3878 38.5835 19.3867 38.5718 19.382 38.5613L19.2432 38.2141C19.2256 38.1707 19.2179 38.124 19.2208 38.0773C19.2237 38.0306 19.237 37.9852 19.2598 37.9443L19.6021 37.3235C19.6075 37.3145 19.61 37.3041 19.6096 37.2937C19.6092 37.2832 19.6057 37.2731 19.5997 37.2645C19.5941 37.2557 19.5861 37.2487 19.5766 37.2444C19.5671 37.24 19.5566 37.2386 19.5462 37.2402L19.1421 37.2899C19.0789 37.2981 19.0147 37.2868 18.9581 37.2575C18.9015 37.2282 18.8553 37.1823 18.8255 37.126L18.4783 36.4799C18.4742 36.4697 18.467 36.461 18.4579 36.4549C18.4487 36.4488 18.4379 36.4457 18.4269 36.4459V36.4465Z" fill="#FCE469"/>
</g>
</g>
<defs>
<filter id="filter0_d_5251_21883" x="1.02783" y="3.69385" width="46.0554" height="41.0024" filterUnits="userSpaceOnUse" color-interpolation-filters="sRGB">
<feFlood flood-opacity="0" result="BackgroundImageFix"/>
<feColorMatrix in="SourceAlpha" type="matrix" values="0 0 0 0 0 0 0 0 0 0 0 0 0 0 0 0 0 0 127 0" result="hardAlpha"/>
<feOffset dy="4"/>
<feComposite in2="hardAlpha" operator="out"/>
<feColorMatrix type="matrix" values="0 0 0 0 0.137255 0 0 0 0 0.121569 0 0 0 0 0.337255 0 0 0 1 0"/>
<feBlend mode="normal" in2="BackgroundImageFix" result="effect1_dropShadow_5251_21883"/>
<feBlend mode="normal" in="SourceGraphic" in2="effect1_dropShadow_5251_21883" result="shape"/>
</filter>
</defs>
</svg>
