<svg width="40" height="27" viewBox="0 0 40 27" fill="none" xmlns="http://www.w3.org/2000/svg">
<path d="M4.6091 25.2678H24.9504C25.3307 25.2359 25.6893 25.0775 25.9691 24.8181C26.249 24.5586 26.4339 24.213 26.4945 23.8362L30.5932 2.66352C30.6366 2.46317 30.6394 2.25615 30.6013 2.05472C30.5633 1.85328 30.4852 1.66153 30.3717 1.49082C30.2661 1.33888 30.1251 1.21484 29.961 1.12936C29.7969 1.04387 29.6144 0.999482 29.4294 1H8.8461C8.46407 1.03013 8.10346 1.18865 7.82297 1.44977C7.54247 1.71089 7.35859 2.05924 7.30124 2.43815L3.44255 23.6109C3.4012 23.8117 3.40034 24.0188 3.44004 24.2199C3.47973 24.4211 3.55917 24.6123 3.6737 24.7824C3.77903 24.9325 3.91902 25.0551 4.08179 25.1396C4.24456 25.2241 4.42531 25.2681 4.60871 25.2678" fill="#121844"/>
<path d="M35.7733 24.6278H13.6695C13.2783 24.6148 12.9022 24.4737 12.599 24.2261C12.2959 23.9785 12.0825 23.6382 11.9917 23.2575L7.53778 2.98895C7.49128 2.79577 7.48881 2.59462 7.53056 2.40036C7.5723 2.2061 7.65719 2.02372 7.77895 1.86671C7.90341 1.71653 8.06009 1.59631 8.23736 1.51495C8.41462 1.43358 8.60793 1.39317 8.80295 1.3967H31.1692C31.5618 1.40761 31.9397 1.54866 32.2434 1.79768C32.5472 2.04669 32.7596 2.38957 32.8473 2.77243L37.0408 23.0406C37.0848 23.2345 37.085 23.4358 37.0414 23.6298C36.9977 23.8238 36.9113 24.0057 36.7885 24.162C36.6646 24.3103 36.5092 24.429 36.3335 24.5094C36.1579 24.5899 35.9665 24.6301 35.7733 24.627" fill="white"/>
<path d="M22.4806 11.7173C24.5367 11.7173 26.2037 13.2583 26.2037 15.1611C26.2037 17.0638 24.5367 18.6048 22.4806 18.6048C20.4246 18.6048 18.7576 17.0638 18.7576 15.1611C18.7576 13.2583 20.4242 11.7173 22.4806 11.7173Z" fill="#FFDC50"/>
<path d="M9.54246 25.2682H3.55679C3.35494 25.2715 3.1549 25.2297 2.97132 25.1457C2.78774 25.0617 2.62527 24.9377 2.4958 24.7828C2.36737 24.6195 2.27703 24.4295 2.23137 24.2269C2.18572 24.0242 2.1859 23.8139 2.23191 23.6112L6.613 2.43892C6.70397 2.03844 6.92567 1.67963 7.24313 1.41909C7.56059 1.15855 7.95575 1.0111 8.36628 1C8.50933 1 8.64651 1.05682 8.74766 1.15797C8.84881 1.25912 8.90563 1.39631 8.90563 1.53935C8.90563 1.6824 8.84881 1.81959 8.74766 1.92073C8.64651 2.02188 8.50933 2.07871 8.36628 2.07871C8.20406 2.08924 8.04933 2.15081 7.92422 2.2546C7.79912 2.3584 7.71004 2.4991 7.66974 2.65659L3.28904 23.8301C3.27595 23.8758 3.27314 23.9239 3.2808 23.9708C3.28846 24.0178 3.3064 24.0625 3.33334 24.1017C3.36182 24.1318 3.39662 24.1553 3.43526 24.1705C3.47389 24.1856 3.5154 24.192 3.55679 24.1891H9.54246C9.6855 24.1891 9.82269 24.2459 9.92384 24.3471C10.025 24.4482 10.0818 24.5854 10.0818 24.7285C10.0818 24.8715 10.025 25.0087 9.92384 25.1099C9.82269 25.211 9.6855 25.2682 9.54246 25.2682Z" fill="#A6D7C3"/>
<path d="M36.444 25.268H13.3538C12.9452 25.2546 12.5523 25.1072 12.2356 24.8485C11.9189 24.5898 11.6961 24.2342 11.6013 23.8364L6.94864 2.66373C6.90008 2.46192 6.89744 2.25179 6.94092 2.04882C6.98439 1.84586 7.07287 1.65524 7.19982 1.49102C7.32998 1.33428 7.4937 1.20879 7.67888 1.12384C7.86406 1.03888 8.06596 0.996631 8.26967 1.00021H31.6341C32.0444 1.01135 32.4394 1.15873 32.7568 1.41911C33.0742 1.67949 33.2959 2.03808 33.387 2.43836L37.7673 23.6111C37.8135 23.8136 37.8138 24.0239 37.7683 24.2266C37.7227 24.4293 37.6325 24.6193 37.5042 24.7826C37.3748 24.9374 37.2124 25.0613 37.029 25.1453C36.8456 25.2293 36.6457 25.2712 36.444 25.268ZM8.26967 2.07892C8.22735 2.07588 8.18488 2.08225 8.14531 2.09757C8.10575 2.11289 8.07007 2.13678 8.04083 2.16752C8.01511 2.20606 7.99831 2.24985 7.99164 2.2957C7.98498 2.34155 7.98862 2.38831 8.0023 2.43258L12.6546 23.6057C12.6955 23.7639 12.7848 23.9054 12.9102 24.0102C13.0355 24.1151 13.1905 24.1781 13.3535 24.1905H36.444C36.4853 24.1933 36.5269 24.1869 36.5655 24.1718C36.6041 24.1567 36.6389 24.1332 36.6674 24.103C36.6944 24.0638 36.7123 24.0191 36.7199 23.9722C36.7275 23.9252 36.7246 23.8771 36.7113 23.8314L32.3302 2.6568C32.2899 2.49931 32.2009 2.35861 32.0757 2.25481C31.9506 2.15102 31.7959 2.08945 31.6337 2.07892H8.26967Z" fill="#A6D7C3"/>
<path d="M34.2521 6.61603H7.81797L6.94961 2.66372C6.90106 2.46191 6.89842 2.25178 6.94189 2.04881C6.98537 1.84585 7.07384 1.65523 7.2008 1.49101C7.33085 1.33435 7.49444 1.20891 7.67949 1.12395C7.86453 1.039 8.06629 0.996709 8.26987 1.0002H31.6362C32.0466 1.01134 32.4416 1.15872 32.7589 1.4191C33.0763 1.67948 33.298 2.03807 33.3891 2.43835L34.2521 6.61603ZM8.68364 5.53732H32.9268L32.3297 2.65679C32.2895 2.49977 32.2009 2.35941 32.0764 2.25566C31.9519 2.15192 31.7979 2.09007 31.6362 2.07891H8.26987C8.22755 2.07587 8.18509 2.08224 8.14552 2.09756C8.10595 2.11288 8.07027 2.13677 8.04103 2.16752C8.01544 2.20611 7.99871 2.24989 7.99205 2.29572C7.98539 2.34155 7.98896 2.38828 8.00251 2.43257L8.68364 5.53732Z" fill="#A6D7C3"/>
<path d="M23.6084 19.2192C21.4248 19.2192 19.2666 17.4471 18.797 15.265C18.6691 14.7543 18.6592 14.2212 18.768 13.7061C18.8768 13.191 19.1014 12.7074 19.425 12.292C19.7504 11.9006 20.1607 11.5883 20.6247 11.3789C21.0888 11.1695 21.5944 11.0685 22.1032 11.0835C22.5986 11.0854 23.0902 11.1696 23.558 11.3327C23.6904 11.3815 23.7984 11.4801 23.8589 11.6075C23.9195 11.735 23.9276 11.8811 23.8817 12.0145C23.8358 12.1479 23.7395 12.258 23.6133 12.3212C23.4872 12.3843 23.3413 12.3956 23.207 12.3525C22.0639 11.9592 20.8847 12.2011 20.264 12.9689C20.0437 13.26 19.8921 13.5972 19.8209 13.9553C19.7496 14.3133 19.7604 14.6829 19.8526 15.0362C20.058 15.8906 20.5354 16.6552 21.213 17.2148C21.8906 17.7743 22.7317 18.0986 23.6096 18.1386C23.9558 18.1517 24.3005 18.0861 24.6176 17.9467C24.9348 17.8073 25.2162 17.5978 25.4407 17.3338C25.6624 17.0424 25.8153 16.7045 25.8879 16.3455C25.9604 15.9866 25.9509 15.6159 25.8598 15.2612C25.8452 15.1919 25.8443 15.1203 25.8573 15.0507C25.8702 14.981 25.8968 14.9146 25.9354 14.8552C25.9741 14.7959 26.024 14.7447 26.0824 14.7046C26.1409 14.6645 26.2066 14.6363 26.2759 14.6216C26.3452 14.607 26.4167 14.6061 26.4864 14.6191C26.556 14.632 26.6225 14.6586 26.6818 14.6972C26.7412 14.7359 26.7924 14.7858 26.8325 14.8442C26.8726 14.9027 26.9008 14.9684 26.9154 15.0377C27.0414 15.5496 27.0496 16.0834 26.9394 16.5989C26.8291 17.1144 26.6033 17.5982 26.279 18.0138C25.9542 18.4035 25.5452 18.7144 25.0828 18.9231C24.6204 19.1318 24.1167 19.2328 23.6096 19.2185" fill="#5CB497"/>
<path d="M23.1569 17.1017C23.038 17.1017 22.9225 17.0624 22.8283 16.99L20.9822 15.5734C20.8738 15.4848 20.8041 15.3575 20.7878 15.2184C20.7716 15.0794 20.81 14.9394 20.8951 14.8282C20.9802 14.717 21.1051 14.6432 21.2436 14.6225C21.3821 14.6017 21.5232 14.6356 21.6371 14.717L22.9662 15.7364L25.1568 11.3788C25.2242 11.2569 25.3362 11.1658 25.4693 11.1247C25.6024 11.0835 25.7463 11.0954 25.8708 11.158C25.9953 11.2205 26.0908 11.3288 26.1372 11.4602C26.1836 11.5915 26.1774 11.7358 26.1199 11.8627L23.6354 16.8047C23.5906 16.8941 23.5219 16.9693 23.4368 17.0219C23.3518 17.0744 23.2538 17.1024 23.1538 17.1025L23.1569 17.1017Z" fill="#5CB497"/>
<path d="M30.2936 12.6656H29.2815C29.1385 12.6656 29.0013 12.6088 28.9002 12.5076C28.799 12.4065 28.7422 12.2693 28.7422 12.1263C28.7422 11.9832 28.799 11.846 28.9002 11.7449C29.0013 11.6437 29.1385 11.5869 29.2815 11.5869H30.2924C30.4355 11.5869 30.5727 11.6437 30.6738 11.7449C30.775 11.846 30.8318 11.9832 30.8318 12.1263C30.8318 12.2693 30.775 12.4065 30.6738 12.5076C30.5727 12.6088 30.4355 12.6656 30.2924 12.6656H30.2936Z" fill="#121844"/>
<path d="M30.9264 15.691H29.9178C29.7747 15.691 29.6375 15.6342 29.5364 15.533C29.4352 15.4319 29.3784 15.2947 29.3784 15.1517C29.3784 15.0086 29.4352 14.8714 29.5364 14.7703C29.6375 14.6691 29.7747 14.6123 29.9178 14.6123H30.9264C31.0694 14.6123 31.2066 14.6691 31.3077 14.7703C31.4089 14.8714 31.4657 15.0086 31.4657 15.1517C31.4657 15.2947 31.4089 15.4319 31.3077 15.533C31.2066 15.6342 31.0694 15.691 30.9264 15.691Z" fill="#121844"/>
<path d="M31.5598 18.7149H30.5516C30.4085 18.7149 30.2713 18.6581 30.1702 18.557C30.069 18.4558 30.0122 18.3186 30.0122 18.1756C30.0122 18.0325 30.069 17.8954 30.1702 17.7942C30.2713 17.6931 30.4085 17.6362 30.5516 17.6362H31.5598C31.7028 17.6362 31.84 17.6931 31.9411 17.7942C32.0423 17.8954 32.0991 18.0325 32.0991 18.1756C32.0991 18.3186 32.0423 18.4558 31.9411 18.557C31.84 18.6581 31.7028 18.7149 31.5598 18.7149Z" fill="#121844"/>
<path d="M15.1382 12.6656H14.1277C13.9847 12.6656 13.8475 12.6088 13.7464 12.5076C13.6452 12.4065 13.5884 12.2693 13.5884 12.1263C13.5884 11.9832 13.6452 11.846 13.7464 11.7449C13.8475 11.6437 13.9847 11.5869 14.1277 11.5869H15.1386C15.2817 11.5869 15.4189 11.6437 15.52 11.7449C15.6212 11.846 15.678 11.9832 15.678 12.1263C15.678 12.2693 15.6212 12.4065 15.52 12.5076C15.4189 12.6088 15.2813 12.6656 15.1382 12.6656Z" fill="#121844"/>
<path d="M15.794 15.691H14.7854C14.6424 15.691 14.5052 15.6342 14.4041 15.533C14.3029 15.4319 14.2461 15.2947 14.2461 15.1517C14.2461 15.0086 14.3029 14.8714 14.4041 14.7703C14.5052 14.6691 14.6424 14.6123 14.7854 14.6123H15.794C15.9371 14.6123 16.0743 14.6691 16.1754 14.7703C16.2766 14.8714 16.3334 15.0086 16.3334 15.1517C16.3334 15.2947 16.2766 15.4319 16.1754 15.533C16.0743 15.6342 15.9371 15.691 15.794 15.691Z" fill="#121844"/>
<path d="M16.4486 18.7149H15.4419C15.2989 18.7149 15.1617 18.6581 15.0606 18.557C14.9594 18.4558 14.9026 18.3186 14.9026 18.1756C14.9026 18.0325 14.9594 17.8954 15.0606 17.7942C15.1617 17.6931 15.2989 17.6362 15.4419 17.6362H16.449C16.592 17.6362 16.7292 17.6931 16.8304 17.7942C16.9315 17.8954 16.9883 18.0325 16.9883 18.1756C16.9883 18.3186 16.9315 18.4558 16.8304 18.557C16.7292 18.6581 16.5917 18.7149 16.4486 18.7149Z" fill="#121844"/>
<path d="M29.661 9.64121H28.6504C28.5796 9.64121 28.5095 9.62726 28.444 9.60015C28.3786 9.57305 28.3191 9.53332 28.2691 9.48323C28.219 9.43315 28.1792 9.37369 28.1521 9.30826C28.125 9.24282 28.1111 9.17268 28.1111 9.10185C28.1111 9.03103 28.125 8.96089 28.1521 8.89545C28.1792 8.83001 28.219 8.77056 28.2691 8.72047C28.3191 8.67039 28.3786 8.63066 28.444 8.60356C28.5095 8.57645 28.5796 8.5625 28.6504 8.5625H29.6629C29.7337 8.5625 29.8038 8.57645 29.8693 8.60356C29.9347 8.63066 29.9942 8.67039 30.0443 8.72047C30.0943 8.77056 30.1341 8.83001 30.1612 8.89545C30.1883 8.96089 30.2022 9.03103 30.2022 9.10185C30.2022 9.17268 30.1883 9.24282 30.1612 9.30826C30.1341 9.37369 30.0943 9.43315 30.0443 9.48323C29.9942 9.53332 29.9347 9.57305 29.8693 9.60015C29.8038 9.62726 29.7337 9.64121 29.6629 9.64121H29.661Z" fill="#121844"/>
<path d="M17.1068 21.7394H16.1009C15.9578 21.7394 15.8206 21.6825 15.7195 21.5814C15.6183 21.4802 15.5615 21.343 15.5615 21.2C15.5615 21.057 15.6183 20.9198 15.7195 20.8186C15.8206 20.7175 15.9578 20.6606 16.1009 20.6606H17.1068C17.2498 20.6606 17.387 20.7175 17.4882 20.8186C17.5893 20.9198 17.6461 21.057 17.6461 21.2C17.6461 21.343 17.5893 21.4802 17.4882 21.5814C17.387 21.6825 17.2498 21.7394 17.1068 21.7394Z" fill="#121844"/>
<path d="M22.3023 21.7394H21.2952C21.1522 21.7394 21.015 21.6825 20.9138 21.5814C20.8127 21.4802 20.7559 21.343 20.7559 21.2C20.7559 21.057 20.8127 20.9198 20.9138 20.8186C21.015 20.7175 21.1522 20.6606 21.2952 20.6606H22.3003C22.4434 20.6606 22.5806 20.7175 22.6817 20.8186C22.7829 20.9198 22.8397 21.057 22.8397 21.2C22.8397 21.343 22.7829 21.4802 22.6817 21.5814C22.5806 21.6825 22.4434 21.7394 22.3003 21.7394" fill="#121844"/>
<path d="M27.1629 21.7394H26.1578C26.0147 21.7394 25.8775 21.6825 25.7764 21.5814C25.6752 21.4802 25.6184 21.343 25.6184 21.2C25.6184 21.057 25.6752 20.9198 25.7764 20.8186C25.8775 20.7175 26.0147 20.6606 26.1578 20.6606H27.1629C27.3059 20.6606 27.4431 20.7175 27.5443 20.8186C27.6454 20.9198 27.7022 21.057 27.7022 21.2C27.7022 21.343 27.6454 21.4802 27.5443 21.5814C27.4431 21.6825 27.3059 21.7394 27.1629 21.7394Z" fill="#121844"/>
<path d="M24.4323 9.64121H23.4202C23.2772 9.64121 23.14 9.58438 23.0388 9.48323C22.9377 9.38209 22.8809 9.2449 22.8809 9.10185C22.8809 8.95881 22.9377 8.82162 23.0388 8.72047C23.14 8.61933 23.2772 8.5625 23.4202 8.5625H24.4323C24.5031 8.5625 24.5732 8.57645 24.6387 8.60356C24.7041 8.63066 24.7636 8.67039 24.8137 8.72047C24.8637 8.77056 24.9035 8.83001 24.9306 8.89545C24.9577 8.96089 24.9716 9.03103 24.9716 9.10185C24.9716 9.17268 24.9577 9.24282 24.9306 9.30826C24.9035 9.37369 24.8637 9.43315 24.8137 9.48323C24.7636 9.53332 24.7041 9.57305 24.6387 9.60015C24.5732 9.62726 24.5031 9.64121 24.4323 9.64121Z" fill="#121844"/>
</svg>
