<svg width="45" height="40" viewBox="0 0 45 40" fill="none" xmlns="http://www.w3.org/2000/svg">
<path d="M3.7238 4.65445L7.38854 8.3192C8.39835 7.0943 8.94886 5.5553 8.94504 3.96782C8.94536 3.35183 8.86284 2.7386 8.69971 2.14461C6.85387 2.5422 5.14084 3.40651 3.72431 4.65496M2.75162 5.62663C1.50339 7.04345 0.638801 8.75633 0.24025 10.602C1.29987 10.8924 2.41356 10.9252 3.48845 10.6978C4.56333 10.4703 5.56826 9.98915 6.41942 9.29443L2.75162 5.62663ZM11.008 1.90284C10.6939 1.90284 10.3804 1.91607 10.0709 1.94152C10.2368 2.604 10.3204 3.28439 10.3198 3.96731C10.322 5.91969 9.63035 7.80932 8.36835 9.29901L11.008 11.9397L18.2922 4.65445C16.2814 2.87881 13.6905 1.9001 11.008 1.90284ZM2.06448 12.2237C1.38152 12.2239 0.701128 12.1399 0.0386892 11.9738C0.0132395 12.2827 5.73653e-06 12.5968 5.73653e-06 12.9108C-0.002734 15.5934 0.975976 18.1843 2.75162 20.195L10.0358 12.9108L7.39618 10.2712C5.90681 11.5339 4.01705 12.2259 2.06448 12.2237ZM21.9773 13.8463C22.0038 13.5364 22.017 13.2223 22.017 12.9083C22.0195 10.2256 21.0404 7.6347 19.2644 5.62408L11.9797 12.9108L14.6203 15.5515C15.6234 14.7039 16.8137 14.1073 18.093 13.8108C19.3722 13.5143 20.7037 13.5265 21.9773 13.8463ZM21.7737 15.2181C20.7141 14.9277 19.6004 14.8949 18.5255 15.1224C17.4506 15.3498 16.4457 15.831 15.5945 16.5257L19.2623 20.1904C20.5139 18.7778 21.3795 17.066 21.7752 15.2206L21.7737 15.2181ZM14.6223 17.4963C13.928 18.3477 13.4471 19.3527 13.2199 20.4275C12.9926 21.5023 13.0255 22.6159 13.3158 23.6755C15.1612 23.2769 16.8737 22.4123 18.2901 21.1641L14.6254 17.4994L14.6223 17.4963ZM13.6466 16.5206L11.006 13.8799L3.7238 21.1667C5.73352 22.9442 8.325 23.9235 11.008 23.9193C11.322 23.9193 11.6356 23.9061 11.9461 23.8806C11.6259 22.6071 11.6134 21.2757 11.9094 19.9964C12.2055 18.7171 12.8016 17.5266 13.6486 16.5231" fill="#5CB497"/>
<path d="M7.0173 32.5698C7.0173 32.6461 7.01221 32.7225 7.01221 32.8024C7.01221 33.5184 7.15326 34.2274 7.42732 34.8888C7.70138 35.5503 8.10306 36.1512 8.60943 36.6574C9.1158 37.1636 9.71693 37.5651 10.3785 37.8389C11.04 38.1127 11.7491 38.2535 12.465 38.2532C12.5439 38.2532 12.6177 38.2532 12.6956 38.2491C12.6146 38.0203 12.5548 37.7845 12.517 37.5447C12.4034 36.8444 12.474 36.1265 12.7218 35.4617C12.9696 34.7969 13.386 34.208 13.9303 33.7529C14.4745 33.2977 15.1278 32.992 15.8259 32.8656C16.5241 32.7393 17.2431 32.7968 17.9123 33.0325C17.9153 32.9561 17.9153 32.8798 17.9153 32.8009C17.9152 31.3554 17.3409 29.9692 16.3188 28.9471C15.2967 27.925 13.9105 27.3507 12.465 27.3506C12.3841 27.3506 12.3078 27.3506 12.2324 27.3547C12.4891 28.082 12.5348 28.8671 12.3642 29.6194C12.1936 30.3716 11.8136 31.0602 11.2682 31.6056C10.7228 32.151 10.0342 32.5309 9.282 32.7016C8.52978 32.8722 7.74465 32.8265 7.0173 32.5698ZM11.417 27.4504C10.3535 27.66 9.37638 28.1811 8.60981 28.9475C7.84324 29.7139 7.32186 30.6909 7.11197 31.7544C7.71396 32.0043 8.37655 32.0699 9.01587 31.9431C9.65519 31.8162 10.2425 31.5025 10.7034 31.0416C11.1644 30.5808 11.4782 29.9936 11.6052 29.3543C11.7323 28.715 11.6668 28.0524 11.417 27.4504ZM16.4998 33.5985C16.0274 33.606 15.5621 33.7159 15.1362 33.9207C14.7094 34.1234 14.3314 34.4159 14.0281 34.7782C13.7248 35.1404 13.5032 35.564 13.3787 36.0197C13.253 36.4755 13.228 36.9531 13.3054 37.4195C13.3456 37.6724 13.4158 37.9197 13.5146 38.156C14.5781 37.9468 15.5552 37.4258 16.3216 36.6593C17.0879 35.8928 17.6087 34.9155 17.8176 33.852C17.3999 33.6801 16.9515 33.595 16.4998 33.602V33.5985Z" fill="#FFDC50"/>
<path d="M32.3544 12.1344C32.3191 12.0494 32.3187 11.9538 32.3533 11.8685C32.388 11.7832 32.4548 11.7149 32.5394 11.6785C32.7778 11.5777 32.9779 11.4036 33.1107 11.1814C33.2435 10.9592 33.3021 10.7005 33.2779 10.4428L33.0816 8.33456C33.0769 8.2882 33.0817 8.24137 33.0957 8.19693C33.1097 8.15249 33.1326 8.11136 33.1631 8.07608L33.6745 7.47728C33.7237 7.41961 33.753 7.34763 33.758 7.272L33.8591 5.69701C33.8633 5.62433 33.8444 5.5522 33.8051 5.49089C33.7659 5.42959 33.7083 5.38223 33.6406 5.35559L33.1025 5.13937L32.2714 7.18783L32.5824 10.5101C32.5928 10.6208 32.5676 10.7319 32.5105 10.8273C32.4534 10.9227 32.3675 10.9974 32.2651 11.0406L30.182 11.9205C30.119 11.9475 30.0512 11.9617 29.9826 11.9623C29.9141 11.9629 29.846 11.95 29.7825 11.9242C29.719 11.8984 29.6611 11.8603 29.6124 11.8121C29.5636 11.7638 29.5249 11.7065 29.4984 11.6432L28.6185 9.56019C28.5747 9.45743 28.565 9.34336 28.5908 9.23468C28.6165 9.126 28.6764 9.02844 28.7617 8.95628L31.3025 6.79198L32.1326 4.74378L31.5937 4.52461C31.5259 4.49722 31.4512 4.49185 31.3802 4.50928C31.3092 4.52671 31.2455 4.56605 31.1981 4.62172L30.1733 5.82194C30.1239 5.87944 30.0945 5.95152 30.0898 6.02723L30.0371 6.81346C30.0343 6.86006 30.0222 6.90562 30.0015 6.94741C29.9807 6.98921 29.9517 7.02638 29.9162 7.05668L28.305 8.42837C28.1084 8.59671 27.9704 8.82311 27.9108 9.07494C27.8512 9.32676 27.8731 9.59101 27.9734 9.82959C28.0091 9.9146 28.0097 10.0103 27.975 10.0958C27.9404 10.1812 27.8732 10.2494 27.7884 10.2855L27.6287 10.3526C27.5656 10.3795 27.4978 10.3937 27.4292 10.3944C27.3605 10.3951 27.2925 10.3821 27.2288 10.3564C27.1652 10.3306 27.1073 10.2926 27.0585 10.2444C27.0096 10.1962 26.9708 10.1388 26.9442 10.0755L26.5081 9.03875C26.4566 8.91702 26.4409 8.78317 26.4627 8.65284C26.4845 8.5225 26.5429 8.40105 26.6312 8.30269L30.5412 3.94668C30.6496 3.82734 30.7355 3.68932 30.7946 3.53934L31.1277 2.71957L35.2309 4.38581L34.8981 5.20656C34.8374 5.35559 34.8027 5.51393 34.7955 5.67469L34.5618 11.522C34.5567 11.654 34.5142 11.7818 34.4392 11.8904C34.3642 11.9991 34.2598 12.0842 34.1382 12.1358L33.1024 12.5716C33.0394 12.5984 32.9716 12.6125 32.9031 12.613C32.8345 12.6136 32.7666 12.6006 32.7031 12.5748C32.6395 12.5491 32.5817 12.511 32.533 12.4629C32.4842 12.4147 32.4454 12.3574 32.4188 12.2942L32.3544 12.1344ZM35.494 3.74134L31.391 2.07609L31.4705 1.87926C31.6913 1.33517 32.1192 0.901081 32.6601 0.672495C33.201 0.443909 33.8105 0.439549 34.3546 0.660375C34.8987 0.881201 35.3328 1.30912 35.5614 1.85001C35.79 2.39089 35.7944 3.00042 35.5735 3.54452L35.494 3.74134Z" fill="#3A2968"/>
<path d="M42.9228 27.9446C42.6789 27.4753 42.4085 27.0202 42.113 26.5815C40.7382 24.5102 38.6948 22.9728 36.3237 22.2256C35.0259 21.8241 33.6744 21.6235 32.3159 21.6306L25.4852 32.9302C25.7294 33.3991 25.9998 33.8538 26.295 34.2923C27.6698 36.3638 29.7131 37.9016 32.0843 38.6492C33.3807 39.0515 34.7312 39.2523 36.0886 39.2448L42.9228 27.9446ZM38.3882 39.0875C40.4315 38.8012 42.4194 38.206 44.2839 37.3223C44.5128 37.2125 44.7033 37.0363 44.8305 36.8165C44.9576 36.5967 45.0155 36.3437 44.9965 36.0905C44.8654 34.0458 44.4747 32.026 43.8339 30.0798L38.3882 39.0875ZM24.5792 30.7914L30.0204 21.7878C27.9775 22.0753 25.9899 22.6704 24.1252 23.553C23.8964 23.663 23.7061 23.8393 23.579 24.059C23.4519 24.2787 23.3939 24.5316 23.4126 24.7848C23.544 26.8295 23.9346 28.8492 24.5752 30.7955L24.5792 30.7914ZM37.7326 29.7581C37.8746 29.8447 37.9767 29.984 38.0164 30.1455C38.0562 30.307 38.0305 30.4777 37.9449 30.6204L36.1049 33.6647C36.0622 33.7352 36.006 33.7967 35.9396 33.8455C35.8732 33.8944 35.7978 33.9297 35.7177 33.9494C35.6376 33.9691 35.5545 33.9728 35.473 33.9604C35.3914 33.948 35.3132 33.9196 35.2426 33.8769C35.1721 33.8342 35.1106 33.7781 35.0618 33.7116C35.0129 33.6452 34.9776 33.5698 34.9579 33.4898C34.9382 33.4097 34.9345 33.3265 34.9469 33.245C34.9593 33.1635 34.9877 33.0852 35.0304 33.0147L36.8704 29.9714C36.9568 29.8292 37.096 29.727 37.2575 29.687C37.4191 29.6471 37.5899 29.6726 37.7326 29.7581ZM35.4498 28.3783C35.5918 28.4649 35.6938 28.6041 35.7336 28.7656C35.7734 28.9272 35.7476 29.0979 35.662 29.2405L33.822 32.2848C33.7358 32.4273 33.5966 32.5297 33.4349 32.5695C33.2732 32.6093 33.1023 32.5832 32.9598 32.497C32.8173 32.4108 32.7149 32.2716 32.6751 32.1099C32.6353 31.9482 32.6614 31.7773 32.7475 31.6348L34.5876 28.5905C34.6743 28.4487 34.8136 28.3469 34.975 28.3071C35.1365 28.2674 35.3071 28.2929 35.4498 28.3783ZM33.167 26.9984C33.309 27.085 33.411 27.2242 33.4508 27.3858C33.4905 27.5473 33.4648 27.718 33.3792 27.8606L31.5387 30.9039C31.496 30.9744 31.4399 31.0359 31.3734 31.0847C31.307 31.1336 31.2316 31.1689 31.1515 31.1886C31.0715 31.2083 30.9883 31.212 30.9068 31.1996C30.8253 31.1872 30.747 31.1588 30.6765 31.1161C30.6059 31.0735 30.5444 31.0173 30.4956 30.9509C30.4467 30.8844 30.4115 30.809 30.3918 30.729C30.372 30.6489 30.3683 30.5658 30.3807 30.4842C30.3932 30.4027 30.4215 30.3245 30.4642 30.2539L32.3042 27.2096C32.391 27.0678 32.5302 26.966 32.6917 26.9262C32.8531 26.8865 33.0237 26.912 33.1664 26.9974" fill="#121844"/>
</svg>
