<svg width="46" height="41" viewBox="0 0 46 41" fill="none" xmlns="http://www.w3.org/2000/svg">
<path d="M12.2781 7.044C12.1753 7.08372 12.0604 7.0902 11.9528 7.06235C11.8453 7.03449 11.7518 6.97401 11.6882 6.89118C11.2871 6.50702 10.8998 6.1062 10.4607 5.75965C9.69341 5.11544 8.74583 4.67116 7.71942 4.47436C7.04413 4.35147 6.34544 4.382 5.68657 4.5632C5.0277 4.7444 4.42943 5.07054 3.94591 5.51211C3.75575 5.67875 3.6118 5.88328 3.52568 6.10919C3.43956 6.3351 3.41369 6.57607 3.45015 6.81263C3.45439 6.85215 3.46444 6.89167 3.46973 6.93118C3.48938 6.9945 3.49257 7.06102 3.47906 7.12563C3.46554 7.19023 3.43568 7.25117 3.39179 7.30373C3.3479 7.35629 3.29116 7.39906 3.22596 7.42873C3.16075 7.45839 3.08883 7.47416 3.01577 7.47481C2.44276 7.56478 2.22212 7.3596 2.3745 6.85263C2.48773 6.4837 2.65863 6.12857 2.77608 5.76013C2.85841 5.52295 2.90625 5.27718 2.91841 5.02895C2.9007 4.49344 3.05976 3.96523 3.37552 3.51101C3.69127 3.05679 4.14954 2.69695 4.69247 2.47692C5.70434 2.03945 6.84169 1.89382 7.94905 2.05993C8.77654 2.16648 9.57612 2.40558 10.3099 2.76589C11.3232 3.24832 12.1161 4.03539 12.5506 4.98991C12.7331 5.36152 12.802 5.77023 12.7501 6.17381" fill="#FCE469"/>
<path d="M11.4878 8.85243C11.4612 8.75458 11.4729 8.65145 11.5212 8.56052C11.5694 8.46959 11.6511 8.39647 11.7524 8.35355C12.2391 8.06031 12.7418 7.78231 13.1931 7.44909C14.0242 6.87285 14.6654 6.10406 15.0481 5.22506C15.293 4.64564 15.3734 4.02041 15.282 3.40599C15.1907 2.79156 14.9304 2.20733 14.5248 1.70621C14.3731 1.51036 14.1723 1.34935 13.9387 1.23615C13.7051 1.12294 13.4451 1.06073 13.1799 1.05452C13.1354 1.05452 13.091 1.05452 13.0466 1.05452C12.9739 1.06166 12.9004 1.05365 12.8317 1.03112C12.763 1.00859 12.7011 0.972138 12.6506 0.924591C12.6001 0.877044 12.5624 0.819688 12.5405 0.756945C12.5186 0.694202 12.5131 0.627767 12.5243 0.562786C12.519 0.0391496 12.7809 -0.125079 13.3106 0.0953241C13.6973 0.256223 14.0587 0.465195 14.4434 0.629903C14.6901 0.741768 14.9519 0.824332 15.2222 0.875532C15.8122 0.947438 16.3653 1.17486 16.8119 1.52913C17.2585 1.8834 17.5785 2.34867 17.7317 2.86631C18.0462 3.83599 18.0203 4.86938 17.6576 5.82533C17.4063 6.54195 17.0144 7.2123 16.5005 7.80468C15.806 8.62532 14.8137 9.20093 13.6963 9.43129C13.259 9.53241 12.7997 9.52681 12.3656 9.41509" fill="#FCE469"/>
<mask id="mask0_5251_23207" style="mask-type:luminance" maskUnits="userSpaceOnUse" x="0" y="-18" width="46" height="59">
<path d="M36.5684 -17.5151H8.56341C3.83397 -17.5151 0 -14.0657 0 -9.81054V32.9853C0 37.2405 3.83397 40.6899 8.56341 40.6899H36.5684C41.2979 40.6899 45.1318 37.2405 45.1318 32.9853V-9.81054C45.1318 -14.0657 41.2979 -17.5151 36.5684 -17.5151Z" fill="white"/>
</mask>
<g mask="url(#mask0_5251_23207)">
<path d="M0.519611 26.6599C0.236547 26.6681 0 26.4526 0 26.1694V7.68994C0 6.58537 0.895431 5.68994 2 5.68994H27.3161C27.6874 5.68994 27.9632 6.00142 27.9632 6.37272C27.9613 12.8922 27.9613 19.4118 27.9632 25.9316V26.0934C27.9632 26.4062 27.7095 26.6599 27.3966 26.6599C18.4375 26.6599 9.4785 26.6599 0.519611 26.6599Z" fill="#67BFA8"/>
<path d="M13.7981 31.3597H10.2921C10.481 34.6817 8.61238 36.6553 6.76207 36.6895C4.98792 36.7218 2.97052 34.8283 3.17102 31.3458H0V27.2984H28.8465V9.73542C29.0408 9.7235 29.1854 9.70661 29.3299 9.70661C32.3408 9.70661 35.3525 9.71357 38.3627 9.69419C38.4996 9.6753 38.6373 9.71979 38.7507 9.81962C38.8641 9.91945 38.9458 10.068 38.9809 10.2383C39.9259 13.0366 40.8926 15.8229 41.8457 18.6163C41.931 18.8399 41.9806 19.0829 41.9918 19.3313C42.0006 23.2097 42.0023 27.0882 41.9969 30.9667C41.9969 31.0611 41.9856 31.155 41.9759 31.312H36.6713C36.5485 34.7697 35.1054 36.8152 32.9248 36.6811C31.1219 36.5703 29.3377 34.5943 29.5327 31.3587H20.974C21.0422 32.1124 20.9721 32.876 20.7692 33.5889C20.5663 34.3018 20.2362 34.9445 19.8052 35.4658C19.456 35.8856 19.0432 36.2093 18.5923 36.4169C18.1413 36.6244 17.6619 36.7114 17.1836 36.6724C16.7053 36.6334 16.2383 36.4693 15.8117 36.1902C15.385 35.9111 15.0077 35.523 14.703 35.0499C14.0918 34.1153 14.0044 33.7233 13.7981 31.3597ZM39.7091 18.8642C39.6566 18.6729 39.624 18.5269 39.5777 18.3892C38.9642 16.5653 38.3394 14.7472 37.7414 12.9143C37.7013 12.7328 37.612 12.5754 37.4895 12.4702C37.367 12.3651 37.2193 12.3191 37.0727 12.3405C35.2406 12.3598 33.4082 12.3489 31.5762 12.3514C31.4468 12.3514 31.3174 12.3737 31.1771 12.3867V18.8642H39.7091ZM8.10998 32.0195C8.11533 31.5444 7.9752 31.0854 7.71952 30.7405C7.46383 30.3956 7.11283 30.1922 6.74147 30.1737C6.37056 30.1885 6.01804 30.3838 5.75596 30.7197C5.49388 31.0557 5.34201 31.507 5.3314 31.9813C5.32672 32.4566 5.46939 32.915 5.72823 33.2562C5.98707 33.5975 6.34102 33.7938 6.71273 33.8023C6.89676 33.806 7.07951 33.7625 7.25015 33.6743C7.42079 33.5861 7.57586 33.455 7.70615 33.2887C7.83645 33.1225 7.93932 32.9245 8.00869 32.7065C8.07805 32.4885 8.1125 32.2549 8.10998 32.0195ZM33.1098 33.8028C33.294 33.7993 33.4758 33.7494 33.6448 33.6559C33.8139 33.5624 33.9668 33.4271 34.0949 33.2579C34.2229 33.0886 34.3236 32.8886 34.391 32.6695C34.4585 32.4503 34.4915 32.2163 34.488 31.9808C34.4795 31.5058 34.3285 31.0532 34.0661 30.7167C33.8037 30.3803 33.4501 30.1858 33.0787 30.1737C32.7076 30.1939 32.3571 30.398 32.1015 30.7426C31.8459 31.0873 31.7052 31.5456 31.709 32.0205C31.7073 32.2559 31.7424 32.4893 31.8123 32.707C31.8822 32.9247 31.9854 33.1223 32.116 33.2882C32.2465 33.4541 32.4017 33.5849 32.5724 33.6729C32.743 33.761 32.9258 33.8044 33.1098 33.8008V33.8028ZM18.7856 31.9758C18.7865 31.7413 18.7509 31.5089 18.6807 31.2922C18.6106 31.0755 18.5073 30.8788 18.3771 30.7137C18.2468 30.5487 18.0921 30.4184 17.922 30.3307C17.7519 30.243 17.5698 30.1995 17.3864 30.2028C17.203 30.2061 17.022 30.2561 16.8539 30.3499C16.6858 30.4438 16.534 30.5795 16.4074 30.7492C16.2808 30.9189 16.182 31.1192 16.1166 31.3384C16.0513 31.5575 16.0208 31.7911 16.0268 32.0255C16.0294 32.2571 16.0676 32.4859 16.1393 32.6986C16.211 32.9114 16.3147 33.104 16.4446 33.2655C16.5745 33.427 16.728 33.5541 16.8963 33.6398C17.0646 33.7254 17.2445 33.7678 17.4257 33.7645C17.6068 33.7613 17.7857 33.7124 17.952 33.6208C18.1184 33.5291 18.269 33.3964 18.3953 33.2303C18.5216 33.0642 18.6211 32.868 18.688 32.6527C18.755 32.4375 18.7882 32.2075 18.7856 31.9758Z" fill="white"/>
</g>
<path opacity="0.63" d="M16.3517 8.1001H0V11.3762H16.3517V8.1001Z" fill="#A6D7C3"/>
<path opacity="0.63" d="M16.3517 13.9937H0V17.2697H16.3517V13.9937Z" fill="#A6D7C3"/>
<path opacity="0.63" d="M16.3517 19.8872H0V23.1633H16.3517V19.8872Z" fill="#A6D7C3"/>
<path d="M17.5 37.6899C19.9853 37.6899 22 35.6752 22 33.1899C22 30.7047 19.9853 28.6899 17.5 28.6899C15.0147 28.6899 13 30.7047 13 33.1899C13 35.6752 15.0147 37.6899 17.5 37.6899Z" fill="#333465"/>
<path d="M6.5 37.6899C8.98528 37.6899 11 35.6752 11 33.1899C11 30.7047 8.98528 28.6899 6.5 28.6899C4.01472 28.6899 2 30.7047 2 33.1899C2 35.6752 4.01472 37.6899 6.5 37.6899Z" fill="#333465"/>
<path d="M6.5 35.6899C7.88071 35.6899 9 34.5707 9 33.1899C9 31.8092 7.88071 30.6899 6.5 30.6899C5.11929 30.6899 4 31.8092 4 33.1899C4 34.5707 5.11929 35.6899 6.5 35.6899Z" fill="#67BFA8"/>
<path d="M17.5 35.6899C18.8807 35.6899 20 34.5707 20 33.1899C20 31.8092 18.8807 30.6899 17.5 30.6899C16.1193 30.6899 15 31.8092 15 33.1899C15 34.5707 16.1193 35.6899 17.5 35.6899Z" fill="#67BFA8"/>
<path d="M33.5 37.6899C35.9853 37.6899 38 35.6752 38 33.1899C38 30.7047 35.9853 28.6899 33.5 28.6899C31.0147 28.6899 29 30.7047 29 33.1899C29 35.6752 31.0147 37.6899 33.5 37.6899Z" fill="#333465"/>
<path d="M33.5 35.6899C34.8807 35.6899 36 34.5707 36 33.1899C36 31.8092 34.8807 30.6899 33.5 30.6899C32.1193 30.6899 31 31.8092 31 33.1899C31 34.5707 32.1193 35.6899 33.5 35.6899Z" fill="#67BFA8"/>
<path d="M4.61182 5.26078C4.67368 5.17685 4.76592 5.11479 4.87288 5.08511C4.97984 5.05544 5.09492 5.05997 5.19858 5.09797C5.76842 5.22221 6.33614 5.36741 6.91444 5.44167C7.94823 5.60317 9.01136 5.50872 9.99007 5.16843C10.6302 4.939 11.1966 4.56962 11.6381 4.09369C12.0796 3.61776 12.3822 3.05029 12.5186 2.44265C12.5765 2.20954 12.5727 1.96745 12.5075 1.73591C12.4422 1.50437 12.3173 1.28988 12.143 1.10977C12.1149 1.07882 12.0832 1.05122 12.0551 1.02028C12.0002 0.976927 11.9571 0.922787 11.9292 0.86206C11.9013 0.801333 11.8893 0.735643 11.8941 0.670066C11.8989 0.604488 11.9204 0.540783 11.9569 0.483883C11.9935 0.426982 12.0441 0.378407 12.1049 0.341921C12.5281 -0.0151039 12.8419 0.0467837 13.0191 0.547571C13.1488 0.912212 13.2218 1.29352 13.3472 1.66006C13.4222 1.89936 13.5316 2.12883 13.6726 2.34269C14.0129 2.78231 14.2008 3.30284 14.2125 3.83849C14.2241 4.37414 14.0591 4.90088 13.7382 5.35217C13.157 6.21641 12.2933 6.89805 11.2652 7.30391C10.5083 7.62189 9.69421 7.81536 8.86151 7.87516C7.71974 7.96913 6.57753 7.69957 5.63402 7.1135C5.25532 6.89218 4.94918 6.58388 4.74726 6.22046" fill="#FCE469"/>
</svg>
