<svg width="40" height="42" viewBox="0 0 40 42" fill="none" xmlns="http://www.w3.org/2000/svg">
<mask id="mask0_5251_23233" style="mask-type:luminance" maskUnits="userSpaceOnUse" x="0" y="3" width="40" height="40">
<path d="M40 3.77539H0V42.8139H40V3.77539Z" fill="white"/>
</mask>
<g mask="url(#mask0_5251_23233)">
<path d="M37.609 19.8835C37.5056 20.6578 37.5646 21.1747 36.2961 21.6911C35.9656 21.8242 35.2162 22.1268 34.2689 22.503L33.961 22.6251L33.3651 22.8602C33.0545 22.9831 32.7311 23.1096 32.4023 23.2382C31.932 23.4219 31.4493 23.6087 30.9719 23.7924L30.6999 23.8967C29.309 24.4659 27.8899 24.9635 26.4481 25.3874C25.873 25.4252 25.2985 25.3063 24.7856 25.0436C24.5757 24.948 24.3756 24.8324 24.1879 24.6984C23.7553 24.3812 23.5916 24.0378 24.0801 23.8612L24.8588 23.5768C26.027 23.1486 28.1611 22.3602 30.1732 21.5802C30.2642 21.5451 30.3556 21.5096 30.4448 21.4746C31.554 21.042 32.6086 20.6187 33.4246 20.2655C33.531 20.22 33.6327 20.1756 33.7294 20.1324C34.1716 19.9671 34.5906 19.745 34.9757 19.4718C35.2539 19.1528 35.9687 19.0667 36.5836 19.1612C37.1662 19.2499 37.6591 19.5059 37.6094 19.8822" fill="#232B62"/>
<path d="M20.7875 26.4555C20.7875 28.129 20.5701 28.6739 21.7876 28.6943C23.0051 28.7147 23.6133 28.6717 23.6351 28.0856C23.6568 27.4994 23.6351 26.2163 23.6351 26.2163L20.7875 26.4555Z" fill="#232B62"/>
<path d="M18.6152 25.4032C18.7483 26.1042 18.9405 26.9561 22.5809 26.8785C26.2213 26.8008 26.4472 25.3837 26.4472 25.3837L23.4718 24.479L18.9396 24.6338L18.6152 25.4032Z" fill="#0C123F"/>
<path d="M21.2513 26.9698C19.599 27.3957 18.7223 27.6256 18.0239 27.4579C17.3255 27.2901 14.5769 26.582 14.5769 27.1371C14.5769 27.4574 17.2364 28.1828 18.1659 28.1181C19.2852 27.9312 20.3897 27.6643 21.4709 27.3194L21.2513 26.9698Z" fill="#121844"/>
<path d="M36.8335 19.5721C36.5602 19.9466 35.4177 20.534 33.9606 21.1534L33.6545 21.282C32.7179 21.6716 31.6743 22.0687 30.6601 22.4285L30.3868 22.5252C28.3178 23.2502 26.4251 23.8031 25.8904 23.8008C25.6012 23.8008 26.0497 24.6381 25.0758 24.9677C24.981 24.9994 24.884 25.0241 24.7857 25.0418C24.5353 25.0846 24.2814 25.1037 24.0274 25.0986C22.3082 25.0838 20.5911 24.9733 18.8842 24.7676C17.8504 24.6438 16.9466 24.5014 16.2092 24.3683C15.5158 24.2432 14.97 24.1265 14.6018 24.0427C14.2504 23.9619 14.0609 23.9095 14.0609 23.9095L7.34662 8.08197L5.70499 6.25975L5.64819 6.42879C5.76222 6.40395 6.10963 6.5619 6.22498 6.53528L5.73294 6.07429C10.6348 4.96596 18.1672 2.85447 19.3275 4.56887C20.1341 5.76105 20.9882 11.8941 22.5526 15.7404C22.8404 16.4982 23.2255 17.2152 23.6982 17.8737C23.966 18.2538 24.3248 18.5609 24.7417 18.7668C24.9235 18.8483 25.1194 18.8935 25.3185 18.8999C25.7303 18.9119 26.2143 18.9145 26.7481 18.9128C27.5911 18.9088 28.0317 18.9034 29.0269 18.8879L29.8512 18.8706C30.9569 18.8533 32.0834 18.8404 33.1021 18.8515L33.4389 18.8564C34.4957 18.822 35.5525 18.9239 36.5833 19.1595C36.8601 19.2628 36.9617 19.3973 36.8339 19.5725" fill="#0C123F"/>
<path d="M27.1914 24.7941C27.1834 26.0715 21.2274 25.7086 14.8197 25.0448C13.5033 24.9082 12.4451 23.5602 11.5488 21.7132C11.3115 21.2251 11.0852 20.6994 10.8687 20.1532C10.0438 18.0723 9.35747 15.6769 8.71102 13.7025C7.70873 10.6432 4.33539 6.72106 5.61365 6.11543C5.72167 6.06858 5.8376 6.04268 5.95529 6.03912C6.20906 6.03236 6.46262 6.05876 6.70955 6.11765C9.12675 6.63055 11.0501 14.8432 13.3276 19.6501C13.5711 20.1638 13.8183 20.6386 14.0707 21.0605C14.7873 22.2585 15.5447 23.0367 16.3668 23.0806C19.1824 23.2328 23.732 23.1609 25.9251 23.7967C26.7104 24.0243 27.1936 24.3416 27.1905 24.7919" fill="#232B62"/>
<path d="M34.0944 38.409C34.0944 39.0266 31.072 38.4059 27.9857 37.7807C26.6396 37.5074 25.2793 37.2341 24.1559 37.0624C23.5113 36.9481 22.8582 36.8887 22.2036 36.8849C21.0134 36.9761 19.8286 37.1288 18.6542 37.3423C18.088 37.4333 17.4957 37.5345 16.8972 37.6361C13.459 38.22 9.82793 38.8629 9.88694 38.4347C9.98056 37.7315 19.8699 34.5205 22.2045 34.5205C24.5117 34.5205 34.0953 37.8708 34.0953 38.4099" fill="#121844"/>
<path d="M33.3505 38.8169C33.6142 38.8147 33.8726 38.8909 34.093 39.0359C34.3133 39.1808 34.4857 39.3879 34.5881 39.6309C34.6906 39.8739 34.7185 40.1419 34.6684 40.4008C34.6183 40.6597 34.4924 40.8979 34.3067 41.0852C34.121 41.2725 33.8839 41.4003 33.6254 41.4526C33.3669 41.5049 33.0987 41.4792 32.8548 41.3788C32.6109 41.2783 32.4024 41.1078 32.2556 40.8886C32.1089 40.6695 32.0305 40.4117 32.0305 40.148C32.0291 39.7965 32.1674 39.4588 32.4149 39.2092C32.6624 38.9595 32.999 38.8185 33.3505 38.8169Z" fill="#0B113C"/>
<path d="M33.3505 39.584C33.4623 39.583 33.5719 39.6153 33.6654 39.6767C33.7588 39.7382 33.8319 39.826 33.8754 39.929C33.9188 40.032 33.9307 40.1457 33.9095 40.2555C33.8883 40.3653 33.8349 40.4663 33.7562 40.5457C33.6775 40.6251 33.5769 40.6793 33.4673 40.7015C33.3577 40.7237 33.244 40.7128 33.1406 40.6702C33.0371 40.6277 32.9487 40.5553 32.8865 40.4624C32.8242 40.3695 32.791 40.2602 32.791 40.1484C32.7907 40.0746 32.8049 40.0014 32.8328 39.9331C32.8607 39.8648 32.9018 39.8027 32.9538 39.7503C33.0058 39.6978 33.0675 39.6562 33.1356 39.6277C33.2037 39.5991 33.2767 39.5843 33.3505 39.584Z" fill="#67BFA8"/>
<path d="M28.151 39.1016C28.4147 39.0994 28.6732 39.1756 28.8935 39.3205C29.1139 39.4654 29.2862 39.6725 29.3886 39.9156C29.4911 40.1586 29.519 40.4265 29.4689 40.6855C29.4188 40.9444 29.293 41.1826 29.1073 41.3699C28.9215 41.5571 28.6844 41.685 28.4259 41.7373C28.1674 41.7895 27.8992 41.7638 27.6553 41.6634C27.4115 41.563 27.2029 41.3924 27.0562 41.1733C26.9094 40.9542 26.8311 40.6964 26.8311 40.4327C26.8297 40.0811 26.9679 39.7434 27.2154 39.4938C27.463 39.2442 27.7995 39.1031 28.151 39.1016Z" fill="#0C123F"/>
<path d="M28.1486 39.8692C28.2604 39.8682 28.37 39.9005 28.4635 39.9619C28.5569 40.0233 28.63 40.1111 28.6735 40.2142C28.7169 40.3172 28.7288 40.4308 28.7076 40.5406C28.6864 40.6504 28.633 40.7514 28.5543 40.8308C28.4756 40.9103 28.375 40.9645 28.2654 40.9867C28.1558 41.0088 28.0421 40.998 27.9387 40.9554C27.8352 40.9128 27.7468 40.8405 27.6846 40.7476C27.6223 40.6547 27.5891 40.5454 27.5891 40.4335C27.5888 40.3597 27.603 40.2866 27.6309 40.2183C27.6588 40.15 27.7 40.0878 27.7519 40.0354C27.8039 39.983 27.8656 39.9413 27.9337 39.9128C28.0018 39.8843 28.0748 39.8695 28.1486 39.8692Z" fill="#67BFA8"/>
<path d="M15.9174 39.1016C16.1811 39.0994 16.4395 39.1756 16.6599 39.3205C16.8802 39.4654 17.0526 39.6725 17.155 39.9156C17.2574 40.1586 17.2854 40.4265 17.2353 40.6855C17.1852 40.9444 17.0593 41.1826 16.8736 41.3699C16.6879 41.5571 16.4508 41.685 16.1923 41.7373C15.9338 41.7895 15.6656 41.7638 15.4217 41.6634C15.1778 41.563 14.9693 41.3924 14.8225 41.1733C14.6758 40.9542 14.5974 40.6964 14.5974 40.4327C14.596 40.0811 14.7343 39.7434 14.9818 39.4938C15.2293 39.2442 15.5659 39.1031 15.9174 39.1016Z" fill="#0C123F"/>
<path d="M15.9176 39.8692C16.0295 39.8682 16.1391 39.9005 16.2325 39.9619C16.326 40.0233 16.3991 40.1111 16.4425 40.2142C16.486 40.3172 16.4979 40.4308 16.4766 40.5406C16.4554 40.6504 16.4021 40.7514 16.3233 40.8308C16.2446 40.9103 16.144 40.9645 16.0344 40.9867C15.9248 41.0088 15.8111 40.998 15.7077 40.9554C15.6043 40.9128 15.5159 40.8405 15.4536 40.7476C15.3914 40.6547 15.3582 40.5454 15.3582 40.4335C15.3578 40.3597 15.372 40.2866 15.3999 40.2183C15.4279 40.15 15.469 40.0878 15.521 40.0354C15.5729 39.983 15.6347 39.9413 15.7028 39.9128C15.7708 39.8843 15.8438 39.8695 15.9176 39.8692Z" fill="#67BFA8"/>
<path d="M10.9294 38.8169C11.1931 38.8147 11.4515 38.8909 11.6718 39.0359C11.8922 39.1808 12.0645 39.3879 12.167 39.6309C12.2694 39.8739 12.2974 40.1419 12.2473 40.4008C12.1972 40.6597 12.0713 40.8979 11.8856 41.0852C11.6999 41.2725 11.4627 41.4003 11.2042 41.4526C10.9457 41.5049 10.6775 41.4792 10.4337 41.3788C10.1898 41.2783 9.98126 41.1078 9.8345 40.8886C9.68775 40.6695 9.60939 40.4117 9.60939 40.148C9.60797 39.7965 9.74623 39.4588 9.99376 39.2092C10.2413 38.9595 10.5778 38.8185 10.9294 38.8169Z" fill="#0C123F"/>
<path d="M10.9291 39.584C11.0409 39.583 11.1505 39.6153 11.244 39.6767C11.3374 39.7382 11.4105 39.826 11.454 39.929C11.4975 40.032 11.5093 40.1457 11.4881 40.2555C11.4669 40.3653 11.4135 40.4663 11.3348 40.5457C11.2561 40.6251 11.1555 40.6793 11.0459 40.7015C10.9363 40.7237 10.8226 40.7128 10.7192 40.6702C10.6158 40.6277 10.5273 40.5553 10.4651 40.4624C10.4029 40.3695 10.3696 40.2602 10.3696 40.1484C10.3693 40.0746 10.3835 40.0014 10.4114 39.9331C10.4393 39.8648 10.4805 39.8027 10.5324 39.7503C10.5844 39.6978 10.6462 39.6562 10.7142 39.6277C10.7823 39.5991 10.8553 39.5843 10.9291 39.584Z" fill="#67BFA8"/>
<g opacity="0.64">
<mask id="mask1_5251_23233" style="mask-type:luminance" maskUnits="userSpaceOnUse" x="10" y="19" width="6" height="3">
<path d="M15.4772 19.4834H10.8318V21.7156H15.4772V19.4834Z" fill="white"/>
</mask>
<g mask="url(#mask1_5251_23233)">
<path d="M15.4772 19.9678C15.2949 20.8472 14.1981 21.0171 14.0361 21.0637C13.6679 21.1702 13.3147 21.2678 12.9766 21.3565C12.4486 21.4959 11.9592 21.6143 11.5124 21.7146C11.2751 21.2265 11.0488 20.7008 10.8323 20.1546L12.3373 19.8476L13.2938 19.6528L14.1302 19.4824L15.4772 19.9678Z" fill="#14172B"/>
</g>
</g>
<path d="M27.9865 37.7808C26.6404 37.5075 25.2801 37.2342 24.1566 37.0624L22.8775 36.5913C22.8775 36.5913 22.4245 34.7162 23.1792 34.75C23.9069 34.7819 26.2557 36.2651 27.9865 37.7808Z" fill="#0F1222"/>
<path d="M18.6535 37.3436C18.0873 37.4346 17.495 37.5353 16.8965 37.6374C18.1965 36.1532 21.2517 34.528 21.3151 34.898C21.364 35.1727 19.6637 36.5521 18.653 37.3441" fill="#0F1222"/>
<path d="M21.3164 34.8979C17.7669 36.5223 16.0702 39.1573 16.7398 39.1786C18.0522 39.2194 22.2024 36.8866 22.2024 36.8866L21.3164 34.8979Z" fill="#0C123F"/>
<path d="M23.0047 34.8979C26.5227 36.217 28.7283 39.0335 28.0574 39.0544C26.745 39.0952 22.2039 36.8866 22.2039 36.8866L23.0047 34.8979Z" fill="#0C123F"/>
<path d="M20.9835 30.1675C20.9542 30.7155 20.9933 36.0778 20.9835 37.1826C20.9764 37.9298 23.4349 37.5265 23.4322 37.1356C23.4287 36.6032 23.3435 30.7146 23.3288 30.1697C23.3142 29.6249 21.0124 29.6213 20.9835 30.1697" fill="#0C123F"/>
<path d="M29.9946 22.5666C27.3387 21.4573 14.2251 12.5073 14.2251 12.5073C14.6861 15.7591 19.4406 23.1957 19.4406 23.1957" stroke="#F5F5F5" stroke-width="0.443685" stroke-miterlimit="10" stroke-linecap="round"/>
<path d="M9.02148 21.5563C9.38575 20.5735 13.5218 12.8601 14.2259 12.5073C14.2259 12.5073 13.6935 22.3846 14.1895 24.6958" stroke="#F5F5F5" stroke-width="0.443685" stroke-miterlimit="10" stroke-linecap="round"/>
<path d="M3.07422 20.0471C6.11524 19.3145 13.968 12.2311 14.2245 12.5071C14.4685 12.7693 11.518 12.917 8.63093 12.598C6.72696 12.343 4.86326 11.8464 3.08487 11.1201" stroke="#F5F5F5" stroke-width="0.443685" stroke-miterlimit="10" stroke-linecap="round"/>
<path d="M5.99072 6.05224C6.89451 6.86285 14.2876 12.9316 14.226 12.507C14.1643 12.0824 12.4956 4.60938 12.4956 4.60938" stroke="#F5F5F5" stroke-width="0.443685" stroke-miterlimit="10" stroke-linecap="round"/>
<path d="M16.6396 3.88965C15.8055 5.51975 13.8129 12.9315 14.2255 12.5065C14.6381 12.0814 20.1092 7.07975 20.1092 7.07975" stroke="#F5F5F5" stroke-width="0.443685" stroke-miterlimit="10" stroke-linecap="round"/>
<path d="M25.8732 13.4425C25.0395 13.5539 18.2174 12.8546 14.2256 12.5063" stroke="#F5F5F5" stroke-width="0.443685" stroke-miterlimit="10" stroke-linecap="round"/>
<path d="M15.7057 12.5062C15.5818 12.8934 15.4249 13.2693 15.2367 13.6297L14.6098 13.9638H14.1555L13.3981 13.5964L13.0875 13.1802L12.5059 12.3163L12.9904 11.6317L13.8848 10.7661H14.4989L15.4967 11.3522L15.7057 12.5062Z" stroke="#F5F5F5" stroke-width="0.443685" stroke-miterlimit="10" stroke-linecap="round"/>
<path d="M16.5727 10.3875C16.4818 10.8077 16.9427 12.7004 16.9427 12.7004C16.7684 12.8956 16.6355 13.1241 16.5519 13.3722C16.5049 13.5663 16.4058 13.744 16.2652 13.8859C16.2652 13.8859 15.4497 14.2351 15.148 14.4184L14.8463 14.602L14.1222 14.7631C13.8648 14.5884 13.5503 14.519 13.2433 14.5692L12.7437 14.6602L12.0178 14.039L11.5151 12.7213C11.5404 12.2989 11.5936 11.8787 11.6744 11.4634C11.7343 11.2477 11.7712 11.0263 11.7845 10.8028C11.7845 10.8028 12.5227 10.4611 12.8094 10.3387C13.1227 10.1235 13.3956 9.85484 13.6155 9.54492L14.7736 9.68158L16.5727 10.3875Z" stroke="#F5F5F5" stroke-width="0.443685" stroke-miterlimit="10" stroke-linecap="round"/>
<path d="M13.3705 8.21203C13.8373 8.35623 15.0122 8.09179 15.1763 8.21203C15.3405 8.33227 17.5469 9.51779 17.5469 9.51779L18.3713 12.8104C18.3713 12.8104 17.7213 14.6424 17.5469 14.7706C17.3726 14.8988 15.6165 16.3705 15.6165 16.3705C15.6165 16.3705 14.9789 16.3647 14.5898 16.3647C14.4906 16.3553 14.3907 16.3695 14.2981 16.4062C14.2056 16.443 14.1231 16.5011 14.0574 16.5759C13.8202 16.3746 13.5416 16.228 13.2414 16.1464C12.7956 16.1 12.3471 16.0852 11.8993 16.1021C11.8993 16.1021 11.8309 15.4414 11.535 15.295C11.2391 15.1486 10.8903 14.9738 10.8903 14.9738C10.949 14.5246 10.949 14.0697 10.8903 13.6205C10.759 13.2932 10.5909 12.9818 10.3894 12.6924L10.7537 9.95172C10.7537 9.95172 11.748 9.39844 12.1846 9.08298C12.6211 8.76752 13.3705 8.21203 13.3705 8.21203Z" stroke="#F5F5F5" stroke-width="0.443685" stroke-miterlimit="10" stroke-linecap="round"/>
<path d="M13.071 6.73926C13.5462 6.98639 15.1688 6.89233 15.6133 6.73926C15.8756 7.13192 17.6858 8.71188 18.4006 8.75891C18.6424 9.75277 19.6429 12.757 20.0755 13.0032C19.7795 13.4682 18.4866 16.125 18.4006 17.0345C17.6596 17.2879 16.829 17.5851 16.5162 18.1828C14.82 18.2715 14.5294 18.0816 14.0196 18.2489C13.3643 17.8704 11.6774 17.4001 11.1197 17.4898C10.5615 16.9968 10.3517 16.2643 9.85607 15.8295C9.50601 14.1213 8.91058 12.9642 9.13331 12.5857C9.35604 12.2072 9.59963 8.99185 9.68259 9.0655C10.6063 8.47318 13.071 6.73926 13.071 6.73926Z" stroke="#F5F5F5" stroke-width="0.443685" stroke-miterlimit="10" stroke-linecap="round"/>
<path d="M16.1427 6.36847C16.1149 6.00278 16.1108 5.63568 16.1303 5.26946C16.4856 5.85431 16.9031 6.39893 17.3757 6.89379C17.8886 7.33393 19.0733 7.41911 19.5436 7.55444C19.7072 8.46657 19.9337 9.36629 20.2215 10.2472C20.5148 10.9065 21.4306 13.1852 21.4306 13.1852C21.4306 13.1852 21.0459 14.5345 20.8627 15.1761C20.7672 15.7896 20.7734 16.4147 20.8808 17.0262C20.8808 17.0262 17.7307 19.884 17.2537 19.5552C16.7768 19.2265 14.2974 19.6883 13.9381 19.8849C13.7366 19.9949 12.8391 19.0787 12.1633 18.9141C11.6072 18.7974 11.044 18.7178 10.4773 18.6759C10.0674 18.2303 9.62659 17.8141 9.15824 17.4304C8.9364 17.339 8.16927 17.0639 8.16927 17.0639C8.14393 16.0758 8.05203 15.0905 7.89418 14.1148C7.69275 13.3272 7.10043 12.4416 7.15545 12.3316C7.21046 12.2216 8.26067 7.93911 8.26067 7.93911C8.26067 7.93911 10.1281 7.4444 10.6978 7.04154C11.379 6.46853 12.0269 5.85718 12.6385 5.21045" stroke="#F5F5F5" stroke-width="0.443685" stroke-miterlimit="10" stroke-linecap="round"/>
<path d="M15.9625 14.7889C15.7112 14.7271 15.4507 14.7107 15.1936 14.7406C15.068 14.7455 14.9274 14.753 14.7779 14.7632C14.1261 14.8076 13.2534 14.9039 12.2569 15.0365C11.8655 15.0889 11.4556 15.147 11.0318 15.2109C10.6432 15.269 10.243 15.3316 9.83656 15.3972C7.11069 15.8019 4.41546 16.3913 1.76947 17.1613C1.6198 17.211 1.47974 17.2604 1.3493 17.3095C0.741453 17.5385 0.348347 17.759 0.260498 17.9582C-0.652163 20.0249 1.04405 24.3703 2.13418 24.1866C2.81967 24.0726 8.26236 23.388 12.3651 22.6005C12.9508 22.4878 13.5089 22.3737 14.0223 22.2588C14.4278 22.1679 14.8054 22.0765 15.1457 21.9855C16.1551 21.7167 16.8406 21.45 16.9746 21.2033C17.4537 20.3244 17.2461 15.45 15.9625 14.7872M1.45445 18.9423C1.35802 18.9633 1.25723 18.9478 1.17153 18.8988C1.08583 18.8499 1.0213 18.771 0.990368 18.6772C0.95944 18.5835 0.964314 18.4817 1.00405 18.3913C1.04378 18.301 1.11557 18.2286 1.20555 18.188C1.22306 18.1811 1.24099 18.1753 1.25923 18.1707C1.35944 18.1514 1.46323 18.1712 1.54929 18.226C1.63536 18.2808 1.69718 18.3665 1.72205 18.4655C1.74692 18.5645 1.73295 18.6692 1.68302 18.7582C1.6331 18.8472 1.55099 18.9137 1.45357 18.9441L1.45445 18.9423ZM15.4372 16.2154C15.3606 16.2349 15.28 16.2312 15.2055 16.2048C15.131 16.1784 15.066 16.1305 15.0188 16.0672C14.9715 16.0039 14.9441 15.928 14.94 15.849C14.9359 15.7701 14.9554 15.6918 14.9958 15.6239C15.0363 15.556 15.096 15.5017 15.1673 15.4678C15.2387 15.4338 15.3185 15.4218 15.3967 15.4333C15.4749 15.4447 15.5479 15.4791 15.6065 15.5321C15.6651 15.5851 15.7067 15.6543 15.726 15.7309C15.7518 15.8333 15.7359 15.9416 15.6819 16.0323C15.628 16.123 15.5403 16.1887 15.4381 16.215L15.4372 16.2154Z" fill="#FFDC50"/>
<path d="M6.09938 7.11614C5.99644 7.26019 5.89158 7.41519 5.7848 7.58112C5.02333 8.82425 4.38113 10.1366 3.86675 11.5006C3.13027 13.3848 2.51612 15.3146 2.02812 17.2779C1.94273 17.6299 1.88341 17.9877 1.85065 18.3485C1.85065 18.3582 1.85065 18.3684 1.85065 18.3778C1.84825 18.4273 1.82686 18.474 1.79092 18.5082C1.75499 18.5425 1.70726 18.5615 1.65764 18.5614H1.64477C1.59368 18.5586 1.54581 18.5356 1.51163 18.4975C1.47745 18.4594 1.45976 18.4093 1.46242 18.3582C1.46242 18.3405 1.46242 18.3219 1.46597 18.3023C1.49602 18.0075 1.54372 17.7147 1.60884 17.4256C2.08567 15.3574 2.72053 13.3288 3.50781 11.3578C4.17334 9.67931 5.05671 7.77901 6.02572 6.58594C6.02174 6.76617 6.04646 6.94589 6.09893 7.11836" fill="#79BF99"/>
<path d="M15.5755 15.8798C15.5245 15.8848 15.4736 15.8693 15.434 15.8368C15.3944 15.8042 15.3693 15.7573 15.3643 15.7063C15.3616 15.6818 15.3571 15.6575 15.351 15.6336C15.2695 15.373 15.1642 15.1205 15.0364 14.8793C14.4287 13.7017 13.7547 12.5596 13.0176 11.4585C11.4496 9.07147 9.94022 7.20755 8.8767 6.34502C8.55975 6.02088 8.13877 5.81871 7.68763 5.774H7.68496C7.61217 5.78238 7.54056 5.79905 7.47155 5.82369C7.21688 5.8827 7.20889 5.88581 6.96353 5.94083L6.71995 5.99629C6.63121 6.00205 6.62411 6.01004 6.63121 6.00205C6.91414 5.69301 7.2902 5.48473 7.70227 5.40885C7.96532 5.39404 8.22686 5.45749 8.45387 5.5912C8.69033 5.71849 8.91331 5.86937 9.1194 6.04154C10.6723 7.30116 12.5886 10.0995 13.3402 11.2438C14.1219 12.4008 14.8274 13.6075 15.4521 14.8562C15.5666 15.0839 15.6602 15.3215 15.7316 15.5661C15.7401 15.5986 15.7462 15.6317 15.7498 15.6651C15.7524 15.6904 15.75 15.716 15.7426 15.7404C15.7353 15.7647 15.7232 15.7874 15.7071 15.8071C15.691 15.8268 15.6711 15.8432 15.6487 15.8552C15.6263 15.8672 15.6017 15.8747 15.5763 15.8772" fill="#79BF99"/>
<g opacity="0.77">
<mask id="mask2_5251_23233" style="mask-type:luminance" maskUnits="userSpaceOnUse" x="3" y="18" width="2" height="4">
<path d="M4.87797 18.957H3.00562V21.5193H4.87797V18.957Z" fill="white"/>
</mask>
<g mask="url(#mask2_5251_23233)">
<path d="M4.62367 21.3414C3.80196 22.1373 3.37825 20.0432 3.00732 19.3577C3.4448 18.7365 3.73408 19.6518 3.90889 20.1208C4.6494 22.1507 3.87828 18.886 4.53626 18.9592C5.22131 18.8816 4.67913 20.8862 4.625 21.3414" fill="#2E3043"/>
</g>
</g>
<g opacity="0.8">
<mask id="mask3_5251_23233" style="mask-type:luminance" maskUnits="userSpaceOnUse" x="5" y="18" width="2" height="4">
<path d="M6.97758 18.7041H5.21216V21.325H6.97758V18.7041Z" fill="white"/>
</mask>
<g mask="url(#mask3_5251_23233)">
<path d="M5.39702 18.904C6.07231 18.3086 6.36869 19.1702 6.6318 19.9063C6.82258 20.4045 7.3448 21.3261 6.55637 21.0843C6.45255 21.0115 6.39087 20.7573 6.33453 20.6317L5.77859 20.7231C5.77504 20.805 5.77193 20.8896 5.76927 20.9769C5.77769 21.0134 5.77883 21.0513 5.77263 21.0882C5.76643 21.1252 5.75301 21.1606 5.73313 21.1924C5.71325 21.2242 5.6873 21.2517 5.65677 21.2735C5.62624 21.2952 5.59173 21.3108 5.55519 21.3192C5.51866 21.3276 5.48083 21.3288 5.44385 21.3226C5.40688 21.3164 5.37149 21.3029 5.3397 21.283C5.30792 21.2632 5.28036 21.2372 5.2586 21.2067C5.23684 21.1762 5.22131 21.1417 5.21289 21.1051V21.0998C5.2364 20.3652 5.29786 19.6323 5.39702 18.904ZM5.84869 19.3557C5.82606 19.6063 5.79146 19.9067 5.78258 20.172L6.16371 20.1104C6.07802 19.8508 5.9724 19.5981 5.8478 19.3548L5.84869 19.3557Z" fill="#2E3043"/>
</g>
</g>
<g opacity="0.84">
<mask id="mask4_5251_23233" style="mask-type:luminance" maskUnits="userSpaceOnUse" x="6" y="18" width="3" height="3">
<path d="M8.69268 18.355H6.94678V20.9488H8.69268V18.355Z" fill="white"/>
</mask>
<g mask="url(#mask4_5251_23233)">
<path d="M7.91254 18.9191C7.40097 18.9471 7.4307 19.8819 7.76568 20.2205C7.81823 20.2658 7.8792 20.3003 7.94511 20.3221C8.01101 20.3439 8.08056 20.3525 8.14977 20.3474C8.21899 20.3422 8.28653 20.3236 8.34852 20.2923C8.41051 20.2611 8.46575 20.218 8.51107 20.1654C8.51773 20.1575 8.52438 20.1495 8.5306 20.1415C8.57376 20.1745 8.61 20.2157 8.63724 20.2627C8.66448 20.3097 8.68219 20.3616 8.68936 20.4154C8.69653 20.4693 8.69302 20.524 8.67902 20.5765C8.66503 20.629 8.64082 20.6782 8.6078 20.7214L8.59671 20.7351C7.86108 21.3958 6.76207 20.4152 6.97326 19.2444C6.97958 19.1008 7.01953 18.9608 7.08988 18.8355C7.16023 18.7102 7.25901 18.6032 7.37828 18.5231C7.49755 18.443 7.63397 18.392 7.77655 18.3742C7.91913 18.3565 8.06389 18.3724 8.19916 18.4209C8.24502 18.4453 8.28561 18.4786 8.31861 18.5188C8.35161 18.5589 8.37638 18.6052 8.3915 18.6549C8.40662 18.7046 8.4118 18.7569 8.40674 18.8086C8.40167 18.8603 8.38647 18.9105 8.362 18.9564C8.3499 18.9788 8.33579 19 8.31985 19.0198C8.20142 18.9362 8.05584 18.9003 7.9121 18.9191" fill="#2E3043"/>
</g>
</g>
<path d="M9.09375 18.3049C9.76904 17.7094 10.0654 18.5711 10.3285 19.3072C10.5193 19.8054 11.0415 20.727 10.2531 20.4851C10.1493 20.4119 10.0876 20.1581 10.0313 20.0326L9.47488 20.1235C9.47133 20.2055 9.46822 20.2901 9.46556 20.3773C9.47398 20.4139 9.47512 20.4517 9.46892 20.4887C9.46272 20.5256 9.44929 20.561 9.42941 20.5928C9.40954 20.6246 9.38359 20.6522 9.35306 20.6739C9.32253 20.6957 9.28802 20.7112 9.25148 20.7196C9.21495 20.7281 9.17712 20.7292 9.14014 20.723C9.10317 20.7168 9.06778 20.7034 9.03599 20.6835C9.00421 20.6636 8.97665 20.6377 8.95489 20.6071C8.93313 20.5766 8.9176 20.5421 8.90918 20.5056V20.5002C8.93267 19.7658 8.99398 19.033 9.09287 18.3049M9.54454 18.7565C9.52191 19.0072 9.4873 19.3076 9.47843 19.5729L9.85955 19.5113C9.77454 19.252 9.66966 18.9997 9.54587 18.7565H9.54454Z" fill="#2E3043"/>
<g opacity="0.83">
<mask id="mask5_5251_23233" style="mask-type:luminance" maskUnits="userSpaceOnUse" x="10" y="17" width="3" height="4">
<path d="M12.6767 17.7119H10.6331V20.374H12.6767V17.7119Z" fill="white"/>
</mask>
<g mask="url(#mask5_5251_23233)">
<path d="M12.6767 20.03C12.0484 20.743 11.6118 19.2704 11.26 18.8027C11.3585 19.2562 11.4375 19.8259 11.516 20.2869C11.3718 20.341 11.1109 20.4705 10.9987 20.2465C10.9654 20.2975 10.6495 18.1465 10.6331 18.1057C11.1917 17.3097 11.7192 18.7663 12.0307 19.2952C11.9823 18.8728 11.8439 18.2508 11.784 17.792C11.898 17.7348 12.1194 17.67 12.2339 17.7476C12.3949 17.7898 12.6159 19.8716 12.6776 20.0313" fill="#2E3043"/>
</g>
</g>
<g opacity="0.81">
<mask id="mask6_5251_23233" style="mask-type:luminance" maskUnits="userSpaceOnUse" x="12" y="17" width="3" height="3">
<path d="M14.2054 17.4087H12.5811V19.9683H14.2054V17.4087Z" fill="white"/>
</mask>
<g mask="url(#mask6_5251_23233)">
<path d="M12.7038 18.2149C12.1115 17.3337 13.8415 17.5697 14.0873 17.4087C14.3943 17.9345 14.0429 18.0396 13.7026 18.0529C13.6582 18.1226 14.1529 20.0468 13.8974 19.9257C13.7106 19.9963 13.4417 20.0184 13.4142 19.6786L13.1635 18.1399L12.7038 18.2149Z" fill="#2E3043"/>
</g>
</g>
</g>
</svg>
