<svg width="52" height="52" viewBox="0 0 52 52" fill="none" xmlns="http://www.w3.org/2000/svg">
<mask id="mask0_5251_21884" style="mask-type:alpha" maskUnits="userSpaceOnUse" x="0" y="0" width="52" height="52">
<rect width="52" height="52" rx="26" fill="#F9FAFB"/>
</mask>
<g mask="url(#mask0_5251_21884)">
<g filter="url(#filter0_d_5251_21884)">
<path d="M42.0087 23.0498L40.7755 21.9159L43.1079 19.3797C43.1361 19.3495 43.1581 19.314 43.1724 19.2752C43.1868 19.2365 43.1934 19.1953 43.1917 19.154C43.1901 19.1127 43.1803 19.0721 43.1628 19.0346C43.1454 18.9972 43.1207 18.9635 43.0902 18.9357L35.8513 12.279C35.8209 12.2511 35.7853 12.2295 35.7465 12.2153C35.7078 12.2012 35.6666 12.1948 35.6253 12.1966C35.5841 12.1984 35.5436 12.2082 35.5062 12.2257C35.4688 12.2431 35.4352 12.2677 35.4073 12.2981L33.0749 14.8326L31.6823 13.5522C31.6521 13.5242 31.6166 13.5024 31.5779 13.4882C31.5393 13.4739 31.4981 13.4675 31.457 13.4692C31.4158 13.4709 31.3754 13.4807 31.338 13.4981C31.3006 13.5155 31.2671 13.5401 31.2393 13.5706L24.0688 21.3677C23.0774 22.4501 21.7894 23.2168 20.3654 23.5723C20.3253 23.5747 20.2862 23.585 20.2501 23.6026C19.6356 23.7439 19.0056 23.8062 18.3753 23.788C18.3562 23.788 18.3374 23.7852 18.3184 23.7859C17.4746 23.7589 16.6413 23.5903 15.8533 23.2873L13.9698 22.5638H13.967L8.19505 20.3379C8.12473 20.3105 8.04686 20.3095 7.97583 20.335C7.9048 20.3605 7.84541 20.4109 7.80863 20.4768L7.36944 21.2583C6.99972 20.9442 6.53984 20.7556 6.05603 20.7195C5.79204 20.7164 5.53042 20.7695 5.28853 20.8753C5.04663 20.9811 4.83001 21.1371 4.65304 21.333C3.38928 22.6013 4.45029 25.2715 4.74123 25.9315L4.40724 26.5252C4.37227 26.5869 4.35933 26.6587 4.37056 26.7287C4.38179 26.7987 4.41652 26.8629 4.46903 26.9106L17.1369 38.5597C18.2648 39.5941 19.662 40.2888 21.1675 40.5638C22.673 40.8389 24.2256 40.6831 25.6464 40.1145C25.661 40.1092 25.6763 40.1145 25.6912 40.1082C25.7062 40.102 25.7124 40.0905 25.7259 40.0832C26.8252 39.636 27.8122 38.9516 28.6163 38.0789L42.0281 23.4949C42.0564 23.4646 42.0784 23.4289 42.0927 23.39C42.107 23.3511 42.1135 23.3097 42.1117 23.2683C42.1099 23.2269 42.0998 23.1862 42.0822 23.1487C42.0645 23.1112 42.0395 23.0776 42.0087 23.0498ZM35.6569 12.954L42.4337 19.186L40.3137 21.491L33.537 15.2589L35.6569 12.954ZM5.09953 21.7725C5.21544 21.6388 5.35863 21.5315 5.51948 21.4577C5.68033 21.3839 5.85511 21.3454 6.03207 21.3448C6.41624 21.3825 6.77687 21.5472 7.05697 21.8128L5.13459 25.2312C4.7513 24.2001 4.35064 22.5242 5.09988 21.7715L5.09953 21.7725ZM5.07696 26.6144L8.22248 21.0198L11.6749 22.3503L7.34201 28.6975L5.07696 26.6144ZM7.80828 29.1263L12.2755 22.5811L13.4598 23.037L10.3511 31.4632L7.80828 29.1263ZM10.8507 31.9243L14.0448 23.2651L15.6287 23.8744C15.9238 23.987 16.2252 24.0821 16.5314 24.1594L15.1398 35.8694L10.8507 31.9243ZM17.5618 38.0959L15.7103 36.3947L17.148 24.2959C17.4781 24.356 17.8117 24.3951 18.1468 24.4129L25.1329 39.6433C23.8493 40.0967 22.4665 40.1921 21.1328 39.9193C19.799 39.6465 18.5647 39.0158 17.5622 38.0949L17.5618 38.0959ZM28.1531 37.6525C27.4686 38.3977 26.6396 38.9958 25.7166 39.4104L18.8395 24.4167C19.3374 24.4008 19.8328 24.3387 20.3192 24.231L31.9889 33.4825L28.1531 37.6525ZM32.4131 33.0204L21.0702 24.0258C22.2835 23.6267 23.3855 22.9469 24.2865 22.0416L33.1995 32.1652L32.4131 33.0204ZM33.6283 31.7011L24.7222 21.585L25.6999 20.522L37.296 27.7115L33.6283 31.7011ZM37.7275 27.2432L26.1339 20.0529L29.8918 15.9662L38.4931 26.411L37.7275 27.2432ZM38.9219 25.9447L30.3206 15.4999L31.4889 14.2295L41.3532 23.3008L38.9219 25.9447Z" fill="#B2DDCD"/>
<path d="M7.62099 20.8232L4.56782 26.2167C4.05156 24.7075 3.54466 22.2241 4.70323 20.9985C4.87733 20.7851 5.09189 20.6083 5.33457 20.4782C5.57726 20.348 5.84327 20.2672 6.11732 20.2402C6.67289 20.2445 7.20771 20.4519 7.62099 20.8232Z" fill="#F3BD9A"/>
<path d="M11.6749 22.3485L7.34196 28.6958L5.0769 26.6126L8.22242 21.0181L11.6749 22.3485Z" fill="white"/>
<path d="M13.4594 23.0364L10.3493 31.4627L7.80688 29.1247L12.2738 22.5806L13.4594 23.0364Z" fill="white"/>
<path d="M16.5328 24.1584L15.1413 35.868L10.8511 31.9229L14.0452 23.2637L15.6291 23.873C15.9245 23.9857 16.2262 24.081 16.5328 24.1584Z" fill="white"/>
<path d="M41.1322 22.2429L32.2727 14.0957L41.9998 4.14013C41.9998 4.14013 46.4998 2.64013 48.4998 5.14013C50.4998 7.64014 49.9998 10.6401 49.9998 10.6401L44 18.5002L41.1322 22.2429Z" fill="#F3BD9A"/>
<path d="M18.147 24.4098L25.1331 39.6391C23.8497 40.0929 22.4669 40.1888 21.1332 39.9165C19.7994 39.6442 18.5649 39.014 17.562 38.0935L15.7104 36.3923L17.1482 24.2935C17.4783 24.3534 17.8119 24.3922 18.147 24.4098Z" fill="white"/>
<path d="M41.3521 23.2984L38.9218 25.9422L30.3206 15.4974L31.4888 14.2271L41.3521 23.2984Z" fill="white"/>
<path d="M29.8905 15.9644L38.4918 26.4091L37.7279 27.2424L26.1326 20.0511L29.8905 15.9644Z" fill="white"/>
<path d="M25.6999 20.5234L37.2945 27.7102L33.6272 31.6994L24.7222 21.5851L25.6999 20.5234Z" fill="white"/>
<path d="M24.2867 22.04L33.1997 32.1637L32.4133 33.0188L21.0703 24.0242C22.2837 23.6252 23.3857 22.9454 24.2867 22.04Z" fill="white"/>
<path d="M20.3193 24.23L31.9869 33.4825L28.1533 37.6512C27.4687 38.3964 26.6397 38.9944 25.7167 39.409L18.8396 24.4154C19.3375 24.3996 19.8329 24.3375 20.3193 24.23Z" fill="white"/>
<path d="M28.0416 21.5071C27.7846 21.0703 27.6535 20.5709 27.6628 20.0642C27.6648 19.8978 27.6881 19.7323 27.7323 19.5718C27.7749 19.395 27.8646 19.2331 27.9919 19.1031C28.0516 19.0436 28.1224 18.9964 28.2003 18.9643C28.2721 18.9337 28.3504 18.9215 28.4281 18.9288C28.5059 18.9362 28.5805 18.9628 28.6454 19.0063C28.7404 19.0692 28.8228 19.1492 28.8884 19.2424C29.0103 19.4161 29.1007 19.6099 29.1554 19.8149C29.1909 19.9283 29.2171 20.0444 29.2338 20.1621C29.2394 20.1927 29.2403 20.2239 29.2366 20.2548C29.234 20.282 29.2217 20.3075 29.2019 20.3264C29.1822 20.3454 29.1562 20.3566 29.1289 20.358C29.1015 20.3594 29.0746 20.351 29.0529 20.3342C29.0313 20.3174 29.0164 20.2934 29.0109 20.2666C29.0083 20.256 29.0065 20.2452 29.0054 20.2343C28.9779 20.0166 28.9182 19.8042 28.828 19.6041C28.7752 19.4793 28.6985 19.366 28.6023 19.2705C28.5759 19.2372 28.5423 19.2102 28.504 19.1917C28.4657 19.1732 28.4237 19.1636 28.3811 19.1636C28.3386 19.1636 28.2966 19.1732 28.2583 19.1917C28.22 19.2102 28.1864 19.2372 28.16 19.2705C28.0964 19.3338 28.0463 19.4092 28.0124 19.4923C27.9684 19.5968 27.9403 19.7073 27.9291 19.8201C27.8966 20.1149 27.9202 20.4131 27.9985 20.6992C28.1005 21.0912 28.2931 21.4539 28.561 21.7577C28.6603 21.873 28.7775 21.9715 28.9082 22.0494C28.9689 22.0869 29.0351 22.1146 29.1043 22.1317C29.1487 22.1427 29.195 22.1445 29.2401 22.1369C29.2646 22.1328 29.2876 22.1225 29.307 22.107C29.3263 22.0915 29.3414 22.0713 29.3508 22.0483C29.3688 22.0063 29.3774 21.9608 29.3758 21.915C29.3741 21.8492 29.3647 21.7839 29.3477 21.7202C29.3175 21.596 29.2807 21.4737 29.2436 21.3522C29.2307 21.3113 29.2293 21.3099 29.1918 21.3307C29.1011 21.3776 29.0075 21.4187 28.9117 21.454C28.8852 21.4673 28.8545 21.4698 28.8262 21.4609C28.7979 21.4519 28.7742 21.4322 28.7603 21.406C28.7461 21.379 28.7429 21.3475 28.7514 21.3181C28.7599 21.2888 28.7793 21.2638 28.8058 21.2484C28.8239 21.2361 28.8435 21.2261 28.8641 21.2186C28.9842 21.1745 29.0996 21.1186 29.2085 21.0516C29.3124 20.9905 29.4166 20.9291 29.521 20.8676C29.551 20.8466 29.5854 20.833 29.6216 20.8276C29.6389 20.8249 29.6566 20.8266 29.673 20.8325C29.6894 20.8384 29.7041 20.8484 29.7157 20.8615C29.7273 20.8745 29.7354 20.8903 29.7393 20.9073C29.7432 20.9243 29.7427 20.9421 29.738 20.9589C29.7324 20.9821 29.7222 21.0039 29.7079 21.0231C29.6936 21.0423 29.6756 21.0583 29.655 21.0703C29.6043 21.1026 29.5508 21.1328 29.5001 21.1637C29.4564 21.1897 29.4557 21.1897 29.4713 21.2404C29.5189 21.396 29.5574 21.5529 29.5925 21.7123C29.6122 21.794 29.6205 21.8782 29.6171 21.9622C29.6183 22.0248 29.6056 22.0869 29.58 22.144C29.5544 22.2011 29.5166 22.2518 29.4691 22.2927C29.4217 22.3335 29.3658 22.3633 29.3055 22.3801C29.2453 22.3968 29.182 22.4001 29.1203 22.3896C29.0147 22.3781 28.9122 22.3467 28.8183 22.2969C28.6318 22.1994 28.4657 22.0671 28.3291 21.907C28.2206 21.7833 28.1243 21.6494 28.0416 21.5071Z" fill="#231F56"/>
<path d="M31.3244 20.954C31.2008 20.7159 31.0894 20.4721 30.9772 20.2281C30.8363 19.9211 30.7047 19.6104 30.5912 19.2907C30.5613 19.2066 30.5346 19.1212 30.5058 19.0369C30.4936 19.0021 30.4926 18.999 30.4565 19.0133C30.1544 19.132 29.844 19.2299 29.5465 19.3604C29.5266 19.3695 29.5061 19.3769 29.485 19.3827C29.4562 19.392 29.4249 19.39 29.3974 19.3771C29.37 19.3642 29.3484 19.3414 29.3371 19.3132C29.3268 19.2854 29.3279 19.2545 29.3402 19.2275C29.3525 19.2004 29.375 19.1793 29.4028 19.1688C29.4906 19.1285 29.5802 19.0917 29.6701 19.0563C29.8923 18.9685 30.1176 18.8893 30.3367 18.7924C30.4238 18.7536 30.4245 18.7553 30.4006 18.6633C30.37 18.5476 30.3397 18.4311 30.3096 18.314C30.3012 18.2861 30.2965 18.2571 30.2957 18.2279C30.295 18.2002 30.3041 18.1731 30.3215 18.1515C30.3388 18.1299 30.3633 18.1151 30.3905 18.1099C30.4169 18.1056 30.444 18.1107 30.4671 18.1243C30.4902 18.1378 30.5078 18.159 30.5169 18.1842C30.5233 18.2013 30.5285 18.2188 30.5325 18.2366C30.5651 18.3598 30.5971 18.4838 30.6301 18.607C30.6422 18.6522 30.6433 18.6529 30.6835 18.6338L31.1283 18.4223C31.1669 18.4017 31.2083 18.3865 31.2512 18.3772C31.283 18.3681 31.317 18.37 31.3476 18.3826C31.3782 18.3952 31.4037 18.4178 31.4199 18.4466C31.4316 18.478 31.432 18.5125 31.4211 18.5441C31.4102 18.5758 31.3887 18.6027 31.3602 18.6202C31.3175 18.6514 31.2708 18.6767 31.2213 18.6952C31.0745 18.7595 30.9266 18.8223 30.779 18.8851L30.7689 18.8897C30.7203 18.9108 30.7203 18.9108 30.7384 18.9619C30.83 19.2216 30.9401 19.4743 31.0509 19.7257C31.2123 20.0916 31.3935 20.4478 31.5848 20.7988C31.6195 20.8613 31.6543 20.9231 31.6928 20.9828C31.7183 21.0186 31.7361 21.0593 31.7452 21.1023C31.752 21.1273 31.7514 21.1536 31.7435 21.1783C31.7356 21.2029 31.7208 21.2247 31.7008 21.2412C31.6805 21.257 31.6562 21.2668 31.6307 21.2696C31.6051 21.2725 31.5793 21.2681 31.556 21.2571C31.5104 21.2375 31.4719 21.2045 31.4456 21.1623C31.4001 21.0957 31.3637 21.0242 31.3244 20.954Z" fill="#231F56"/>
<path d="M31.1104 25.9708C31.1899 26.1101 31.2392 26.2646 31.2552 26.4242C31.2591 26.4642 31.2602 26.5045 31.2587 26.5447C31.2581 26.6768 31.2099 26.8043 31.123 26.9039C31.0361 27.0035 30.9163 27.0685 30.7855 27.087C30.6205 27.1157 30.4508 27.0949 30.2977 27.0273C30.2377 27.0018 30.1839 26.9638 30.1398 26.9159C30.0957 26.868 30.0623 26.8113 30.0418 26.7495C30.014 26.6716 30.001 26.5892 30.0032 26.5065C30.0008 26.4123 30.0304 26.32 30.0871 26.2448C30.1439 26.1696 30.2245 26.1158 30.3157 26.0923C30.3727 26.0719 30.4337 26.0652 30.4938 26.0728C30.5286 26.076 30.5616 26.0895 30.5886 26.1117C30.6062 26.1252 30.6192 26.1438 30.6259 26.1648C30.6327 26.1859 30.6329 26.2086 30.6264 26.2298C30.6205 26.2512 30.6081 26.2702 30.591 26.2843C30.5738 26.2984 30.5528 26.3069 30.5306 26.3086C30.5108 26.311 30.4907 26.311 30.4709 26.3086C30.438 26.3066 30.405 26.3113 30.374 26.3225C30.3429 26.3336 30.3145 26.351 30.2904 26.3735C30.2627 26.3981 30.2456 26.4324 30.2425 26.4693C30.2314 26.5476 30.2428 26.6275 30.2754 26.6995C30.2922 26.7407 30.3229 26.7746 30.3622 26.7953C30.4351 26.8358 30.5162 26.8594 30.5995 26.8642C30.6827 26.8691 30.766 26.8552 30.8431 26.8235C30.8866 26.8057 30.9249 26.7773 30.9546 26.7409C30.9843 26.7045 31.0045 26.6613 31.0132 26.6151C31.0193 26.5903 31.0229 26.565 31.024 26.5395C31.0303 26.344 30.9666 26.1527 30.8445 25.9999C30.7489 25.8825 30.6139 25.8038 30.4647 25.7784C30.3838 25.7633 30.3014 25.7575 30.2192 25.7611C30.13 25.7632 30.0404 25.7666 29.9512 25.768C29.8853 25.7699 29.8195 25.7633 29.7554 25.7482C29.6886 25.7346 29.6273 25.7016 29.5791 25.6534C29.531 25.6052 29.4981 25.5439 29.4845 25.4771C29.4569 25.3394 29.4687 25.1968 29.5188 25.0656C29.5688 24.9344 29.6549 24.8201 29.7672 24.7358C29.8158 24.7005 29.8724 24.6776 29.932 24.6694C29.9915 24.6612 30.0522 24.6679 30.1086 24.6887C30.165 24.7096 30.2153 24.7441 30.2551 24.7892C30.295 24.8342 30.323 24.8884 30.3369 24.9469C30.3438 24.9717 30.3451 24.9976 30.3407 25.0229C30.3365 25.0465 30.3251 25.0681 30.3081 25.0848C30.291 25.1016 30.2692 25.1126 30.2456 25.1163C30.2228 25.1197 30.1996 25.1161 30.1789 25.1058C30.1583 25.0956 30.1414 25.0792 30.1303 25.0591C30.1204 25.0395 30.1125 25.0191 30.1067 24.9979C30.102 24.9782 30.0926 24.9599 30.0792 24.9446C30.0659 24.9293 30.049 24.9175 30.0301 24.9101C30.0112 24.9028 29.9908 24.9002 29.9706 24.9025C29.9505 24.9047 29.9312 24.9119 29.9144 24.9233C29.8805 24.9417 29.8507 24.9666 29.8265 24.9966C29.739 25.1017 29.6958 25.2368 29.7061 25.3733C29.7127 25.475 29.7495 25.5121 29.8498 25.5264C29.9097 25.533 29.9701 25.5347 30.0303 25.5316C30.1178 25.5291 30.2039 25.5257 30.2931 25.5257C30.4158 25.525 30.5377 25.5458 30.6532 25.5871C30.8468 25.6558 31.0092 25.792 31.1104 25.9708Z" fill="#231F56"/>
<path d="M30.063 20.6879C30.0459 20.6821 30.0275 20.6809 30.0098 20.6845C29.9164 20.6853 29.8239 20.6654 29.739 20.6261C29.6793 20.6001 29.6266 20.5604 29.5851 20.5101C29.5437 20.4598 29.5147 20.4005 29.5005 20.3369C29.4515 20.1576 29.4637 19.967 29.5352 19.7953C29.5666 19.7186 29.6185 19.6521 29.6853 19.6031C29.7521 19.5541 29.8311 19.5245 29.9137 19.5176C29.9893 19.5074 30.0662 19.5172 30.1368 19.5462C30.2073 19.5751 30.2691 19.6221 30.3157 19.6825C30.3443 19.7163 30.3619 19.7579 30.3664 19.8019C30.3711 19.8321 30.3643 19.8629 30.3472 19.8882C30.3301 19.9135 30.3041 19.9315 30.2744 19.9384C30.2464 19.9441 30.2172 19.9392 30.1926 19.9245C30.168 19.9099 30.1497 19.8866 30.1414 19.8592C30.1249 19.8236 30.0978 19.794 30.0638 19.7744C30.0298 19.7548 29.9906 19.7462 29.9515 19.7498C29.9101 19.7513 29.8698 19.7642 29.8353 19.7871C29.8007 19.81 29.7732 19.8421 29.7557 19.8797C29.6962 20.0128 29.6883 20.1633 29.7335 20.3019C29.7424 20.33 29.758 20.3555 29.779 20.3763C29.8 20.397 29.8257 20.4123 29.8539 20.421C29.9291 20.4511 30.0116 20.4573 30.0904 20.4387C30.1379 20.4261 30.1863 20.417 30.2352 20.4116C30.2624 20.4084 30.29 20.4092 30.3171 20.414C30.3395 20.4169 30.3608 20.4256 30.379 20.4391C30.3971 20.4526 30.4115 20.4706 30.4207 20.4912C30.4299 20.5119 30.4337 20.5345 30.4317 20.5571C30.4297 20.5796 30.4219 20.6012 30.4091 20.6199C30.396 20.6396 30.3815 20.6584 30.3657 20.6761C30.2677 20.7923 30.1955 20.9279 30.1539 21.074C30.1248 21.1807 30.1339 21.2942 30.1796 21.3948C30.1966 21.442 30.2295 21.4817 30.2727 21.507C30.3159 21.5324 30.3666 21.5418 30.416 21.5337C30.4644 21.5288 30.511 21.513 30.5523 21.4873C30.5935 21.4617 30.6284 21.427 30.6542 21.3858C30.6979 21.3162 30.7359 21.2432 30.7677 21.1674C30.7767 21.1455 30.7875 21.1244 30.8 21.1042C30.8138 21.0824 30.8345 21.0659 30.8589 21.0575C30.8832 21.049 30.9097 21.0491 30.934 21.0577C30.9592 21.0671 30.9802 21.0849 30.9937 21.108C31.0072 21.1312 31.0123 21.1583 31.008 21.1848C31.0066 21.1974 31.0035 21.2097 30.999 21.2216C30.9568 21.3346 30.9008 21.442 30.8323 21.5413C30.7883 21.6034 30.7318 21.6555 30.6663 21.6943C30.6009 21.7331 30.5281 21.7578 30.4525 21.7667C30.3485 21.7833 30.242 21.763 30.1514 21.7093C30.0608 21.6557 29.9918 21.5721 29.9564 21.4729C29.8926 21.3184 29.8849 21.1465 29.9345 20.9869C29.9605 20.9013 29.9954 20.8187 30.0386 20.7404C30.0519 20.7258 30.0604 20.7075 30.063 20.6879Z" fill="#231F56"/>
<path d="M31.4801 24.9352C31.5393 25.0167 31.5682 25.1162 31.5618 25.2166C31.5555 25.3171 31.5143 25.4122 31.4454 25.4855C31.3808 25.5537 31.2953 25.5983 31.2024 25.6123C31.1298 25.6246 31.0555 25.6221 30.9839 25.605C30.9123 25.5878 30.8449 25.5563 30.7858 25.5124C30.7267 25.4685 30.6771 25.4131 30.64 25.3496C30.6029 25.286 30.579 25.2156 30.5698 25.1425C30.5636 25.0917 30.5665 25.0402 30.5785 24.9904C30.5893 24.947 30.6281 24.9231 30.6479 24.8884C30.6677 24.8537 30.6681 24.8113 30.6976 24.7811C30.7177 24.7597 30.7411 24.7417 30.767 24.728C30.8724 24.6623 30.9987 24.6391 31.1206 24.6629C31.2424 24.6868 31.3507 24.7559 31.4236 24.8564C31.4472 24.8859 31.468 24.9182 31.4801 24.9352ZM31.2902 25.0776C31.2714 25.045 31.2494 25.0143 31.2246 24.9859C31.2015 24.9581 31.1729 24.9353 31.1406 24.919C31.1082 24.9028 31.0728 24.8934 31.0367 24.8915C31.0005 24.8896 30.9644 24.8952 30.9305 24.908C30.8967 24.9208 30.8658 24.9405 30.8399 24.9658C30.832 24.9731 30.8208 24.979 30.8191 24.9904C30.8058 25.0397 30.8019 25.0911 30.8077 25.1418C30.8261 25.2219 30.8753 25.2915 30.9446 25.3355C31.0139 25.3796 31.0978 25.3945 31.1781 25.3772C31.2059 25.3714 31.2319 25.3594 31.2544 25.342C31.2768 25.3247 31.295 25.3024 31.3075 25.277C31.3201 25.2516 31.3267 25.2237 31.3269 25.1953C31.3271 25.167 31.3209 25.1389 31.3086 25.1134C31.302 25.0981 31.2934 25.0838 31.2902 25.0776Z" fill="#231F56"/>
<path d="M32.7963 24.4905C32.8299 24.5446 32.8507 24.6056 32.8571 24.669C32.8634 24.7324 32.8552 24.7964 32.833 24.856C32.8107 24.9157 32.7751 24.9695 32.7289 25.0133C32.6826 25.057 32.6269 25.0896 32.5661 25.1085C32.4673 25.1428 32.3606 25.1474 32.2592 25.1217C32.1659 25.1002 32.0831 25.0466 32.0252 24.9703C31.9548 24.8773 31.904 24.771 31.8759 24.6578C31.8668 24.6366 31.864 24.6132 31.868 24.5905C31.8719 24.5677 31.8824 24.5466 31.8981 24.5297C31.9394 24.4902 31.971 24.4416 31.9901 24.3877C32.0277 24.3174 32.0893 24.2628 32.1637 24.2339C32.2137 24.2113 32.2677 24.1987 32.3226 24.197C32.3775 24.1953 32.4321 24.2044 32.4835 24.2239C32.6132 24.2776 32.7227 24.3709 32.7963 24.4905ZM32.5935 24.6079C32.5465 24.5359 32.4797 24.479 32.4012 24.444C32.3773 24.4347 32.3517 24.4304 32.3261 24.4313C32.3005 24.4323 32.2754 24.4385 32.2522 24.4495C32.235 24.4557 32.2199 24.4668 32.2089 24.4815C32.1979 24.4962 32.1915 24.5138 32.1904 24.5322C32.1901 24.5514 32.1852 24.5702 32.176 24.5871C32.1668 24.604 32.1536 24.6184 32.1377 24.629C32.1341 24.631 32.1309 24.6337 32.1284 24.6369C32.1259 24.6402 32.1241 24.6439 32.1231 24.6479C32.122 24.6518 32.1219 24.656 32.1225 24.66C32.1232 24.6641 32.1247 24.6679 32.1269 24.6714C32.1472 24.724 32.1739 24.7739 32.2064 24.82C32.2373 24.8613 32.2832 24.889 32.3342 24.8971C32.3881 24.9074 32.4438 24.9027 32.4953 24.8835C32.522 24.8747 32.5464 24.8598 32.5666 24.8401C32.5867 24.8204 32.6021 24.7964 32.6116 24.7698C32.621 24.7433 32.6243 24.7149 32.6211 24.6869C32.6179 24.6589 32.6083 24.632 32.5932 24.6082L32.5935 24.6079Z" fill="#231F56"/>
<path d="M30.0928 23.788C29.996 23.412 29.931 23.0401 29.855 22.67C29.8483 22.6434 29.8439 22.6162 29.8418 22.5888C29.8378 22.5665 29.8424 22.5436 29.8547 22.5246C29.8671 22.5057 29.8862 22.4921 29.9081 22.4867C29.9304 22.4822 29.9535 22.486 29.9731 22.4976C29.9927 22.5091 30.0072 22.5275 30.014 22.5492C30.0296 22.5911 30.0413 22.6343 30.0487 22.6784C30.1084 22.9853 30.1616 23.2936 30.2359 23.5974C30.2629 23.7078 30.2879 23.8182 30.3136 23.9286C30.3226 23.9655 30.3251 24.0037 30.3209 24.0414C30.3203 24.064 30.3134 24.086 30.301 24.1048C30.2886 24.1237 30.2712 24.1387 30.2507 24.1483C30.2302 24.1578 30.2075 24.1614 30.185 24.1587C30.1626 24.156 30.1414 24.1472 30.1237 24.1331C30.0838 24.1054 30.0486 24.0714 30.0196 24.0324C29.8984 23.8788 29.7888 23.7163 29.6918 23.5463C29.6704 23.5068 29.6419 23.4715 29.6078 23.4422C29.6446 23.6095 29.6821 23.7765 29.7175 23.9446C29.7317 24.0119 29.7422 24.0796 29.7522 24.1473C29.7557 24.1711 29.7569 24.1952 29.7557 24.2192C29.758 24.2452 29.7519 24.2713 29.7382 24.2935C29.7245 24.3157 29.704 24.3329 29.6797 24.3424C29.6566 24.3505 29.6316 24.3509 29.6082 24.3437C29.5849 24.3365 29.5644 24.3221 29.5498 24.3025C29.5154 24.2642 29.4834 24.2237 29.454 24.1813C29.2837 23.9273 29.1277 23.664 28.9867 23.3925C28.9211 23.2717 28.8572 23.1495 28.7926 23.0287C28.7813 23.0116 28.7719 22.9933 28.7645 22.9742C28.7577 22.9562 28.7572 22.9364 28.7632 22.9182C28.7692 22.8999 28.7813 22.8843 28.7975 22.8738C28.8142 22.8614 28.8349 22.8553 28.8557 22.8566C28.8766 22.8579 28.8963 22.8666 28.9113 22.8811C28.9402 22.9112 28.9631 22.9466 28.9787 22.9853C29.1294 23.271 29.2794 23.5575 29.447 23.8335C29.4654 23.8701 29.4913 23.9024 29.5231 23.9283C29.4911 23.7814 29.4609 23.6505 29.4345 23.5203C29.3975 23.3386 29.3622 23.1565 29.3287 22.9738C29.3215 22.9333 29.3188 22.8921 29.3207 22.8509C29.32 22.8301 29.3266 22.8098 29.3393 22.7933C29.3519 22.7767 29.3699 22.7651 29.3901 22.7603C29.4104 22.755 29.4318 22.7564 29.4512 22.7642C29.4707 22.772 29.4871 22.7859 29.4981 22.8037C29.5129 22.8269 29.5256 22.8513 29.5363 22.8766C29.6817 23.1767 29.8471 23.4667 30.0314 23.7446C30.0376 23.7561 30.0463 23.766 30.057 23.7735C30.0677 23.781 30.0799 23.786 30.0928 23.788Z" fill="#67BFA8"/>
<path d="M30.4931 23.2391C30.4375 23.0693 30.3816 22.8995 30.3268 22.7294C30.3132 22.6871 30.3018 22.6436 30.2921 22.6003C30.2633 22.4728 30.2921 22.4086 30.4115 22.3645C30.5549 22.3167 30.701 22.2772 30.849 22.2465C30.8655 22.2414 30.883 22.2404 30.9 22.2434C30.917 22.2464 30.9331 22.2534 30.9469 22.2638C30.9597 22.2727 30.9698 22.285 30.9759 22.2993C30.982 22.3136 30.984 22.3293 30.9816 22.3447C30.9792 22.3637 30.9709 22.3814 30.9578 22.3954C30.9447 22.4093 30.9275 22.4187 30.9087 22.4221L30.5889 22.502C30.5723 22.5062 30.5542 22.5086 30.5386 22.5138C30.4712 22.535 30.4646 22.5419 30.4844 22.6089C30.5191 22.7211 30.5563 22.8315 30.5903 22.9433C30.6049 22.9905 30.6302 22.9915 30.667 22.97C30.732 22.9315 30.7979 22.8943 30.8632 22.8565C30.8979 22.834 30.9358 22.817 30.9757 22.8061C30.9928 22.7986 31.0119 22.7975 31.0298 22.8029C31.0476 22.8083 31.0629 22.82 31.073 22.8357C31.083 22.8514 31.087 22.8702 31.0844 22.8887C31.0818 22.9071 31.0727 22.924 31.0587 22.9363C31.0383 22.9642 31.0116 22.9869 30.9809 23.0026C30.8969 23.0499 30.8153 23.1002 30.7299 23.145C30.6861 23.1679 30.6674 23.1922 30.6868 23.2422C30.7316 23.3575 30.7715 23.4748 30.8163 23.5894C30.8403 23.6508 30.8434 23.6501 30.9052 23.6175C30.9938 23.5716 31.085 23.5312 31.1784 23.4963C31.2162 23.479 31.2583 23.4733 31.2993 23.48C31.3183 23.482 31.3362 23.4902 31.3501 23.5034C31.364 23.5166 31.3731 23.534 31.376 23.5529C31.3786 23.572 31.3746 23.5913 31.3645 23.6076C31.3544 23.624 31.339 23.6363 31.3208 23.6425C31.2986 23.6519 31.2757 23.6588 31.2514 23.6672C31.1477 23.7039 31.0473 23.7494 30.9514 23.8033C30.9247 23.819 30.8967 23.8323 30.8677 23.8432C30.8523 23.8516 30.8353 23.8566 30.8178 23.8578C30.8003 23.8591 30.7828 23.8566 30.7663 23.8505C30.7499 23.8444 30.7349 23.8349 30.7225 23.8225C30.71 23.8102 30.7004 23.7953 30.6941 23.779C30.666 23.7241 30.6455 23.6654 30.6226 23.6078C30.574 23.4866 30.5257 23.3648 30.4778 23.2439L30.4931 23.2391Z" fill="#67BFA8"/>
<path d="M32.2477 22.459C32.1702 22.2206 32.0928 21.9822 32.0158 21.7438C32.002 21.7122 31.9956 21.6779 31.997 21.6435C31.997 21.6226 32.0045 21.6023 32.0182 21.5865C32.0318 21.5706 32.0506 21.5602 32.0713 21.557C32.0901 21.5536 32.1096 21.5567 32.1265 21.5657C32.1433 21.5747 32.1567 21.5891 32.1644 21.6067C32.1718 21.6222 32.1779 21.6383 32.1824 21.6549C32.3029 22.0715 32.4602 22.4743 32.5897 22.8871C32.6282 23.0093 32.6306 23.0083 32.7452 22.9513C32.8219 22.9131 32.8983 22.8742 32.9757 22.8368C33.0122 22.8166 33.0542 22.8088 33.0955 22.8145C33.1104 22.815 33.1247 22.8199 33.1368 22.8286C33.1489 22.8372 33.1581 22.8493 33.1633 22.8632C33.1685 22.8771 33.1694 22.8922 33.166 22.9067C33.1626 22.9211 33.155 22.9343 33.1441 22.9444C33.1264 22.9656 33.1039 22.9822 33.0785 22.993C32.9521 23.0475 32.8331 23.1152 32.7115 23.1791C32.59 23.243 32.5136 23.2166 32.465 23.0812C32.3911 22.8729 32.3227 22.6645 32.2519 22.4562L32.2477 22.459Z" fill="#67BFA8"/>
<path d="M32.0232 23.4266C31.9718 23.446 31.9196 23.4628 31.8666 23.4769C31.7378 23.5057 31.6812 23.4707 31.6461 23.3436C31.6051 23.1946 31.5676 23.0447 31.526 22.8961C31.4534 22.6381 31.3791 22.3808 31.3052 22.1236C31.2946 22.0945 31.2891 22.0639 31.2889 22.0329C31.2883 22.0138 31.2944 21.9951 31.3061 21.98C31.3178 21.9648 31.3344 21.9542 31.3531 21.95C31.3713 21.9438 31.3912 21.9445 31.409 21.9518C31.4268 21.9592 31.4413 21.9727 31.4499 21.9899C31.4663 22.0232 31.4794 22.0581 31.4888 22.0941C31.5975 22.4593 31.7034 22.8252 31.7978 23.1946C31.802 23.211 31.8076 23.2276 31.811 23.2443C31.8197 23.2832 31.8405 23.295 31.8784 23.279C31.9591 23.2496 32.0377 23.2148 32.1138 23.1748C32.1479 23.1515 32.187 23.1366 32.228 23.1311C32.2425 23.1281 32.2576 23.1295 32.2713 23.1351C32.285 23.1407 32.2968 23.1502 32.3051 23.1625C32.3134 23.1747 32.3179 23.1892 32.318 23.204C32.3182 23.2188 32.3139 23.2333 32.3058 23.2457C32.2882 23.2794 32.2603 23.3068 32.2263 23.3238C32.1609 23.3625 32.0931 23.3968 32.0232 23.4266Z" fill="#67BFA8"/>
<path d="M26.9611 35.6413C26.8848 35.6443 26.8099 35.6198 26.7501 35.5722C26.6903 35.5247 26.6495 35.4573 26.6351 35.3823C26.5976 35.2818 26.544 35.188 26.4764 35.1046C26.1066 34.5973 25.914 33.9824 25.9282 33.3548C25.9269 33.0533 26.0263 32.7601 26.2105 32.5215C26.2674 32.4375 26.3416 32.3666 26.428 32.3134C26.5145 32.2603 26.6112 32.2261 26.7118 32.2132C26.8141 32.2102 26.9158 32.229 27.0103 32.2682C27.1048 32.3074 27.1899 32.3661 27.26 32.4406C27.4529 32.6199 27.5794 32.8593 27.6187 33.1197C27.6305 33.1891 27.6399 33.2586 27.6485 33.328C27.7152 33.2075 27.7986 33.0969 27.8961 32.9996C28.0386 32.861 28.2196 32.7686 28.4154 32.7343C28.6112 32.7 28.8127 32.7254 28.9939 32.8072C29.1086 32.8557 29.2083 32.934 29.2825 33.034C29.3567 33.134 29.4027 33.2521 29.4157 33.3759C29.453 33.6122 29.4306 33.8541 29.3505 34.0796C29.2705 34.305 29.1354 34.5068 28.9574 34.6668C28.9093 34.7124 28.8575 34.7539 28.8026 34.7911C28.2975 35.1338 27.7487 35.4073 27.1708 35.6042C27.1225 35.6208 27.0726 35.6324 27.0219 35.6389C27.0017 35.6409 26.9814 35.6417 26.9611 35.6413ZM26.7552 32.475H26.7323C26.6683 32.486 26.6073 32.5103 26.5532 32.5461C26.499 32.582 26.4529 32.6287 26.4178 32.6833C26.2696 32.8767 26.1901 33.1139 26.1917 33.3575C26.179 33.9285 26.3543 34.4878 26.6907 34.9494C26.7758 35.0566 26.8423 35.1774 26.8875 35.3066C26.908 35.3761 26.9195 35.383 26.9917 35.3761C27.0247 35.3719 27.0573 35.3645 27.0889 35.3539C27.645 35.1642 28.1732 34.9008 28.6592 34.5706C28.7019 34.5414 28.7422 34.5087 28.7797 34.473C28.927 34.3415 29.0386 34.1748 29.104 33.9885C29.1695 33.8022 29.1866 33.6023 29.154 33.4075C29.1461 33.3283 29.1165 33.2528 29.0686 33.1893C29.0206 33.1258 28.9561 33.0767 28.8821 33.0475C28.7502 32.9883 28.6035 32.9701 28.4612 32.9952C28.3188 33.0204 28.1872 33.0877 28.0836 33.1884C28.0029 33.2692 27.9341 33.361 27.8791 33.461C27.8385 33.5342 27.7982 33.6092 27.7555 33.6891L27.6923 33.8068C27.6793 33.8309 27.6592 33.8505 27.6346 33.8626C27.6101 33.8748 27.5823 33.879 27.5553 33.8747C27.5282 33.8704 27.5031 33.8578 27.4836 33.8386C27.464 33.8194 27.4509 33.7945 27.4461 33.7676C27.4427 33.7474 27.4392 33.7297 27.4361 33.7134C27.4298 33.6804 27.4243 33.6519 27.4201 33.6221C27.4128 33.5679 27.4066 33.5138 27.4 33.4596C27.3882 33.3617 27.376 33.2603 27.3597 33.1628C27.3296 32.96 27.2317 32.7735 27.0819 32.6336C26.9968 32.5416 26.8802 32.485 26.7552 32.475Z" fill="#67BFA8"/>
<path d="M25.2314 27.4428C25.1863 27.4426 25.1417 27.4327 25.1008 27.4139C25.0598 27.3951 25.0233 27.3677 24.9937 27.3337C24.9641 27.2996 24.9421 27.2597 24.9292 27.2165C24.9163 27.1733 24.9128 27.1278 24.9189 27.0831L24.9984 26.5082C25 26.4974 24.9984 26.4864 24.9938 26.4766C24.9893 26.4667 24.9819 26.4584 24.9727 26.4526L24.5488 26.186C24.494 26.1517 24.4511 26.1014 24.4258 26.042C24.4005 25.9825 24.3941 25.9168 24.4074 25.8535C24.4207 25.7903 24.453 25.7327 24.5001 25.6885C24.5472 25.6442 24.6067 25.6155 24.6707 25.6062L25.2036 25.528C25.2126 25.5267 25.2212 25.5232 25.2286 25.5178C25.2359 25.5124 25.2419 25.5053 25.246 25.4971L25.615 24.7538C25.6408 24.702 25.6804 24.6582 25.7294 24.6273C25.7783 24.5964 25.8349 24.5796 25.8928 24.5787C25.9507 24.5777 26.0078 24.5927 26.0577 24.622C26.1077 24.6513 26.1486 24.6938 26.1761 24.7448L26.5232 25.3909C26.5286 25.401 26.5369 25.4092 26.547 25.4145C26.5571 25.4197 26.5685 25.4218 26.5798 25.4204L26.984 25.3704C27.0417 25.3634 27.1002 25.3725 27.1531 25.3966C27.206 25.4207 27.2513 25.459 27.2838 25.5071C27.3164 25.5553 27.335 25.6115 27.3377 25.6696C27.3403 25.7277 27.3269 25.7854 27.2989 25.8364L26.9562 26.4571C26.9521 26.4644 26.9498 26.4726 26.9493 26.4809C26.9488 26.4893 26.9502 26.4976 26.9534 26.5054L27.0923 26.8526C27.1158 26.9114 27.121 26.976 27.1073 27.0379C27.0937 27.0998 27.0617 27.1561 27.0155 27.1996C26.9694 27.2431 26.9113 27.2717 26.8487 27.2817C26.7861 27.2917 26.7219 27.2826 26.6646 27.2557L26.0851 26.9821C26.0765 26.978 26.0669 26.9762 26.0574 26.9768C26.0479 26.9774 26.0387 26.9804 26.0306 26.9855L25.4015 27.39C25.351 27.4236 25.292 27.4419 25.2314 27.4428ZM25.898 24.8389C25.8876 24.8387 25.8773 24.8416 25.8685 24.8471C25.8597 24.8527 25.8527 24.8607 25.8483 24.8701L25.4793 25.6131C25.4568 25.6591 25.4235 25.6989 25.3823 25.7291C25.341 25.7594 25.2931 25.7791 25.2425 25.7867L24.7095 25.8648C24.698 25.8662 24.6871 25.8712 24.6787 25.8792C24.6702 25.8872 24.6646 25.8978 24.6627 25.9093C24.6598 25.9205 24.6606 25.9324 24.6651 25.9432C24.6697 25.9539 24.6776 25.9628 24.6877 25.9686L25.1116 26.2353C25.163 26.2677 25.204 26.3142 25.2297 26.3693C25.2553 26.4244 25.2646 26.4858 25.2564 26.546L25.1765 27.1213C25.1751 27.132 25.1768 27.1428 25.1813 27.1526C25.1858 27.1624 25.1931 27.1706 25.2022 27.1764C25.2112 27.1822 25.2218 27.1853 25.2325 27.1853C25.2433 27.1853 25.2539 27.1823 25.263 27.1765L25.8921 26.772C25.937 26.7429 25.9887 26.7257 26.0422 26.7222C26.0957 26.7187 26.1492 26.7289 26.1976 26.7519L26.777 27.0255C26.7873 27.0304 26.7988 27.0321 26.8101 27.0304C26.8214 27.0286 26.8318 27.0235 26.8401 27.0157C26.8484 27.0078 26.8541 26.9977 26.8565 26.9865C26.8589 26.9754 26.8578 26.9638 26.8534 26.9533L26.7146 26.6061C26.697 26.5627 26.6894 26.5159 26.6922 26.4692C26.695 26.4224 26.7082 26.3769 26.7309 26.336L27.0735 25.7152C27.0788 25.7062 27.0814 25.6959 27.081 25.6855C27.0805 25.6751 27.0771 25.665 27.0711 25.6565C27.0654 25.6477 27.0574 25.6407 27.0478 25.6363C27.0383 25.6319 27.0277 25.6304 27.0173 25.6319L26.6132 25.6818C26.55 25.6901 26.4858 25.6788 26.4292 25.6495C26.3726 25.6202 26.3263 25.5743 26.2965 25.518L25.9494 24.8719C25.9452 24.8617 25.9381 24.853 25.9289 24.847C25.9198 24.841 25.9089 24.8379 25.898 24.8382V24.8389Z" fill="#FCE469"/>
<path d="M15.6446 35.4315C15.6445 35.4234 15.6464 35.4155 15.65 35.4083C15.6536 35.4011 15.6589 35.3949 15.6654 35.3901L16.0508 35.1124C16.0972 35.0793 16.1323 35.0328 16.1514 34.9791C16.1704 34.9254 16.1725 34.8672 16.1574 34.8123C16.1422 34.7573 16.1105 34.7084 16.0666 34.6721C16.0227 34.6358 15.9687 34.6139 15.9119 34.6093L15.4724 34.5722C15.4626 34.5712 15.4534 34.5674 15.4458 34.5612C15.4382 34.555 15.4326 34.5468 15.4297 34.5374L15.2599 34.0556C15.2423 34.0052 15.2107 33.961 15.1687 33.9281C15.1268 33.8953 15.0762 33.8752 15.0231 33.8703C14.9701 33.8654 14.9167 33.8759 14.8694 33.9005C14.8221 33.9251 14.7829 33.9628 14.7565 34.009L14.4277 34.5802C14.4235 34.5874 14.4176 34.5935 14.4104 34.5978C14.4032 34.6021 14.3951 34.6045 14.3867 34.6048L13.8225 34.6249C13.7814 34.6264 13.7411 34.6369 13.7045 34.6558C13.6679 34.6747 13.636 34.7015 13.6111 34.7343C13.6687 34.7855 13.7275 34.8345 13.7875 34.8815C13.791 34.873 13.797 34.8658 13.8046 34.8607C13.8123 34.8556 13.8213 34.853 13.8305 34.853L14.3947 34.8329C14.4418 34.8312 14.4877 34.8176 14.5281 34.7933C14.5685 34.769 14.602 34.7349 14.6256 34.694L14.9547 34.1233C14.9594 34.115 14.9664 34.1083 14.9749 34.1039C14.9833 34.0995 14.9929 34.0977 15.0023 34.0985C15.0118 34.0994 15.0208 34.103 15.0283 34.1089C15.0358 34.1147 15.0415 34.1226 15.0446 34.1316L15.2147 34.6142C15.2326 34.6647 15.2646 34.7089 15.307 34.7416C15.3493 34.7743 15.4003 34.7941 15.4536 34.7985L15.8931 34.8357C15.9033 34.8365 15.9129 34.8405 15.9207 34.847C15.9286 34.8535 15.9342 34.8622 15.9369 34.872C15.9396 34.8818 15.9392 34.8922 15.9358 34.9018C15.9324 34.9114 15.9261 34.9197 15.9178 34.9256L15.5321 35.2034L15.5224 35.2106C15.4887 35.2371 15.4617 35.271 15.4433 35.3097C15.4249 35.3483 15.4157 35.3907 15.4165 35.4335L15.4203 35.6849C15.4957 35.706 15.5722 35.7256 15.6498 35.7439L15.6446 35.4315Z" fill="#231F56"/>
<path d="M22.4085 33.5441C22.4042 33.5478 22.4008 33.5525 22.3985 33.5577C22.3961 33.5629 22.3949 33.5685 22.395 33.5743C22.3655 33.7248 22.3555 33.8784 22.3651 34.0315C22.369 34.0583 22.3684 34.0855 22.3634 34.1121C22.3582 34.1379 22.3448 34.1614 22.3252 34.1789C22.3055 34.1964 22.2807 34.2071 22.2544 34.2093C22.2282 34.2114 22.2019 34.205 22.1797 34.1909C22.1574 34.1768 22.1404 34.1558 22.1311 34.1311C22.1212 34.104 22.1157 34.0754 22.1148 34.0464C22.1046 33.8881 22.1134 33.7291 22.1412 33.5729C22.1471 33.5382 22.1533 33.5034 22.1596 33.4663C22.1676 33.4198 22.1679 33.4194 22.1283 33.3996C21.9964 33.333 21.862 33.2715 21.727 33.2111C21.5082 33.1132 21.2826 33.0316 21.0607 32.9413C21.0302 32.9305 21.0012 32.9155 20.9746 32.8969C20.9479 32.8794 20.9287 32.8524 20.9209 32.8215C20.9131 32.7905 20.9171 32.7577 20.9323 32.7296C20.9484 32.702 20.9746 32.6817 21.0053 32.6731C21.0361 32.6644 21.069 32.668 21.0972 32.683C21.4589 32.8313 21.8263 32.9702 22.179 33.1365C22.1901 33.1417 22.2019 33.1455 22.2137 33.15C22.2307 33.1385 22.2287 33.1205 22.2318 33.1059C22.2734 32.9087 22.3189 32.7118 22.3738 32.5178C22.3859 32.4737 22.3859 32.473 22.3439 32.4525L21.8422 32.2112C21.7054 32.1459 21.5725 32.0723 21.4402 32.0005C21.4128 31.9867 21.388 31.9683 21.3669 31.9459C21.3473 31.9244 21.3357 31.8968 21.334 31.8678C21.3323 31.8387 21.3406 31.8099 21.3576 31.7862C21.3752 31.763 21.4007 31.7469 21.4292 31.7409C21.4578 31.7349 21.4876 31.7394 21.5131 31.7536C21.5357 31.7647 21.5568 31.779 21.5787 31.7915C21.8544 31.9449 22.1401 32.0789 22.4272 32.2081C22.4686 32.2268 22.4689 32.2261 22.5005 32.1879L22.504 32.1838C22.5209 32.159 22.5454 32.1403 22.5738 32.1306C22.6023 32.1209 22.633 32.1207 22.6616 32.13C22.6876 32.1446 22.7082 32.167 22.7207 32.1941C22.7331 32.2211 22.7368 32.2514 22.731 32.2806C22.7258 32.3452 22.7255 32.3459 22.7866 32.3733C23.1536 32.5369 23.5195 32.7028 23.8913 32.8552C23.9781 32.89 24.0649 32.9247 24.1552 32.9518C24.1899 32.9617 24.2219 32.9793 24.2489 33.0031C24.2643 33.0159 24.2765 33.0321 24.2844 33.0505C24.2923 33.0688 24.2957 33.0888 24.2943 33.1088C24.293 33.1287 24.2869 33.148 24.2766 33.1652C24.2663 33.1823 24.252 33.1967 24.2351 33.2073C24.2124 33.2222 24.1869 33.2324 24.1601 33.2372C24.1334 33.242 24.106 33.2412 24.0795 33.2351C24.0199 33.223 23.9617 33.2046 23.9059 33.1802C23.6226 33.0674 23.3504 32.934 23.0727 32.8032C22.9425 32.741 22.813 32.6778 22.6831 32.615L22.6689 32.608C22.6456 32.5941 22.6342 32.6018 22.6258 32.6268C22.6116 32.6771 22.5963 32.7271 22.5821 32.7775C22.5404 32.9229 22.5026 33.0694 22.4675 33.2167C22.4561 33.2635 22.4561 33.2642 22.5022 33.2861C22.8467 33.4467 23.1913 33.6072 23.5362 33.7676C23.5917 33.7933 23.649 33.8152 23.7046 33.8406C23.7413 33.8561 23.7741 33.8799 23.8004 33.91C23.8133 33.9229 23.8228 33.9387 23.8281 33.9561C23.8335 33.9735 23.8345 33.9919 23.8311 34.0098C23.8276 34.0277 23.8199 34.0445 23.8085 34.0587C23.7971 34.0728 23.7824 34.084 23.7657 34.0912C23.7253 34.112 23.6794 34.1198 23.6344 34.1134C23.5809 34.1059 23.5287 34.0906 23.4796 34.068C23.3699 34.0218 23.2633 33.9694 23.1567 33.9159L22.4623 33.5687C22.446 33.5574 22.4277 33.5491 22.4085 33.5441Z" fill="#231F56"/>
<path d="M23.6428 31.0159C23.3688 30.8778 23.1188 30.6967 22.9022 30.4795C22.7914 30.3657 22.6958 30.238 22.6179 30.0997C22.5681 30.014 22.5349 29.9198 22.52 29.8219C22.5038 29.7505 22.5139 29.6757 22.5485 29.6111C22.583 29.5466 22.6397 29.4967 22.7081 29.4706C22.7737 29.4401 22.8447 29.4229 22.917 29.4199C22.9892 29.4169 23.0614 29.4282 23.1293 29.4532C23.1955 29.4715 23.2572 29.5033 23.3105 29.5466C23.3303 29.5623 23.3476 29.5809 23.3619 29.6018C23.3773 29.6238 23.385 29.6503 23.3838 29.6771C23.3825 29.704 23.3723 29.7297 23.3549 29.7501C23.3374 29.7705 23.3136 29.7846 23.2873 29.79C23.261 29.7955 23.2336 29.7921 23.2095 29.7802C23.1933 29.7726 23.1782 29.7628 23.1647 29.7511C23.0971 29.6988 23.014 29.6707 22.9286 29.6712C22.885 29.6703 22.842 29.6817 22.8047 29.7042C22.7916 29.7101 22.7809 29.72 22.7742 29.7326C22.7674 29.7451 22.7649 29.7596 22.7672 29.7737C22.7737 29.8274 22.789 29.8798 22.8126 29.9285C22.8481 30.0019 22.8907 30.0717 22.9397 30.1368C23.0813 30.3241 23.2546 30.4851 23.4518 30.6125C23.6649 30.758 23.8969 30.8737 24.1413 30.9565C24.2486 30.9935 24.3601 31.0169 24.4733 31.026C24.5198 31.0311 24.567 31.0272 24.6121 31.0145C24.6441 31.0041 24.6468 30.9926 24.6333 30.9621C24.6157 30.9306 24.5921 30.9029 24.5639 30.8805C24.481 30.811 24.3936 30.7472 24.3021 30.6895C24.1743 30.6055 24.0434 30.526 23.9108 30.4489C23.9 30.4427 23.8886 30.4368 23.8778 30.4305C23.8598 30.4191 23.8469 30.4232 23.8431 30.4444C23.8393 30.4656 23.8337 30.4902 23.8296 30.5139C23.8271 30.5281 23.8271 30.5427 23.825 30.5569C23.8226 30.5858 23.8099 30.613 23.7893 30.6335C23.7687 30.6539 23.7415 30.6664 23.7126 30.6687C23.6825 30.6702 23.6529 30.6609 23.6291 30.6425C23.6053 30.6241 23.5889 30.5978 23.5827 30.5684C23.575 30.5294 23.5757 30.4893 23.5848 30.4507C23.6019 30.3659 23.6261 30.2827 23.6574 30.2021C23.7001 30.0777 23.7505 29.956 23.8084 29.8379C23.834 29.7823 23.8664 29.73 23.9049 29.6823C23.9329 29.646 23.9733 29.6213 24.0184 29.6129C24.0383 29.6079 24.0592 29.6086 24.0788 29.6149C24.0983 29.6212 24.1157 29.6328 24.129 29.6484C24.1423 29.664 24.1509 29.6831 24.154 29.7034C24.157 29.7237 24.1543 29.7444 24.1462 29.7632C24.1373 29.7888 24.1245 29.813 24.1083 29.8348C24.0452 29.9291 23.993 30.0303 23.9528 30.1365C23.9382 30.1712 23.9386 30.1712 23.9719 30.191C24.1534 30.2951 24.3307 30.4056 24.5038 30.5225C24.5902 30.5781 24.6722 30.6403 24.7489 30.7086C24.7991 30.7528 24.8398 30.8068 24.8683 30.8673C24.8868 30.9027 24.897 30.9417 24.8985 30.9816C24.8999 31.0214 24.8924 31.0611 24.8765 31.0977C24.8606 31.1343 24.8368 31.1669 24.8067 31.1931C24.7767 31.2193 24.7411 31.2385 24.7027 31.2492C24.6236 31.2747 24.54 31.2837 24.4573 31.2756C24.2973 31.262 24.14 31.2256 23.9903 31.1676C23.8713 31.1247 23.7552 31.074 23.6428 31.0159Z" fill="#231F56"/>
<path d="M22.5823 31.9265C22.4452 31.8571 22.3153 31.7772 22.1845 31.6977C22.1522 31.6783 22.1192 31.6595 22.0869 31.6404C22.0698 31.6318 22.0548 31.6196 22.0428 31.6047C22.0308 31.5898 22.0222 31.5725 22.0175 31.554C22.0131 31.535 22.0134 31.5153 22.0183 31.4965C22.0232 31.4777 22.0326 31.4603 22.0457 31.4459C22.0587 31.4315 22.0751 31.4204 22.0933 31.4137C22.1115 31.4069 22.1311 31.4047 22.1504 31.4071C22.1879 31.4126 22.2236 31.4267 22.2546 31.4484C22.3706 31.5179 22.4858 31.5873 22.6018 31.6568C22.8032 31.7768 23.0213 31.8664 23.2489 31.9224C23.3312 31.9435 23.4162 31.9517 23.501 31.9467C23.5298 31.9449 23.5582 31.9397 23.5857 31.931C23.6083 31.9237 23.6131 31.9109 23.602 31.8904C23.5833 31.8574 23.5599 31.8272 23.5326 31.8008C23.4635 31.7323 23.3887 31.6697 23.309 31.6137C23.0421 31.4202 22.768 31.2377 22.4865 31.0662C22.4632 31.0528 22.441 31.0375 22.4202 31.0204C22.3974 31.0023 22.3814 30.977 22.3751 30.9486C22.3688 30.9202 22.3724 30.8905 22.3855 30.8645C22.4006 30.8385 22.4247 30.819 22.4532 30.8095C22.4817 30.8 22.5127 30.8013 22.5403 30.8131C22.559 30.8194 22.577 30.8278 22.5938 30.8381C22.9063 31.0277 23.2111 31.2294 23.5052 31.4471C23.5794 31.5011 23.6491 31.5611 23.7135 31.6266C23.7557 31.6684 23.7921 31.7158 23.8215 31.7675C23.8457 31.8028 23.861 31.8435 23.8658 31.886C23.8706 31.9286 23.8649 31.9717 23.8491 32.0115C23.8333 32.0513 23.8079 32.0866 23.7753 32.1143C23.7426 32.142 23.7036 32.1612 23.6617 32.1702C23.5891 32.1923 23.5133 32.2019 23.4375 32.1987C23.2934 32.1922 23.151 32.1646 23.0149 32.1168C22.9274 32.0886 22.8416 32.0554 22.758 32.0171C22.7011 31.9897 22.6427 31.9571 22.5823 31.9265Z" fill="#231F56"/>
<path d="M20.2093 35.0086C20.1097 34.9589 20.0093 34.911 19.9111 34.8596C19.8388 34.8218 19.7468 34.7839 19.7961 34.6801C19.8454 34.5763 19.943 34.5999 20.0267 34.6402C20.1468 34.6982 20.2641 34.7614 20.3822 34.8242C20.4863 34.8798 20.5929 34.9339 20.6947 34.9947C20.7551 35.0294 20.8009 35.0846 20.7658 35.1606C20.7585 35.178 20.7475 35.1935 20.7334 35.2061C20.7194 35.2187 20.7028 35.2281 20.6848 35.2335C20.6667 35.2389 20.6477 35.2402 20.629 35.2374C20.6104 35.2346 20.5926 35.2277 20.577 35.2172C20.4489 35.1592 20.3242 35.0929 20.1982 35.0301L20.2093 35.0086Z" fill="#67BFA8"/>
<path d="M19.4208 35.9569C19.3694 36.0555 19.2722 36.0611 19.2208 35.9798C19.2009 35.9485 19.189 35.9127 19.1861 35.8757C19.1746 35.6614 19.1666 35.4476 19.1586 35.2334C19.1559 35.1591 19.1812 35.0962 19.2628 35.0875C19.2814 35.0845 19.3005 35.0858 19.3186 35.0911C19.3367 35.0965 19.3534 35.1058 19.3674 35.1185C19.3814 35.1312 19.3923 35.1468 19.3995 35.1643C19.4066 35.1818 19.4097 35.2006 19.4086 35.2195C19.4225 35.4406 19.4288 35.6621 19.4357 35.8836C19.434 35.9086 19.429 35.9333 19.4208 35.9569Z" fill="#67BFA8"/>
<path d="M18.5386 33.9692C18.4691 33.9265 18.3587 33.8633 18.2542 33.7925C18.1969 33.7536 18.1501 33.696 18.191 33.6231C18.2003 33.6066 18.2131 33.5924 18.2284 33.5814C18.2437 33.5703 18.2613 33.5627 18.2798 33.5591C18.2984 33.5555 18.3175 33.5559 18.3358 33.5603C18.3542 33.5648 18.3714 33.5732 18.3862 33.5849C18.5875 33.6974 18.7875 33.8133 18.9861 33.9303C18.9998 33.9374 19.0119 33.9471 19.0219 33.9589C19.0318 33.9706 19.0393 33.9842 19.044 33.9989C19.0487 34.0136 19.0504 34.029 19.0491 34.0443C19.0478 34.0597 19.0435 34.0746 19.0364 34.0883C19.0294 34.102 19.0197 34.1141 19.0079 34.1241C18.9962 34.134 18.9825 34.1415 18.9679 34.1462C18.9532 34.1509 18.9378 34.1526 18.9224 34.1513C18.9071 34.15 18.8922 34.1457 18.8785 34.1386C18.7768 34.0914 18.6781 34.0387 18.5386 33.9692Z" fill="#67BFA8"/>
<path d="M19.4584 33.1236C19.5046 33.0403 19.5508 32.9907 19.6292 33.015C19.6583 33.0238 19.6828 33.0436 19.6975 33.0701C19.7123 33.0967 19.716 33.128 19.708 33.1573C19.6869 33.3418 19.6521 33.5245 19.6039 33.7038C19.5827 33.7684 19.5487 33.8368 19.465 33.8211C19.3754 33.8045 19.3525 33.7312 19.3654 33.6496C19.3956 33.4667 19.4289 33.2844 19.4584 33.1236Z" fill="#67BFA8"/>
<path d="M19.9795 34.1574C19.9298 34.1227 19.9003 34.081 19.9277 34.0245C19.9417 33.9904 19.9646 33.9608 19.994 33.9387C20.126 33.8568 20.2607 33.7793 20.3964 33.7036C20.4086 33.695 20.4224 33.689 20.437 33.6857C20.4516 33.6825 20.4666 33.6822 20.4813 33.6849C20.496 33.6876 20.51 33.6932 20.5225 33.7014C20.535 33.7095 20.5457 33.7201 20.5541 33.7325C20.5718 33.7522 20.5817 33.7778 20.5817 33.8043C20.5817 33.8309 20.5718 33.8565 20.5541 33.8762C20.4133 34.0181 20.2361 34.1183 20.042 34.1658C20.0208 34.1672 19.9995 34.1644 19.9795 34.1574Z" fill="#67BFA8"/>
<path d="M18.6172 34.7922C18.5124 34.9043 18.3907 34.9993 18.2565 35.0737C18.2307 35.0897 18.1997 35.095 18.1701 35.0885C18.1405 35.082 18.1145 35.0643 18.0978 35.039C18.0883 35.0273 18.0814 35.0137 18.0775 34.9991C18.0736 34.9845 18.0727 34.9693 18.075 34.9544C18.0772 34.9395 18.0825 34.9252 18.0906 34.9125C18.0986 34.8997 18.1093 34.8888 18.1217 34.8803C18.2217 34.7918 18.3301 34.7123 18.4283 34.622C18.4922 34.5637 18.553 34.5363 18.6214 34.6026C18.6818 34.6592 18.6561 34.7231 18.6172 34.7922Z" fill="#67BFA8"/>
<path d="M19.2251 34.589C19.1966 34.5715 19.1759 34.5437 19.1675 34.5113C19.1591 34.4789 19.1635 34.4445 19.18 34.4154C19.2147 34.346 19.2688 34.3133 19.3404 34.3519C19.3555 34.3589 19.369 34.3692 19.3799 34.3819C19.3907 34.3947 19.3987 34.4096 19.4033 34.4257C19.408 34.4418 19.4091 34.4587 19.4066 34.4752C19.4041 34.4918 19.3981 34.5076 19.389 34.5216C19.383 34.5371 19.374 34.5512 19.3624 34.5631C19.3508 34.5749 19.3369 34.5843 19.3216 34.5906C19.3062 34.5969 19.2897 34.6 19.2732 34.5998C19.2566 34.5995 19.2402 34.5958 19.2251 34.589Z" fill="#67BFA8"/>
<path d="M28.3581 29.4479C28.2678 29.5128 28.1783 29.5792 28.0869 29.642C28.0199 29.6882 27.9432 29.7517 27.8745 29.66C27.8057 29.5684 27.8724 29.4927 27.947 29.4375C28.0543 29.3583 28.1654 29.2837 28.2755 29.2087C28.3734 29.142 28.4709 29.074 28.572 29.0118C28.6317 28.975 28.7011 28.9601 28.7518 29.0264C28.7638 29.041 28.7723 29.058 28.7769 29.0763C28.7815 29.0945 28.7821 29.1136 28.7784 29.132C28.7748 29.1505 28.7672 29.168 28.756 29.1831C28.7449 29.1983 28.7305 29.2108 28.714 29.2198C28.6029 29.3059 28.4865 29.3854 28.372 29.4674L28.3581 29.4479Z" fill="#67BFA8"/>
<path d="M28.8291 30.5873C28.8919 30.679 28.853 30.7679 28.7558 30.7748C28.7189 30.7773 28.682 30.7708 28.6482 30.7557C28.4534 30.6658 28.2607 30.5728 28.0674 30.4801C28.0004 30.4478 27.957 30.3961 27.9865 30.3204C27.9925 30.3025 28.0026 30.2862 28.0158 30.2727C28.029 30.2592 28.0451 30.2488 28.0629 30.2424C28.0807 30.236 28.0996 30.2336 28.1185 30.2355C28.1373 30.2374 28.1554 30.2435 28.1715 30.2534C28.3736 30.3443 28.5722 30.4426 28.7715 30.5398C28.7926 30.5531 28.812 30.5691 28.8291 30.5873Z" fill="#67BFA8"/>
<path d="M26.6582 30.4393C26.5888 30.481 26.4805 30.5487 26.369 30.6088C26.3079 30.6414 26.234 30.657 26.1895 30.5852C26.1793 30.5693 26.1726 30.5514 26.17 30.5327C26.1673 30.514 26.1688 30.4949 26.1742 30.4768C26.1797 30.4587 26.189 30.442 26.2015 30.4279C26.214 30.4137 26.2295 30.4025 26.2468 30.3949C26.4405 30.2695 26.6356 30.1463 26.8322 30.0255C26.8445 30.0167 26.8585 30.0105 26.8733 30.0074C26.8881 30.0042 26.9035 30.0041 26.9183 30.007C26.9332 30.01 26.9473 30.016 26.9597 30.0246C26.9722 30.0332 26.9828 30.0442 26.9908 30.0571C27 30.0692 27.0066 30.083 27.0103 30.0977C27.014 30.1124 27.0147 30.1277 27.0124 30.1427C27.01 30.1577 27.0046 30.172 26.9966 30.1849C26.9885 30.1977 26.9779 30.2088 26.9655 30.2175C26.8783 30.2859 26.7849 30.3484 26.6582 30.4393Z" fill="#67BFA8"/>
<path d="M26.3394 29.2325C26.287 29.1527 26.2651 29.0888 26.3227 29.0308C26.3441 29.0091 26.3731 28.9967 26.4035 28.9961C26.4339 28.9955 26.4634 29.0069 26.4856 29.0277C26.6389 29.1325 26.7844 29.2486 26.9206 29.3749C26.9678 29.4235 27.0126 29.4856 26.9602 29.5516C26.9485 29.5664 26.9338 29.5784 26.917 29.587C26.9002 29.5956 26.8818 29.6004 26.863 29.6012C26.8442 29.602 26.8254 29.5987 26.8079 29.5916C26.7905 29.5845 26.7748 29.5737 26.7619 29.5599C26.6144 29.4471 26.4686 29.3335 26.3394 29.2325Z" fill="#67BFA8"/>
<path d="M27.4979 29.2526C27.4441 29.28 27.3938 29.2873 27.3559 29.2359C27.3322 29.2078 27.3166 29.1737 27.3108 29.1373C27.3004 28.9825 27.2945 28.8273 27.291 28.6721C27.289 28.6573 27.2901 28.6423 27.294 28.6279C27.298 28.6135 27.3048 28.6 27.314 28.5883C27.3232 28.5766 27.3347 28.5668 27.3477 28.5595C27.3607 28.5523 27.3751 28.5477 27.3899 28.5461C27.416 28.5397 27.4435 28.5432 27.4671 28.5561C27.4907 28.5689 27.5086 28.5901 27.5174 28.6155C27.5769 28.8063 27.5828 29.0098 27.5344 29.2036C27.5299 29.2217 27.5094 29.2377 27.4979 29.2526Z" fill="#67BFA8"/>
<path d="M27.4233 30.7539C27.4737 30.8992 27.501 31.0515 27.5041 31.2053C27.5061 31.2356 27.4961 31.2655 27.4763 31.2886C27.4565 31.3117 27.4285 31.3261 27.3983 31.3289C27.3835 31.3317 27.3682 31.3315 27.3535 31.3282C27.3388 31.3249 27.325 31.3186 27.3128 31.3096C27.3007 31.3007 27.2905 31.2893 27.283 31.2763C27.2755 31.2632 27.2707 31.2487 27.2691 31.2337C27.2379 31.1035 27.2174 30.9709 27.184 30.8418C27.1618 30.7577 27.1663 30.6918 27.2569 30.6619C27.3354 30.6352 27.3802 30.6876 27.4233 30.7539Z" fill="#67BFA8"/>
<path d="M27.5271 30.1211C27.4984 30.1379 27.4643 30.143 27.432 30.1353C27.3996 30.1276 27.3715 30.1077 27.3535 30.0797C27.3411 30.0684 27.3316 30.0543 27.3257 30.0386C27.3198 30.0229 27.3177 30.006 27.3195 29.9893C27.3212 29.9727 27.3269 29.9566 27.336 29.9426C27.3451 29.9285 27.3574 29.9167 27.3719 29.9082C27.3852 29.898 27.4005 29.8907 27.4168 29.8869C27.4332 29.8831 27.4501 29.8828 27.4666 29.8861C27.483 29.8894 27.4986 29.8961 27.5122 29.9059C27.5258 29.9158 27.5372 29.9284 27.5455 29.9429C27.5566 29.9556 27.5649 29.9704 27.57 29.9864C27.5751 30.0024 27.5768 30.0193 27.5751 30.036C27.5734 30.0527 27.5682 30.0689 27.56 30.0835C27.5517 30.0982 27.5405 30.1109 27.5271 30.1211Z" fill="#67BFA8"/>
<path d="M17.8436 28.4439C17.9173 28.3934 17.9838 28.3331 18.0414 28.2648C18.0508 28.2539 18.0576 28.241 18.0613 28.2271C18.065 28.2132 18.0654 28.1987 18.0626 28.1846C18.0463 28.0623 18.0403 27.9388 18.0446 27.8155C18.0441 27.7919 18.048 27.7683 18.056 27.7461C18.0642 27.7232 18.0797 27.7037 18.1001 27.6904C18.1205 27.6772 18.1446 27.671 18.1689 27.6728C18.1931 27.6751 18.2158 27.6854 18.2333 27.7023C18.2509 27.7191 18.2622 27.7414 18.2654 27.7655C18.2677 27.7845 18.2684 27.8037 18.2675 27.8228C18.2627 27.9526 18.2711 28.0825 18.2925 28.2106C18.3046 28.2819 18.3295 28.3503 18.3661 28.4127C18.3864 28.4456 18.4134 28.4737 18.4454 28.4954C18.4775 28.517 18.5137 28.5315 18.5518 28.538C18.5606 28.5414 18.5699 28.543 18.5793 28.5427C18.5887 28.5424 18.5979 28.5401 18.6064 28.5361C18.6149 28.5321 18.6226 28.5265 18.6288 28.5195C18.635 28.5124 18.6398 28.5042 18.6428 28.4953C18.6529 28.4771 18.6609 28.4577 18.6667 28.4377C18.6755 28.4103 18.6819 28.3822 18.6858 28.3537C18.7168 28.1181 18.7136 27.8793 18.6761 27.6447C18.6726 27.6256 18.6671 27.6072 18.664 27.5881C18.6583 27.562 18.6622 27.5347 18.6749 27.5112C18.6877 27.4877 18.7084 27.4695 18.7334 27.46C18.7594 27.4514 18.7876 27.4522 18.813 27.4624C18.8384 27.4726 18.8594 27.4914 18.8723 27.5156C18.8897 27.5478 18.9005 27.5832 18.9042 27.6197C18.9368 27.8732 18.9375 28.1298 18.9063 28.3835C18.8981 28.4537 18.8782 28.522 18.8473 28.5856C18.8196 28.6534 18.7674 28.7083 18.7011 28.7394C18.6348 28.7705 18.5592 28.7756 18.4893 28.7536C18.4232 28.7392 18.3608 28.7113 18.306 28.6717C18.2512 28.6321 18.2051 28.5816 18.1706 28.5234C18.1508 28.4912 18.1498 28.4908 18.1227 28.5141C18.046 28.58 17.963 28.6381 17.8748 28.6877C17.8653 28.6921 17.8571 28.6989 17.8511 28.7074C17.845 28.7159 17.8412 28.7259 17.8401 28.7363C17.8325 28.7789 17.8185 28.8201 17.7984 28.8585C17.7607 28.9365 17.6986 29 17.6214 29.0394C17.5443 29.0789 17.4563 29.092 17.371 29.0769C17.2833 29.063 17.201 29.0254 17.133 28.9682C17.065 28.911 17.014 28.8363 16.9853 28.7522C16.9476 28.6495 16.9307 28.5404 16.9357 28.4311C16.9364 28.3476 16.9471 28.2645 16.9676 28.1835C16.9755 28.1418 16.9919 28.1021 17.0156 28.0669C17.0394 28.0317 17.0701 28.0018 17.1058 27.9788C17.1416 27.9559 17.1816 27.9405 17.2235 27.9335C17.2654 27.9266 17.3083 27.9282 17.3495 27.9384C17.462 27.9574 17.5664 28.0089 17.6497 28.0867C17.7331 28.1645 17.7918 28.265 17.8186 28.3759C17.8226 28.3999 17.8311 28.423 17.8436 28.4439ZM17.6005 28.4141C17.5837 28.3606 17.5558 28.3112 17.5186 28.2693C17.4613 28.2079 17.385 28.1678 17.3019 28.1554C17.2481 28.1464 17.2228 28.1641 17.2016 28.2148C17.194 28.2342 17.1908 28.255 17.192 28.2758C17.1933 28.2966 17.199 28.3169 17.2089 28.3353C17.2488 28.4031 17.3069 28.4584 17.3766 28.4949C17.4463 28.5314 17.5248 28.5477 17.6033 28.5418C17.6207 28.5418 17.6252 28.5335 17.6234 28.5175C17.6182 28.4823 17.6101 28.4476 17.5991 28.4137L17.6005 28.4141ZM17.597 28.7661C17.4525 28.7674 17.3109 28.7253 17.1905 28.6453C17.2042 28.702 17.2348 28.7532 17.2783 28.7922C17.3 28.8137 17.3258 28.8306 17.3542 28.8419C17.3826 28.8532 17.413 28.8586 17.4436 28.8578C17.4748 28.8581 17.5055 28.8498 17.5323 28.8338C17.5591 28.8177 17.5809 28.7945 17.5953 28.7668L17.597 28.7661Z" fill="#67BFA8"/>
<path d="M16.5267 28.8366C16.5094 28.8422 16.4942 28.8528 16.483 28.8672C16.429 28.9176 16.3666 28.9581 16.2986 28.987C16.2495 29.0075 16.196 29.0156 16.143 29.0106C16.0899 29.0056 16.0389 28.9876 15.9945 28.9581C15.9085 28.9034 15.8433 28.8215 15.8091 28.7255C15.7778 28.641 15.7563 28.5532 15.7449 28.4637C15.741 28.4302 15.7353 28.397 15.7279 28.3641C15.7202 28.3384 15.7224 28.3107 15.7339 28.2865C15.7455 28.2623 15.7656 28.2432 15.7904 28.2329C15.8158 28.2223 15.8442 28.2212 15.8704 28.2296C15.8967 28.2379 15.9191 28.2553 15.9338 28.2787C15.95 28.3066 15.9587 28.3381 15.9591 28.3704C15.9647 28.4358 15.9757 28.5008 15.9921 28.5644C16.0018 28.6083 16.0178 28.6505 16.0396 28.6898C16.0525 28.7121 16.0689 28.7321 16.0882 28.7491C16.1071 28.7695 16.1325 28.7826 16.16 28.7859C16.1876 28.7893 16.2154 28.7828 16.2386 28.7675C16.3086 28.734 16.367 28.6804 16.4063 28.6134C16.4456 28.5465 16.464 28.4693 16.4591 28.3919C16.4574 28.3678 16.4574 28.3437 16.4591 28.3197C16.4605 28.2923 16.4719 28.2664 16.491 28.2469C16.5102 28.2273 16.5359 28.2154 16.5632 28.2134C16.5899 28.2127 16.6159 28.2212 16.637 28.2375C16.6581 28.2539 16.6729 28.277 16.6788 28.303C16.6823 28.3153 16.6843 28.328 16.6847 28.3408C16.6929 28.4834 16.7119 28.6251 16.7417 28.7648C16.7692 28.9228 16.789 29.0819 16.801 29.2418C16.8045 29.289 16.8052 29.2883 16.8507 29.3022C16.9819 29.3404 17.1096 29.3895 17.2326 29.4491C17.2597 29.4626 17.2862 29.4775 17.3117 29.4938C17.3368 29.5089 17.3566 29.5311 17.3687 29.5577C17.3784 29.5764 17.3826 29.5975 17.3807 29.6185C17.3787 29.6395 17.3709 29.6595 17.3579 29.6761C17.3453 29.693 17.3282 29.7059 17.3085 29.7134C17.2888 29.7209 17.2674 29.7227 17.2468 29.7185C17.2201 29.7132 17.1946 29.7029 17.1718 29.6879C17.0771 29.6339 16.9787 29.5865 16.8774 29.5463C16.8606 29.5369 16.8418 29.5316 16.8226 29.531C16.8164 29.5476 16.8144 29.5655 16.8167 29.5831C16.8146 29.6505 16.8052 29.7174 16.7885 29.7827C16.7694 29.8581 16.7356 29.9289 16.6889 29.991C16.6556 30.0379 16.6092 30.0738 16.5554 30.0942C16.5017 30.1146 16.4432 30.1185 16.3872 30.1056C16.3068 30.0859 16.233 30.0454 16.1732 29.9881C16.1133 29.9309 16.0696 29.859 16.0462 29.7796C16.0263 29.7214 16.024 29.6587 16.0396 29.5992C16.0551 29.5397 16.0879 29.4862 16.1337 29.4452C16.2179 29.3676 16.3212 29.3135 16.433 29.2887C16.4718 29.2785 16.5114 29.2721 16.5514 29.2696C16.5677 29.2696 16.5795 29.2651 16.5778 29.2446C16.5681 29.1078 16.5511 28.9716 16.5267 28.8366ZM16.4344 29.5202C16.3814 29.5389 16.3324 29.5674 16.29 29.6043C16.2738 29.6176 16.2621 29.6357 16.2567 29.656C16.2513 29.6763 16.2524 29.6978 16.2598 29.7174C16.278 29.776 16.3157 29.8265 16.3667 29.8605C16.3789 29.8724 16.3939 29.8811 16.4104 29.8857C16.4268 29.8902 16.4442 29.8906 16.4608 29.8867C16.4774 29.8828 16.4928 29.8747 16.5055 29.8633C16.5182 29.8518 16.5277 29.8374 16.5333 29.8212C16.5396 29.8101 16.5455 29.7987 16.5504 29.7865C16.5837 29.6997 16.5981 29.6068 16.5927 29.514C16.5927 29.4938 16.5816 29.4907 16.5646 29.4921C16.5203 29.4964 16.4766 29.5059 16.4344 29.5202Z" fill="#67BFA8"/>
<path d="M14.299 30.2051C14.2861 30.11 14.2743 30.0145 14.2601 29.9197C14.2307 29.6746 14.2167 29.4278 14.2181 29.1809C14.2156 29.0979 14.2146 29.0143 14.2136 28.9309C14.212 28.9036 14.2155 28.8761 14.224 28.85C14.2311 28.8277 14.2449 28.8081 14.2636 28.7939C14.2822 28.7797 14.3047 28.7715 14.3281 28.7705C14.3516 28.7701 14.3746 28.7767 14.3942 28.7896C14.4138 28.8025 14.429 28.821 14.4378 28.8427C14.45 28.8708 14.4558 28.9011 14.4549 28.9316C14.4549 29.0438 14.4549 29.1563 14.4503 29.2681C14.4452 29.5471 14.4654 29.826 14.5108 30.1013C14.5295 30.2266 14.5476 30.352 14.5597 30.478C14.5637 30.5098 14.5637 30.542 14.5597 30.5738C14.558 30.5988 14.549 30.6227 14.5339 30.6427C14.5188 30.6627 14.4982 30.6778 14.4746 30.6863C14.4517 30.6942 14.4269 30.6955 14.4033 30.6898C14.3797 30.6841 14.3582 30.6718 14.3413 30.6544C14.3167 30.6314 14.2944 30.6059 14.275 30.5783C14.135 30.3888 14.0067 30.1908 13.8907 29.9857C13.7733 29.7833 13.6719 29.5718 13.5581 29.3673C13.5449 29.3437 13.5303 29.3205 13.5178 29.2979C13.5094 29.2856 13.5035 29.2716 13.5006 29.257C13.4977 29.2423 13.4978 29.2272 13.501 29.2126C13.5041 29.198 13.5101 29.1842 13.5187 29.172C13.5273 29.1598 13.5383 29.1494 13.5511 29.1416C13.5638 29.1337 13.578 29.1286 13.5928 29.1264C13.6075 29.1242 13.6226 29.125 13.6371 29.1288C13.6515 29.1326 13.665 29.1393 13.6768 29.1485C13.6886 29.1577 13.6984 29.1692 13.7056 29.1823C13.7443 29.2412 13.7791 29.3025 13.8098 29.366C13.9448 29.6208 14.0747 29.8784 14.2316 30.1211C14.2487 30.153 14.2715 30.1815 14.299 30.2051Z" fill="#67BFA8"/>
<path d="M13.0737 31.3958C13.091 31.3896 13.1059 31.3782 13.1164 31.3632C13.2032 31.2733 13.297 31.1904 13.3969 31.1153C13.4367 31.0853 13.4795 31.0596 13.5247 31.0385C13.5581 31.0225 13.5953 31.0156 13.6323 31.0187C13.6663 31.0213 13.6979 31.037 13.7205 31.0625C13.7368 31.0795 13.7459 31.1022 13.7459 31.1259C13.7459 31.1495 13.7368 31.1722 13.7205 31.1892C13.7021 31.2095 13.679 31.2247 13.6531 31.2337C13.6069 31.252 13.5634 31.2766 13.524 31.3069C13.4236 31.3786 13.3306 31.46 13.2462 31.5499C13.209 31.5898 13.1753 31.6327 13.1455 31.6784C13.1344 31.6991 13.1173 31.716 13.0964 31.7269C13.0756 31.7378 13.0519 31.7422 13.0285 31.7395C13.0053 31.7366 12.9834 31.727 12.9656 31.7119C12.9477 31.6968 12.9346 31.6769 12.9279 31.6544C12.9202 31.635 12.9136 31.6152 12.907 31.5954C12.7156 31.0399 12.5282 30.4822 12.3449 29.9223C12.3248 29.8612 12.304 29.8008 12.2828 29.7401C12.2766 29.7235 12.2725 29.7062 12.2706 29.6887C12.2681 29.6654 12.2733 29.6419 12.2853 29.6218C12.2974 29.6017 12.3156 29.5861 12.3373 29.5772C12.3591 29.5685 12.3831 29.567 12.4057 29.5729C12.4284 29.5788 12.4486 29.5919 12.4633 29.6102C12.4789 29.6291 12.4907 29.6508 12.498 29.6741C12.517 29.7285 12.5355 29.7831 12.5536 29.838C12.7198 30.3435 12.8887 30.8482 13.0605 31.352L13.0737 31.3958Z" fill="#67BFA8"/>
<path d="M14.6554 29.8446C14.6002 29.6596 14.6155 29.4607 14.6985 29.2863C14.739 29.2018 14.8047 29.1319 14.8866 29.0863C14.9214 29.0661 14.9601 29.0534 15.0001 29.0493C15.0402 29.0452 15.0806 29.0497 15.1188 29.0625C15.157 29.0753 15.1919 29.0961 15.2214 29.1235C15.2509 29.1509 15.2742 29.1843 15.2897 29.2214C15.3144 29.2721 15.3271 29.3279 15.3268 29.3843C15.3264 29.4407 15.313 29.4963 15.2876 29.5467C15.256 29.619 15.2072 29.6826 15.1455 29.7318C15.0838 29.781 15.011 29.8145 14.9335 29.8293L14.9148 29.8331C14.8946 29.8363 14.8922 29.8463 14.9012 29.8633C14.9273 29.9155 14.9717 29.9563 15.0258 29.9779C15.0498 29.9867 15.0748 29.9928 15.1002 29.996C15.1763 30.0079 15.254 30.0064 15.3296 29.9915C15.3482 29.9866 15.3674 29.9843 15.3866 29.9849C15.4059 29.9853 15.4247 29.9912 15.4409 30.0017C15.4571 30.0123 15.47 30.0271 15.4782 30.0446C15.4869 30.062 15.4905 30.0814 15.4886 30.1007C15.4868 30.1201 15.4796 30.1385 15.4678 30.1539C15.4566 30.1697 15.4424 30.1831 15.4259 30.1933C15.4094 30.2035 15.3911 30.2103 15.372 30.2133C15.2299 30.243 15.0824 30.2334 14.9453 30.1855C14.8732 30.1561 14.8092 30.1097 14.7588 30.0504C14.7083 29.9911 14.6729 29.9205 14.6554 29.8446ZM14.9331 29.6016C14.9726 29.5856 15.0079 29.5609 15.0365 29.5294C15.0651 29.4979 15.0863 29.4604 15.0984 29.4196C15.1081 29.3848 15.1043 29.3477 15.088 29.3155C15.0853 29.3066 15.0806 29.2984 15.0743 29.2916C15.068 29.2848 15.0602 29.2795 15.0515 29.2762C15.0428 29.2728 15.0335 29.2715 15.0243 29.2723C15.015 29.2731 15.006 29.276 14.9981 29.2808C14.965 29.2971 14.9372 29.3225 14.9179 29.354C14.8792 29.4132 14.8564 29.4814 14.8516 29.5519C14.8467 29.6123 14.8547 29.6193 14.9141 29.6043L14.9331 29.6016Z" fill="#67BFA8"/>
<path d="M12.9681 30.1992C12.9433 30.1255 12.9303 30.0483 12.9296 29.9704C12.9267 29.927 12.939 29.884 12.9643 29.8486C12.9727 29.8368 12.9788 29.8234 12.982 29.8093C12.9905 29.7807 13.0048 29.7542 13.024 29.7315C13.0433 29.7087 13.067 29.6902 13.0938 29.6771C13.1726 29.6355 13.263 29.6214 13.3507 29.6371C13.4388 29.6521 13.5174 29.701 13.5698 29.7732C13.6251 29.8464 13.6634 29.931 13.682 30.0208C13.6998 30.1039 13.7064 30.189 13.7014 30.2739C13.6975 30.3543 13.6748 30.4327 13.6351 30.5027C13.6203 30.5323 13.5997 30.5586 13.5746 30.5801C13.5494 30.6016 13.5202 30.6178 13.4887 30.6278C13.4572 30.6378 13.4239 30.6414 13.391 30.6383C13.3581 30.6353 13.3261 30.6256 13.2969 30.61C13.2359 30.581 13.1815 30.5399 13.1369 30.4891C13.0619 30.4047 13.0046 30.3061 12.9681 30.1992ZM13.1817 30.1347C13.214 30.2286 13.2706 30.3124 13.3455 30.3777C13.4119 30.4315 13.4431 30.4242 13.4636 30.343C13.4835 30.2733 13.4886 30.2003 13.4787 30.1286C13.4688 30.0568 13.444 29.988 13.4059 29.9263C13.3891 29.8957 13.3615 29.8724 13.3285 29.8608C13.2955 29.8493 13.2594 29.8504 13.2271 29.8638C13.2135 29.8678 13.2014 29.8758 13.1924 29.8868C13.1776 29.9036 13.1666 29.9234 13.1602 29.9448C13.1538 29.9663 13.1521 29.9889 13.1553 30.0111C13.1614 30.0527 13.1701 30.094 13.1813 30.1347H13.1817Z" fill="#67BFA8"/>
<path d="M19.1703 28.041C19.1594 28.0038 19.1541 27.9652 19.1546 27.9264C19.1546 27.7565 19.1537 27.5867 19.1519 27.4171C19.1519 27.3577 19.1484 27.2987 19.1474 27.2397C19.1463 27.2221 19.1474 27.2045 19.1505 27.1872C19.1546 27.1658 19.1653 27.1461 19.181 27.1309C19.1967 27.1156 19.2167 27.1056 19.2383 27.1022C19.2606 27.099 19.2834 27.1028 19.3035 27.1129C19.3236 27.1231 19.3401 27.1392 19.3508 27.1591C19.3615 27.179 19.3677 27.2009 19.3692 27.2233C19.3713 27.2487 19.373 27.2744 19.3734 27.3001C19.3771 27.5049 19.3804 27.7099 19.3834 27.9149C19.3851 27.9518 19.381 27.9887 19.3713 28.0243C19.3692 28.0306 19.3671 28.0365 19.365 28.0424C19.3428 28.0976 19.3032 28.1316 19.2609 28.1281C19.2046 28.1236 19.1873 28.0802 19.1703 28.041Z" fill="#67BFA8"/>
<path d="M19.2104 28.7031C19.2082 28.6942 19.2064 28.6852 19.2052 28.6761C19.199 28.6204 19.1962 28.5644 19.1969 28.5084C19.196 28.4874 19.2006 28.4665 19.2103 28.4479C19.22 28.4292 19.2344 28.4134 19.2521 28.4021C19.2685 28.3918 19.2873 28.386 19.3067 28.3853C19.326 28.3847 19.3452 28.3891 19.3623 28.3983C19.3793 28.4075 19.3937 28.4211 19.4038 28.4376C19.4139 28.4541 19.4194 28.473 19.4198 28.4924C19.424 28.5466 19.4243 28.6011 19.425 28.6556C19.425 28.6717 19.4227 28.6877 19.4181 28.7031C19.4126 28.727 19.3995 28.7484 19.3807 28.7641C19.3618 28.7797 19.3384 28.7887 19.3139 28.7896C19.2897 28.788 19.2666 28.7788 19.248 28.7633C19.2294 28.7477 19.2163 28.7267 19.2104 28.7031Z" fill="#67BFA8"/>
<path d="M12.5665 26.2561C12.5608 26.2574 12.5554 26.2594 12.5502 26.262C12.4475 26.329 12.357 26.4129 12.2825 26.5102C12.2273 26.5785 12.1927 26.6611 12.1829 26.7484C12.182 26.7576 12.1802 26.7667 12.1773 26.7755C12.1711 26.7977 12.1576 26.8172 12.1391 26.831C12.1206 26.8448 12.098 26.852 12.0749 26.8515C12.0509 26.8507 12.0278 26.8416 12.0097 26.8258C11.9917 26.81 11.9796 26.7884 11.9756 26.7647C11.9714 26.7406 11.9714 26.7159 11.9756 26.6918C11.9864 26.6205 12.0099 26.5517 12.045 26.4887C12.1027 26.3835 12.1787 26.2895 12.2693 26.2109C12.3812 26.1086 12.5092 26.0253 12.6481 25.9644C12.7169 25.9342 12.7904 25.9162 12.8654 25.9113C12.9036 25.9092 12.9419 25.912 12.9793 25.9197C13.0597 25.9321 13.1327 25.9734 13.1847 26.036C13.2367 26.0985 13.2641 26.1779 13.2616 26.2592C13.2614 26.3283 13.2496 26.3968 13.2269 26.462C13.2041 26.5302 13.1765 26.5966 13.1442 26.6609C13.1351 26.6733 13.1293 26.6877 13.1272 26.7029C13.1387 26.7147 13.1505 26.7053 13.1619 26.7029C13.2215 26.6886 13.2826 26.6819 13.3439 26.6828C13.3975 26.6837 13.4505 26.6947 13.5001 26.7151C13.5522 26.7344 13.5972 26.769 13.6295 26.8142C13.6617 26.8594 13.6797 26.9133 13.681 26.9689C13.6869 27.0599 13.6625 27.1504 13.6115 27.2261C13.5006 27.4033 13.3449 27.5481 13.1602 27.6459C13.0371 27.7078 12.908 27.7568 12.7748 27.792C12.7499 27.7998 12.7236 27.8022 12.6977 27.799C12.674 27.7964 12.6517 27.786 12.6345 27.7694C12.6173 27.7528 12.6061 27.731 12.6026 27.7073C12.5996 27.6836 12.6049 27.6596 12.6176 27.6393C12.6302 27.619 12.6494 27.6037 12.672 27.5959C12.685 27.5912 12.6982 27.5874 12.7116 27.5844C12.8122 27.5581 12.9108 27.5247 13.0067 27.4844C13.0453 27.4685 13.0456 27.4667 13.0293 27.4317C12.979 27.323 12.9394 27.2108 12.8974 27.099C12.887 27.0716 12.8779 27.0543 12.8418 27.0518C12.8266 27.0501 12.812 27.045 12.799 27.0369C12.786 27.0289 12.7749 27.018 12.7665 27.0052C12.7582 26.9924 12.7527 26.9779 12.7506 26.9627C12.7485 26.9475 12.7498 26.9321 12.7543 26.9175C12.7608 26.8955 12.7709 26.8747 12.7842 26.856C12.7892 26.8493 12.7924 26.8413 12.7933 26.8329C12.7942 26.8246 12.7928 26.8161 12.7894 26.8085C12.7167 26.6268 12.6442 26.445 12.5717 26.263C12.5702 26.2605 12.5685 26.2582 12.5665 26.2561ZM13.1196 27.0494C13.1561 27.1332 13.1929 27.217 13.23 27.3008C13.2432 27.3306 13.2466 27.3317 13.2706 27.3088C13.3292 27.2551 13.3812 27.1946 13.4254 27.1286C13.4426 27.1033 13.4555 27.0754 13.4636 27.0459C13.4869 26.9567 13.4567 26.9098 13.3661 26.8991C13.2758 26.8933 13.1855 26.9092 13.1026 26.9452C13.0992 26.9459 13.096 26.9474 13.0933 26.9496C13.0906 26.9518 13.0885 26.9546 13.0872 26.9578C13.0859 26.961 13.0854 26.9645 13.0858 26.9679C13.0862 26.9714 13.0874 26.9747 13.0894 26.9775C13.0991 27.0005 13.1095 27.0244 13.1196 27.0484V27.0494ZM12.9356 26.5842C12.9449 26.5842 12.9477 26.5797 12.9505 26.5741C12.9887 26.5028 13.0183 26.4271 13.0387 26.3488C13.0468 26.3161 13.0496 26.2824 13.047 26.2488C13.0471 26.2225 13.0383 26.1969 13.022 26.1763C13.0056 26.1556 12.9827 26.1412 12.9571 26.1353C12.9098 26.1215 12.8596 26.1215 12.8123 26.1353C12.7578 26.1484 12.7568 26.1491 12.7776 26.2019C12.8255 26.3241 12.8748 26.4449 12.9238 26.5679C12.9272 26.5731 12.9283 26.5814 12.9359 26.5831L12.9356 26.5842Z" fill="#231F56"/>
<path d="M14.9082 25.9682C14.8902 25.9713 14.8801 25.9845 14.8665 25.9911C14.8465 26.0025 14.8231 26.007 14.8003 26.0037C14.7774 26.0004 14.7562 25.9896 14.7402 25.973C14.7245 25.956 14.7148 25.9344 14.7126 25.9114C14.7103 25.8884 14.7156 25.8653 14.7277 25.8456C14.7466 25.818 14.7708 25.7945 14.7988 25.7762C14.8336 25.7501 14.8336 25.7498 14.8186 25.713C14.7808 25.6192 14.7426 25.5262 14.7041 25.4328C14.6919 25.4026 14.6909 25.4026 14.661 25.4182C14.6311 25.4338 14.6023 25.4509 14.5728 25.4668C14.5595 25.4744 14.5456 25.4808 14.5312 25.4859C14.5057 25.4951 14.4777 25.4943 14.4529 25.4836C14.428 25.473 14.4081 25.4534 14.3971 25.4286C14.3866 25.4045 14.3856 25.3772 14.3943 25.3523C14.4031 25.3275 14.421 25.3068 14.4444 25.2946C14.4905 25.2675 14.5374 25.2418 14.5853 25.2175C14.8385 25.0877 15.103 24.9813 15.3755 24.8995C15.4192 24.8856 15.4642 24.8766 15.5099 24.8724C15.5421 24.869 15.5746 24.8759 15.6026 24.8922C15.6213 24.9023 15.6368 24.9173 15.6475 24.9356C15.6582 24.9539 15.6636 24.9748 15.6632 24.996C15.6627 25.0172 15.6564 25.0379 15.6449 25.0557C15.6334 25.0736 15.6172 25.0879 15.5981 25.0971C15.5731 25.1086 15.5465 25.1164 15.5192 25.12C15.3178 25.1605 15.1203 25.2186 14.929 25.2936C14.9217 25.2964 14.9151 25.3002 14.9079 25.3026C14.8891 25.3092 14.8863 25.321 14.8936 25.3373C14.9075 25.3696 14.9204 25.4023 14.9335 25.4349C14.9575 25.4929 14.9811 25.5508 15.0058 25.6085C15.0176 25.6363 15.0193 25.6366 15.0457 25.6217C15.1217 25.579 15.1985 25.5377 15.2776 25.5012C15.3459 25.4668 15.4176 25.4394 15.4915 25.4196C15.5241 25.4106 15.5585 25.4106 15.5911 25.4196C15.6142 25.426 15.6347 25.4392 15.6502 25.4575C15.6656 25.4757 15.6752 25.4982 15.6776 25.522C15.6791 25.5457 15.6732 25.5693 15.6608 25.5895C15.6484 25.6097 15.63 25.6256 15.6081 25.6349C15.5928 25.6417 15.5769 25.6472 15.5606 25.6512C15.4123 25.6948 15.2683 25.7519 15.1304 25.8217C15.0995 25.8362 15.0985 25.8383 15.112 25.871C15.1611 25.9897 15.2104 26.1083 15.2599 26.2268C15.2741 26.2615 15.288 26.2963 15.3016 26.3286C15.3074 26.3427 15.3124 26.3572 15.3165 26.3719C15.3269 26.4011 15.3259 26.4332 15.3138 26.4617C15.3016 26.4902 15.2791 26.5131 15.2509 26.5258C15.2218 26.5364 15.1898 26.5358 15.161 26.5242C15.1323 26.5126 15.1089 26.4908 15.0953 26.4629C15.0791 26.4334 15.0657 26.4025 15.0551 26.3706C15.0134 26.2523 14.9717 26.134 14.9301 26.0157C14.9263 25.9985 14.9189 25.9822 14.9082 25.9682Z" fill="#231F56"/>
<path d="M14.5408 25.6836C14.5474 25.703 14.5482 25.7238 14.543 25.7435C14.5379 25.7633 14.5271 25.7811 14.512 25.7947C14.4954 25.8106 14.4754 25.8224 14.4536 25.8295C14.3254 25.8797 14.2023 25.942 14.086 26.0156C14.0186 26.0544 13.9526 26.0959 13.8881 26.1399C13.8596 26.1593 13.8596 26.16 13.8738 26.1916C13.9016 26.2513 13.929 26.311 13.9575 26.37C13.9717 26.3992 13.9731 26.3999 14.0012 26.3818C14.1106 26.3124 14.2186 26.2388 14.3307 26.1735C14.3637 26.1544 14.3974 26.1364 14.4311 26.118C14.4565 26.1037 14.4852 26.096 14.5144 26.0958C14.5367 26.0949 14.5587 26.1009 14.5776 26.1128C14.5965 26.1247 14.6114 26.142 14.6203 26.1624C14.6285 26.1824 14.6306 26.2044 14.6263 26.2255C14.622 26.2467 14.6114 26.266 14.596 26.2812C14.5765 26.3006 14.5537 26.3164 14.5286 26.3277C14.3863 26.402 14.2468 26.4814 14.1103 26.5659C14.0644 26.594 14.0644 26.5943 14.0873 26.6422C14.1204 26.7117 14.1537 26.7821 14.187 26.8537C14.2015 26.8809 14.2131 26.9095 14.2217 26.9391C14.2302 26.9659 14.2285 26.9948 14.217 27.0204C14.2054 27.0461 14.1849 27.0665 14.1592 27.078C14.1335 27.0889 14.1046 27.0898 14.0783 27.0804C14.052 27.071 14.0302 27.052 14.0172 27.0273C13.9933 26.9846 13.9724 26.9403 13.9547 26.8946C13.9334 26.8472 13.9131 26.7994 13.8936 26.7512C13.8853 26.7311 13.878 26.7193 13.8506 26.7249C13.8281 26.7309 13.8042 26.7288 13.7832 26.7189C13.7621 26.7089 13.7453 26.6919 13.7356 26.6707C13.7254 26.6499 13.7224 26.6263 13.7271 26.6036C13.7319 26.5809 13.744 26.5604 13.7617 26.5454C13.7905 26.5162 13.7905 26.5162 13.7738 26.4811C13.7485 26.4273 13.7242 26.3728 13.6978 26.3194C13.6856 26.295 13.6815 26.294 13.661 26.3114C13.6167 26.344 13.5771 26.3825 13.5433 26.4259C13.5299 26.4477 13.5087 26.4636 13.4841 26.4705C13.4594 26.4774 13.4331 26.4747 13.4103 26.4631C13.388 26.4508 13.3707 26.4312 13.3611 26.4076C13.3516 26.3841 13.3504 26.3579 13.3579 26.3336C13.3681 26.3013 13.3864 26.2721 13.411 26.2489C13.4576 26.2025 13.5072 26.1591 13.5593 26.119C13.5895 26.0947 13.5902 26.094 13.5735 26.059C13.5447 25.9985 13.5141 25.9385 13.4846 25.8781C13.4769 25.8631 13.4703 25.8475 13.4648 25.8316C13.4587 25.8118 13.4587 25.7906 13.4649 25.7709C13.4711 25.7512 13.4832 25.7338 13.4996 25.7211C13.5168 25.7082 13.5376 25.701 13.5591 25.7003C13.5806 25.6997 13.6018 25.7058 13.6197 25.7177C13.6416 25.7321 13.6592 25.7523 13.6704 25.776C13.6964 25.8277 13.7218 25.8802 13.7481 25.9319C13.7655 25.9666 13.7665 25.9666 13.7981 25.944C13.9308 25.8534 14.063 25.7628 14.2033 25.6843C14.2533 25.6552 14.3066 25.6319 14.362 25.6149C14.397 25.603 14.4349 25.603 14.4699 25.6149C14.4861 25.6205 14.5008 25.6295 14.513 25.6414C14.5253 25.6533 14.5347 25.6677 14.5408 25.6836Z" fill="#231F56"/>
<path d="M26.8069 27.2328L25.9389 26.8096L25.1015 27.2904L25.2321 26.3273L24.5193 25.6725L25.4678 25.499L25.8646 24.6133L26.3205 25.4701L27.2784 25.5778L26.6114 26.2791L26.8069 27.2328Z" fill="#FCE469"/>
<path d="M20.7328 39.0504C20.6877 39.0503 20.6432 39.0405 20.6021 39.0217C20.5611 39.0029 20.5246 38.9755 20.495 38.9415C20.4654 38.9074 20.4435 38.8674 20.4306 38.8242C20.4177 38.781 20.4142 38.7355 20.4204 38.6908L20.5002 38.1158C20.5017 38.105 20.5 38.0941 20.4954 38.0842C20.4908 38.0744 20.4834 38.066 20.4742 38.0603L20.0503 37.794C19.9955 37.7597 19.9526 37.7094 19.9273 37.65C19.902 37.5905 19.8956 37.5248 19.9088 37.4615C19.9221 37.3983 19.9545 37.3407 20.0016 37.2965C20.0487 37.2522 20.1082 37.2235 20.1721 37.2142L20.7051 37.1357C20.7141 37.1344 20.7227 37.131 20.7301 37.1256C20.7375 37.1202 20.7434 37.1131 20.7474 37.1048L21.1165 36.3618C21.1421 36.3099 21.1816 36.266 21.2306 36.235C21.2796 36.204 21.3362 36.187 21.3941 36.1861C21.4521 36.1851 21.5092 36.2001 21.5592 36.2295C21.6092 36.2588 21.6501 36.3014 21.6775 36.3525L22.0247 36.9989C22.0301 37.009 22.0383 37.0171 22.0484 37.0223C22.0586 37.0276 22.07 37.0296 22.0813 37.0281L22.4854 36.9784C22.5432 36.9713 22.6018 36.9803 22.6548 37.0044C22.7078 37.0284 22.753 37.0667 22.7856 37.1149C22.8182 37.1631 22.8368 37.2194 22.8394 37.2776C22.842 37.3357 22.8285 37.3934 22.8003 37.4444L22.458 38.0651C22.4539 38.0724 22.4515 38.0806 22.451 38.0889C22.4504 38.0973 22.4517 38.1056 22.4549 38.1134L22.5938 38.4606C22.6173 38.5195 22.6225 38.584 22.6088 38.6459C22.5951 38.7078 22.5631 38.7642 22.517 38.8076C22.4709 38.8511 22.4127 38.8797 22.3501 38.8897C22.2875 38.8997 22.2234 38.8906 22.166 38.8637L21.5866 38.5904C21.5779 38.5863 21.5684 38.5844 21.5589 38.5851C21.5493 38.5857 21.5401 38.5887 21.5321 38.5939L20.903 38.9984C20.8524 39.0317 20.7934 39.0498 20.7328 39.0504ZM21.3991 36.4465C21.3887 36.4464 21.3785 36.4493 21.3697 36.4549C21.3609 36.4604 21.3538 36.4684 21.3494 36.4778L20.9804 37.2211C20.9578 37.2671 20.9245 37.3069 20.8832 37.3371C20.8419 37.3673 20.7939 37.3871 20.7432 37.3947L20.2103 37.4732C20.1988 37.4747 20.188 37.4798 20.1795 37.4878C20.1709 37.4957 20.165 37.5061 20.1626 37.5175C20.1602 37.5288 20.1613 37.5407 20.1659 37.5514C20.1704 37.5621 20.1782 37.5712 20.1881 37.5773L20.612 37.8436C20.6635 37.876 20.7045 37.9225 20.7302 37.9776C20.7559 38.0328 20.7651 38.0941 20.7568 38.1544L20.6773 38.7293C20.6757 38.74 20.6773 38.751 20.6818 38.7608C20.6863 38.7707 20.6935 38.779 20.7027 38.7848C20.7118 38.7907 20.7224 38.7938 20.7332 38.7937C20.7441 38.7936 20.7547 38.7904 20.7637 38.7845L21.3925 38.38C21.4374 38.3508 21.4891 38.3336 21.5427 38.3302C21.5962 38.3267 21.6497 38.3371 21.698 38.3602L22.2778 38.6335C22.2879 38.6387 22.2994 38.6406 22.3106 38.6388C22.3219 38.6371 22.3323 38.6318 22.3403 38.6238C22.349 38.6162 22.355 38.606 22.3575 38.5948C22.36 38.5835 22.3588 38.5718 22.3542 38.5613L22.2153 38.2141C22.1977 38.1707 22.1901 38.124 22.193 38.0773C22.1959 38.0306 22.2092 37.9852 22.232 37.9443L22.5743 37.3235C22.5796 37.3145 22.5822 37.3041 22.5818 37.2937C22.5814 37.2832 22.5779 37.2731 22.5719 37.2645C22.5663 37.2557 22.5583 37.2487 22.5488 37.2444C22.5393 37.24 22.5287 37.2386 22.5184 37.2402L22.1143 37.2899C22.0511 37.2981 21.9869 37.2868 21.9303 37.2575C21.8737 37.2282 21.8274 37.1823 21.7977 37.126L21.4505 36.4799C21.4463 36.4697 21.4392 36.461 21.43 36.4549C21.4209 36.4488 21.4101 36.4457 21.3991 36.4459V36.4465Z" fill="#FCE469"/>
</g>
</g>
<defs>
<filter id="filter0_d_5251_21884" x="4" y="3.69385" width="46.0554" height="41.0024" filterUnits="userSpaceOnUse" color-interpolation-filters="sRGB">
<feFlood flood-opacity="0" result="BackgroundImageFix"/>
<feColorMatrix in="SourceAlpha" type="matrix" values="0 0 0 0 0 0 0 0 0 0 0 0 0 0 0 0 0 0 127 0" result="hardAlpha"/>
<feOffset dy="4"/>
<feComposite in2="hardAlpha" operator="out"/>
<feColorMatrix type="matrix" values="0 0 0 0 0.137255 0 0 0 0 0.121569 0 0 0 0 0.337255 0 0 0 1 0"/>
<feBlend mode="normal" in2="BackgroundImageFix" result="effect1_dropShadow_5251_21884"/>
<feBlend mode="normal" in="SourceGraphic" in2="effect1_dropShadow_5251_21884" result="shape"/>
</filter>
</defs>
</svg>
